<svg xmlns="http://www.w3.org/2000/svg" xmlns:xlink="http://www.w3.org/1999/xlink" width="1277" height="705" viewBox="0 0 1277 705"><title>D:\projects\sumo\rbuild\sumo\tests\sumo\output\examples\cross3ltl_inductloops\cil.svg</title><desc>Creator: GL2PS 1.3.6, (C) 1999-2011 C. Geuzaine For: sumo-gui; http://sumo.sf.net CreationDate: Tue Sep 13 10:57:07 2011</desc><polygon fill="#fff" points="0 0 1277 0 1277 705 0 705"/><g shape-rendering="crispEdges"><polygon fill="#000" points="23.804 682.245 23.981 682.258 24.205 680.631"/><polygon fill="#000" points="118.501 681.356 118.502 682.753 118.875 681.034"/><polygon fill="#000" points="126.852 687.525 124.682 684.009 124.682 687.525"/><polygon fill="#000" points="126.852 687.525 124.687 683.945 124.682 684.009"/><polygon fill="#000" points="126.852 687.525 124.69 683.88 124.687 683.945"/><polygon fill="#000" points="126.852 687.525 124.692 683.847 124.69 683.88"/><polygon fill="#000" points="126.852 687.525 124.694 683.768 124.692 683.847"/><polygon fill="#000" points="126.852 687.525 124.696 683.665 124.694 683.768"/><polygon fill="#000" points="126.852 687.525 124.696 683.604 124.696 683.665"/><polygon fill="#000" points="126.852 687.525 126.244 681.335 125.978 681.077"/><polygon fill="#000" points="126.852 687.525 126.633 682.013 126.244 681.335"/><polygon fill="#000" points="126.852 687.525 126.827 682.897 126.633 682.013"/><polygon fill="#000" points="126.852 687.525 126.852 683.417 126.827 682.897"/><polygon fill="#000" points="122.508 687.525 120.339 684.009 120.339 687.525"/><polygon fill="#000" points="122.508 687.525 120.746 680.672 120.339 684.009"/><polygon fill="#000" points="122.508 687.525 121.227 680.834 120.746 680.672"/><polygon fill="#000" points="122.508 687.525 121.447 680.955 121.227 680.834"/><polygon fill="#000" points="122.508 687.525 121.835 681.268 121.447 680.955"/><polygon fill="#000" points="122.508 687.525 122.14 681.668 121.835 681.268"/><polygon fill="#000" points="122.614 681.447 122.525 683.848 122.637 683.227"/><polygon fill="#000" points="122.614 681.447 122.508 684.212 122.525 683.848"/><polygon fill="#000" points="122.262 681.9 122.508 684.212 122.614 681.447"/><polygon fill="#000" points="122.262 681.9 122.508 687.525 122.508 684.212"/><polygon fill="#000" points="122.14 681.668 122.508 687.525 122.262 681.9"/><polygon fill="#000" points="123.015 681.089 123.356 682.326 123.234 680.946"/><polygon fill="#000" points="123.015 681.089 122.999 682.569 123.356 682.326"/><polygon fill="#000" points="123.015 681.089 122.854 682.751 122.999 682.569"/><polygon fill="#000" points="123.015 681.089 122.637 683.227 122.854 682.751"/><polygon fill="#000" points="123.015 681.089 122.614 681.447 122.637 683.227"/><polygon fill="#000" points="123.702 680.736 123.804 682.245 124.205 680.631"/><polyline fill="none" stroke="#000" stroke-width="1" points="12.77 697.511 112.77 697.511"/><polyline fill="none" stroke="#000" stroke-width="1" points="12.77 697.511 12.77 690.021"/><polyline fill="none" stroke="#000" stroke-width="1" points="112.77 697.511 112.77 690.021"/><polygon fill="#000" points="14.38 683.04 14.342 682.185 14.226 684.663"/><polygon fill="#000" points="14.226 684.663 14.342 682.185 14.034 680.721"/><polygon fill="#000" points="14.226 684.663 14.034 680.721 13.764 685.959"/><polygon fill="#000" points="13.764 685.959 14.034 680.721 13.417 679.586"/><polygon fill="#000" points="13.764 685.959 13.417 679.586 13.417 686.485"/><polygon fill="#000" points="13.417 686.485 13.417 679.586 12.999 679.149"/><polygon fill="#000" points="13.417 686.485 12.999 679.149 12.516 687.262"/><polygon fill="#000" points="12.516 687.262 12.999 679.149 12.062 683.021"/><polygon fill="#000" points="12.516 687.262 12.062 683.021 12.049 683.663"/><polygon fill="#000" points="11.744 680.646 11.858 680.961 11.969 678.567"/><polygon fill="#000" points="11.969 678.567 11.858 680.961 12.011 681.832"/><polygon fill="#000" points="11.969 678.567 12.011 681.832 12.999 679.149"/><polygon fill="#000" points="12.999 679.149 12.011 681.832 12.062 683.021"/><polygon fill="#000" points="10.151 680.067 10.68 679.957 10.68 678.373"/><polygon fill="#000" points="10.68 678.373 10.68 679.957 10.961 679.984"/><polygon fill="#000" points="10.68 678.373 10.961 679.984 11.969 678.567"/><polygon fill="#000" points="11.969 678.567 10.961 679.984 11.422 680.205"/><polygon fill="#000" points="11.969 678.567 11.422 680.205 11.744 680.646"/><polygon fill="#000" points="10.003 678.421 8.841 678.81 9.41 681.357"/><polygon fill="#000" points="10.003 678.421 9.41 681.357 9.614 680.646"/><polygon fill="#000" points="10.003 678.421 9.614 680.646 9.759 680.398"/><polygon fill="#000" points="10.003 678.421 9.759 680.398 10.151 680.067"/><polygon fill="#000" points="10.003 678.421 10.151 680.067 10.68 678.373"/><polygon fill="#000" points="8.841 678.81 7.941 679.586 8.358 686.922"/><polygon fill="#000" points="8.841 678.81 8.358 686.922 9.389 687.505"/><polygon fill="#000" points="8.841 678.81 9.389 687.505 9.295 683.021"/><polygon fill="#000" points="8.841 678.81 9.295 683.021 9.308 682.386"/><polygon fill="#000" points="8.841 678.81 9.308 682.386 9.41 681.357"/><polygon fill="#000" points="12.516 687.262 12.049 683.663 11.947 684.705"/><polygon fill="#000" points="12.516 687.262 11.947 684.705 11.742 685.424"/><polygon fill="#000" points="12.516 687.262 11.742 685.424 11.597 685.676"/><polygon fill="#000" points="12.516 687.262 11.597 685.676 11.357 687.65"/><polygon fill="#000" points="11.597 685.676 11.206 686.011 11.357 687.65"/><polygon fill="#000" points="11.357 687.65 11.206 686.011 10.68 686.123"/><polygon fill="#000" points="11.357 687.65 10.68 686.123 10.68 687.699"/><polygon fill="#000" points="10.68 687.699 10.68 686.123 10.399 686.095"/><polygon fill="#000" points="10.68 687.699 10.399 686.095 9.937 685.872"/><polygon fill="#000" points="9.614 685.424 9.499 685.105 9.389 687.505"/><polygon fill="#000" points="9.614 685.424 9.389 687.505 10.68 687.699"/><polygon fill="#000" points="9.614 685.424 10.68 687.699 9.937 685.872"/><polygon fill="#000" points="9.347 684.224 9.295 683.021 9.389 687.505"/><polygon fill="#000" points="9.347 684.224 9.389 687.505 9.499 685.105"/><polygon fill="#000" points="6.976 683.04 7.015 683.892 7.131 681.412"/><polygon fill="#000" points="7.131 681.412 7.015 683.892 7.324 685.352"/><polygon fill="#000" points="7.131 681.412 7.324 685.352 7.594 680.113"/><polygon fill="#000" points="7.594 680.113 7.324 685.352 7.941 686.485"/><polygon fill="#000" points="7.594 680.113 7.941 686.485 7.941 679.586"/><polygon fill="#000" points="7.941 679.586 7.941 686.485 8.358 686.922"/><polygon fill="#000" points="15.995 680.781 18.165 687.525 18.165 680.781"/><polygon fill="#000" points="18.165 680.781 18.165 687.525 18.165 684.207"/><polygon fill="#000" points="18.165 680.781 18.165 684.207 18.165 681.769"/><polygon fill="#000" points="18.165 681.769 18.165 684.207 18.178 683.846"/><polygon fill="#000" points="18.165 681.769 18.178 683.846 18.501 681.356"/><polygon fill="#000" points="18.501 681.356 18.178 683.846 18.286 683.23"/><polygon fill="#000" points="18.501 681.356 18.286 683.23 18.502 682.753"/><polygon fill="#000" points="19.644 682.258 19.944 682.361 19.969 680.63"/><polygon fill="#000" points="19.969 680.63 19.944 682.361 20.146 682.566"/><polygon fill="#000" points="19.969 680.63 20.146 682.566 20.213 680.618"/><polygon fill="#000" points="20.213 680.618 20.146 682.566 20.215 682.727"/><polygon fill="#000" points="20.213 680.618 20.215 682.727 20.746 680.672"/><polygon fill="#000" points="20.746 680.672 20.215 682.727 20.308 683.24"/><polygon fill="#000" points="20.746 680.672 20.308 683.24 20.339 684.009"/><polygon fill="#000" points="18.502 682.753 18.648 682.57 18.875 681.034"/><polygon fill="#000" points="18.875 681.034 18.648 682.57 19.008 682.326"/><polygon fill="#000" points="18.875 681.034 19.008 682.326 19.076 680.907"/><polygon fill="#000" points="19.076 680.907 19.008 682.326 19.458 682.245"/><polygon fill="#000" points="19.076 680.907 19.458 682.245 19.506 680.722"/><polygon fill="#000" points="19.506 680.722 19.458 682.245 19.644 682.258"/><polygon fill="#000" points="19.506 680.722 19.644 682.258 19.969 680.63"/><polygon fill="#000" points="25.314 680.733 24.471 680.618 24.484 682.566"/><polygon fill="#000" points="25.314 680.733 24.484 682.566 24.56 682.711"/><polygon fill="#000" points="25.314 680.733 24.56 682.711 24.662 683.094"/><polygon fill="#000" points="25.314 680.733 24.662 683.094 24.696 683.604"/><polygon fill="#000" points="25.314 680.733 24.696 683.604 26.852 687.525"/><polygon fill="#000" points="25.314 680.733 26.852 687.525 25.978 681.077"/><polygon fill="#000" points="118.165 687.525 115.995 680.781 115.995 687.525"/><polygon fill="#000" points="24.205 680.631 23.981 682.258 24.274 682.361"/><polygon fill="#000" points="24.205 680.631 24.274 682.361 24.471 680.618"/><polygon fill="#000" points="24.471 680.618 24.274 682.361 24.484 682.566"/><polygon fill="#000" points="23.702 680.736 23.234 680.946 23.356 682.326"/><polygon fill="#000" points="23.702 680.736 23.356 682.326 23.804 682.245"/><polygon fill="#000" points="23.702 680.736 23.804 682.245 24.205 680.631"/><polygon fill="#000" points="23.015 681.089 22.614 681.447 22.637 683.227"/><polygon fill="#000" points="23.015 681.089 22.637 683.227 22.854 682.751"/><polygon fill="#000" points="23.015 681.089 22.854 682.751 22.999 682.569"/><polygon fill="#000" points="23.015 681.089 22.999 682.569 23.356 682.326"/><polygon fill="#000" points="23.015 681.089 23.356 682.326 23.234 680.946"/><polygon fill="#000" points="22.14 681.668 22.508 687.525 22.262 681.9"/><polygon fill="#000" points="22.262 681.9 22.508 687.525 22.508 684.212"/><polygon fill="#000" points="22.262 681.9 22.508 684.212 22.614 681.447"/><polygon fill="#000" points="22.614 681.447 22.508 684.212 22.525 683.848"/><polygon fill="#000" points="22.614 681.447 22.525 683.848 22.637 683.227"/><polygon fill="#000" points="22.508 687.525 22.14 681.668 21.835 681.268"/><polygon fill="#000" points="22.508 687.525 21.835 681.268 21.448 680.955"/><polygon fill="#000" points="22.508 687.525 21.448 680.955 21.227 680.834"/><polygon fill="#000" points="22.508 687.525 21.227 680.834 20.746 680.672"/><polygon fill="#000" points="22.508 687.525 20.746 680.672 20.339 684.009"/><polygon fill="#000" points="22.508 687.525 20.339 684.009 20.339 687.525"/><polygon fill="#000" points="26.852 687.525 26.852 683.417 26.827 682.897"/><polygon fill="#000" points="26.852 687.525 26.827 682.897 26.633 682.013"/><polygon fill="#000" points="26.852 687.525 26.633 682.013 26.244 681.335"/><polygon fill="#000" points="26.852 687.525 26.244 681.335 25.978 681.077"/><polygon fill="#000" points="26.852 687.525 24.696 683.604 24.696 683.665"/><polygon fill="#000" points="26.852 687.525 24.696 683.665 24.694 683.768"/><polygon fill="#000" points="26.852 687.525 24.694 683.768 24.692 683.847"/><polygon fill="#000" points="26.852 687.525 24.692 683.847 24.69 683.88"/><polygon fill="#000" points="26.852 687.525 24.69 683.88 24.687 683.945"/><polygon fill="#000" points="26.852 687.525 24.687 683.945 24.682 684.009"/><polygon fill="#000" points="26.852 687.525 24.682 684.009 24.682 687.525"/><polygon fill="#000" points="18.501 681.356 18.502 682.753 18.875 681.034"/><polygon fill="#000" points="18.165 687.525 15.995 680.781 15.995 687.525"/><polygon fill="#000" points="109.879 680.112 109.879 685.922 112.073 685.922"/><polygon fill="#000" points="109.879 680.112 112.073 685.922 112.073 678.536"/><polygon fill="#000" points="109.879 680.112 112.073 678.536 109.869 678.536"/><polygon fill="#000" points="109.879 680.112 109.869 678.536 107.777 678.97"/><polygon fill="#000" points="109.879 680.112 107.777 678.97 107.777 680.545"/><polygon fill="#000" points="114.121 687.525 114.121 685.922 112.073 685.922"/><polygon fill="#000" points="114.121 687.525 112.073 685.922 109.879 685.922"/><polygon fill="#000" points="114.121 687.525 109.879 685.922 107.831 685.922"/><polygon fill="#000" points="114.121 687.525 107.831 685.922 107.831 687.525"/><polygon fill="#000" points="115.995 680.781 118.165 687.525 118.165 680.781"/><polygon fill="#000" points="118.165 680.781 118.165 687.525 118.165 684.207"/><polygon fill="#000" points="118.165 680.781 118.165 684.207 118.165 681.769"/><polygon fill="#000" points="118.165 681.769 118.165 684.207 118.178 683.846"/><polygon fill="#000" points="118.165 681.769 118.178 683.846 118.501 681.356"/><polygon fill="#000" points="118.501 681.356 118.178 683.846 118.286 683.23"/><polygon fill="#000" points="118.501 681.356 118.286 683.23 118.502 682.753"/><polygon fill="#000" points="119.644 682.258 119.944 682.361 119.969 680.63"/><polygon fill="#000" points="119.969 680.63 119.944 682.361 120.146 682.566"/><polygon fill="#000" points="119.969 680.63 120.146 682.566 120.213 680.618"/><polygon fill="#000" points="120.213 680.618 120.146 682.566 120.215 682.727"/><polygon fill="#000" points="120.213 680.618 120.215 682.727 120.746 680.672"/><polygon fill="#000" points="120.746 680.672 120.215 682.727 120.308 683.24"/><polygon fill="#000" points="120.746 680.672 120.308 683.24 120.339 684.009"/><polygon fill="#000" points="118.502 682.753 118.648 682.57 118.875 681.034"/><polygon fill="#000" points="118.875 681.034 118.648 682.57 119.008 682.326"/><polygon fill="#000" points="118.875 681.034 119.008 682.326 119.077 680.907"/><polygon fill="#000" points="119.077 680.907 119.008 682.326 119.458 682.245"/><polygon fill="#000" points="119.077 680.907 119.458 682.245 119.506 680.722"/><polygon fill="#000" points="119.506 680.722 119.458 682.245 119.644 682.258"/><polygon fill="#000" points="119.506 680.722 119.644 682.258 119.969 680.63"/><polygon fill="#000" points="125.314 680.733 124.471 680.618 124.484 682.566"/><polygon fill="#000" points="125.314 680.733 124.484 682.566 124.56 682.711"/><polygon fill="#000" points="125.314 680.733 124.56 682.711 124.662 683.094"/><polygon fill="#000" points="125.314 680.733 124.662 683.094 124.696 683.604"/><polygon fill="#000" points="125.314 680.733 124.696 683.604 126.852 687.525"/><polygon fill="#000" points="125.314 680.733 126.852 687.525 125.978 681.077"/><polygon fill="#000" points="123.804 682.245 123.981 682.258 124.205 680.631"/><polygon fill="#000" points="124.205 680.631 123.981 682.258 124.274 682.361"/><polygon fill="#000" points="124.205 680.631 124.274 682.361 124.471 680.618"/><polygon fill="#000" points="124.471 680.618 124.274 682.361 124.484 682.566"/><polygon fill="#000" points="123.702 680.736 123.234 680.946 123.356 682.326"/><polygon fill="#000" points="123.702 680.736 123.356 682.326 123.804 682.245"/><polygon fill="#fff" points="0 191.131 1277 181.579 0 181.579"/><polygon fill="#fff" points="0 191.131 1277 200.011 1277 181.579"/><polygon fill="#fff" points="0 523.421 1277 200.011 0 191.131"/><polygon fill="#fff" points="0 523.421 1277 523.421 1277 200.011"/><polygon fill="#fff" points="1277 0 0 191.638 1277 191.638"/><polygon fill="#fff" points="1277 0 0 0 0 191.638"/><polygon fill="#000" points="1277 45.87 1056.01 121.258 1277 121.258"/><polygon fill="#000" points="1277 0 1227.82 0 1277 45.87"/><polygon fill="#000" points="1277 45.87 1227.82 0 1056.01 0"/><polygon fill="#000" points="1277 45.87 1056.01 0 1056.01 121.258"/><polygon fill="#000" points="20.559 0 0 121.258 150.561 121.258"/><polygon fill="#000" points="20.559 0 0 0 0 121.258"/><polygon fill="#000" points="150.561 0 20.559 0 150.561 121.258"/><polygon fill="#000" points="624.191 0 452.377 121.258 754.193 121.258"/><polygon fill="#000" points="624.191 0 452.377 0 452.377 121.258"/><polygon fill="#000" points="754.193 0 624.191 0 754.193 121.258"/><polygon fill="#000" points="0 513.366 1277 208.981 0 200.623"/><polygon fill="#000" points="0 200.623 1277 208.981 1277 191.634"/><polygon fill="#000" points="0 200.623 1277 191.634 0 191.634"/><polygon fill="#000" points="1277 0 0 181.583 1277 181.583"/><polygon fill="#000" points="1277 0 0 0 0 181.583"/><polygon fill="#000" points="0 513.366 1277 513.366 1277 208.981"/><polygon fill="#ff0" points="839.707 453.042 839.707 251.958 437.285 251.958"/><polygon fill="#ff0" points="437.285 453.042 839.707 453.042 437.285 251.958"/><polyline fill="none" stroke="#fff" stroke-width="1" points="437.285 251.958 437.285 453.042 839.707 453.042"/><polyline fill="none" stroke="#ff0" stroke-width="1" points="447.346 352.5 829.646 352.5"/><polyline fill="none" stroke="#fff" stroke-width="1" points="638.496 181.579 638.496 523.421"/><polyline fill="none" stroke="#fff" stroke-width="1" points="839.707 251.958 437.285 251.958"/><polyline fill="none" stroke="#fff" stroke-width="1" points="839.707 453.042 839.707 251.958"/></g></svg>