<svg xmlns="http://www.w3.org/2000/svg" xmlns:xlink="http://www.w3.org/1999/xlink" width="1277" height="705" viewBox="0 0 1277 705"><title>D:\projects\sumo\rbuild\sumo\tests\sumo\output\examples\cross3ltl_inductloops\so.svg</title><desc>Creator: GL2PS 1.3.6, (C) 1999-2011 C. Geuzaine For: sumo-gui; http://sumo.sf.net CreationDate: Tue Sep 13 11:02:41 2011</desc><polygon fill="#fff" points="0 0 1277 0 1277 705 0 705"/><g shape-rendering="crispEdges"><polygon fill="#000" points="82.75 687.525 80.581 680.781 80.581 687.525"/><polygon fill="#000" points="83.086 681.356 83.087 682.753 83.46 681.034"/><polygon fill="#000" points="91.437 687.525 89.268 684.009 89.268 687.525"/><polygon fill="#000" points="91.437 687.525 89.272 683.945 89.268 684.009"/><polygon fill="#000" points="91.437 687.525 89.275 683.88 89.272 683.945"/><polygon fill="#000" points="91.437 687.525 89.277 683.847 89.275 683.88"/><polygon fill="#000" points="91.437 687.525 89.279 683.768 89.277 683.847"/><polygon fill="#000" points="91.437 687.525 89.281 683.665 89.279 683.768"/><polygon fill="#000" points="91.437 687.525 89.281 683.604 89.281 683.665"/><polygon fill="#000" points="91.437 687.525 90.829 681.335 90.563 681.077"/><polygon fill="#000" points="91.437 687.525 91.218 682.013 90.829 681.335"/><polygon fill="#000" points="91.437 687.525 91.412 682.897 91.218 682.013"/><polygon fill="#000" points="91.437 687.525 91.437 683.417 91.412 682.897"/><polygon fill="#000" points="87.093 687.525 84.924 684.009 84.924 687.525"/><polygon fill="#000" points="87.093 687.525 85.332 680.672 84.924 684.009"/><polygon fill="#000" points="87.093 687.525 85.812 680.834 85.332 680.672"/><polygon fill="#000" points="87.093 687.525 86.033 680.955 85.812 680.834"/><polygon fill="#000" points="87.093 687.525 86.42 681.268 86.033 680.955"/><polygon fill="#000" points="87.093 687.525 86.725 681.668 86.42 681.268"/><polygon fill="#000" points="87.199 681.447 87.111 683.848 87.223 683.227"/><polygon fill="#000" points="87.199 681.447 87.093 684.212 87.111 683.848"/><polygon fill="#000" points="86.847 681.9 87.093 684.212 87.199 681.447"/><polygon fill="#000" points="86.847 681.9 87.093 687.525 87.093 684.212"/><polygon fill="#000" points="86.725 681.668 87.093 687.525 86.847 681.9"/><polygon fill="#000" points="87.6 681.089 87.942 682.326 87.819 680.946"/><polygon fill="#000" points="87.6 681.089 87.584 682.569 87.942 682.326"/><polygon fill="#000" points="87.6 681.089 87.439 682.751 87.584 682.569"/><polygon fill="#000" points="87.6 681.089 87.223 683.227 87.439 682.751"/><polygon fill="#000" points="87.6 681.089 87.199 681.447 87.223 683.227"/><polygon fill="#000" points="88.287 680.736 88.389 682.245 88.79 680.631"/><polygon fill="#000" points="88.287 680.736 87.942 682.326 88.389 682.245"/><polygon fill="#000" points="88.287 680.736 87.819 680.946 87.942 682.326"/><polyline fill="none" stroke="#000" stroke-width="1" points="12.77 697.511 68.77 697.511"/><polyline fill="none" stroke="#000" stroke-width="1" points="12.77 697.511 12.77 690.021"/><polyline fill="none" stroke="#000" stroke-width="1" points="68.77 697.511 68.77 690.021"/><polygon fill="#000" points="89.056 680.618 88.859 682.361 89.07 682.566"/><polygon fill="#000" points="88.79 680.631 88.859 682.361 89.056 680.618"/><polygon fill="#000" points="88.79 680.631 88.566 682.258 88.859 682.361"/><polygon fill="#000" points="88.389 682.245 88.566 682.258 88.79 680.631"/><polygon fill="#000" points="89.899 680.733 91.437 687.525 90.563 681.077"/><polygon fill="#000" points="89.899 680.733 89.281 683.604 91.437 687.525"/><polygon fill="#000" points="89.899 680.733 89.247 683.094 89.281 683.604"/><polygon fill="#000" points="14.38 683.04 14.342 682.185 14.226 684.663"/><polygon fill="#000" points="14.226 684.663 14.342 682.185 14.034 680.721"/><polygon fill="#000" points="14.226 684.663 14.034 680.721 13.764 685.959"/><polygon fill="#000" points="13.764 685.959 14.034 680.721 13.417 679.586"/><polygon fill="#000" points="13.764 685.959 13.417 679.586 13.417 686.485"/><polygon fill="#000" points="13.417 686.485 13.417 679.586 12.999 679.149"/><polygon fill="#000" points="89.899 680.733 89.145 682.711 89.247 683.094"/><polygon fill="#000" points="89.899 680.733 89.07 682.566 89.145 682.711"/><polygon fill="#000" points="89.899 680.733 89.056 680.618 89.07 682.566"/><polygon fill="#000" points="84.091 680.722 84.229 682.258 84.554 680.63"/><polygon fill="#000" points="84.091 680.722 84.043 682.245 84.229 682.258"/><polygon fill="#000" points="13.417 686.485 12.999 679.149 12.516 687.262"/><polygon fill="#000" points="12.516 687.262 12.999 679.149 12.062 683.021"/><polygon fill="#000" points="12.516 687.262 12.062 683.021 12.049 683.663"/><polygon fill="#000" points="11.744 680.646 11.858 680.961 11.969 678.567"/><polygon fill="#000" points="11.969 678.567 11.858 680.961 12.011 681.832"/><polygon fill="#000" points="11.969 678.567 12.011 681.832 12.999 679.149"/><polygon fill="#000" points="12.999 679.149 12.011 681.832 12.062 683.021"/><polygon fill="#000" points="10.151 680.067 10.68 679.957 10.68 678.373"/><polygon fill="#000" points="10.68 678.373 10.68 679.957 10.961 679.984"/><polygon fill="#000" points="10.68 678.373 10.961 679.984 11.969 678.567"/><polygon fill="#000" points="11.969 678.567 10.961 679.984 11.422 680.205"/><polygon fill="#000" points="11.969 678.567 11.422 680.205 11.744 680.646"/><polygon fill="#000" points="10.003 678.421 8.841 678.81 9.41 681.357"/><polygon fill="#000" points="10.003 678.421 9.41 681.357 9.614 680.646"/><polygon fill="#000" points="10.003 678.421 9.614 680.646 9.759 680.398"/><polygon fill="#000" points="10.003 678.421 9.759 680.398 10.151 680.067"/><polygon fill="#000" points="10.003 678.421 10.151 680.067 10.68 678.373"/><polygon fill="#000" points="8.841 678.81 7.941 679.586 8.358 686.922"/><polygon fill="#000" points="8.841 678.81 8.358 686.922 9.389 687.505"/><polygon fill="#000" points="8.841 678.81 9.389 687.505 9.295 683.021"/><polygon fill="#000" points="8.841 678.81 9.295 683.021 9.308 682.386"/><polygon fill="#000" points="8.841 678.81 9.308 682.386 9.41 681.357"/><polygon fill="#000" points="12.516 687.262 12.049 683.663 11.947 684.705"/><polygon fill="#000" points="12.516 687.262 11.947 684.705 11.742 685.424"/><polygon fill="#000" points="12.516 687.262 11.742 685.424 11.597 685.676"/><polygon fill="#000" points="12.516 687.262 11.597 685.676 11.357 687.65"/><polygon fill="#000" points="11.597 685.676 11.206 686.011 11.357 687.65"/><polygon fill="#000" points="11.357 687.65 11.206 686.011 10.68 686.123"/><polygon fill="#000" points="11.357 687.65 10.68 686.123 10.68 687.699"/><polygon fill="#000" points="10.68 687.699 10.68 686.123 10.399 686.095"/><polygon fill="#000" points="10.68 687.699 10.399 686.095 9.937 685.872"/><polygon fill="#000" points="9.614 685.424 9.499 685.105 9.389 687.505"/><polygon fill="#000" points="9.614 685.424 9.389 687.505 10.68 687.699"/><polygon fill="#000" points="9.614 685.424 10.68 687.699 9.937 685.872"/><polygon fill="#000" points="9.347 684.224 9.295 683.021 9.389 687.505"/><polygon fill="#000" points="9.347 684.224 9.389 687.505 9.499 685.105"/><polygon fill="#000" points="6.976 683.04 7.015 683.892 7.131 681.412"/><polygon fill="#000" points="7.131 681.412 7.015 683.892 7.324 685.352"/><polygon fill="#000" points="7.131 681.412 7.324 685.352 7.594 680.113"/><polygon fill="#000" points="7.594 680.113 7.324 685.352 7.941 686.485"/><polygon fill="#000" points="7.594 680.113 7.941 686.485 7.941 679.586"/><polygon fill="#000" points="7.941 679.586 7.941 686.485 8.358 686.922"/><polygon fill="#000" points="15.995 680.781 18.165 687.525 18.165 680.781"/><polygon fill="#000" points="83.662 680.907 84.043 682.245 84.091 680.722"/><polygon fill="#000" points="83.662 680.907 83.593 682.326 84.043 682.245"/><polygon fill="#000" points="83.46 681.034 83.593 682.326 83.662 680.907"/><polygon fill="#000" points="83.46 681.034 83.233 682.57 83.593 682.326"/><polygon fill="#000" points="83.087 682.753 83.233 682.57 83.46 681.034"/><polygon fill="#000" points="85.332 680.672 84.893 683.24 84.924 684.009"/><polygon fill="#000" points="85.332 680.672 84.8 682.727 84.893 683.24"/><polygon fill="#000" points="84.798 680.618 84.8 682.727 85.332 680.672"/><polygon fill="#000" points="84.798 680.618 84.731 682.566 84.8 682.727"/><polygon fill="#000" points="84.554 680.63 84.731 682.566 84.798 680.618"/><polygon fill="#000" points="84.554 680.63 84.529 682.361 84.731 682.566"/><polygon fill="#000" points="84.229 682.258 84.529 682.361 84.554 680.63"/><polygon fill="#000" points="83.086 681.356 82.871 683.23 83.087 682.753"/><polygon fill="#000" points="83.086 681.356 82.763 683.846 82.871 683.23"/><polygon fill="#000" points="82.75 681.769 82.763 683.846 83.086 681.356"/><polygon fill="#000" points="82.75 681.769 82.75 684.207 82.763 683.846"/><polygon fill="#000" points="18.165 680.781 18.165 687.525 18.165 684.207"/><polygon fill="#000" points="18.165 680.781 18.165 684.207 18.165 681.769"/><polygon fill="#000" points="18.165 681.769 18.165 684.207 18.178 683.846"/><polygon fill="#000" points="18.165 681.769 18.178 683.846 18.501 681.356"/><polygon fill="#000" points="18.501 681.356 18.178 683.846 18.286 683.23"/><polygon fill="#000" points="18.501 681.356 18.286 683.23 18.502 682.753"/><polygon fill="#000" points="19.644 682.258 19.944 682.361 19.969 680.63"/><polygon fill="#000" points="19.969 680.63 19.944 682.361 20.146 682.566"/><polygon fill="#000" points="19.969 680.63 20.146 682.566 20.213 680.618"/><polygon fill="#000" points="20.213 680.618 20.146 682.566 20.215 682.727"/><polygon fill="#000" points="20.213 680.618 20.215 682.727 20.746 680.672"/><polygon fill="#000" points="20.746 680.672 20.215 682.727 20.308 683.24"/><polygon fill="#000" points="20.746 680.672 20.308 683.24 20.339 684.009"/><polygon fill="#000" points="18.502 682.753 18.648 682.57 18.875 681.034"/><polygon fill="#000" points="18.875 681.034 18.648 682.57 19.008 682.326"/><polygon fill="#000" points="18.875 681.034 19.008 682.326 19.076 680.907"/><polygon fill="#000" points="19.076 680.907 19.008 682.326 19.458 682.245"/><polygon fill="#000" points="19.076 680.907 19.458 682.245 19.506 680.722"/><polygon fill="#000" points="19.506 680.722 19.458 682.245 19.644 682.258"/><polygon fill="#000" points="19.506 680.722 19.644 682.258 19.969 680.63"/><polygon fill="#000" points="25.314 680.733 24.471 680.618 24.484 682.566"/><polygon fill="#000" points="25.314 680.733 24.484 682.566 24.56 682.711"/><polygon fill="#000" points="25.314 680.733 24.56 682.711 24.662 683.094"/><polygon fill="#000" points="25.314 680.733 24.662 683.094 24.696 683.604"/><polygon fill="#000" points="25.314 680.733 24.696 683.604 26.852 687.525"/><polygon fill="#000" points="25.314 680.733 26.852 687.525 25.978 681.077"/><polygon fill="#000" points="23.804 682.245 23.981 682.258 24.205 680.631"/><polygon fill="#000" points="24.205 680.631 23.981 682.258 24.274 682.361"/><polygon fill="#000" points="24.205 680.631 24.274 682.361 24.471 680.618"/><polygon fill="#000" points="24.471 680.618 24.274 682.361 24.484 682.566"/><polygon fill="#000" points="23.702 680.736 23.234 680.946 23.356 682.326"/><polygon fill="#000" points="23.702 680.736 23.356 682.326 23.804 682.245"/><polygon fill="#000" points="23.702 680.736 23.804 682.245 24.205 680.631"/><polygon fill="#000" points="23.015 681.089 22.614 681.447 22.637 683.227"/><polygon fill="#000" points="23.015 681.089 22.637 683.227 22.854 682.751"/><polygon fill="#000" points="23.015 681.089 22.854 682.751 22.999 682.569"/><polygon fill="#000" points="23.015 681.089 22.999 682.569 23.356 682.326"/><polygon fill="#000" points="23.015 681.089 23.356 682.326 23.234 680.946"/><polygon fill="#000" points="22.14 681.668 22.508 687.525 22.262 681.9"/><polygon fill="#000" points="22.262 681.9 22.508 687.525 22.508 684.212"/><polygon fill="#000" points="82.75 680.781 82.75 684.207 82.75 681.769"/><polygon fill="#000" points="82.75 680.781 82.75 687.525 82.75 684.207"/><polygon fill="#000" points="80.581 680.781 82.75 687.525 82.75 680.781"/><polygon fill="#000" points="72.526 679.586 72.526 686.485 72.944 686.922"/><polygon fill="#000" points="72.179 680.113 72.526 686.485 72.526 679.586"/><polygon fill="#000" points="72.179 680.113 71.909 685.352 72.526 686.485"/><polygon fill="#000" points="71.716 681.412 71.909 685.352 72.179 680.113"/><polygon fill="#000" points="71.716 681.412 71.6 683.892 71.909 685.352"/><polygon fill="#000" points="71.561 683.04 71.6 683.892 71.716 681.412"/><polygon fill="#000" points="73.932 684.224 73.975 687.505 74.085 685.105"/><polygon fill="#000" points="73.932 684.224 73.881 683.021 73.975 687.505"/><polygon fill="#000" points="74.199 685.424 75.265 687.699 74.523 685.872"/><polygon fill="#000" points="74.199 685.424 73.975 687.505 75.265 687.699"/><polygon fill="#000" points="74.199 685.424 74.085 685.105 73.975 687.505"/><polygon fill="#000" points="75.265 687.699 74.984 686.095 74.523 685.872"/><polygon fill="#000" points="75.265 687.699 75.265 686.123 74.984 686.095"/><polygon fill="#000" points="75.942 687.65 75.265 686.123 75.265 687.699"/><polygon fill="#000" points="75.942 687.65 75.791 686.011 75.265 686.123"/><polygon fill="#000" points="76.182 685.676 75.791 686.011 75.942 687.65"/><polygon fill="#000" points="77.101 687.262 76.182 685.676 75.942 687.65"/><polygon fill="#000" points="77.101 687.262 76.327 685.424 76.182 685.676"/><polygon fill="#000" points="77.101 687.262 76.532 684.705 76.327 685.424"/><polygon fill="#000" points="77.101 687.262 76.634 683.663 76.532 684.705"/><polygon fill="#000" points="73.427 678.81 73.893 682.386 73.995 681.357"/><polygon fill="#000" points="73.427 678.81 73.881 683.021 73.893 682.386"/><polygon fill="#000" points="73.427 678.81 73.975 687.505 73.881 683.021"/><polygon fill="#000" points="73.427 678.81 72.944 686.922 73.975 687.505"/><polygon fill="#000" points="73.427 678.81 72.526 679.586 72.944 686.922"/><polygon fill="#000" points="74.588 678.421 74.736 680.067 75.265 678.373"/><polygon fill="#000" points="74.588 678.421 74.344 680.398 74.736 680.067"/><polygon fill="#000" points="74.588 678.421 74.199 680.646 74.344 680.398"/><polygon fill="#000" points="74.588 678.421 73.995 681.357 74.199 680.646"/><polygon fill="#000" points="22.262 681.9 22.508 684.212 22.614 681.447"/><polygon fill="#000" points="22.614 681.447 22.508 684.212 22.525 683.848"/><polygon fill="#000" points="22.614 681.447 22.525 683.848 22.637 683.227"/><polygon fill="#000" points="74.588 678.421 73.427 678.81 73.995 681.357"/><polygon fill="#000" points="76.554 678.567 76.007 680.205 76.329 680.646"/><polygon fill="#000" points="76.554 678.567 75.547 679.984 76.007 680.205"/><polygon fill="#000" points="75.265 678.373 75.547 679.984 76.554 678.567"/><polygon fill="#000" points="75.265 678.373 75.265 679.957 75.547 679.984"/><polygon fill="#000" points="74.736 680.067 75.265 679.957 75.265 678.373"/><polygon fill="#000" points="77.584 679.149 76.596 681.832 76.647 683.021"/><polygon fill="#000" points="22.508 687.525 22.14 681.668 21.835 681.268"/><polygon fill="#000" points="22.508 687.525 21.835 681.268 21.448 680.955"/><polygon fill="#000" points="22.508 687.525 21.448 680.955 21.227 680.834"/><polygon fill="#000" points="22.508 687.525 21.227 680.834 20.746 680.672"/><polygon fill="#000" points="22.508 687.525 20.746 680.672 20.339 684.009"/><polygon fill="#000" points="22.508 687.525 20.339 684.009 20.339 687.525"/><polygon fill="#000" points="76.554 678.567 76.596 681.832 77.584 679.149"/><polygon fill="#000" points="76.554 678.567 76.444 680.961 76.596 681.832"/><polygon fill="#000" points="76.329 680.646 76.444 680.961 76.554 678.567"/><polygon fill="#000" points="77.101 687.262 76.647 683.021 76.634 683.663"/><polygon fill="#000" points="77.101 687.262 77.584 679.149 76.647 683.021"/><polygon fill="#000" points="26.852 687.525 26.852 683.417 26.827 682.897"/><polygon fill="#000" points="26.852 687.525 26.827 682.897 26.633 682.013"/><polygon fill="#000" points="26.852 687.525 26.633 682.013 26.244 681.335"/><polygon fill="#000" points="26.852 687.525 26.244 681.335 25.978 681.077"/><polygon fill="#000" points="26.852 687.525 24.696 683.604 24.696 683.665"/><polygon fill="#000" points="26.852 687.525 24.696 683.665 24.694 683.768"/><polygon fill="#000" points="26.852 687.525 24.694 683.768 24.692 683.847"/><polygon fill="#000" points="26.852 687.525 24.692 683.847 24.69 683.88"/><polygon fill="#000" points="26.852 687.525 24.69 683.88 24.687 683.945"/><polygon fill="#000" points="26.852 687.525 24.687 683.945 24.682 684.009"/><polygon fill="#000" points="26.852 687.525 24.682 684.009 24.682 687.525"/><polygon fill="#000" points="18.501 681.356 18.502 682.753 18.875 681.034"/><polygon fill="#000" points="18.165 687.525 15.995 680.781 15.995 687.525"/><polygon fill="#000" points="65.879 680.112 65.879 685.922 68.073 685.922"/><polygon fill="#000" points="65.879 680.112 68.073 685.922 68.073 678.536"/><polygon fill="#000" points="65.879 680.112 68.073 678.536 65.869 678.536"/><polygon fill="#000" points="65.879 680.112 65.869 678.536 63.777 678.97"/><polygon fill="#000" points="65.879 680.112 63.777 678.97 63.777 680.545"/><polygon fill="#000" points="70.121 687.525 70.121 685.922 68.073 685.922"/><polygon fill="#000" points="70.121 687.525 68.073 685.922 65.879 685.922"/><polygon fill="#000" points="70.121 687.525 65.879 685.922 63.831 685.922"/><polygon fill="#000" points="70.121 687.525 63.831 685.922 63.831 687.525"/><polygon fill="#000" points="78.966 683.04 78.927 682.185 78.811 684.663"/><polygon fill="#000" points="78.811 684.663 78.927 682.185 78.619 680.721"/><polygon fill="#000" points="78.002 686.485 77.584 679.149 77.101 687.262"/><polygon fill="#000" points="78.002 686.485 78.002 679.586 77.584 679.149"/><polygon fill="#000" points="78.349 685.959 78.002 679.586 78.002 686.485"/><polygon fill="#000" points="78.349 685.959 78.619 680.721 78.002 679.586"/><polygon fill="#000" points="78.811 684.663 78.619 680.721 78.349 685.959"/><polygon fill="#fff" points="0 348.783 0 352.78 574.909 352.78"/><polygon fill="#fff" points="0 381.497 574.909 389.734 574.909 370.697"/><polygon fill="#fff" points="0 381.497 574.909 370.697 0 370.697"/><polygon fill="#fff" points="671.612 705 656.709 416.05 656.709 705"/><polygon fill="#fff" points="671.612 705 675.758 416.05 656.709 416.05"/><polygon fill="#fff" points="675.758 705 675.758 416.05 671.612 705"/><polygon fill="#fff" points="619.731 0 619.731 288.95 623.876 0"/><polygon fill="#fff" points="623.876 0 619.731 288.95 638.78 288.95"/><polygon fill="#fff" points="623.876 0 638.78 288.95 638.78 0"/><polygon fill="#fff" points="605.387 0 620.291 288.95 620.291 0"/><polygon fill="#fff" points="605.387 0 601.242 288.95 620.291 288.95"/><polygon fill="#fff" points="601.242 0 601.242 288.95 605.387 0"/><polygon fill="#fff" points="586.898 0 601.802 288.95 601.802 0"/><polygon fill="#fff" points="586.898 0 582.753 288.95 601.802 288.95"/><polygon fill="#fff" points="582.753 0 582.753 288.95 586.898 0"/><polygon fill="#fff" points="0 371.257 574.909 371.257 0 363.02"/><polygon fill="#fff" points="0 363.02 574.909 371.257 574.909 352.22"/><polygon fill="#fff" points="0 363.02 574.909 352.22 0 352.22"/><polygon fill="#fff" points="657.269 288.95 657.269 0 640.231 0"/><polygon fill="#fff" points="657.269 288.95 640.231 0 638.22 288.95"/><polygon fill="#fff" points="640.231 0 638.22 0 638.22 288.95"/><polygon fill="#fff" points="574.909 333.743 0 333.743 0 348.783"/><polygon fill="#fff" points="574.909 333.743 0 348.783 574.909 352.78"/><polygon fill="#fff" points="0 408.212 574.909 408.212 0 399.974"/><polygon fill="#fff" points="0 399.974 574.909 408.212 574.909 389.175"/><polygon fill="#fff" points="1277 296.789 702.09 296.789 1277 305.026"/><polygon fill="#fff" points="1277 305.026 702.09 296.789 702.09 315.826"/><polygon fill="#fff" points="1277 305.026 702.09 315.826 1277 315.826"/><polygon fill="#fff" points="0 399.974 574.909 389.175 0 389.174"/><polygon fill="#fff" points="657.269 705 657.269 416.05 653.123 705"/><polygon fill="#fff" points="653.123 705 657.269 416.05 638.22 416.05"/><polygon fill="#fff" points="653.123 705 638.22 416.05 638.22 705"/><polygon fill="#fff" points="636.768 705 638.78 705 638.78 416.05"/><polygon fill="#fff" points="619.731 416.05 636.768 705 638.78 416.05"/><polygon fill="#fff" points="619.731 416.05 619.731 705 636.768 705"/><polygon fill="#fff" points="1277 356.218 1277 352.22 702.09 352.22"/><polygon fill="#fff" points="702.09 371.257 1277 356.218 702.09 352.22"/><polygon fill="#fff" points="702.09 371.257 1277 371.257 1277 356.218"/><polygon fill="#fff" points="1277 315.266 702.09 315.266 1277 323.503"/><polygon fill="#fff" points="1277 323.503 702.09 315.266 702.09 334.303"/><polygon fill="#fff" points="1277 323.503 702.09 334.303 1277 334.303"/><polygon fill="#fff" points="1277 333.743 702.09 333.743 1277 341.98"/><polygon fill="#fff" points="1277 341.98 702.09 333.743 702.09 352.78"/><polygon fill="#fff" points="1277 341.98 702.09 352.78 1277 352.78"/><polygon fill="#fff" points="694.246 705 694.246 416.05 690.101 705"/><polygon fill="#fff" points="690.101 705 694.246 416.05 675.197 416.05"/><polygon fill="#fff" points="690.101 705 675.197 416.05 675.197 705"/><polygon fill="#fff" points="0 389.734 574.909 389.734 0 381.497"/><polygon fill="#000" points="137.06 390.294 137.06 374.617 120.252 374.617"/><polygon fill="#000" points="153.868 390.294 170.676 390.294 153.868 374.617"/><polygon fill="#000" points="676.318 702.445 676.318 685.648 660.63 702.445"/><polygon fill="#000" points="103.444 390.294 103.444 374.617 86.636 374.617"/><polygon fill="#000" points="86.636 390.294 103.444 390.294 86.636 374.617"/><polygon fill="#000" points="69.828 390.294 69.828 374.617 53.02 374.617"/><polygon fill="#000" points="676.318 685.648 660.63 685.648 660.63 702.445"/><polygon fill="#000" points="676.318 668.851 676.318 652.053 660.63 668.851"/><polygon fill="#000" points="676.318 652.053 660.63 652.053 660.63 668.851"/><polygon fill="#000" points="702.931 333.183 702.931 348.861 719.739 348.861"/><polygon fill="#000" points="719.739 333.183 702.931 333.183 719.739 348.861"/><polygon fill="#000" points="736.547 333.183 736.547 348.861 753.355 348.861"/><polygon fill="#000" points="753.355 333.183 736.547 333.183 753.355 348.861"/><polygon fill="#000" points="770.163 333.183 770.163 348.861 786.971 348.861"/><polygon fill="#000" points="786.971 333.183 770.163 333.183 786.971 348.861"/><polygon fill="#000" points="803.779 333.183 803.779 348.861 820.587 348.861"/><polygon fill="#000" points="820.587 333.183 803.779 333.183 820.587 348.861"/><polygon fill="#000" points="837.395 333.183 837.395 348.861 854.203 348.861"/><polygon fill="#000" points="854.203 333.183 837.395 333.183 854.203 348.861"/><polygon fill="#000" points="871.011 333.183 871.011 348.861 887.819 348.861"/><polygon fill="#000" points="887.819 333.183 871.011 333.183 887.819 348.861"/><polygon fill="#000" points="904.627 333.183 904.627 348.861 921.435 348.861"/><polygon fill="#000" points="921.435 333.183 904.627 333.183 921.435 348.861"/><polygon fill="#000" points="938.243 333.183 938.243 348.861 955.051 348.861"/><polygon fill="#000" points="955.051 333.183 938.243 333.183 955.051 348.861"/><polygon fill="#000" points="971.859 333.183 971.859 348.861 988.667 348.861"/><polygon fill="#000" points="988.667 333.183 971.859 333.183 988.667 348.861"/><polygon fill="#000" points="1005.48 333.183 1005.48 348.861 1022.28 348.861"/><polygon fill="#000" points="1022.28 333.183 1005.48 333.183 1022.28 348.861"/><polygon fill="#000" points="1039.09 333.183 1039.09 348.861 1055.9 348.861"/><polygon fill="#000" points="1055.9 333.183 1039.09 333.183 1055.9 348.861"/><polygon fill="#000" points="1072.71 333.183 1072.71 348.861 1089.52 348.861"/><polygon fill="#000" points="1089.52 333.183 1072.71 333.183 1089.52 348.861"/><polygon fill="#000" points="1106.32 333.183 1106.32 348.861 1123.13 348.861"/><polygon fill="#000" points="1123.13 333.183 1106.32 333.183 1123.13 348.861"/><polygon fill="#000" points="1139.94 333.183 1139.94 348.861 1156.75 348.861"/><polygon fill="#000" points="1156.75 333.183 1139.94 333.183 1156.75 348.861"/><polygon fill="#000" points="1173.56 333.183 1173.56 348.861 1190.36 348.861"/><polygon fill="#000" points="1190.36 333.183 1173.56 333.183 1190.36 348.861"/><polygon fill="#000" points="1207.17 333.183 1207.17 348.861 1223.98 348.861"/><polygon fill="#000" points="1223.98 333.183 1207.17 333.183 1223.98 348.861"/><polygon fill="#000" points="1240.79 333.183 1240.79 348.861 1257.6 348.861"/><polygon fill="#000" points="1257.6 333.183 1240.79 333.183 1257.6 348.861"/><polygon fill="#000" points="1277 335.605 1274.4 348.861 1277 348.861"/><polygon fill="#000" points="1277 335.605 1274.4 333.183 1274.4 348.861"/><polygon fill="#000" points="1277 333.183 1274.4 333.183 1277 335.605"/><polygon fill="#000" points="53.02 390.294 69.828 390.294 53.02 374.617"/><polygon fill="#000" points="36.212 390.294 36.212 374.617 19.404 374.617"/><polygon fill="#000" points="19.404 390.294 36.212 390.294 19.404 374.617"/><polygon fill="#000" points="676.318 635.256 676.318 618.459 660.63 635.256"/><polygon fill="#000" points="676.318 618.459 660.63 618.459 660.63 635.256"/><polygon fill="#000" points="676.318 601.661 676.318 584.864 660.63 601.661"/><polygon fill="#000" points="702.931 314.706 702.931 330.384 719.739 330.384"/><polygon fill="#000" points="719.739 314.706 702.931 314.706 719.739 330.384"/><polygon fill="#000" points="736.547 314.706 736.547 330.384 753.355 330.384"/><polygon fill="#000" points="753.355 314.706 736.547 314.706 753.355 330.384"/><polygon fill="#000" points="770.163 314.706 770.163 330.384 786.971 330.384"/><polygon fill="#000" points="786.971 314.706 770.163 314.706 786.971 330.384"/><polygon fill="#000" points="803.779 314.706 803.779 330.384 820.587 330.384"/><polygon fill="#000" points="820.587 314.706 803.779 314.706 820.587 330.384"/><polygon fill="#000" points="837.395 314.706 837.395 330.384 854.203 330.384"/><polygon fill="#000" points="854.203 314.706 837.395 314.706 854.203 330.384"/><polygon fill="#000" points="871.011 314.706 871.011 330.384 887.819 330.384"/><polygon fill="#000" points="887.819 314.706 871.011 314.706 887.819 330.384"/><polygon fill="#000" points="904.627 314.706 904.627 330.384 921.435 330.384"/><polygon fill="#000" points="921.435 314.706 904.627 314.706 921.435 330.384"/><polygon fill="#000" points="0 387.873 2.596 374.617 0 374.617"/><polygon fill="#000" points="0 387.873 2.596 390.294 2.596 374.617"/><polygon fill="#000" points="0 390.294 2.596 390.294 0 387.873"/><polygon fill="#000" points="676.318 584.864 660.63 584.864 660.63 601.661"/><polygon fill="#000" points="676.318 568.066 676.318 551.269 660.63 568.066"/><polygon fill="#000" points="676.318 551.269 660.63 551.269 660.63 568.066"/><polygon fill="#000" points="221.1 390.294 237.908 390.294 221.1 374.617"/><polygon fill="#000" points="237.908 390.294 237.908 374.617 221.1 374.617"/><polygon fill="#000" points="254.716 390.294 271.524 390.294 254.716 374.617"/><polygon fill="#000" points="676.318 534.472 676.318 517.674 660.63 534.472"/><polygon fill="#000" points="676.318 517.674 660.63 517.674 660.63 534.472"/><polygon fill="#000" points="676.318 500.877 676.318 484.08 660.63 500.877"/><polygon fill="#000" points="938.243 314.706 938.243 330.384 955.051 330.384"/><polygon fill="#000" points="955.051 314.706 938.243 314.706 955.051 330.384"/><polygon fill="#000" points="971.859 314.706 971.859 330.384 988.667 330.384"/><polygon fill="#000" points="988.667 314.706 971.859 314.706 988.667 330.384"/><polygon fill="#000" points="1005.48 314.706 1005.48 330.384 1022.28 330.384"/><polygon fill="#000" points="1022.28 314.706 1005.48 314.706 1022.28 330.384"/><polygon fill="#000" points="1039.09 314.706 1039.09 330.384 1055.9 330.384"/><polygon fill="#000" points="1055.9 314.706 1039.09 314.706 1055.9 330.384"/><polygon fill="#000" points="1072.71 314.706 1072.71 330.384 1089.52 330.384"/><polygon fill="#000" points="1089.52 314.706 1072.71 314.706 1089.52 330.384"/><polygon fill="#000" points="1106.32 314.706 1106.32 330.384 1123.13 330.384"/><polygon fill="#000" points="1123.13 314.706 1106.32 314.706 1123.13 330.384"/><polygon fill="#000" points="1139.94 314.706 1139.94 330.384 1156.75 330.384"/><polygon fill="#000" points="1156.75 314.706 1139.94 314.706 1156.75 330.384"/><polygon fill="#000" points="1173.56 314.706 1173.56 330.384 1190.36 330.384"/><polygon fill="#000" points="1190.36 314.706 1173.56 314.706 1190.36 330.384"/><polygon fill="#000" points="1207.17 314.706 1207.17 330.384 1223.98 330.384"/><polygon fill="#000" points="1223.98 314.706 1207.17 314.706 1223.98 330.384"/><polygon fill="#000" points="1240.79 314.706 1240.79 330.384 1257.6 330.384"/><polygon fill="#000" points="1257.6 314.706 1240.79 314.706 1257.6 330.384"/><polygon fill="#000" points="1277 317.127 1274.4 330.384 1277 330.384"/><polygon fill="#000" points="1277 317.127 1274.4 314.706 1274.4 330.384"/><polygon fill="#000" points="1277 314.706 1274.4 314.706 1277 317.127"/><polygon fill="#000" points="271.524 390.294 271.524 374.617 254.716 374.617"/><polygon fill="#000" points="288.332 390.294 305.14 390.294 288.332 374.617"/><polygon fill="#000" points="657.829 416.89 642.142 416.89 642.142 433.687"/><polygon fill="#000" points="657.829 433.687 657.829 416.89 642.142 433.687"/><polygon fill="#000" points="657.829 450.485 642.142 450.485 642.142 467.282"/><polygon fill="#000" points="657.829 467.282 657.829 450.485 642.142 467.282"/><polygon fill="#000" points="657.829 484.08 642.142 484.08 642.142 500.877"/><polygon fill="#000" points="657.829 500.877 657.829 484.08 642.142 500.877"/><polygon fill="#000" points="305.14 390.294 305.14 374.617 288.332 374.617"/><polygon fill="#000" points="204.292 390.294 204.292 374.617 187.484 374.617"/><polygon fill="#000" points="657.829 517.674 642.142 517.674 642.142 534.472"/><polygon fill="#000" points="657.829 534.472 657.829 517.674 642.142 534.472"/><polygon fill="#000" points="321.948 390.294 338.756 390.294 321.948 374.617"/><polygon fill="#000" points="338.756 390.294 338.756 374.617 321.948 374.617"/><polygon fill="#000" points="355.564 390.294 372.373 390.294 355.564 374.617"/><polygon fill="#000" points="657.829 551.269 642.142 551.269 642.142 568.066"/><polygon fill="#000" points="657.829 568.066 657.829 551.269 642.142 568.066"/><polygon fill="#000" points="657.829 584.864 642.142 584.864 642.142 601.661"/><polygon fill="#000" points="372.373 390.294 372.373 374.617 355.564 374.617"/><polygon fill="#000" points="389.181 390.294 405.989 390.294 389.181 374.617"/><polygon fill="#000" points="405.989 390.294 405.989 374.617 389.181 374.617"/><polygon fill="#000" points="657.829 601.661 657.829 584.864 642.142 601.661"/><polygon fill="#000" points="657.829 618.459 642.142 618.459 642.142 635.256"/><polygon fill="#000" points="657.829 635.256 657.829 618.459 642.142 635.256"/><polygon fill="#000" points="574.069 371.817 574.069 356.139 557.261 356.139"/><polygon fill="#000" points="557.261 371.817 574.069 371.817 557.261 356.139"/><polygon fill="#000" points="540.453 371.817 540.453 356.139 523.645 356.139"/><polygon fill="#000" points="523.645 371.817 540.453 371.817 523.645 356.139"/><polygon fill="#000" points="506.837 371.817 506.837 356.139 490.029 356.139"/><polygon fill="#000" points="490.029 371.817 506.837 371.817 490.029 356.139"/><polygon fill="#000" points="473.221 371.817 473.221 356.139 456.413 356.139"/><polygon fill="#000" points="456.413 371.817 473.221 371.817 456.413 356.139"/><polygon fill="#000" points="439.605 371.817 439.605 356.139 422.797 356.139"/><polygon fill="#000" points="422.797 371.817 439.605 371.817 422.797 356.139"/><polygon fill="#000" points="405.989 371.817 405.989 356.139 389.181 356.139"/><polygon fill="#000" points="389.181 371.817 405.989 371.817 389.181 356.139"/><polygon fill="#000" points="372.373 371.817 372.373 356.139 355.564 356.139"/><polygon fill="#000" points="355.564 371.817 372.373 371.817 355.564 356.139"/><polygon fill="#000" points="338.756 371.817 338.756 356.139 321.948 356.139"/><polygon fill="#000" points="321.948 371.817 338.756 371.817 321.948 356.139"/><polygon fill="#000" points="305.14 371.817 305.14 356.139 288.332 356.139"/><polygon fill="#000" points="422.797 390.294 439.605 390.294 422.797 374.617"/><polygon fill="#000" points="439.605 390.294 439.605 374.617 422.797 374.617"/><polygon fill="#000" points="456.413 390.294 473.221 390.294 456.413 374.617"/><polygon fill="#000" points="288.332 371.817 305.14 371.817 288.332 356.139"/><polygon fill="#000" points="271.524 371.817 271.524 356.139 254.716 356.139"/><polygon fill="#000" points="254.716 371.817 271.524 371.817 254.716 356.139"/><polygon fill="#000" points="237.908 371.817 237.908 356.139 221.1 356.139"/><polygon fill="#000" points="221.1 371.817 237.908 371.817 221.1 356.139"/><polygon fill="#000" points="204.292 371.817 204.292 356.139 187.484 356.139"/><polygon fill="#000" points="187.484 371.817 204.292 371.817 187.484 356.139"/><polygon fill="#000" points="657.829 652.053 642.142 652.053 642.142 668.851"/><polygon fill="#000" points="657.829 668.851 657.829 652.053 642.142 668.851"/><polygon fill="#000" points="657.829 685.648 642.142 685.648 642.142 702.445"/><polygon fill="#000" points="473.221 390.294 473.221 374.617 456.413 374.617"/><polygon fill="#000" points="490.029 390.294 506.837 390.294 490.029 374.617"/><polygon fill="#000" points="506.837 390.294 506.837 374.617 490.029 374.617"/><polygon fill="#000" points="170.676 371.817 170.676 356.139 153.868 356.139"/><polygon fill="#000" points="153.868 371.817 170.676 371.817 153.868 356.139"/><polygon fill="#000" points="137.06 371.817 137.06 356.139 120.252 356.139"/><polygon fill="#000" points="120.252 371.817 137.06 371.817 120.252 356.139"/><polygon fill="#000" points="103.444 371.817 103.444 356.139 86.636 356.139"/><polygon fill="#000" points="600.682 2.555 600.682 19.352 616.369 2.555"/><polygon fill="#000" points="600.682 19.352 616.369 19.352 616.369 2.555"/><polygon fill="#000" points="600.682 36.15 600.682 52.947 616.369 36.15"/><polygon fill="#000" points="600.682 52.947 616.369 52.947 616.369 36.15"/><polygon fill="#000" points="600.682 69.745 600.682 86.542 616.369 69.745"/><polygon fill="#000" points="600.682 86.542 616.369 86.542 616.369 69.745"/><polygon fill="#000" points="600.682 103.339 600.682 120.137 616.369 103.339"/><polygon fill="#000" points="600.682 120.137 616.369 120.137 616.369 103.339"/><polygon fill="#000" points="600.682 136.934 600.682 153.731 616.369 136.934"/><polygon fill="#000" points="600.682 153.731 616.369 153.731 616.369 136.934"/><polygon fill="#000" points="600.682 170.529 600.682 187.326 616.369 170.529"/><polygon fill="#000" points="600.682 187.326 616.369 187.326 616.369 170.529"/><polygon fill="#000" points="600.682 204.124 600.682 220.921 616.369 204.124"/><polygon fill="#000" points="600.682 220.921 616.369 220.921 616.369 204.124"/><polygon fill="#000" points="600.682 237.718 600.682 254.516 616.369 237.718"/><polygon fill="#000" points="600.682 254.516 616.369 254.516 616.369 237.718"/><polygon fill="#000" points="600.682 271.313 600.682 288.11 616.369 271.313"/><polygon fill="#000" points="600.682 288.11 616.369 288.11 616.369 271.313"/><polygon fill="#000" points="657.829 702.445 657.829 685.648 642.142 702.445"/><polygon fill="#000" points="676.318 484.08 660.63 484.08 660.63 500.877"/><polygon fill="#000" points="676.318 467.282 676.318 450.485 660.63 467.282"/><polygon fill="#000" points="523.645 390.294 540.453 390.294 523.645 374.617"/><polygon fill="#000" points="540.453 390.294 540.453 374.617 523.645 374.617"/><polygon fill="#000" points="676.318 450.485 660.63 450.485 660.63 467.282"/><polygon fill="#000" points="86.636 371.817 103.444 371.817 86.636 356.139"/><polygon fill="#000" points="69.828 371.817 69.828 356.139 53.02 356.139"/><polygon fill="#000" points="53.02 371.817 69.828 371.817 53.02 356.139"/><polygon fill="#000" points="36.212 371.817 36.212 356.139 19.404 356.139"/><polygon fill="#000" points="19.404 371.817 36.212 371.817 19.404 356.139"/><polygon fill="#000" points="0 369.396 2.596 356.139 0 356.139"/><polygon fill="#000" points="0 369.396 2.596 371.817 2.596 356.139"/><polygon fill="#000" points="0 371.817 2.596 371.817 0 369.396"/><polygon fill="#000" points="676.318 433.687 676.318 416.89 660.63 433.687"/><polygon fill="#000" points="676.318 416.89 660.63 416.89 660.63 433.687"/><polygon fill="#000" points="619.171 288.11 634.858 288.11 634.858 271.313"/><polygon fill="#000" points="170.676 390.294 170.676 374.617 153.868 374.617"/><polygon fill="#000" points="187.484 390.294 204.292 390.294 187.484 374.617"/><polygon fill="#000" points="120.252 390.294 137.06 390.294 120.252 374.617"/><polygon fill="#000" points="574.069 390.294 574.069 374.617 557.261 374.617"/><polygon fill="#000" points="557.261 390.294 574.069 390.294 557.261 374.617"/><polygon fill="#000" points="619.171 2.555 619.171 19.352 634.858 2.555"/><polygon fill="#000" points="619.171 19.352 634.858 19.352 634.858 2.555"/><polygon fill="#000" points="619.171 36.15 619.171 52.947 634.858 36.15"/><polygon fill="#000" points="619.171 52.947 634.858 52.947 634.858 36.15"/><polygon fill="#000" points="619.171 69.745 619.171 86.542 634.858 69.745"/><polygon fill="#000" points="619.171 86.542 634.858 86.542 634.858 69.745"/><polygon fill="#000" points="619.171 103.339 619.171 120.137 634.858 103.339"/><polygon fill="#000" points="619.171 120.137 634.858 120.137 634.858 103.339"/><polygon fill="#000" points="619.171 136.934 619.171 153.731 634.858 136.934"/><polygon fill="#000" points="619.171 153.731 634.858 153.731 634.858 136.934"/><polygon fill="#000" points="619.171 170.529 619.171 187.326 634.858 170.529"/><polygon fill="#000" points="619.171 187.326 634.858 187.326 634.858 170.529"/><polygon fill="#000" points="619.171 204.124 619.171 220.921 634.858 204.124"/><polygon fill="#000" points="619.171 220.921 634.858 220.921 634.858 204.124"/><polygon fill="#000" points="619.171 237.718 619.171 254.516 634.858 237.718"/><polygon fill="#000" points="619.171 254.516 634.858 254.516 634.858 237.718"/><polygon fill="#000" points="619.171 271.313 619.171 288.11 634.858 271.313"/><polygon fill="#000" points="0 370.697 574.909 370.697 0 362.945"/><polygon fill="#000" points="0 362.945 574.909 370.697 574.909 352.78"/><polygon fill="#000" points="0 362.945 574.909 352.78 0 352.78"/><polygon fill="#000" points="624.193 0 638.22 288.95 638.22 0"/><polygon fill="#000" points="624.193 0 620.291 288.95 638.22 288.95"/><polygon fill="#000" points="620.291 0 620.291 288.95 624.193 0"/><polygon fill="#000" points="605.704 0 619.731 288.95 619.731 0"/><polygon fill="#000" points="605.704 0 601.802 288.95 619.731 288.95"/><polygon fill="#000" points="601.802 0 601.802 288.95 605.704 0"/><polygon fill="#000" points="587.215 0 601.242 288.95 601.242 0"/><polygon fill="#000" points="587.215 0 583.313 288.95 601.242 288.95"/><polygon fill="#000" points="583.313 0 583.313 288.95 587.215 0"/><polygon fill="#000" points="0 407.652 574.909 407.652 0 399.899"/><polygon fill="#000" points="0 399.899 574.909 407.652 574.909 389.734"/><polygon fill="#000" points="0 399.899 574.909 389.734 0 389.734"/><polygon fill="#000" points="656.708 288.95 656.708 0 640.673 0"/><polygon fill="#000" points="656.708 288.95 640.673 0 638.78 288.95"/><polygon fill="#000" points="640.673 0 638.78 0 638.78 288.95"/><polygon fill="#000" points="574.909 334.303 0 334.303 0 348.458"/><polygon fill="#000" points="574.909 334.303 0 348.458 574.909 352.22"/><polygon fill="#000" points="0 348.458 0 352.22 574.909 352.22"/><polygon fill="#000" points="1277 297.349 702.09 297.349 1277 305.102"/><polygon fill="#000" points="1277 305.102 702.09 297.349 702.09 315.266"/><polygon fill="#000" points="1277 305.102 702.09 315.266 1277 315.266"/><polygon fill="#000" points="1277 315.826 702.09 315.826 1277 323.579"/><polygon fill="#000" points="0 389.174 574.909 389.174 0 381.422"/><polygon fill="#000" points="0 381.422 574.909 389.174 574.909 371.257"/><polygon fill="#000" points="0 381.422 574.909 371.257 0 371.257"/><polygon fill="#000" points="1277 323.579 702.09 315.826 702.09 333.743"/><polygon fill="#000" points="1277 323.579 702.09 333.743 1277 333.743"/><polygon fill="#000" points="636.326 705 638.22 705 638.22 416.05"/><polygon fill="#000" points="620.291 416.05 636.326 705 638.22 416.05"/><polygon fill="#000" points="620.291 416.05 620.291 705 636.326 705"/><polygon fill="#000" points="1277 356.543 1277 352.78 702.09 352.78"/><polygon fill="#000" points="702.09 370.697 1277 356.543 702.09 352.78"/><polygon fill="#000" points="702.09 370.697 1277 370.697 1277 356.543"/><polygon fill="#000" points="1277 334.303 702.09 334.303 1277 342.056"/><polygon fill="#000" points="1277 342.056 702.09 334.303 702.09 352.22"/><polygon fill="#000" points="1277 342.056 702.09 352.22 1277 352.22"/><polygon fill="#000" points="693.686 705 693.686 416.05 689.785 705"/><polygon fill="#000" points="689.785 705 693.686 416.05 675.758 416.05"/><polygon fill="#000" points="689.785 705 675.758 416.05 675.758 705"/><polygon fill="#000" points="675.197 705 675.197 416.05 671.296 705"/><polygon fill="#000" points="671.296 705 675.197 416.05 657.269 416.05"/><polygon fill="#000" points="671.296 705 657.269 416.05 657.269 705"/><polygon fill="#000" points="656.708 705 656.708 416.05 652.807 705"/><polygon fill="#000" points="652.807 705 656.708 416.05 638.78 416.05"/><polygon fill="#000" points="652.807 705 638.78 416.05 638.78 705"/><polygon fill="#000" points="583.313 288.95 574.909 334.303 583.313 288.95"/><polygon fill="#000" points="583.313 288.95 620.291 416.05 574.909 407.651"/><polygon fill="#000" points="583.313 288.95 693.686 416.05 620.291 416.05"/><polygon fill="#000" points="583.313 288.95 702.09 370.697 693.686 416.05"/><polygon fill="#000" points="583.313 288.95 702.09 297.349 702.09 370.697"/><polygon fill="#000" points="583.313 288.95 656.708 288.95 702.09 297.349"/><polygon fill="#000" points="583.313 288.95 574.909 407.651 574.909 334.303"/><polygon fill="#000" points="625.166 417.883 633.345 414.217 629.927 406.602"/><polygon fill="#000" points="575.541 366.173 607.42 361.638 574.278 357.304"/><polygon fill="#000" points="607.42 361.638 606.157 352.769 574.278 357.304"/><polygon fill="#000" points="609.101 361.041 619.522 354.77 604.477 353.366"/><polygon fill="#000" points="619.522 354.77 614.898 347.095 604.477 353.366"/><polygon fill="#000" points="640.775 371.472 633.379 359.154 633.088 376.081"/><polygon fill="#000" points="633.379 359.154 625.692 363.763 633.088 376.081"/><polygon fill="#000" points="631.844 357.619 609.098 343.958 627.227 365.298"/><polygon fill="#000" points="609.098 343.958 604.48 351.636 627.227 365.298"/><polygon fill="#000" points="607.42 343.362 575.541 338.827 606.157 352.232"/><polygon fill="#000" points="575.541 338.827 574.278 347.696 606.157 352.232"/><polygon fill="#000" points="636.495 402.805 631.901 405.101 640.504 410.818"/><polygon fill="#000" points="631.901 405.101 635.91 413.114 640.504 410.818"/><polygon fill="#000" points="630.181 406.616 625.531 413.559 637.63 411.599"/><polygon fill="#000" points="625.531 413.559 632.98 418.542 637.63 411.599"/><polygon fill="#000" points="588.163 350.497 585.866 345.906 580.145 354.503"/><polygon fill="#000" points="585.866 345.906 577.848 349.912 580.145 354.503"/><polygon fill="#000" points="584.35 344.186 577.403 339.539 579.364 351.631"/><polygon fill="#000" points="577.403 339.539 572.416 346.984 579.364 351.631"/><polygon fill="#000" points="575.212 384.685 618.241 381.773 574.607 375.747"/><polygon fill="#000" points="618.241 381.773 617.635 372.835 574.607 375.747"/><polygon fill="#000" points="618.754 381.709 652.931 375.382 617.122 372.9"/><polygon fill="#000" points="652.931 375.382 651.298 366.573 617.122 372.9"/><polygon fill="#000" points="653.125 375.341 680.467 369.014 651.103 366.613"/><polygon fill="#000" points="680.467 369.014 678.444 360.286 651.103 366.613"/><polygon fill="#000" points="680.028 369.093 702.663 366.181 678.883 360.208"/><polygon fill="#000" points="702.663 366.181 701.518 357.296 678.883 360.208"/><polygon fill="#000" points="636.225 333.528 643.621 345.846 643.912 328.919"/><polygon fill="#000" points="643.621 345.846 651.308 341.237 643.912 328.919"/><polygon fill="#000" points="645.155 347.381 667.902 361.043 649.773 339.702"/><polygon fill="#000" points="667.902 361.043 672.52 353.364 649.773 339.702"/><polygon fill="#000" points="669.579 361.638 701.459 366.173 670.843 352.769"/><polygon fill="#000" points="701.459 366.173 702.722 357.304 670.843 352.769"/><polygon fill="#000" points="657.484 350.227 645.158 357.618 662.096 357.909"/><polygon fill="#000" points="645.158 357.618 649.77 365.3 662.096 357.909"/><polygon fill="#000" points="643.622 359.151 629.952 381.884 651.306 363.766"/><polygon fill="#000" points="629.952 381.884 637.635 386.499 651.306 363.766"/><polygon fill="#000" points="629.356 383.56 624.818 415.419 638.231 384.822"/><polygon fill="#000" points="624.818 415.419 633.693 416.681 638.231 384.822"/><polygon fill="#000" points="701.788 320.315 658.759 323.227 702.393 329.254"/><polygon fill="#000" points="658.759 323.227 659.365 332.165 702.393 329.254"/><polygon fill="#000" points="658.245 323.292 624.069 329.619 659.878 332.1"/><polygon fill="#000" points="624.069 329.619 625.702 338.427 659.878 332.1"/><polygon fill="#000" points="623.874 329.659 596.533 335.986 625.897 338.387"/><polygon fill="#000" points="596.533 335.986 598.555 344.714 625.897 338.387"/><polygon fill="#000" points="596.972 335.907 574.337 338.819 598.116 344.793"/><polygon fill="#000" points="574.337 338.819 575.482 347.704 598.116 344.793"/><polygon fill="#000" points="688.837 354.503 691.134 359.095 696.855 350.497"/><polygon fill="#000" points="691.134 359.095 699.152 355.088 696.855 350.497"/><polygon fill="#000" points="692.65 360.814 699.597 365.461 697.636 353.369"/><polygon fill="#000" points="699.597 365.461 704.583 358.016 697.636 353.369"/><polygon fill="#000" points="702.291 301.833 678.536 300.769 701.89 310.782"/><polygon fill="#000" points="678.536 300.769 678.134 309.718 701.89 310.782"/><polygon fill="#000" points="679.177 300.844 662.201 297.597 677.492 309.643"/><polygon fill="#000" points="662.201 297.597 660.516 306.395 677.492 309.643"/><polygon fill="#000" points="621.748 410.268 625.166 417.883 629.927 406.602"/><polygon fill="#000" points="655.252 294.732 651.834 287.117 647.072 298.398"/><polygon fill="#000" points="651.834 287.117 643.655 290.783 647.072 298.398"/><polygon fill="#000" points="701.459 338.827 669.579 343.362 702.722 347.696"/><polygon fill="#000" points="669.579 343.362 670.843 352.232 702.722 347.696"/><polygon fill="#000" points="667.899 343.96 657.478 350.231 672.523 351.634"/><polygon fill="#000" points="657.478 350.231 662.102 357.905 672.523 351.634"/><polygon fill="#000" points="699.618 339.525 692.671 344.117 704.563 346.998"/><polygon fill="#000" points="692.671 344.117 697.615 351.589 704.563 346.998"/><polygon fill="#000" points="691.124 345.869 688.827 350.516 699.161 349.837"/><polygon fill="#000" points="688.827 350.516 696.864 354.484 699.161 349.837"/><polygon fill="#000" points="640.504 402.805 636.495 410.818 641.09 413.114"/><polygon fill="#000" points="645.099 405.101 640.504 402.805 641.09 413.114"/><polygon fill="#000" points="646.819 406.616 639.369 411.599 644.019 418.542"/><polygon fill="#000" points="651.469 413.559 646.819 406.616 644.019 418.542"/><polygon fill="#000" points="640.771 371.466 633.091 376.087 639.366 386.502"/><polygon fill="#000" points="647.046 381.88 640.771 371.466 639.366 386.502"/><polygon fill="#000" points="647.643 383.56 638.769 384.823 643.307 416.682"/><polygon fill="#000" points="652.182 415.419 647.643 383.56 643.307 416.682"/><polygon fill="#000" points="587.8 288.749 586.735 312.49 596.755 289.151"/><polygon fill="#000" points="586.735 312.49 595.691 312.891 596.755 289.151"/><polygon fill="#000" points="586.814 311.834 583.508 328.8 595.613 313.547"/><polygon fill="#000" points="577.382 365.475 584.329 360.884 572.437 358.002"/><polygon fill="#000" points="584.329 360.884 579.384 353.411 572.437 358.002"/><polygon fill="#000" points="585.875 359.131 588.173 354.484 577.838 355.164"/><polygon fill="#000" points="588.173 354.484 580.135 350.516 577.838 355.164"/><polygon fill="#000" points="583.508 328.8 592.307 330.512 595.613 313.547"/><polygon fill="#000" points="583.943 327.566 578.565 337.756 591.872 331.745"/><polygon fill="#000" points="578.565 337.756 586.493 341.936 591.872 331.745"/><polygon fill="#000" points="580.695 335.759 573.075 339.175 584.363 343.933"/><polygon fill="#000" points="573.075 339.175 576.744 347.349 584.363 343.933"/><polygon fill="#000" points="636.495 302.195 640.504 294.182 635.91 291.887"/><polygon fill="#000" points="606.295 289.253 609.208 332.254 615.238 288.647"/><polygon fill="#000" points="609.208 332.254 618.152 331.649 615.238 288.647"/><polygon fill="#000" points="609.273 332.767 615.604 366.922 618.087 331.135"/><polygon fill="#000" points="615.604 366.922 624.418 365.29 618.087 331.135"/><polygon fill="#000" points="615.644 367.116 621.975 394.44 624.378 365.095"/><polygon fill="#000" points="621.975 394.44 630.709 392.419 624.378 365.095"/><polygon fill="#000" points="621.897 394.002 624.81 416.622 630.787 392.858"/><polygon fill="#000" points="624.81 416.622 633.701 415.478 630.787 392.858"/><polygon fill="#000" points="689.199 416.251 690.264 392.51 680.244 415.85"/><polygon fill="#000" points="690.264 392.51 681.309 392.109 680.244 415.85"/><polygon fill="#000" points="690.186 393.166 693.492 376.201 681.387 391.454"/><polygon fill="#000" points="693.492 376.201 684.693 374.488 681.387 391.454"/><polygon fill="#000" points="693.056 377.434 698.435 367.244 685.128 373.255"/><polygon fill="#000" points="698.435 367.244 690.506 363.064 685.128 373.255"/><polygon fill="#000" points="696.305 369.241 703.925 365.826 692.636 361.067"/><polygon fill="#000" points="703.925 365.826 700.256 357.652 692.636 361.067"/><polygon fill="#000" points="670.705 415.748 667.792 372.746 661.761 416.353"/><polygon fill="#000" points="667.792 372.746 658.848 373.352 661.761 416.353"/><polygon fill="#000" points="667.727 372.233 661.396 338.078 658.913 373.865"/><polygon fill="#000" points="661.396 338.078 652.581 339.71 658.913 373.865"/><polygon fill="#000" points="661.355 337.884 655.024 310.56 652.622 339.905"/><polygon fill="#000" points="655.024 310.56 646.291 312.581 652.622 339.905"/><polygon fill="#000" points="655.103 310.999 652.19 288.378 646.212 312.142"/><polygon fill="#000" points="652.19 288.378 643.299 289.522 646.212 312.142"/><polygon fill="#000" points="623.73 412.388 627.946 404.483 617.749 399.051"/><polygon fill="#000" points="613.533 406.957 623.73 412.388 617.749 399.051"/><polygon fill="#000" points="614.798 407.404 616.484 398.605 599.508 395.357"/><polygon fill="#000" points="597.822 404.156 614.798 407.404 599.508 395.357"/><polygon fill="#000" points="598.464 404.232 598.865 395.282 575.11 394.218"/><polygon fill="#000" points="663.467 298.043 653.27 292.612 659.251 305.949"/><polygon fill="#000" points="653.27 292.612 649.054 300.518 659.251 305.949"/><polygon fill="#000" points="631.901 299.899 636.495 302.195 635.91 291.887"/><polygon fill="#000" points="630.181 298.385 637.63 293.401 632.98 286.458"/><polygon fill="#000" points="574.709 403.168 598.464 404.232 575.11 394.218"/><polygon fill="#000" points="625.531 291.442 630.181 298.385 632.98 286.458"/><polygon fill="#000" points="652.182 289.581 643.307 288.319 638.769 320.178"/><polygon fill="#000" points="647.643 321.44 652.182 289.581 638.769 320.178"/><polygon fill="#000" points="640.504 302.195 645.098 299.899 636.495 294.182"/><polygon fill="#000" points="645.098 299.899 641.089 291.887 636.495 294.182"/><polygon fill="#000" points="646.819 298.385 651.469 291.442 639.369 293.401"/><polygon fill="#000" points="651.469 291.442 644.02 286.459 639.369 293.401"/><polygon fill="#000" points="624.818 289.581 629.356 321.44 633.693 288.319"/><polygon fill="#000" points="629.356 321.44 638.231 320.178 633.693 288.319"/><polygon fill="#000" points="629.954 323.12 636.229 333.534 637.633 318.498"/><polygon fill="#000" points="636.229 333.534 643.909 328.913 637.633 318.498"/><polygon fill="#000" points="619.516 354.773 631.842 347.383 614.904 347.091"/><polygon fill="#000" points="631.842 347.383 627.23 339.701 614.904 347.091"/><polygon fill="#000" points="633.377 345.849 647.048 323.116 625.694 341.234"/><polygon fill="#000" points="647.048 323.116 639.364 318.502 625.694 341.234"/><polygon fill="#fff" points="666.233 421.649 667.634 427.249 664.832 427.249"/><polygon fill="#fff" points="666.513 427.249 665.953 427.249 665.953 438.447"/><polygon fill="#fff" points="666.513 438.447 666.513 427.249 665.953 438.447"/><polygon fill="#0f0" points="675.197 416.05 675.197 418.85 657.269 416.05"/><polygon fill="#fff" points="693.126 430.048 687.523 431.448 687.523 428.648"/><polygon fill="#fff" points="690.325 430.328 690.325 429.768 684.722 429.768"/><polygon fill="#fff" points="684.722 430.328 690.325 430.328 684.722 429.768"/><polygon fill="#fff" points="685.002 430.048 684.442 430.048 684.442 438.447"/><polygon fill="#fff" points="685.002 438.447 685.002 430.048 684.442 438.447"/><polygon fill="#0f0" points="693.686 418.85 675.758 418.85 675.758 416.05"/><polygon fill="#0f0" points="693.686 416.05 693.686 418.85 675.758 416.05"/><polygon fill="#fff" points="724.501 346.061 718.898 347.461 718.898 344.661"/><polygon fill="#fff" points="721.7 346.341 721.7 345.781 716.097 345.781"/><polygon fill="#fff" points="716.097 346.341 721.7 346.341 716.097 345.781"/><polygon fill="#0f0" points="656.708 416.05 656.708 418.85 647.744 416.05"/><polygon fill="#0f0" points="656.708 418.85 647.744 418.85 647.744 416.05"/><polygon fill="#0f0" points="647.744 416.05 647.744 418.85 638.78 416.05"/><polygon fill="#0f0" points="647.744 418.85 638.78 418.85 638.78 416.05"/><polygon fill="#fff" points="648.024 438.447 648.024 430.048 647.464 438.447"/><polygon fill="#fff" points="648.024 430.048 647.464 430.048 647.464 438.447"/><polygon fill="#fff" points="647.744 429.768 642.141 429.768 647.744 430.328"/><polygon fill="#fff" points="642.141 429.768 642.141 430.328 647.744 430.328"/><polygon fill="#fff" points="639.34 430.048 644.943 428.648 644.943 431.448"/><polygon fill="#fff" points="648.024 438.447 648.024 430.048 647.464 438.447"/><polygon fill="#fff" points="648.024 430.048 647.464 430.048 647.464 438.447"/><polygon fill="#fff" points="647.744 429.768 644.943 429.768 647.744 430.328"/><polygon fill="#fff" points="644.943 429.768 644.943 430.328 647.744 430.328"/><polygon fill="#fff" points="644.663 430.048 644.663 435.647 645.223 430.048"/><polygon fill="#fff" points="644.663 435.647 645.223 435.647 645.223 430.048"/><polygon fill="#fff" points="644.943 438.447 643.542 432.848 646.344 432.848"/><polygon fill="#fff" points="715.817 346.061 716.377 346.061 716.377 343.262"/><polygon fill="#fff" points="715.817 343.262 715.817 346.061 716.377 343.262"/><polygon fill="#fff" points="716.097 342.982 716.097 343.542 724.501 343.542"/><polygon fill="#fff" points="724.501 342.982 716.097 342.982 724.501 343.542"/><polygon fill="#fff" points="716.097 351.66 714.696 346.061 717.498 346.061"/><polygon fill="#fff" points="715.817 348.861 716.377 348.861 716.377 343.262"/><polygon fill="#fff" points="715.817 343.262 715.817 348.861 716.377 343.262"/><polygon fill="#fff" points="716.097 342.982 716.097 343.542 724.501 343.542"/><polygon fill="#fff" points="724.501 342.982 716.097 342.982 724.501 343.542"/><polygon fill="red" points="704.892 343.262 704.892 352.22 702.09 352.22"/><polygon fill="red" points="702.09 343.262 704.892 343.262 702.09 352.22"/><polygon fill="red" points="704.892 334.303 704.892 343.262 702.09 343.262"/><polygon fill="red" points="702.09 334.303 704.892 334.303 702.09 343.262"/><polygon fill="#fff" points="707.693 324.784 713.296 323.385 713.296 326.184"/><polygon fill="#fff" points="713.296 324.504 713.296 325.064 724.501 325.064"/><polygon fill="#fff" points="724.501 324.504 713.296 324.504 724.501 325.064"/><polygon fill="red" points="704.892 315.826 704.892 333.743 702.09 333.743"/><polygon fill="#0f0" points="583.313 288.95 583.313 286.15 601.242 288.95"/><polygon fill="#fff" points="569.307 380.216 563.704 381.616 563.704 378.816"/><polygon fill="#0f0" points="583.313 286.15 601.242 286.15 601.242 288.95"/><polygon fill="#fff" points="591.997 266.553 591.997 274.952 592.558 266.553"/><polygon fill="#fff" points="591.997 274.952 592.558 274.952 592.558 266.553"/><polygon fill="#fff" points="592.278 274.672 586.675 274.672 592.278 275.232"/><polygon fill="#fff" points="586.675 274.672 586.675 275.232 592.278 275.232"/><polygon fill="#fff" points="583.874 274.952 589.476 273.552 589.476 276.352"/><polygon fill="#0f0" points="601.802 288.95 601.802 286.15 619.731 288.95"/><polygon fill="#0f0" points="601.802 286.15 619.731 286.15 619.731 288.95"/><polygon fill="#fff" points="610.486 266.553 610.486 277.752 611.047 266.553"/><polygon fill="#fff" points="610.486 277.752 611.047 277.752 611.047 266.553"/><polygon fill="#fff" points="610.767 283.351 609.366 277.752 612.167 277.752"/><polygon fill="#0f0" points="620.291 288.95 620.291 286.15 629.255 288.95"/><polygon fill="#0f0" points="620.291 286.15 629.255 286.15 629.255 288.95"/><polygon fill="#0f0" points="629.255 288.95 629.255 286.15 638.22 288.95"/><polygon fill="#0f0" points="629.255 286.15 638.22 286.15 638.22 288.95"/><polygon fill="#fff" points="628.975 266.553 628.975 274.952 629.536 266.553"/><polygon fill="#fff" points="628.975 274.952 629.536 274.952 629.536 266.553"/><polygon fill="#fff" points="629.255 275.232 634.858 275.232 629.255 274.672"/><polygon fill="#fff" points="634.858 275.232 634.858 274.672 629.255 274.672"/><polygon fill="#fff" points="552.499 358.939 558.101 357.539 558.101 360.339"/><polygon fill="#fff" points="555.3 358.659 555.3 359.219 560.903 359.219"/><polygon fill="#fff" points="560.903 358.659 555.3 358.659 560.903 359.219"/><polygon fill="#fff" points="561.183 358.939 560.623 358.939 560.623 361.739"/><polygon fill="#fff" points="561.183 361.739 561.183 358.939 560.623 361.739"/><polygon fill="#fff" points="560.903 362.019 560.903 361.459 552.499 361.459"/><polygon fill="#fff" points="552.499 362.019 560.903 362.019 552.499 361.459"/><polygon fill="#fff" points="560.903 353.34 562.303 358.939 559.502 358.939"/><polygon fill="#fff" points="561.183 356.139 560.623 356.139 560.623 361.739"/><polygon fill="#fff" points="561.183 361.739 561.183 356.139 560.623 361.739"/><polygon fill="#fff" points="560.903 362.019 560.903 361.459 552.499 361.459"/><polygon fill="#fff" points="552.499 362.019 560.903 362.019 552.499 361.459"/><polygon fill="red" points="572.108 361.739 572.108 352.78 574.909 352.78"/><polygon fill="red" points="574.909 361.739 572.108 361.739 574.909 352.78"/><polygon fill="red" points="572.108 370.697 572.108 361.739 574.909 361.739"/><polygon fill="red" points="574.909 370.697 572.108 370.697 574.909 361.739"/><polygon fill="#fff" points="637.66 274.952 632.057 276.352 632.057 273.552"/><polygon fill="#fff" points="628.975 266.553 628.975 274.952 629.536 266.553"/><polygon fill="#fff" points="628.975 274.952 629.536 274.952 629.536 266.553"/><polygon fill="#fff" points="629.255 275.232 632.057 275.232 629.255 274.672"/><polygon fill="#fff" points="632.057 275.232 632.057 274.672 629.255 274.672"/><polygon fill="#fff" points="632.337 274.952 632.337 269.353 631.777 274.952"/><polygon fill="#fff" points="632.337 269.353 631.777 269.353 631.777 274.952"/><polygon fill="#fff" points="632.057 266.553 633.458 272.153 630.656 272.153"/><polygon fill="red" points="702.09 315.826 704.892 315.826 702.09 333.743"/><polygon fill="#fff" points="716.097 297.909 717.498 303.508 714.696 303.508"/><polygon fill="#fff" points="716.377 300.708 715.817 300.708 715.817 306.307"/><polygon fill="#fff" points="716.377 306.307 716.377 300.708 715.817 306.307"/><polygon fill="#fff" points="716.097 306.028 716.097 306.587 724.501 306.587"/><polygon fill="#fff" points="724.501 306.028 716.097 306.028 724.501 306.587"/><polygon fill="red" points="704.892 297.349 704.892 315.266 702.09 315.266"/><polygon fill="red" points="702.09 297.349 704.892 297.349 702.09 315.266"/><polygon fill="red" points="574.909 407.652 572.108 407.652 574.909 389.734"/><polygon fill="red" points="572.108 407.652 572.108 389.734 574.909 389.734"/><polygon fill="#fff" points="552.499 398.973 560.903 398.973 552.499 398.413"/><polygon fill="#fff" points="560.903 398.973 560.903 398.413 552.499 398.413"/><polygon fill="#fff" points="560.623 398.693 560.623 404.292 561.183 398.693"/><polygon fill="#fff" points="560.623 404.292 561.183 404.292 561.183 398.693"/><polygon fill="#fff" points="560.903 407.092 559.502 401.493 562.303 401.493"/><polygon fill="red" points="574.909 389.174 572.108 389.174 574.909 371.257"/><polygon fill="red" points="572.108 389.174 572.108 371.257 574.909 371.257"/><polygon fill="#fff" points="552.499 380.496 563.704 380.496 552.499 379.936"/><polygon fill="#fff" points="563.704 380.496 563.704 379.936 552.499 379.936"/><polygon fill="#0f0" points="675.197 418.85 657.269 418.85 657.269 416.05"/><polygon fill="#ff0" points="474.061 337.663 451.65 337.663 474.061 348.861"/><polygon fill="#ff0" points="451.65 337.663 451.65 348.861 474.061 348.861"/><polygon fill="#ff0" points="825.349 367.338 825.349 356.139 802.938 356.139"/><polygon fill="#ff0" points="921.435 300.708 899.024 300.708 921.435 311.907"/><polygon fill="#ff0" points="899.024 300.708 899.024 311.907 921.435 311.907"/><polygon fill="#ff0" points="921.435 319.185 899.024 319.185 921.435 330.384"/><polygon fill="#ff0" points="899.024 319.185 899.024 330.384 921.435 330.384"/><polygon fill="#ff0" points="921.435 337.663 899.024 337.663 921.435 348.861"/><polygon fill="#ff0" points="355.565 385.815 377.975 385.815 355.565 374.617"/><polygon fill="#ff0" points="377.975 385.815 377.975 374.617 355.565 374.617"/><polygon fill="#ff0" points="899.024 337.663 899.024 348.861 921.435 348.861"/><polygon fill="#ff0" points="377.975 404.292 377.975 393.094 355.565 393.094"/><polygon fill="#ff0" points="355.565 404.292 377.975 404.292 355.565 393.094"/><polygon fill="#ff0" points="623.653 92.141 634.858 92.141 634.858 69.744"/><polygon fill="#ff0" points="623.653 69.744 623.653 92.141 634.858 69.744"/><polygon fill="#ff0" points="605.164 92.141 616.369 92.141 616.369 69.744"/><polygon fill="#ff0" points="355.565 367.338 377.975 367.338 355.565 356.139"/><polygon fill="#ff0" points="377.975 367.338 377.975 356.139 355.565 356.139"/><polygon fill="#ff0" points="605.164 69.744 605.164 92.141 616.369 69.744"/><polygon fill="#ff0" points="623.653 516.834 623.653 539.231 634.858 516.834"/><polygon fill="#ff0" points="623.653 539.231 634.858 539.231 634.858 516.834"/><polygon fill="#ff0" points="802.938 367.338 825.349 367.338 802.938 356.139"/><polygon fill="#ff0" points="690.325 635.256 690.325 612.859 679.119 635.256"/><polygon fill="#ff0" points="690.325 612.859 679.119 612.859 679.119 635.256"/><polygon fill="#ff0" points="653.347 188.166 653.347 165.769 642.141 188.166"/><polygon fill="#ff0" points="653.347 165.769 642.141 165.769 642.141 188.166"/><polygon fill="#ff0" points="671.836 635.256 671.836 612.859 660.63 635.256"/><polygon fill="#ff0" points="671.836 612.859 660.63 612.859 660.63 635.256"/><polygon fill="#ff0" points="653.347 635.256 653.347 612.859 642.141 635.256"/><polygon fill="#ff0" points="653.347 612.859 642.141 612.859 642.141 635.256"/><polygon fill="#ff0" points="586.675 92.141 597.88 92.141 597.88 69.744"/><polygon fill="#ff0" points="586.675 69.744 586.675 92.141 597.88 69.744"/><polyline fill="none" stroke="#fff" stroke-width="1" points="638.22 176.968 657.269 176.968"/><polyline fill="none" stroke="#fff" stroke-width="1" points="642.141 165.769 642.141 188.166"/><polyline fill="none" stroke="#ff0" stroke-width="1" points="592.278 70.304 592.278 91.581"/><polyline fill="none" stroke="#fff" stroke-width="1" points="586.675 69.744 586.675 92.141"/><polyline fill="none" stroke="#fff" stroke-width="1" points="638.22 624.058 657.269 624.058"/><polyline fill="none" stroke="#fff" stroke-width="1" points="642.141 612.859 642.141 635.256"/><polyline fill="none" stroke="#fff" stroke-width="1" points="653.347 612.859 642.141 612.859"/><polyline fill="none" stroke="#fff" stroke-width="1" points="642.141 635.256 653.347 635.256 653.347 612.859"/><polyline fill="none" stroke="#ff0" stroke-width="1" points="647.744 634.696 647.744 613.419"/><polyline fill="none" stroke="#fff" stroke-width="1" points="653.347 165.769 642.141 165.769"/><polyline fill="none" stroke="#fff" stroke-width="1" points="642.141 188.166 653.347 188.166"/><polyline fill="none" stroke="#fff" stroke-width="1" points="656.709 624.058 675.758 624.058"/><polyline fill="none" stroke="#fff" stroke-width="1" points="660.63 612.859 660.63 635.256"/><polyline fill="none" stroke="#fff" stroke-width="1" points="671.836 612.859 660.63 612.859"/><polyline fill="none" stroke="#fff" stroke-width="1" points="660.63 635.256 671.836 635.256 671.836 612.859"/><polyline fill="none" stroke="#ff0" stroke-width="1" points="666.233 634.696 666.233 613.419"/><polyline fill="none" stroke="#fff" stroke-width="1" points="653.347 188.166 653.347 165.769"/><polyline fill="none" stroke="#ff0" stroke-width="1" points="647.744 187.606 647.744 166.329"/><polyline fill="none" stroke="#fff" stroke-width="1" points="675.197 624.058 694.246 624.058"/><polyline fill="none" stroke="#fff" stroke-width="1" points="679.119 612.859 679.119 635.256"/><polyline fill="none" stroke="#fff" stroke-width="1" points="690.325 612.859 679.119 612.859"/><polyline fill="none" stroke="#fff" stroke-width="1" points="679.119 635.256 690.325 635.256 690.325 612.859"/><polyline fill="none" stroke="#ff0" stroke-width="1" points="684.722 634.696 684.722 613.419"/><polyline fill="none" stroke="#fff" stroke-width="1" points="366.77 352.22 366.77 371.257"/><polyline fill="none" stroke="#fff" stroke-width="1" points="377.975 356.139 355.565 356.139"/><polyline fill="none" stroke="#fff" stroke-width="1" points="638.78 528.033 619.731 528.033"/><polyline fill="none" stroke="#fff" stroke-width="1" points="634.858 539.231 634.858 516.835"/><polyline fill="none" stroke="#fff" stroke-width="1" points="623.653 539.231 634.858 539.231"/><polyline fill="none" stroke="#fff" stroke-width="1" points="634.858 516.834 623.653 516.835"/><polyline fill="none" stroke="#fff" stroke-width="1" points="377.975 367.338 377.975 356.139"/><polyline fill="none" stroke="#ff0" stroke-width="1" points="629.255 517.394 629.255 538.671"/><polyline fill="none" stroke="#fff" stroke-width="1" points="355.565 356.139 355.565 367.338 377.975 367.338"/><polyline fill="none" stroke="#fff" stroke-width="1" points="597.88 69.744 586.675 69.744"/><polyline fill="none" stroke="#fff" stroke-width="1" points="586.675 92.141 597.88 92.141 597.88 69.744"/><polyline fill="none" stroke="#fff" stroke-width="1" points="601.802 80.943 582.753 80.943"/><polyline fill="none" stroke="#ff0" stroke-width="1" points="356.125 361.739 377.415 361.739"/><polyline fill="none" stroke="#fff" stroke-width="1" points="366.77 370.697 366.77 389.734"/><polyline fill="none" stroke="#ff0" stroke-width="1" points="610.767 70.304 610.767 91.581"/><polyline fill="none" stroke="#fff" stroke-width="1" points="605.164 69.744 605.164 92.141"/><polyline fill="none" stroke="#fff" stroke-width="1" points="616.369 69.744 605.164 69.744"/><polyline fill="none" stroke="#fff" stroke-width="1" points="605.164 92.141 616.369 92.141 616.369 69.744"/><polyline fill="none" stroke="#fff" stroke-width="1" points="620.291 80.943 601.242 80.943"/><polyline fill="none" stroke="#fff" stroke-width="1" points="377.975 374.617 355.565 374.617"/><polyline fill="none" stroke="#fff" stroke-width="1" points="377.975 385.815 377.975 374.617"/><polyline fill="none" stroke="#ff0" stroke-width="1" points="629.255 70.304 629.255 91.581"/><polyline fill="none" stroke="#fff" stroke-width="1" points="623.653 69.744 623.653 92.141"/><polyline fill="none" stroke="#fff" stroke-width="1" points="634.858 69.744 623.653 69.744"/><polyline fill="none" stroke="#fff" stroke-width="1" points="623.653 92.141 634.858 92.141 634.858 69.744"/><polyline fill="none" stroke="#fff" stroke-width="1" points="638.78 80.943 619.731 80.943"/><polyline fill="none" stroke="#fff" stroke-width="1" points="355.565 374.617 355.565 385.815 377.975 385.815"/><polyline fill="none" stroke="#ff0" stroke-width="1" points="356.125 398.693 377.415 398.693"/><polyline fill="none" stroke="#fff" stroke-width="1" points="355.565 404.292 377.975 404.292"/><polyline fill="none" stroke="#fff" stroke-width="1" points="355.565 393.094 355.565 404.292"/><polyline fill="none" stroke="#fff" stroke-width="1" points="377.975 404.292 377.975 393.094 355.565 393.094"/><polyline fill="none" stroke="#fff" stroke-width="1" points="366.77 389.174 366.77 408.212"/><polyline fill="none" stroke="#fff" stroke-width="1" points="910.23 352.78 910.23 333.743"/><polyline fill="none" stroke="#fff" stroke-width="1" points="899.024 348.861 921.435 348.861"/><polyline fill="none" stroke="#fff" stroke-width="1" points="899.024 337.663 899.024 348.861"/><polyline fill="none" stroke="#fff" stroke-width="1" points="921.435 348.861 921.435 337.663 899.024 337.663"/><polyline fill="none" stroke="#ff0" stroke-width="1" points="920.875 343.262 899.585 343.262"/><polyline fill="none" stroke="#ff0" stroke-width="1" points="356.125 380.216 377.415 380.216"/><polyline fill="none" stroke="#fff" stroke-width="1" points="462.856 352.78 462.856 333.743"/><polyline fill="none" stroke="#fff" stroke-width="1" points="910.23 334.303 910.23 315.266"/><polyline fill="none" stroke="#fff" stroke-width="1" points="899.024 330.384 921.435 330.384"/><polyline fill="none" stroke="#fff" stroke-width="1" points="899.024 319.185 899.024 330.384"/><polyline fill="none" stroke="#fff" stroke-width="1" points="921.435 330.384 921.435 319.185 899.024 319.185"/><polyline fill="none" stroke="#ff0" stroke-width="1" points="920.875 324.784 899.585 324.784"/><polyline fill="none" stroke="#fff" stroke-width="1" points="451.65 348.861 474.061 348.861"/><polyline fill="none" stroke="#fff" stroke-width="1" points="451.65 337.663 451.65 348.861"/><polyline fill="none" stroke="#fff" stroke-width="1" points="910.23 315.826 910.23 296.789"/><polyline fill="none" stroke="#fff" stroke-width="1" points="899.024 311.907 921.435 311.907"/><polyline fill="none" stroke="#fff" stroke-width="1" points="899.024 300.708 899.024 311.907"/><polyline fill="none" stroke="#fff" stroke-width="1" points="921.435 311.907 921.435 300.708 899.024 300.708"/><polyline fill="none" stroke="#ff0" stroke-width="1" points="920.875 306.307 899.585 306.307"/><polyline fill="none" stroke="#fff" stroke-width="1" points="474.061 348.861 474.061 337.663 451.65 337.663"/><polyline fill="none" stroke="#fff" stroke-width="1" points="814.144 352.22 814.144 371.257"/><polyline fill="none" stroke="#fff" stroke-width="1" points="825.349 356.139 802.938 356.139"/><polyline fill="none" stroke="#fff" stroke-width="1" points="825.349 367.338 825.349 356.139"/><polyline fill="none" stroke="#fff" stroke-width="1" points="802.938 356.139 802.938 367.338 825.349 367.338"/><polyline fill="none" stroke="#ff0" stroke-width="1" points="803.499 361.739 824.789 361.739"/><polyline fill="none" stroke="#ff0" stroke-width="1" points="473.501 343.262 452.211 343.262"/><polyline fill="none" stroke="#fff" stroke-width="1" points="623.653 516.834 623.653 539.231"/></g></svg>