<svg xmlns="http://www.w3.org/2000/svg" xmlns:xlink="http://www.w3.org/1999/xlink" width="1277" height="705" viewBox="0 0 1277 705"><title>D:\junctionJoin_after.svg</title><desc>Creator: GL2PS 1.3.6, (C) 1999-2011 C. Geuzaine For: sumo-gui; http://sumo.sf.net CreationDate: Wed Nov 09 12:36:35 2011</desc><polygon fill="#fff" points="0 0 1277 0 1277 705 0 705"/><g shape-rendering="crispEdges"><polygon fill="#000" points="231.75 687.525 229.58 680.781 229.58 687.525"/><polygon fill="#000" points="232.086 681.356 232.087 682.753 232.46 681.034"/><polygon fill="#000" points="240.437 687.525 238.268 684.009 238.268 687.525"/><polygon fill="#000" points="240.437 687.525 238.272 683.945 238.268 684.009"/><polygon fill="#000" points="240.437 687.525 238.275 683.88 238.272 683.945"/><polygon fill="#000" points="240.437 687.525 238.277 683.847 238.275 683.88"/><polygon fill="#000" points="240.437 687.525 238.279 683.768 238.277 683.847"/><polygon fill="#000" points="240.437 687.525 238.281 683.665 238.279 683.768"/><polygon fill="#000" points="240.437 687.525 238.281 683.604 238.281 683.665"/><polygon fill="#000" points="240.437 687.525 239.829 681.335 239.563 681.077"/><polygon fill="#000" points="240.437 687.525 240.218 682.013 239.829 681.335"/><polygon fill="#000" points="240.437 687.525 240.412 682.897 240.218 682.013"/><polygon fill="#000" points="240.437 687.525 240.437 683.417 240.412 682.897"/><polygon fill="#000" points="236.093 687.525 233.924 684.009 233.924 687.525"/><polygon fill="#000" points="236.093 687.525 234.331 680.672 233.924 684.009"/><polygon fill="#000" points="236.093 687.525 234.812 680.834 234.331 680.672"/><polygon fill="#000" points="236.093 687.525 235.033 680.955 234.812 680.834"/><polygon fill="#000" points="236.093 687.525 235.42 681.268 235.033 680.955"/><polygon fill="#000" points="236.093 687.525 235.725 681.668 235.42 681.268"/><polygon fill="#000" points="236.199 681.447 236.111 683.848 236.223 683.227"/><polygon fill="#000" points="236.199 681.447 236.093 684.212 236.111 683.848"/><polygon fill="#000" points="235.847 681.9 236.093 684.212 236.199 681.447"/><polygon fill="#000" points="235.847 681.9 236.093 687.525 236.093 684.212"/><polygon fill="#000" points="235.725 681.668 236.093 687.525 235.847 681.9"/><polygon fill="#000" points="236.6 681.089 236.941 682.326 236.819 680.946"/><polygon fill="#000" points="236.6 681.089 236.584 682.569 236.941 682.326"/><polygon fill="#000" points="236.6 681.089 236.439 682.751 236.584 682.569"/><polygon fill="#000" points="236.6 681.089 236.223 683.227 236.439 682.751"/><polygon fill="#000" points="236.6 681.089 236.199 681.447 236.223 683.227"/><polygon fill="#000" points="237.287 680.736 237.389 682.245 237.79 680.631"/><polygon fill="#000" points="237.287 680.736 236.941 682.326 237.389 682.245"/><polygon fill="#000" points="14.38 683.04 14.342 682.185 14.226 684.663"/><polygon fill="#000" points="14.226 684.663 14.342 682.185 14.034 680.721"/><polygon fill="#000" points="14.226 684.663 14.034 680.721 13.764 685.959"/><polygon fill="#000" points="237.287 680.736 236.819 680.946 236.941 682.326"/><polygon fill="#000" points="238.056 680.618 237.859 682.361 238.07 682.566"/><polygon fill="#000" points="237.79 680.631 237.859 682.361 238.056 680.618"/><polygon fill="#000" points="237.79 680.631 237.566 682.258 237.859 682.361"/><polygon fill="#000" points="237.389 682.245 237.566 682.258 237.79 680.631"/><polygon fill="#000" points="238.899 680.733 240.437 687.525 239.563 681.077"/><polygon fill="#000" points="238.899 680.733 238.281 683.604 240.437 687.525"/><polygon fill="#000" points="238.899 680.733 238.247 683.094 238.281 683.604"/><polygon fill="#000" points="13.764 685.959 14.034 680.721 13.417 679.586"/><polygon fill="#000" points="13.764 685.959 13.417 679.586 13.417 686.485"/><polygon fill="#000" points="13.417 686.485 13.417 679.586 12.999 679.149"/><polygon fill="#000" points="238.899 680.733 238.145 682.711 238.247 683.094"/><polygon fill="#000" points="238.899 680.733 238.07 682.566 238.145 682.711"/><polygon fill="#000" points="238.899 680.733 238.056 680.618 238.07 682.566"/><polygon fill="#000" points="233.091 680.722 233.229 682.258 233.554 680.63"/><polygon fill="#000" points="233.091 680.722 233.043 682.245 233.229 682.258"/><polygon fill="#000" points="232.662 680.907 233.043 682.245 233.091 680.722"/><polygon fill="#000" points="232.662 680.907 232.593 682.326 233.043 682.245"/><polygon fill="#000" points="232.46 681.034 232.593 682.326 232.662 680.907"/><polygon fill="#000" points="232.46 681.034 232.233 682.57 232.593 682.326"/><polygon fill="#000" points="232.087 682.753 232.233 682.57 232.46 681.034"/><polygon fill="#000" points="234.331 680.672 233.893 683.24 233.924 684.009"/><polygon fill="#000" points="234.331 680.672 233.8 682.727 233.893 683.24"/><polygon fill="#000" points="13.417 686.485 12.999 679.149 12.516 687.262"/><polygon fill="#000" points="12.516 687.262 12.999 679.149 12.062 683.021"/><polygon fill="#000" points="12.516 687.262 12.062 683.021 12.049 683.663"/><polygon fill="#000" points="233.798 680.618 233.8 682.727 234.331 680.672"/><polygon fill="#000" points="233.798 680.618 233.731 682.566 233.8 682.727"/><polygon fill="#000" points="233.554 680.63 233.731 682.566 233.798 680.618"/><polygon fill="#000" points="233.554 680.63 233.529 682.361 233.731 682.566"/><polygon fill="#000" points="233.229 682.258 233.529 682.361 233.554 680.63"/><polygon fill="#000" points="232.086 681.356 231.871 683.23 232.087 682.753"/><polygon fill="#000" points="232.086 681.356 231.763 683.846 231.871 683.23"/><polygon fill="#000" points="231.75 681.769 231.763 683.846 232.086 681.356"/><polygon fill="#000" points="231.75 681.769 231.75 684.207 231.763 683.846"/><polygon fill="#000" points="231.75 680.781 231.75 684.207 231.75 681.769"/><polygon fill="#000" points="231.75 680.781 231.75 687.525 231.75 684.207"/><polygon fill="#000" points="229.58 680.781 231.75 687.525 231.75 680.781"/><polygon fill="#000" points="221.526 679.586 221.526 686.485 221.944 686.922"/><polygon fill="#000" points="221.179 680.113 221.526 686.485 221.526 679.586"/><polygon fill="#000" points="221.179 680.113 220.909 685.352 221.526 686.485"/><polygon fill="#000" points="220.716 681.412 220.909 685.352 221.179 680.113"/><polygon fill="#000" points="220.716 681.412 220.6 683.892 220.909 685.352"/><polygon fill="#000" points="220.561 683.04 220.6 683.892 220.716 681.412"/><polygon fill="#000" points="222.932 684.224 222.975 687.505 223.084 685.105"/><polygon fill="#000" points="222.932 684.224 222.881 683.021 222.975 687.505"/><polygon fill="#000" points="223.199 685.424 224.265 687.699 223.523 685.872"/><polygon fill="#000" points="223.199 685.424 222.975 687.505 224.265 687.699"/><polygon fill="#000" points="223.199 685.424 223.084 685.105 222.975 687.505"/><polygon fill="#000" points="224.265 687.699 223.984 686.095 223.523 685.872"/><polygon fill="#000" points="224.265 687.699 224.265 686.123 223.984 686.095"/><polygon fill="#000" points="224.942 687.65 224.265 686.123 224.265 687.699"/><polygon fill="#000" points="224.942 687.65 224.791 686.011 224.265 686.123"/><polygon fill="#000" points="225.182 685.676 224.791 686.011 224.942 687.65"/><polygon fill="#000" points="226.101 687.262 225.182 685.676 224.942 687.65"/><polygon fill="#000" points="226.101 687.262 225.327 685.424 225.182 685.676"/><polygon fill="#000" points="226.101 687.262 225.532 684.705 225.327 685.424"/><polygon fill="#000" points="226.101 687.262 225.634 683.663 225.532 684.705"/><polygon fill="#000" points="222.426 678.81 222.893 682.386 222.995 681.357"/><polygon fill="#000" points="222.426 678.81 222.881 683.021 222.893 682.386"/><polygon fill="#000" points="222.426 678.81 222.975 687.505 222.881 683.021"/><polygon fill="#000" points="222.426 678.81 221.944 686.922 222.975 687.505"/><polygon fill="#000" points="222.426 678.81 221.526 679.586 221.944 686.922"/><polygon fill="#000" points="223.588 678.421 223.736 680.067 224.265 678.373"/><polygon fill="#000" points="223.588 678.421 223.344 680.398 223.736 680.067"/><polygon fill="#000" points="11.744 680.646 11.858 680.961 11.969 678.567"/><polygon fill="#000" points="11.969 678.567 11.858 680.961 12.011 681.832"/><polygon fill="#000" points="11.969 678.567 12.011 681.832 12.999 679.149"/><polygon fill="#000" points="223.588 678.421 223.199 680.646 223.344 680.398"/><polygon fill="#000" points="223.588 678.421 222.995 681.357 223.199 680.646"/><polygon fill="#000" points="223.588 678.421 222.426 678.81 222.995 681.357"/><polygon fill="#000" points="225.554 678.567 225.007 680.205 225.33 680.646"/><polygon fill="#000" points="225.554 678.567 224.547 679.984 225.007 680.205"/><polygon fill="#000" points="224.265 678.373 224.547 679.984 225.554 678.567"/><polygon fill="#000" points="224.265 678.373 224.265 679.957 224.547 679.984"/><polygon fill="#000" points="223.736 680.067 224.265 679.957 224.265 678.373"/><polygon fill="#000" points="226.584 679.149 225.596 681.832 225.647 683.021"/><polygon fill="#000" points="225.554 678.567 225.596 681.832 226.584 679.149"/><polygon fill="#000" points="225.554 678.567 225.444 680.961 225.596 681.832"/><polygon fill="#000" points="225.33 680.646 225.444 680.961 225.554 678.567"/><polygon fill="#000" points="226.101 687.262 225.647 683.021 225.634 683.663"/><polygon fill="#000" points="226.101 687.262 226.584 679.149 225.647 683.021"/><polygon fill="#000" points="227.002 686.485 226.584 679.149 226.101 687.262"/><polygon fill="#000" points="227.002 686.485 227.002 679.586 226.584 679.149"/><polygon fill="#000" points="227.349 685.959 227.002 679.586 227.002 686.485"/><polygon fill="#000" points="227.349 685.959 227.619 680.721 227.002 679.586"/><polygon fill="#000" points="227.811 684.663 227.619 680.721 227.349 685.959"/><polygon fill="#000" points="227.811 684.663 227.927 682.185 227.619 680.721"/><polygon fill="#000" points="227.966 683.04 227.927 682.185 227.811 684.663"/><polygon fill="#000" points="219.121 687.525 212.831 685.922 212.831 687.525"/><polygon fill="#000" points="219.121 687.525 214.879 685.922 212.831 685.922"/><polygon fill="#000" points="219.121 687.525 217.073 685.922 214.879 685.922"/><polygon fill="#000" points="219.121 687.525 219.121 685.922 217.073 685.922"/><polygon fill="#000" points="214.879 680.112 212.777 678.97 212.777 680.545"/><polygon fill="#000" points="214.879 680.112 214.869 678.536 212.777 678.97"/><polygon fill="#000" points="214.879 680.112 217.073 678.536 214.869 678.536"/><polygon fill="#000" points="214.879 680.112 217.073 685.922 217.073 678.536"/><polygon fill="#000" points="214.879 680.112 214.879 685.922 217.073 685.922"/><polygon fill="#000" points="18.165 687.525 15.995 680.781 15.995 687.525"/><polygon fill="#000" points="18.501 681.356 18.502 682.753 18.875 681.034"/><polygon fill="#000" points="26.852 687.525 24.682 684.009 24.682 687.525"/><polygon fill="#000" points="26.852 687.525 24.687 683.945 24.682 684.009"/><polygon fill="#000" points="26.852 687.525 24.69 683.88 24.687 683.945"/><polygon fill="#000" points="26.852 687.525 24.692 683.847 24.69 683.88"/><polygon fill="#000" points="26.852 687.525 24.694 683.768 24.692 683.847"/><polygon fill="#000" points="26.852 687.525 24.696 683.665 24.694 683.768"/><polygon fill="#000" points="26.852 687.525 24.696 683.604 24.696 683.665"/><polygon fill="#000" points="26.852 687.525 26.244 681.335 25.978 681.077"/><polygon fill="#000" points="26.852 687.525 26.633 682.013 26.244 681.335"/><polygon fill="#000" points="26.852 687.525 26.827 682.897 26.633 682.013"/><polygon fill="#000" points="26.852 687.525 26.852 683.417 26.827 682.897"/><polygon fill="#000" points="22.508 687.525 20.339 684.009 20.339 687.525"/><polygon fill="#000" points="22.508 687.525 20.746 680.672 20.339 684.009"/><polygon fill="#000" points="22.508 687.525 21.227 680.834 20.746 680.672"/><polygon fill="#000" points="22.508 687.525 21.448 680.955 21.227 680.834"/><polygon fill="#000" points="22.508 687.525 21.835 681.268 21.448 680.955"/><polygon fill="#000" points="22.508 687.525 22.14 681.668 21.835 681.268"/><polygon fill="#000" points="12.999 679.149 12.011 681.832 12.062 683.021"/><polygon fill="#000" points="10.151 680.067 10.68 679.957 10.68 678.373"/><polygon fill="#000" points="10.68 678.373 10.68 679.957 10.961 679.984"/><polygon fill="#000" points="22.614 681.447 22.525 683.848 22.637 683.227"/><polygon fill="#000" points="22.614 681.447 22.508 684.212 22.525 683.848"/><polygon fill="#000" points="22.262 681.9 22.508 684.212 22.614 681.447"/><polygon fill="#000" points="22.262 681.9 22.508 687.525 22.508 684.212"/><polygon fill="#000" points="22.14 681.668 22.508 687.525 22.262 681.9"/><polygon fill="#000" points="23.015 681.089 23.356 682.326 23.234 680.946"/><polygon fill="#000" points="23.015 681.089 22.999 682.569 23.356 682.326"/><polygon fill="#000" points="23.015 681.089 22.854 682.751 22.999 682.569"/><polygon fill="#000" points="23.015 681.089 22.637 683.227 22.854 682.751"/><polygon fill="#000" points="23.015 681.089 22.614 681.447 22.637 683.227"/><polygon fill="#000" points="23.702 680.736 23.804 682.245 24.205 680.631"/><polygon fill="#000" points="23.702 680.736 23.356 682.326 23.804 682.245"/><polygon fill="#000" points="23.702 680.736 23.234 680.946 23.356 682.326"/><polygon fill="#000" points="24.471 680.618 24.274 682.361 24.484 682.566"/><polygon fill="#000" points="24.205 680.631 24.274 682.361 24.471 680.618"/><polygon fill="#000" points="24.205 680.631 23.981 682.258 24.274 682.361"/><polygon fill="#000" points="23.804 682.245 23.981 682.258 24.205 680.631"/><polygon fill="#000" points="25.314 680.733 26.852 687.525 25.978 681.077"/><polygon fill="#000" points="25.314 680.733 24.696 683.604 26.852 687.525"/><polygon fill="#000" points="25.314 680.733 24.662 683.094 24.696 683.604"/><polygon fill="#000" points="25.314 680.733 24.56 682.711 24.662 683.094"/><polygon fill="#000" points="25.314 680.733 24.484 682.566 24.56 682.711"/><polygon fill="#000" points="25.314 680.733 24.471 680.618 24.484 682.566"/><polygon fill="#000" points="19.506 680.722 19.644 682.258 19.969 680.63"/><polygon fill="#000" points="19.506 680.722 19.458 682.245 19.644 682.258"/><polygon fill="#000" points="19.076 680.907 19.458 682.245 19.506 680.722"/><polygon fill="#000" points="19.076 680.907 19.008 682.326 19.458 682.245"/><polygon fill="#000" points="18.875 681.034 19.008 682.326 19.076 680.907"/><polygon fill="#000" points="18.875 681.034 18.648 682.57 19.008 682.326"/><polygon fill="#000" points="18.502 682.753 18.648 682.57 18.875 681.034"/><polygon fill="#000" points="20.746 680.672 20.308 683.24 20.339 684.009"/><polygon fill="#000" points="20.746 680.672 20.215 682.727 20.308 683.24"/><polygon fill="#000" points="20.213 680.618 20.215 682.727 20.746 680.672"/><polygon fill="#000" points="20.213 680.618 20.146 682.566 20.215 682.727"/><polygon fill="#000" points="19.969 680.63 20.146 682.566 20.213 680.618"/><polygon fill="#000" points="10.68 678.373 10.961 679.984 11.969 678.567"/><polygon fill="#000" points="11.969 678.567 10.961 679.984 11.422 680.205"/><polygon fill="#000" points="11.969 678.567 11.422 680.205 11.744 680.646"/><polygon fill="#000" points="10.003 678.421 8.841 678.81 9.41 681.357"/><polygon fill="#000" points="19.969 680.63 19.944 682.361 20.146 682.566"/><polygon fill="#000" points="19.644 682.258 19.944 682.361 19.969 680.63"/><polygon fill="#000" points="18.501 681.356 18.286 683.23 18.502 682.753"/><polygon fill="#000" points="10.003 678.421 9.41 681.357 9.614 680.646"/><polygon fill="#000" points="10.003 678.421 9.614 680.646 9.759 680.398"/><polygon fill="#000" points="10.003 678.421 9.759 680.398 10.151 680.067"/><polygon fill="#000" points="18.501 681.356 18.178 683.846 18.286 683.23"/><polygon fill="#000" points="18.165 681.769 18.178 683.846 18.501 681.356"/><polygon fill="#000" points="18.165 681.769 18.165 684.207 18.178 683.846"/><polygon fill="#000" points="18.165 680.781 18.165 684.207 18.165 681.769"/><polygon fill="#000" points="18.165 680.781 18.165 687.525 18.165 684.207"/><polygon fill="#000" points="15.995 680.781 18.165 687.525 18.165 680.781"/><polygon fill="#000" points="7.941 679.586 7.941 686.485 8.358 686.922"/><polygon fill="#000" points="7.594 680.113 7.941 686.485 7.941 679.586"/><polygon fill="#000" points="7.594 680.113 7.324 685.352 7.941 686.485"/><polygon fill="#000" points="7.131 681.412 7.324 685.352 7.594 680.113"/><polygon fill="#000" points="7.131 681.412 7.015 683.892 7.324 685.352"/><polygon fill="#000" points="10.003 678.421 10.151 680.067 10.68 678.373"/><polygon fill="#000" points="8.841 678.81 7.941 679.586 8.358 686.922"/><polygon fill="#000" points="8.841 678.81 8.358 686.922 9.389 687.505"/><polygon fill="#000" points="6.976 683.04 7.015 683.892 7.131 681.412"/><polygon fill="#000" points="9.347 684.224 9.389 687.505 9.499 685.105"/><polygon fill="#000" points="9.347 684.224 9.295 683.021 9.389 687.505"/><polygon fill="#000" points="9.614 685.424 10.68 687.699 9.937 685.872"/><polygon fill="#000" points="9.614 685.424 9.389 687.505 10.68 687.699"/><polygon fill="#000" points="9.614 685.424 9.499 685.105 9.389 687.505"/><polygon fill="#000" points="10.68 687.699 10.399 686.095 9.937 685.872"/><polygon fill="#000" points="8.841 678.81 9.389 687.505 9.295 683.021"/><polygon fill="#000" points="8.841 678.81 9.295 683.021 9.308 682.386"/><polygon fill="#000" points="8.841 678.81 9.308 682.386 9.41 681.357"/><polygon fill="#000" points="10.68 687.699 10.68 686.123 10.399 686.095"/><polygon fill="#000" points="11.357 687.65 10.68 686.123 10.68 687.699"/><polygon fill="#000" points="11.357 687.65 11.206 686.011 10.68 686.123"/><polygon fill="#000" points="11.597 685.676 11.206 686.011 11.357 687.65"/><polygon fill="#000" points="12.516 687.262 11.597 685.676 11.357 687.65"/><polygon fill="#000" points="12.516 687.262 11.742 685.424 11.597 685.676"/><polygon fill="#000" points="12.516 687.262 11.947 684.705 11.742 685.424"/><polygon fill="#000" points="12.516 687.262 12.049 683.663 11.947 684.705"/><polyline fill="none" stroke="#000" stroke-width="1" points="12.77 697.511 217.77 697.511 217.77 690.021"/><polyline fill="none" stroke="#000" stroke-width="1" points="12.77 697.511 12.77 690.021"/><polygon fill="#fff" points="1277 142.557 1277 103.996 853.222 298.403"/><polygon fill="#fff" points="882.342 361.8 1277 142.557 853.222 298.403"/><polygon fill="#fff" points="882.342 361.8 1277 180.752 1277 142.557"/><polygon fill="#fff" points="1277 214.487 1277 178.496 881.351 359.952"/><polygon fill="#fff" points="910.466 423.352 1277 214.487 881.351 359.952"/><polygon fill="#fff" points="910.466 423.352 1277 255.248 1277 214.487"/><polygon fill="#fff" points="1277 0 823.29 232.824 1277 19.814"/><polygon fill="#fff" points="1277 0 793.611 169.686 823.29 232.824"/><polygon fill="#fff" points="1277 0 1240.9 0 793.611 169.686"/><polygon fill="#fff" points="1155.04 0 793.611 169.686 1240.9 0"/><polygon fill="#fff" points="1050.55 0 794.952 171.276 1159.97 0"/><polygon fill="#fff" points="1050.55 0 765.286 108.132 794.952 171.276"/><polygon fill="#fff" points="995.736 0 765.286 108.132 1050.55 0"/><polygon fill="#fff" points="369.693 243.924 0 283.613 0 308.362"/><polygon fill="#fff" points="878.258 705 826.572 478.299 759.945 499.096"/><polygon fill="#fff" points="897.427 705 826.572 478.299 878.258 705"/><polygon fill="#fff" points="947.725 705 825.641 482.275 895.27 705"/><polygon fill="#fff" points="947.725 705 892.267 461.472 825.641 482.275"/><polygon fill="#fff" points="968.399 705 892.267 461.472 947.725 705"/><polygon fill="#fff" points="0 568.945 399.951 525.837 0 519.465"/><polygon fill="#fff" points="0 519.465 399.951 525.837 392.466 456.482"/><polygon fill="#fff" points="0 519.465 392.466 456.482 0 498.782"/><polygon fill="#fff" points="603.856 705 617.325 705 576.198 544.079"/><polygon fill="#fff" points="508.567 561.342 603.856 705 576.198 544.079"/><polygon fill="#fff" points="508.567 561.342 545.282 705 603.856 705"/><polygon fill="#fff" points="535.268 705 547.329 705 510.502 560.903"/><polygon fill="#fff" points="442.871 578.166 535.268 705 510.502 560.903"/><polygon fill="#fff" points="442.871 578.166 475.286 705 535.268 705"/><polygon fill="#fff" points="369.693 243.924 0 308.362 377.148 313.283"/><polygon fill="#fff" points="878.258 705 759.945 499.096 824.299 705"/><polygon fill="#fff" points="0 308.362 0 353.772 377.148 313.283"/><polygon fill="#000" points="1051.12 286.631 1027.14 234.421 971.166 260.099"/><polygon fill="#000" points="939.173 337.987 915.192 285.777 859.217 311.455"/><polygon fill="#000" points="1107.1 260.953 1163.07 235.275 1083.11 208.743"/><polygon fill="#000" points="1163.07 235.275 1139.09 183.065 1083.11 208.743"/><polygon fill="#000" points="883.199 363.665 939.173 337.987 859.217 311.455"/><polygon fill="#000" points="1219.04 209.597 1275.02 183.919 1195.06 157.387"/><polygon fill="#000" points="1275.02 183.919 1251.04 131.709 1195.06 157.387"/><polygon fill="#000" points="782.073 172.836 806.515 224.831 862.26 198.66"/><polygon fill="#000" points="816.903 440.48 762.033 457.608 780.396 516.359"/><polygon fill="#000" points="835.265 499.232 816.903 440.48 780.396 516.359"/><polygon fill="#000" points="853.628 557.983 798.758 575.111 817.121 633.863"/><polygon fill="#000" points="871.991 616.735 853.628 557.983 817.121 633.863"/><polygon fill="#000" points="837.818 146.664 782.073 172.836 862.26 198.66"/><polygon fill="#000" points="893.563 120.493 918.005 172.489 973.75 146.317"/><polygon fill="#000" points="949.308 94.321 893.563 120.493 973.75 146.317"/><polygon fill="#000" points="1005.05 68.15 1029.5 120.146 1085.24 93.974"/><polygon fill="#000" points="876.154 705 835.484 692.614 839.355 705"/><polygon fill="#000" points="876.154 705 890.353 675.487 835.484 692.614"/><polygon fill="#000" points="899.578 705 890.353 675.487 876.154 705"/><polygon fill="#000" points="1060.8 41.978 1005.05 68.15 1085.24 93.974"/><polygon fill="#000" points="1116.54 15.807 1140.99 67.803 1196.73 41.631"/><polygon fill="#000" points="1177.16 0 1116.54 15.807 1196.73 41.631"/><polygon fill="#000" points="1177.16 0 1150.21 0 1116.54 15.807"/><polygon fill="#000" points="1277 0 1252.48 15.46 1277 3.946"/><polygon fill="#000" points="1277 0 1245.21 0 1252.48 15.46"/><polygon fill="#000" points="571.89 705 602.493 705 592.757 666.906"/><polygon fill="#000" points="537.061 681.122 571.89 705 592.757 666.906"/><polygon fill="#000" points="537.061 681.122 543.163 705 571.89 705"/><polygon fill="#000" points="521.819 621.486 577.515 607.269 562.274 547.633"/><polygon fill="#000" points="506.578 561.849 521.819 621.486 562.274 547.633"/><polygon fill="#000" points="995.147 312.309 1051.12 286.631 971.166 260.099"/><polygon fill="#000" points="510.556 560.834 602.554 705 574.208 544.587"/><polygon fill="#000" points="510.556 560.834 547.401 705 602.554 705"/><polygon fill="#000" points="533.885 705 545.21 705 508.512 561.41"/><polygon fill="#000" points="444.86 577.658 533.885 705 508.512 561.41"/><polygon fill="#000" points="444.86 577.658 477.405 705 533.885 705"/><polygon fill="#000" points="966.249 705 890.308 462.084 946.811 705"/><polygon fill="#000" points="946.811 705 890.308 462.084 827.601 481.663"/><polygon fill="#000" points="946.811 705 827.601 481.663 897.421 705"/><polygon fill="#000" points="895.276 705 824.612 478.91 877.258 705"/><polygon fill="#000" points="877.258 705 824.612 478.91 761.904 498.485"/><polygon fill="#000" points="877.258 705 761.904 498.485 826.45 705"/><polygon fill="#000" points="1277 0 822.418 230.967 1277 17.547"/><polygon fill="#000" points="1277 0 794.484 171.543 822.418 230.967"/><polygon fill="#000" points="1277 0 1240.64 0 794.484 171.543"/><polygon fill="#000" points="0 520.302 392.686 458.522 0 500.846"/><polygon fill="#000" points="0 520.302 399.731 523.797 392.686 458.522"/><polygon fill="#000" points="0 566.881 399.731 523.797 0 520.302"/><polygon fill="#000" points="0 308.963 0 351.708 376.929 311.243"/><polygon fill="#000" points="369.912 245.964 0 308.963 376.929 311.243"/><polygon fill="#000" points="369.912 245.964 0 285.676 0 308.963"/><polygon fill="#000" points="1159.87 0 794.484 171.543 1240.64 0"/><polygon fill="#000" points="1052.44 0 794.08 169.419 1155.14 0"/><polygon fill="#000" points="909.609 421.487 1277 252.991 1277 214.622"/><polygon fill="#000" points="909.609 421.487 1277 214.622 882.208 361.817"/><polygon fill="#000" points="1052.44 0 766.159 109.989 794.08 169.419"/><polygon fill="#000" points="1000.57 0 766.159 109.989 1052.44 0"/><polygon fill="#000" points="1277 142.547 1277 106.254 854.079 300.267"/><polygon fill="#000" points="881.486 359.935 1277 142.547 854.079 300.267"/><polygon fill="#000" points="881.486 359.935 1277 178.495 1277 142.547"/><polygon fill="#000" points="602.554 705 615.206 705 574.208 544.587"/><polygon fill="#000" points="1277 214.622 1277 180.753 882.208 361.817"/><polygon fill="#000" points="766.569 109.749 399.699 523.781 369.93 245.982"/><polygon fill="#000" points="766.569 109.749 444.865 577.741 399.699 523.781"/><polygon fill="#000" points="766.569 109.749 890.981 463.667 444.865 577.741"/><polygon fill="#000" points="766.569 109.749 369.93 245.982 766.569 109.749"/><polygon fill="#000" points="766.569 109.749 909.663 421.607 890.981 463.667"/><polygon fill="#000" points="763.279 308.031 794.28 332.857 783.82 282.414"/><polygon fill="#000" points="794.28 332.857 814.82 307.24 783.82 282.414"/><polygon fill="#000" points="801.969 336.258 865.202 346.311 807.13 303.838"/><polygon fill="#000" points="865.202 346.311 870.363 313.892 807.13 303.838"/><polygon fill="#000" points="757.137 294.628 789.963 295.817 791.4 256.22"/><polygon fill="#000" points="758.574 255.03 757.137 294.628 791.4 256.22"/><polygon fill="#000" points="760.997 247.025 788.976 264.224 822.44 209.854"/><polygon fill="#000" points="794.461 192.656 760.997 247.025 822.44 209.854"/><polygon fill="#000" points="381.016 264.051 365.824 293.156 451.229 337.678"/><polygon fill="#000" points="466.421 308.573 381.016 264.051 451.229 337.678"/><polygon fill="#000" points="472.653 314.27 444.997 331.981 477.229 382.248"/><polygon fill="#000" points="504.885 364.536 472.653 314.27 477.229 382.248"/><polygon fill="#000" points="373.355 262.19 373.486 295.017 528.282 294.402"/><polygon fill="#000" points="528.151 261.575 373.355 262.19 528.282 294.402"/><polygon fill="#000" points="532.725 262.205 523.708 293.771 645.245 328.445"/><polygon fill="#000" points="654.262 296.879 532.725 262.205 645.245 328.445"/><polygon fill="#000" points="659.996 299.83 639.512 325.493 727.791 395.866"/><polygon fill="#000" points="748.275 370.204 659.996 299.83 727.791 395.866"/><polygon fill="#000" points="752.494 375.253 723.572 390.817 725.009 393.484"/><polygon fill="#000" points="753.931 377.921 752.494 375.253 725.009 393.484"/><polygon fill="#000" points="628.627 298.058 651.172 321.932 684.02 290.951"/><polygon fill="#000" points="661.475 267.077 628.627 298.058 684.02 290.951"/><polygon fill="#000" points="664.578 264.775 680.917 293.253 816.62 215.494"/><polygon fill="#000" points="800.281 187.016 664.578 264.775 816.62 215.494"/><polygon fill="#000" points="370.573 262.439 376.268 294.769 456.745 280.612"/><polygon fill="#000" points="451.051 248.282 370.573 262.439 456.745 280.612"/><polygon fill="#000" points="449.302 248.689 458.494 280.205 550.058 253.533"/><polygon fill="#000" points="540.866 222.017 449.302 248.689 550.058 253.533"/><polygon fill="#000" points="539.56 222.458 551.363 253.092 658.53 211.853"/><polygon fill="#000" points="646.726 181.219 539.56 222.458 658.53 211.853"/><polygon fill="#000" points="645.938 181.546 659.319 211.526 786.81 154.694"/><polygon fill="#000" points="875.172 469.28 871.066 443.634 842.737 474.467"/><polygon fill="#000" points="871.066 443.634 838.631 448.82 842.737 474.467"/><polygon fill="#000" points="870.906 449.677 875.628 427.724 838.791 442.778"/><polygon fill="#000" points="875.628 427.724 843.513 420.825 838.791 442.778"/><polygon fill="#000" points="872.692 434.146 886.447 415.886 846.449 414.402"/><polygon fill="#000" points="886.447 415.886 860.204 396.142 846.449 414.402"/><polygon fill="#000" points="882.143 419.862 904.726 405.5 864.508 392.167"/><polygon fill="#000" points="904.726 405.5 887.091 377.805 864.508 392.167"/><polygon fill="#000" points="809.481 486.137 801.475 435.461 777.035 491.257"/><polygon fill="#000" points="754.03 378.108 724.91 393.297 778.698 496.292"/><polygon fill="#000" points="625.048 382.932 570.233 430.327 646.539 407.758"/><polygon fill="#000" points="570.233 430.327 591.724 455.152 646.539 407.758"/><polygon fill="#000" points="565.48 437.307 526.884 547.278 596.477 448.172"/><polygon fill="#000" points="807.819 481.103 754.03 378.108 778.698 496.292"/><polygon fill="#000" points="876.571 343.967 858.993 316.236 813.622 344.959"/><polygon fill="#000" points="831.2 372.69 876.571 343.967 813.622 344.959"/><polygon fill="#000" points="835.451 368.804 809.371 348.846 781.861 384.751"/><polygon fill="#000" points="807.941 404.708 835.451 368.804 781.861 384.751"/><polygon fill="#000" points="810.932 398.298 778.87 391.161 769.221 434.452"/><polygon fill="#000" points="801.283 441.589 810.932 398.298 769.221 434.452"/><polygon fill="#000" points="801.475 435.461 769.029 440.58 777.035 491.257"/><polygon fill="#000" points="506.442 379.137 475.672 367.647 454.731 423.659"/><polygon fill="#000" points="485.502 435.148 506.442 379.137 454.731 423.659"/><polygon fill="#000" points="480.652 441.995 459.582 416.811 385.674 478.567"/><polygon fill="#000" points="406.744 503.751 480.652 441.995 385.674 478.567"/><polygon fill="#000" points="874.301 345.167 861.264 315.036 723.097 374.74"/><polygon fill="#000" points="736.134 404.871 874.301 345.167 723.097 374.74"/><polygon fill="#000" points="735.42 405.16 723.811 374.451 594.472 423.282"/><polygon fill="#000" points="606.081 453.99 735.42 405.16 594.472 423.282"/><polygon fill="#000" points="605.077 454.333 595.477 422.939 481.946 457.613"/><polygon fill="#000" points="491.546 489.007 605.077 454.333 481.946 457.613"/><polygon fill="#000" points="489.925 489.413 483.567 457.206 393.03 475.056"/><polygon fill="#000" points="399.388 507.263 489.925 489.413 393.03 475.056"/><polygon fill="#000" points="461.221 575.06 492.151 564.008 479.012 527.283"/><polygon fill="#000" points="448.082 538.335 461.221 575.06 479.012 527.283"/><polygon fill="#000" points="450.138 542.287 476.956 523.331 459.095 498.095"/><polygon fill="#000" points="432.277 517.051 450.138 542.287 459.095 498.095"/><polygon fill="#000" points="436.993 521.499 454.379 493.647 432.001 479.696"/><polygon fill="#000" points="414.615 507.547 436.993 521.499 432.001 479.696"/><polygon fill="#000" points="421.821 509.968 424.795 477.275 397.696 474.813"/><polygon fill="#000" points="394.722 507.505 421.821 509.968 397.696 474.813"/><polygon fill="#000" points="525.964 553.157 558.8 552.263 556.131 454.397"/><polygon fill="#000" points="523.295 455.292 525.964 553.157 556.131 454.397"/><polygon fill="#000" points="524.879 447.799 554.547 461.889 597.866 370.794"/><polygon fill="#000" points="568.197 356.704 524.879 447.799 597.866 370.794"/><polygon fill="#000" points="571.746 351.825 594.317 375.674 651.185 321.919"/><polygon fill="#000" points="628.614 298.07 571.746 351.825 651.185 321.919"/><polygon fill="#000" points="639.282 379.306 632.305 411.384 703.133 426.772"/><polygon fill="#000" points="710.111 394.694 639.282 379.306 703.133 426.772"/><polygon fill="#000" points="717.612 398.536 695.632 422.93 782.268 500.895"/><polygon fill="#000" points="804.249 476.5 717.612 398.536 782.268 500.895"/><polygon fill="#000" points="526.884 547.278 557.88 558.143 596.477 448.172"/><polygon fill="#000" points="773.429 124.714 645.938 181.546 786.81 154.694"/><polygon fill="#0f0" points="775.451 105.629 803.372 165.059 794.08 169.419"/><polygon fill="#fff" points="854.017 103.896 816.85 121.336 854.89 105.753"/><polygon fill="#fff" points="816.85 121.336 817.723 123.193 854.89 105.753"/><polygon fill="#fff" points="798.703 130.984 815.105 117.621 819.468 126.907"/><polyline fill="none" stroke="#0f0" stroke-width="1" points="780.119 139.704 373.42 278.604"/><polygon fill="#0f0" points="373.42 278.604 379.863 272.067 382.519 279.833"/><polygon fill="#0f0" points="794.484 171.543 803.774 167.181 808.451 201.255"/><polygon fill="#0f0" points="803.774 167.181 817.741 196.893 808.451 201.255"/><polygon fill="#0f0" points="808.451 201.255 817.741 196.893 822.418 230.967"/><polygon fill="#0f0" points="542.382 552.71 549.323 546.704 551.355 554.656"/><polyline fill="none" stroke="#0f0" stroke-width="1" points="793.258 488.697 542.382 552.71"/><polygon fill="#0f0" points="373.42 278.604 382.602 278.609 378.925 285.947"/><polyline fill="none" stroke="#0f0" stroke-width="1" points="793.258 488.697 373.42 278.604"/><polygon fill="#0f0" points="867.782 330.101 868.008 339.274 860.575 335.786"/><polyline fill="none" stroke="#0f0" stroke-width="1" points="793.258 488.697 867.782 330.101"/><polygon fill="#fff" points="807.944 570.091 796.924 552.037 806.722 548.978"/><polygon fill="#fff" points="803.904 560.605 805.863 559.994 799.742 540.41"/><polygon fill="#fff" points="797.783 541.021 803.904 560.605 799.742 540.41"/><polygon fill="#fff" points="798.456 539.736 799.068 541.695 808.867 538.636"/><polygon fill="#fff" points="808.255 536.678 798.456 539.736 808.867 538.636"/><polygon fill="#fff" points="809.54 537.351 807.581 537.963 816.762 567.339"/><polygon fill="#fff" points="818.722 566.727 809.54 537.351 816.762 567.339"/><polygon fill="#fff" points="779.166 546.833 797.232 535.82 800.293 545.612"/><polygon fill="#fff" points="788.658 542.795 789.27 544.753 808.867 538.636"/><polygon fill="#fff" points="808.255 536.678 788.658 542.795 808.867 538.636"/><polygon fill="#fff" points="809.54 537.351 807.581 537.963 816.762 567.339"/><polygon fill="#fff" points="818.722 566.727 809.54 537.351 816.762 567.339"/><polygon fill="#fff" points="837.955 528.482 819.889 539.495 816.829 529.703"/><polygon fill="#fff" points="828.463 532.519 827.851 530.561 808.255 536.678"/><polygon fill="#fff" points="808.867 538.636 828.463 532.519 808.255 536.678"/><polygon fill="#fff" points="809.54 537.351 807.581 537.963 816.762 567.339"/><polygon fill="#fff" points="818.722 566.727 809.54 537.351 816.762 567.339"/><polygon fill="#0f0" points="785.867 501.752 764.965 508.276 761.904 498.485"/><polygon fill="#0f0" points="782.807 491.96 785.867 501.752 761.904 498.485"/><polygon fill="#0f0" points="806.77 495.227 785.867 501.752 782.807 491.96"/><polygon fill="#0f0" points="803.71 485.435 806.77 495.227 782.807 491.96"/><polygon fill="#0f0" points="827.673 488.702 806.77 495.227 803.71 485.435"/><polygon fill="#0f0" points="824.612 478.91 827.673 488.702 803.71 485.435"/><polygon fill="#0f0" points="817.741 196.893 831.708 226.605 822.418 230.967"/><polygon fill="#fff" points="882.341 165.431 854.468 178.517 883.214 167.288"/><polygon fill="#fff" points="854.468 178.517 855.341 180.374 883.214 167.288"/><polygon fill="#0f0" points="895.908 391.652 896.204 400.823 888.745 397.391"/><polyline fill="none" stroke="#0f0" stroke-width="1" points="858.954 471.873 895.908 391.652"/><polygon fill="#fff" points="903.654 511.655 885.588 522.669 882.527 512.877"/><polygon fill="#fff" points="894.162 515.693 893.55 513.735 873.954 519.853"/><polygon fill="#fff" points="874.566 521.811 894.162 515.693 873.954 519.853"/><polygon fill="#fff" points="875.24 520.526 873.28 521.138 882.463 550.513"/><polygon fill="#fff" points="884.423 549.901 875.24 520.526 882.463 550.513"/><polygon fill="#0f0" points="893.369 471.876 830.662 491.455 827.601 481.663"/><polygon fill="#0f0" points="890.308 462.084 893.369 471.876 827.601 481.663"/><polygon fill="#fff" points="853.976 179.881 862.705 198.451 855.834 179.009"/><polygon fill="#fff" points="862.705 198.451 864.563 197.579 855.834 179.009"/><polygon fill="#fff" points="867.999 207.3 854.624 190.911 863.915 186.549"/><polygon fill="#fff" points="882.341 165.431 854.468 178.517 883.214 167.288"/><polygon fill="#fff" points="854.468 178.517 855.341 180.374 883.214 167.288"/><polygon fill="#fff" points="853.976 179.881 858.34 189.166 855.834 179.009"/><polygon fill="#fff" points="858.34 189.166 860.199 188.294 855.834 179.009"/><polygon fill="#fff" points="859.706 189.659 878.288 180.935 858.833 187.802"/><polygon fill="#fff" points="878.288 180.935 877.415 179.078 858.833 187.802"/><polygon fill="#fff" points="887.142 175.645 870.743 189.011 866.378 179.726"/><polyline fill="none" stroke="#0f0" stroke-width="1" points="808.451 201.255 542.382 552.71"/><polygon fill="#0f0" points="542.382 552.71 544.062 543.69 550.611 548.641"/><polyline fill="none" stroke="#0f0" stroke-width="1" points="808.451 201.255 867.782 330.101"/><polygon fill="#0f0" points="867.782 330.101 860.619 324.361 868.079 320.931"/><polygon fill="red" points="399.731 523.797 389.525 524.897 397.383 502.039"/><polygon fill="red" points="389.525 524.897 387.177 503.139 397.383 502.039"/><polygon fill="red" points="397.383 502.039 387.177 503.139 395.035 480.28"/><polygon fill="red" points="387.177 503.139 384.829 481.38 395.035 480.28"/><polygon fill="red" points="395.035 480.28 384.829 481.38 392.686 458.521"/><polygon fill="red" points="384.829 481.38 382.481 459.621 392.686 458.521"/><polygon fill="#fff" points="314.672 500.979 345.29 497.679 314.452 498.939"/><polygon fill="#fff" points="345.29 497.679 345.07 495.639 314.452 498.939"/><polygon fill="#fff" points="344.159 496.769 346.361 517.168 346.2 496.549"/><polygon fill="#fff" points="346.361 517.168 348.402 516.948 346.2 496.549"/><polygon fill="#fff" points="348.482 527.257 341.177 507.409 351.383 506.309"/><polygon fill="#fff" points="314.672 500.979 355.496 496.579 314.452 498.939"/><polygon fill="#fff" points="355.496 496.579 355.275 494.539 314.452 498.939"/><polygon fill="#fff" points="375.797 493.359 355.936 500.659 354.835 490.46"/><polygon fill="#fff" points="314.672 500.979 345.29 497.679 314.452 498.939"/><polygon fill="#fff" points="345.29 497.679 345.07 495.639 314.452 498.939"/><polygon fill="#fff" points="346.2 496.549 345.1 486.35 344.159 496.769"/><polygon fill="#fff" points="345.1 486.35 343.058 486.57 344.159 496.769"/><polygon fill="#fff" points="343.969 485.44 323.557 487.64 344.189 487.48"/><polygon fill="#fff" points="323.557 487.64 323.777 489.68 344.189 487.48"/><polygon fill="#fff" points="313.462 489.76 333.323 482.46 334.424 492.66"/><polyline fill="none" stroke="red" stroke-width="1" points="396.209 491.159 476.686 569.534"/><polygon fill="red" points="476.686 569.534 467.939 566.745 473.671 560.868"/><polyline fill="none" stroke="red" stroke-width="1" points="396.209 491.159 867.782 330.101"/><polygon fill="red" points="867.782 330.101 861.339 336.638 858.684 328.872"/><polyline fill="none" stroke="red" stroke-width="1" points="396.209 491.159 373.42 278.604"/><polygon fill="red" points="373.42 278.604 378.378 286.327 370.213 287.201"/><polygon fill="#0f0" points="766.159 109.989 775.451 105.629 794.08 169.419"/></g></svg>