<svg xmlns="http://www.w3.org/2000/svg" xmlns:svg="http://www.w3.org/2000/svg" id="svg2" width="1277" height="705" version="1.1" viewBox="0 0 1277 705"><metadata id="metadata998"/><title id="title4">D:\t1.svg</title><desc id="desc6">Creator: GL2PS 1.3.6, (C) 1999-2011 C. Geuzaine For: sumo-gui; http://sumo.sf.net CreationDate: Mon Sep 26 12:23:32 2011</desc><polygon id="polygon10" points="1277 0 1277 705 0 705 0 0" transform="scale(0.76552795,1)" style="fill:#337f33"/><g id="g12" shape-rendering="crispEdges"><polygon id="polygon386" fill="#fff" points="0 264.945 979.265 86.861 0 86.861"/><polygon id="polygon388" fill="#fff" points="0 264.945 979.265 278.976 979.265 86.861"/><polygon id="polygon390" fill="#fff" points="0 278.976 979.265 278.976 0 264.945"/><polygon id="polygon398" fill="#fff" points="0 637.873 979.265 651.904 979.265 459.789"/><polygon id="polygon400" fill="#fff" points="0 637.873 979.265 459.789 0 459.789"/><polygon id="polygon404" fill="#fff" points="0 465.44 979.265 465.44 0 451.409"/><polygon id="polygon406" fill="#fff" points="0 451.409 979.265 465.44 979.265 273.325"/><polygon id="polygon408" fill="#fff" points="0 451.409 979.265 273.325 0 273.325"/><polygon id="polygon410" fill="#000" points="631.543 284.626 631.543 126.414 461.923 126.414"/><polygon id="polygon412" fill="#000" points="970.784 284.626 970.784 126.414 801.164 126.414"/><polygon id="polygon414" fill="#000" points="801.164 284.626 970.784 284.626 801.164 126.414"/><polygon id="polygon416" fill="#000" points="970.784 471.09 970.784 312.878 801.164 312.878"/><polygon id="polygon418" fill="#000" points="801.164 471.09 970.784 471.09 801.164 312.878"/><polygon id="polygon420" fill="#000" points="631.543 471.09 631.543 312.878 461.923 312.878"/><polygon id="polygon422" fill="#000" points="461.923 471.09 631.543 471.09 461.923 312.878"/><polygon id="polygon424" fill="#000" points="292.303 471.09 292.303 312.878 122.682 312.878"/><polygon id="polygon426" fill="#000" points="122.682 284.626 292.303 284.626 122.682 126.414"/><polygon id="polygon428" fill="#000" points="122.682 471.09 292.303 471.09 122.682 312.878"/><polygon id="polygon430" fill="#000" points="461.923 284.626 631.543 284.626 461.923 126.414"/><polygon id="polygon432" fill="#000" points="292.303 284.626 292.303 126.414 122.682 126.414"/><polygon id="polygon434" fill="#000" points="0 459.789 979.265 459.789 0 446.584"/><polygon id="polygon436" fill="#000" points="0 446.584 979.265 459.789 979.265 278.976"/><polygon id="polygon438" fill="#000" points="0 446.584 979.265 278.976 0 278.976"/><polygon id="polygon440" fill="#000" points="0 633.048 979.265 465.44 0 465.44"/><polygon id="polygon442" fill="#000" points="0 633.048 979.265 646.253 979.265 465.44"/><polygon id="polygon446" fill="#000" points="0 260.12 979.265 273.325 979.265 92.512"/><polygon id="polygon448" fill="#000" points="0 260.12 979.265 92.512 0 92.512"/><polygon id="polygon450" fill="#000" points="0 273.325 979.265 273.325 0 260.12"/><polygon id="polygon534" fill="red" points="950.994 646.253 950.994 465.44 979.264 465.44"/><polygon id="polygon546" fill="red" points="979.264 459.789 950.994 459.789 979.264 278.975"/><polygon id="polygon548" fill="red" points="950.994 459.789 950.994 278.975 979.264 278.975"/><polygon id="polygon550" fill="#fff" points="753.104 372.208 866.184 372.208 753.104 366.557"/><polygon id="polygon552" fill="#fff" points="866.184 372.208 866.184 366.557 753.104 366.557"/><polygon id="polygon554" fill="#fff" points="922.724 369.382 866.184 383.508 866.184 355.256"/><polygon id="polygon556" fill="red" points="979.264 273.325 950.994 273.325 979.264 182.918"/><polygon id="polygon558" fill="red" points="950.994 273.325 950.994 182.918 979.264 182.918"/><polygon id="polygon586" fill="red" points="979.264 646.253 950.994 646.253 979.264 465.44"/><polygon id="polygon592" fill="#ff0" points="0 385.665 0 369.382 73.461 369.382"/><polygon id="polygon594" fill="#ff0" points="0 385.665 73.461 369.382 73.461 403.285"/><polygon id="polygon596" fill="#ff0" points="0 397.813 0 385.665 73.461 403.285"/><polygon id="polygon598" fill="#ff0" points="0 397.813 73.461 403.285 50.845 419.106"/><polygon id="polygon600" fill="#ff0" points="0 423.659 0 397.813 50.845 419.106"/><polygon id="polygon602" fill="#ff0" points="0 423.659 50.845 419.106 2.786 425.887"/><polygon id="polygon604" fill="#ff0" points="0 423.659 2.786 425.887 0 425.887"/><polygon id="polygon606" fill="#ff0" points="0 315.105 0 312.878 2.786 312.878"/><polygon id="polygon608" fill="#ff0" points="0 340.952 0 315.105 2.786 312.878"/><polygon id="polygon610" fill="#ff0" points="0 340.952 2.786 312.878 50.845 319.659"/><polygon id="polygon612" fill="#ff0" points="0 353.099 0 340.952 50.845 319.659"/><polygon id="polygon614" fill="#ff0" points="0 353.099 50.845 319.659 73.461 335.48"/><polygon id="polygon616" fill="#ff0" points="0 369.382 0 353.099 73.461 335.48"/><polygon id="polygon618" fill="#ff0" points="0 369.382 73.461 335.48 73.461 369.382"/><polygon id="polygon620" fill="#ff0" points="328.221 369.382 469.571 369.382 469.571 403.285"/><polygon id="polygon622" fill="#ff0" points="328.221 369.382 469.571 403.285 446.955 419.106"/><polygon id="polygon624" fill="#ff0" points="328.221 369.382 446.955 419.106 398.896 425.887"/><polygon id="polygon626" fill="#ff0" points="328.221 369.382 398.896 425.887 201.005 425.887"/><polygon id="polygon650" fill="#ff0" points="328.221 369.382 201.005 425.887 186.87 414.586"/><polygon id="polygon652" fill="#ff0" points="328.221 369.382 186.87 414.586 186.87 324.179"/><polygon id="polygon654" fill="#ff0" points="328.221 369.382 186.87 324.179 201.005 312.878"/><polygon id="polygon656" fill="#ff0" points="328.221 369.382 201.005 312.878 398.896 312.878"/><polygon id="polygon658" fill="#ff0" points="328.221 369.382 398.896 312.878 446.955 319.659"/><polygon id="polygon660" fill="#ff0" points="328.221 369.382 446.955 319.659 469.571 335.48"/><polygon id="polygon662" fill="#ff0" points="328.221 369.382 469.571 335.48 469.571 369.382"/><polygon id="polygon664" fill="#ff0" points="724.5 369.382 865.85 369.382 865.85 403.285"/><polygon id="polygon666" fill="#ff0" points="724.5 369.382 865.85 403.285 843.234 419.106"/><polygon id="polygon668" fill="#ff0" points="724.5 369.382 843.234 419.106 795.175 425.887"/><polygon id="polygon670" fill="#ff0" points="724.5 369.382 795.175 425.887 597.285 425.887"/><polygon id="polygon672" fill="#ff0" points="724.5 369.382 597.285 425.887 583.15 414.586"/><polygon id="polygon674" fill="#ff0" points="724.5 369.382 583.15 414.586 583.15 324.179"/><polygon id="polygon676" fill="#ff0" points="724.5 369.382 583.15 324.179 597.285 312.878"/><polygon id="polygon678" fill="#ff0" points="724.5 369.382 597.285 312.878 795.175 312.878"/><polygon id="polygon680" fill="#ff0" points="724.5 369.382 795.175 312.878 843.234 319.659"/><polygon id="polygon682" fill="#ff0" points="724.5 369.382 843.234 319.659 865.85 335.48"/><polygon id="polygon684" fill="#ff0" points="724.5 369.382 865.85 335.48 865.85 369.382"/><polygon id="polygon792" fill="#000" points="639.69 369.382 667.96 335.48 667.96 369.382"/><polygon id="polygon794" fill="#000" points="639.69 369.382 631.209 324.179 667.96 335.48"/><polygon id="polygon796" fill="#000" points="639.69 369.382 631.209 414.586 631.209 324.179"/><polygon id="polygon798" fill="#000" points="639.69 369.382 667.96 403.285 631.209 414.586"/><polygon id="polygon800" fill="#000" points="639.69 369.382 667.96 369.382 667.96 403.285"/><polygon id="polygon802" fill="#000" points="764.078 417.976 738.635 411.195 769.732 422.496"/><polygon id="polygon804" fill="#000" points="764.078 417.976 676.441 411.195 738.635 411.195"/><polygon id="polygon806" fill="#000" points="764.078 417.976 648.171 422.496 676.441 411.195"/><polygon id="polygon808" fill="#000" points="764.078 417.976 769.732 422.496 648.171 422.496"/><polygon id="polygon810" fill="#000" points="764.078 320.789 738.635 327.569 769.732 316.268"/><polygon id="polygon812" fill="#000" points="764.078 320.789 676.441 327.569 738.635 327.569"/><polygon id="polygon814" fill="#000" points="764.078 320.789 648.171 316.268 676.441 327.569"/><polygon id="polygon816" fill="#000" points="764.078 320.789 769.732 316.268 648.171 316.268"/><polygon id="polygon818" fill="#000" points="766.905 369.382 781.04 324.179 781.04 369.382"/><polygon id="polygon820" fill="#000" points="766.905 369.382 744.289 335.48 781.04 324.179"/><polygon id="polygon822" fill="#000" points="766.905 369.382 744.289 403.285 744.289 335.48"/><polygon id="polygon824" fill="#000" points="766.905 369.382 781.04 414.586 744.289 403.285"/><polygon id="polygon826" fill="#000" points="766.905 369.382 781.04 369.382 781.04 414.586"/><polygon id="polygon828" fill="#ff3" points="837.58 369.382 858.783 341.13 858.783 369.382"/><polygon id="polygon830" fill="#ff3" points="837.58 369.382 789.521 324.179 858.783 341.13"/><polygon id="polygon832" fill="#ff3" points="837.58 369.382 789.521 414.586 789.521 324.179"/><polygon id="polygon834" fill="#ff3" points="837.58 369.382 858.783 397.634 789.521 414.586"/><polygon id="polygon836" fill="#ff3" points="837.58 369.382 858.783 369.382 858.783 397.634"/><polygon id="polygon860" fill="#000" points="243.41 369.382 271.68 335.48 271.68 369.382"/><polygon id="polygon862" fill="#000" points="243.41 369.382 234.929 324.179 271.68 335.48"/><polygon id="polygon864" fill="#000" points="243.41 369.382 234.929 414.586 234.929 324.179"/><polygon id="polygon866" fill="#000" points="243.41 369.382 271.68 403.285 234.929 414.586"/><polygon id="polygon868" fill="#000" points="243.41 369.382 271.68 369.382 271.68 403.285"/><polygon id="polygon870" fill="#000" points="367.799 417.976 342.356 411.195 373.453 422.496"/><polygon id="polygon872" fill="#000" points="367.799 417.976 280.161 411.195 342.356 411.195"/><polygon id="polygon874" fill="#000" points="367.799 417.976 251.891 422.496 280.161 411.195"/><polygon id="polygon876" fill="#000" points="367.799 417.976 373.453 422.496 251.891 422.496"/><polygon id="polygon878" fill="#000" points="367.799 320.789 342.356 327.569 373.453 316.268"/><polygon id="polygon880" fill="#000" points="367.799 320.789 280.161 327.569 342.356 327.569"/><polygon id="polygon882" fill="#000" points="367.799 320.789 251.891 316.268 280.161 327.569"/><polygon id="polygon884" fill="#000" points="367.799 320.789 373.453 316.268 251.891 316.268"/><polygon id="polygon886" fill="#000" points="370.626 369.382 384.761 324.179 384.761 369.382"/><polygon id="polygon888" fill="#000" points="370.626 369.382 348.01 335.48 384.761 324.179"/><polygon id="polygon890" fill="#000" points="370.626 369.382 348.01 403.285 348.01 335.48"/><polygon id="polygon892" fill="#000" points="370.626 369.382 384.761 414.586 348.01 403.285"/><polygon id="polygon894" fill="#000" points="370.626 369.382 384.761 369.382 384.761 414.586"/><polygon id="polygon896" fill="#ff3" points="441.301 369.382 462.503 341.13 462.503 369.382"/><polygon id="polygon898" fill="#ff3" points="441.301 369.382 393.242 324.179 462.503 341.13"/><polygon id="polygon900" fill="#ff3" points="441.301 369.382 393.242 414.586 393.242 324.179"/><polygon id="polygon902" fill="#ff3" points="441.301 369.382 462.503 397.634 393.242 414.586"/><polygon id="polygon904" fill="#ff3" points="441.301 369.382 462.503 369.382 462.503 397.634"/><polygon id="polygon928" fill="#ff3" points="45.191 369.382 66.394 341.13 66.394 369.382"/><polygon id="polygon930" fill="#ff3" points="45.191 369.382 0 324.881 66.394 341.13"/><polygon id="polygon932" fill="#ff3" points="45.191 369.382 0 326.876 0 324.881"/><polygon id="polygon934" fill="#ff3" points="0 326.876 45.191 369.382 0 411.888"/><polygon id="polygon936" fill="#ff3" points="0 411.888 66.394 397.634 0 413.884"/><polygon id="polygon938" fill="#ff3" points="0 411.888 45.191 369.382 66.394 397.634"/><polygon id="polygon940" fill="#ff3" points="45.191 369.382 66.394 369.382 66.394 397.634"/></g><rect style="fill:#000;fill-opacity:1;stroke:#000;stroke-width:6.16720819;stroke-miterlimit:4;stroke-opacity:1;stroke-dasharray:none" id="rect3123" width="373.78" height="18.855" x="178.463" y="455.152"/><path style="fill:red;stroke:#fff;stroke-width:4;stroke-linecap:butt;stroke-linejoin:miter;stroke-opacity:1;stroke-miterlimit:4;stroke-dasharray:none" id="path4747" d="M 583.24246,450.47336 186.67288,449.48187"/><path style="fill:#fff;stroke:#fff;stroke-width:4;stroke-linecap:butt;stroke-linejoin:miter;stroke-opacity:1;stroke-miterlimit:4;stroke-dasharray:none" id="path4749" d="m 186.80654,427.14811 0,33.94815"/><path style="fill:#fff;stroke:#fff;stroke-width:4;stroke-linecap:butt;stroke-linejoin:miter;stroke-opacity:1;stroke-miterlimit:4;stroke-dasharray:none" id="path4749-1" d="m 468.9604,428.04512 0,37.11193"/><path style="fill:#fff;stroke:#fff;stroke-width:4;stroke-linecap:butt;stroke-linejoin:miter;stroke-opacity:1;stroke-miterlimit:4;stroke-dasharray:none" id="path4749-1-4" d="m 582.97826,427.65599 0,37.11193"/><text style="font-size:40px;font-style:normal;font-weight:400;line-height:125%;letter-spacing:0;word-spacing:0;fill:#000;fill-opacity:1;stroke:none;font-family:Sans" id="text4805" x="272.634" y="553.563" xml:space="preserve"><tspan id="tspan4807" x="272.634" y="553.563" style="font-size:40px;fill:#fff;fill-opacity:1">length</tspan></text><text style="font-size:40px;font-style:normal;font-weight:400;line-height:125%;letter-spacing:0;word-spacing:0;fill:#000;fill-opacity:1;stroke:none;font-family:Sans" id="text4805-0" x="456.09" y="552.764" xml:space="preserve"><tspan id="tspan4807-9" x="456.09" y="552.764" style="font-size:40px;line-height:125%;fill:#fff;fill-opacity:1">minGap</tspan></text><text style="font-size:192.96629333px;font-style:normal;font-weight:400;line-height:125%;letter-spacing:0;word-spacing:0;fill:#fff;fill-opacity:1;stroke:none;font-family:Sans" id="text4830" x="718.109" y="-160.354" transform="matrix(0,0.64346054,-1.5540969,0,0,0)" xml:space="preserve"><tspan id="tspan4832" x="718.109" y="-160.354">}</tspan></text><text style="font-size:122.21309662px;font-style:normal;font-weight:400;line-height:125%;letter-spacing:0;word-spacing:0;fill:#fff;fill-opacity:1;stroke:none;font-family:Sans" id="text4830-4" x="454.261" y="-502.244" transform="matrix(0,1.0159811,-0.98427028,0,0,0)" xml:space="preserve"><tspan id="tspan4832-8" x="454.261" y="-502.244">}</tspan></text></svg>