<svg xmlns="http://www.w3.org/2000/svg" xmlns:svg="http://www.w3.org/2000/svg" id="svg2" width="446.457" height="248.031" version="1.1" viewBox="9 -1 238.7 140"><metadata id="metadata496"/><g id="g4" transform="translate(-96.370002,-0.44002192)"><rect style="fill:#fff" id="rect6" width="70" height="18.958" x="190" y="120"/><rect style="fill:none;stroke:#000;stroke-width:.56444401" id="rect8" width="70" height="18.958" x="190" y="120"/><text style="font-size:5.64444017px;font-style:normal;font-weight:700;text-anchor:middle;fill:#000;font-family:sanserif" id="text10" x="225" y="127.673"><tspan id="tspan12" x="225" y="127.673">&lt;&lt;file&gt;&gt;</tspan> <tspan id="tspan14" x="225" y="134.729">eichstaett.net.xml</tspan></text></g><g id="g16" transform="translate(-96.370002,-0.44002192)"><rect style="fill:#fff" id="rect18" width="70" height="18.958" x="190" y="40"/><rect style="fill:none;stroke:#000;stroke-width:.56444401" id="rect20" width="70" height="18.958" x="190" y="40"/><text style="font-size:5.64444017px;font-style:normal;font-weight:700;text-anchor:middle;fill:#000;font-family:sanserif" id="text22" x="225" y="47.673"><tspan id="tspan24" x="225" y="47.673">&lt;&lt;file&gt;&gt;</tspan> <tspan id="tspan26" x="225" y="54.729">eichstaett.osm.xml</tspan></text></g><g id="g112" transform="translate(-96.370002,-0.44002192)"><rect style="fill:#005293" id="rect114" width="58" height="18.958" x="196" y="0"/><path style="fill:#005293" id="path116" d="m 196,0 a 6,6 0 0 0 -6,6 l 6,0 z"/><path style="fill:#005293" id="path118" d="m 260,6 a 6,6 0 0 0 -6,-6 l 0,6 z"/><rect style="fill:#005293" id="rect120" width="70" height="6.958" x="190" y="6"/><path style="fill:#005293" id="path122" d="m 190,12.9578 a 6,6 0 0 0 6,6 l 0,-6 z"/><path style="fill:#005293" id="path124" d="m 254,18.9578 a 6,6 0 0 0 6,-6 l -6,0 z"/><line style="fill:none;stroke:#000;stroke-width:.56" id="line126" x1="196" x2="254" y1="0" y2="0"/><line style="fill:none;stroke:#000;stroke-width:.56" id="line128" x1="196" x2="254" y1="18.958" y2="18.958"/><path style="fill:none;stroke:#000;stroke-width:.56" id="path130" d="m 196,0 a 6,6 0 0 0 -6,6"/><path style="fill:none;stroke:#000;stroke-width:.56" id="path132" d="M 260,6 A 6,6 0 0 0 254,0"/><line style="fill:none;stroke:#000;stroke-width:.56" id="line134" x1="190" x2="190" y1="6" y2="12.958"/><line style="fill:none;stroke:#000;stroke-width:.56" id="line136" x1="260" x2="260" y1="6" y2="12.958"/><path style="fill:none;stroke:#000;stroke-width:.56" id="path138" d="m 190,12.9578 a 6,6 0 0 0 6,6"/><path style="fill:none;stroke:#000;stroke-width:.56" id="path140" d="m 254,18.9578 a 6,6 0 0 0 6,-6"/><text style="font-size:5.64444017px;font-style:normal;font-weight:700;text-anchor:middle;fill:#fff;font-family:sanserif" id="text142" x="225" y="7.673"><tspan id="tspan144" x="225" y="7.673">Extract map from</tspan> <tspan id="tspan146" x="225" y="14.729">OpenStreetMap</tspan></text></g><g id="g148" transform="translate(-96.370002,-0.44002192)"><rect style="fill:#98c6ea" id="rect150" width="58" height="18.958" x="196" y="80"/><path style="fill:#98c6ea" id="path152" d="m 196,80 a 6,6 0 0 0 -6,6 l 6,0 z"/><path style="fill:#98c6ea" id="path154" d="m 260,86 a 6,6 0 0 0 -6,-6 l 0,6 z"/><rect style="fill:#98c6ea" id="rect156" width="70" height="6.958" x="190" y="86"/><path style="fill:#98c6ea" id="path158" d="m 190,92.9578 a 6,6 0 0 0 6,6 l 0,-6 z"/><path style="fill:#98c6ea" id="path160" d="m 254,98.9578 a 6,6 0 0 0 6,-6 l -6,0 z"/><line style="fill:none;stroke:#000;stroke-width:.56" id="line162" x1="196" x2="254" y1="80" y2="80"/><line style="fill:none;stroke:#000;stroke-width:.56" id="line164" x1="196" x2="254" y1="98.958" y2="98.958"/><path style="fill:none;stroke:#000;stroke-width:.56" id="path166" d="m 196,80 a 6,6 0 0 0 -6,6"/><path style="fill:none;stroke:#000;stroke-width:.56" id="path168" d="m 260,86 a 6,6 0 0 0 -6,-6"/><line style="fill:none;stroke:#000;stroke-width:.56" id="line170" x1="190" x2="190" y1="86" y2="92.958"/><line style="fill:none;stroke:#000;stroke-width:.56" id="line172" x1="260" x2="260" y1="86" y2="92.958"/><path style="fill:none;stroke:#000;stroke-width:.56" id="path174" d="m 190,92.9578 a 6,6 0 0 0 6,6"/><path style="fill:none;stroke:#000;stroke-width:.56" id="path176" d="m 254,98.9578 a 6,6 0 0 0 6,-6"/><text style="font-size:5.64444017px;font-style:normal;font-weight:700;text-anchor:middle;fill:#000;font-family:sanserif" id="text178" x="225" y="87.673"><tspan id="tspan180" x="225" y="87.673">Run</tspan> <tspan id="tspan182" x="225" y="94.729">netconvert</tspan></text></g><g id="g256" transform="translate(-96.370002,-0.44002192)"><rect style="fill:#fff" id="rect258" width="70" height="18.958" x="280" y="40"/><rect style="fill:none;stroke:#000;stroke-width:.56" id="rect260" width="70" height="18.958" x="280" y="40"/><text style="font-size:5.64444017px;font-style:normal;font-weight:700;text-anchor:middle;fill:#000;font-family:sanserif" id="text262" x="315" y="47.673"><tspan id="tspan264" x="315" y="47.673">&lt;&lt;file&gt;&gt;</tspan> <tspan id="tspan266" x="315" y="54.729">eichstaett.typ.xml</tspan></text></g><g id="g268" transform="translate(-96.370002,-0.44002192)"><rect style="fill:#fff" id="rect270" width="70" height="18.958" x="100" y="40"/><rect style="fill:none;stroke:#9c9d9f;stroke-width:.56" id="rect272" width="70" height="18.958" x="100" y="40"/><text style="font-size:5.64444017px;font-style:normal;font-weight:700;text-anchor:middle;fill:#9c9d9f;font-family:sanserif" id="text274" x="135" y="47.673"><tspan id="tspan276" x="135" y="47.673">&lt;&lt;file&gt;&gt;</tspan> <tspan id="tspan278" x="135" y="54.729">eichstaett.con.xml</tspan></text></g><g id="g292" transform="translate(-96.370002,-0.44002192)"><polyline style="fill:none;stroke:#9c9d9f;stroke-width:.84666699" id="polyline294" points="135 58.958 135 89.479 184.553 89.479"/><polygon style="fill:#9c9d9f" id="polygon296" points="183.053 92.479 184.553 89.479 183.053 86.479 189.053 89.479"/><polygon style="fill:none;stroke:#9c9d9f;stroke-width:.84666699" id="polygon298" points="183.053 92.479 184.553 89.479 183.053 86.479 189.053 89.479"/></g><g id="g300" transform="translate(-96.370002,-0.44002192)"><polyline style="fill:none;stroke:#000;stroke-width:.84666699" id="polyline302" points="315 58.958 315 89.479 265.447 89.479"/><polygon style="fill:#000" id="polygon304" points="266.947 86.479 265.447 89.479 266.947 92.479 260.947 89.479"/><polygon style="fill:none;stroke:#000;stroke-width:.84666699" id="polygon306" points="266.947 86.479 265.447 89.479 266.947 92.479 260.947 89.479"/></g><g id="g308" transform="translate(-96.370002,-0.44002192)"><polyline style="fill:none;stroke:#000;stroke-width:.84666699" id="polyline310" points="225 58.958 225 58.958 225 74.553"/><polygon style="fill:#000" id="polygon312" points="222 73.053 225 74.553 228 73.053 225 79.053"/><polygon style="fill:none;stroke:#000;stroke-width:.84666699" id="polygon314" points="222 73.053 225 74.553 228 73.053 225 79.053"/></g><g id="g340" transform="translate(-96.370002,-0.44002192)"><polyline style="fill:none;stroke:#000;stroke-width:.84666699" id="polyline342" points="225 98.958 225 98.958 225 114.553"/><polygon style="fill:#000" id="polygon344" points="222 113.053 225 114.553 228 113.053 225 119.053"/><polygon style="fill:none;stroke:#000;stroke-width:.84666699" id="polygon346" points="222 113.053 225 114.553 228 113.053 225 119.053"/></g><g id="g348" transform="translate(-96.370002,-0.44002192)"><polyline style="fill:none;stroke:#000;stroke-width:.84666699" id="polyline350" points="225 18.958 225 18.958 225 34.553"/><polygon style="fill:#000" id="polygon352" points="222 33.053 225 34.553 228 33.053 225 39.053"/><polygon style="fill:none;stroke:#000;stroke-width:.84666699" id="polygon354" points="222 33.053 225 34.553 228 33.053 225 39.053"/></g><g id="g448" transform="translate(-96.370002,-0.44002192)"><rect style="fill:#005293" id="rect450" width="58" height="18.958" x="286" y="0"/><path style="fill:#005293" id="path452" d="m 286,0 a 6,6 0 0 0 -6,6 l 6,0 z"/><path style="fill:#005293" id="path454" d="m 350,6 a 6,6 0 0 0 -6,-6 l 0,6 z"/><rect style="fill:#005293" id="rect456" width="70" height="6.958" x="280" y="6"/><path style="fill:#005293" id="path458" d="m 280,12.9578 a 6,6 0 0 0 6,6 l 0,-6 z"/><path style="fill:#005293" id="path460" d="m 344,18.9578 a 6,6 0 0 0 6,-6 l -6,0 z"/><line style="fill:none;stroke:#000;stroke-width:.56" id="line462" x1="286" x2="344" y1="0" y2="0"/><line style="fill:none;stroke:#000;stroke-width:.56" id="line464" x1="286" x2="344" y1="18.958" y2="18.958"/><path style="fill:none;stroke:#000;stroke-width:.56" id="path466" d="m 286,0 a 6,6 0 0 0 -6,6"/><path style="fill:none;stroke:#000;stroke-width:.56" id="path468" d="M 350,6 A 6,6 0 0 0 344,0"/><line style="fill:none;stroke:#000;stroke-width:.56" id="line470" x1="280" x2="280" y1="6" y2="12.958"/><line style="fill:none;stroke:#000;stroke-width:.56" id="line472" x1="350" x2="350" y1="6" y2="12.958"/><path style="fill:none;stroke:#000;stroke-width:.56" id="path474" d="m 280,12.9578 a 6,6 0 0 0 6,6"/><path style="fill:none;stroke:#000;stroke-width:.56" id="path476" d="m 344,18.9578 a 6,6 0 0 0 6,-6"/><text style="font-size:5.64444017px;font-style:normal;font-weight:700;text-anchor:middle;fill:#fff;font-family:sanserif" id="text478" x="315" y="7.673"><tspan id="tspan480" x="315" y="7.673">Configure the OSM</tspan> <tspan id="tspan482" x="315" y="14.729">highway types</tspan></text></g><g id="g484" transform="translate(-96.370002,-0.44002192)"><line style="fill:none;stroke:#000;stroke-width:.84666699" id="line486" x1="315" x2="315" y1="18.958" y2="34.553"/><polygon style="fill:#000" id="polygon488" points="312 33.053 315 34.553 318 33.053 315 39.053"/><polygon style="fill:none;stroke:#000;stroke-width:.84666699" id="polygon490" points="312 33.053 315 34.553 318 33.053 315 39.053"/></g></svg>