<svg xmlns="http://www.w3.org/2000/svg" xmlns:xlink="http://www.w3.org/1999/xlink" id="Layer_1" x="0" y="0" version="1.1" viewBox="0 0 1050 359.2" xml:space="preserve" style="enable-background:new 0 0 1050 359.2"><style type="text/css">.st0{fill:#338033}</style><g><g><g><g><path d="M87,131l226.8,90.8c-46.5,5.3-88.3,12.8-134.9,31.1l46.5-49l-36-15.2L74.6,302.7l45.2,31.5 c65.1-34.9,178.9-54.9,236.4-54.7l45.8-86.3l-269.1-91.3L87,131z" class="st0"/></g><g><polygon points="147.1 170.6 182.9 185.8 63 294.6 25 268.1" class="st0"/></g><g><polygon points="138 98.7 407.8 184.1 432.9 137.6 180.7 71.6" class="st0"/></g><g><polygon points="329.5 25 260.4 80.2 292.3 88 357.8 29.6" class="st0"/></g><g><polygon points="388.4 34.5 361 30.1 297.7 89.4 328.1 96.8" class="st0"/></g></g><g><g><path d="M533.5,200.5H595c2.5,0,4.5-0.4,5.9-1.3c1.4-0.9,2.4-2,3.1-3.3c0.7-1.3,1.1-2.6,1.3-4c0.2-1.4,0.2-2.5,0.2-3.5 c0-1.1-0.1-2.2-0.3-3.3c-0.2-1.2-0.7-2.3-1.4-3.4c-0.7-1.1-1.8-2.2-3.3-3.2c-1.4-1-3.4-1.9-5.8-2.6l-43.8-13.8 c-0.4-0.1-1.1-0.3-2.1-0.7c-1-0.4-2.1-0.9-3.4-1.6c-1.3-0.7-2.6-1.5-4-2.5c-1.4-1-2.6-2.1-3.6-3.5c-1.3-1.5-2.3-3.1-3-4.9 c-0.7-1.8-1.3-3.6-1.7-5.5c-0.4-1.8-0.7-3.7-0.8-5.5c-0.1-1.8-0.2-3.5-0.2-5.1c0-3.4,0.4-6.9,1.2-10.6c0.8-3.7,2.8-7,5.9-10 c2.9-2.7,5.9-4.5,9.2-5.2c3.3-0.7,6.3-1,9-1h63.9v16.7h-56.8c-1.5,0-3,0.1-4.5,0.4c-1.5,0.3-2.9,1-4.2,2.1 c-1.4,1.3-2.2,2.7-2.5,4.4c-0.3,1.7-0.4,3.1-0.4,4.1c0,2.4,0.6,4.8,1.8,7c1.2,2.2,4,4.1,8.5,5.6l40.6,12.8 c3.7,1.2,6.8,2.4,9.4,3.6c2.6,1.3,4.7,2.7,6.4,4.3c1.7,1.6,3,3.4,4,5.3c1,2,1.7,3.9,2.1,5.9c0.5,2,0.8,3.8,1,5.6 c0.2,1.8,0.2,3.3,0.2,4.6c0,3.5-0.3,7.1-1,10.7c-0.7,3.6-2.2,7-4.5,9.9c-2.8,3.6-5.8,5.8-9.2,6.7c-3.4,0.8-6.9,1.3-10.6,1.3 h-68.2V200.5z"/><path d="M694.7,201.6c2-0.2,3.9-0.5,5.9-1c2-0.5,4-1.2,5.9-2.1c1.9-1,3.6-2.2,5.1-3.8c1.3-1.4,2.2-2.9,2.9-4.6 c0.7-1.7,1.2-3.4,1.6-5.1c0.4-1.7,0.6-3.4,0.6-5.1c0.1-1.7,0.1-3.2,0.1-4.6v-69.2h20.9v72c0,4.8-0.6,9.6-1.7,14.5 s-3.8,9.5-8,13.9c-2.8,2.9-5.8,5.1-9.3,6.7c-3.4,1.6-6.9,2.8-10.4,3.6c-3.5,0.8-6.9,1.3-10.2,1.4c-3.3,0.2-6.2,0.2-8.7,0.2 c-2.5,0-5.4-0.1-8.7-0.2c-3.3-0.2-6.7-0.6-10.2-1.4c-3.5-0.8-7-2-10.4-3.6c-3.4-1.6-6.5-3.8-9.3-6.7c-4.2-4.3-6.9-9-8-13.9 s-1.7-9.8-1.7-14.5v-72h20.9v69.2c0,3.1,0.2,6.3,0.7,9.8c0.5,3.5,2,6.7,4.7,9.5c1.5,1.6,3.1,2.9,5,3.8c1.8,1,3.8,1.7,5.7,2.1 c2,0.5,3.9,0.8,5.9,1c2,0.2,3.7,0.2,5.3,0.2C691,201.8,692.7,201.7,694.7,201.6z"/><path d="M841.8,205.1c-0.8,2.1-1.7,4-2.5,5.6c-0.8,1.6-1.8,3-2.9,4.2c-1.2,1.2-2.6,2-4.3,2.6c-1.7,0.6-3.8,0.9-6.2,0.9 c-2.6,0-4.8-0.4-6.6-1.1c-1.7-0.7-3.2-1.7-4.4-2.9c-1.2-1.2-2.1-2.6-2.9-4.2c-0.7-1.6-1.4-3.3-2.1-5.1l-28.4-74.1 c-0.2-0.6-0.6-1.4-1.1-2.3c-0.5-0.9-1.1-1.3-1.6-1.3c-0.8,0-1.3,0.5-1.5,1.5c-0.2,1-0.2,1.6-0.2,1.8l0.5,86.4h-20.9v-97.7 c0-3.6,0.8-6.4,2.4-8.3c1.6-2,3.4-3.4,5.4-4.4c2-1,4-1.5,5.9-1.7c2-0.2,3.4-0.2,4.2-0.2c3.2,0,5.8,0.4,8,1.1 c2.2,0.7,4,1.8,5.4,3.1c1.4,1.3,2.6,2.9,3.6,4.6c1,1.7,1.8,3.6,2.5,5.5l28.7,74.1c0.5,1.2,1,2.1,1.5,2.9c0.5,0.8,1,1.2,1.5,1.2 c0.5,0,1-0.4,1.5-1.2c0.5-0.8,1-1.8,1.5-2.9l28.7-74.1c1.2-3.2,2.5-5.7,3.9-7.5c1.4-1.8,3-3.3,4.7-4.3c1.7-1,3.4-1.7,5.2-2 c1.8-0.3,3.7-0.5,5.7-0.5c5.2,0,9.5,1.2,12.8,3.5c3.4,2.3,5.1,6,5.1,11.1v97.7h-20.9l0.6-86.4c0-1.5-0.2-2.4-0.7-2.8 c-0.5-0.4-0.9-0.6-1.2-0.6c-0.5,0-1.1,0.5-1.6,1.3c-0.5,0.9-0.9,1.7-1.1,2.3L841.8,205.1z"/><path d="M978.8,105.1c3.9,0.1,7.8,0.5,11.7,1.3c4,0.7,7.8,1.9,11.6,3.5c3.8,1.6,7.2,3.9,10.2,6.8c2.9,2.8,5.1,6,6.8,9.7 c1.7,3.7,3,7.6,3.9,11.6c0.9,4,1.5,8.1,1.7,12.2c0.2,4.1,0.3,8,0.3,11.6c0,3.7-0.1,7.6-0.4,11.7c-0.3,4.1-0.8,8.1-1.7,12.1 c-0.8,4-2.1,7.9-3.8,11.6c-1.7,3.7-4,6.9-6.8,9.7c-3.1,3-6.5,5.2-10.2,6.8c-3.8,1.6-7.6,2.8-11.6,3.5c-4,0.7-7.9,1.2-11.8,1.3 c-3.9,0.1-7.5,0.2-10.6,0.2c-3.3,0-6.8-0.1-10.7-0.2c-3.9-0.1-7.8-0.5-11.7-1.3c-4-0.7-7.8-1.9-11.6-3.5 c-3.8-1.6-7.2-3.9-10.2-6.8c-3.2-3.1-5.6-6.6-7.4-10.5c-1.7-3.9-3-7.9-3.8-12c-0.8-4.1-1.3-8.1-1.4-12 c-0.2-3.9-0.2-7.5-0.2-10.6c0-3.8,0.1-7.7,0.3-11.8c0.2-4.1,0.7-8.1,1.6-12.1c0.8-4,2.1-7.8,3.8-11.4c1.7-3.6,4.1-6.9,7.1-9.8 c3.1-3,6.5-5.2,10.2-6.8c3.8-1.6,7.6-2.7,11.5-3.5c3.9-0.7,7.8-1.2,11.7-1.3c3.9-0.1,7.5-0.2,10.9-0.2 C971.3,104.9,974.9,105,978.8,105.1z M933.1,173.5c0.4,3.3,0.9,6.2,1.5,8.7c0.6,2.5,1.3,4.5,2.1,6.2c0.8,1.6,1.7,3,2.6,4.2 c1.6,2.1,3.4,3.8,5.6,5c2.1,1.2,4.4,2.1,6.8,2.8c2.4,0.6,5,1,7.8,1.2c2.7,0.2,5.6,0.2,8.4,0.2s5.6-0.1,8.3-0.2 c2.7-0.2,5.3-0.6,7.8-1.2c2.5-0.6,4.8-1.6,6.9-2.8c2.1-1.2,4-2.9,5.7-5c1-1.2,1.8-2.6,2.6-4.3c0.8-1.7,1.5-3.8,2.1-6.2 c0.6-2.4,1.1-5.3,1.5-8.7c0.4-3.4,0.6-7.3,0.6-11.7c0-4.8-0.2-8.9-0.6-12.3c-0.4-3.4-0.9-6.4-1.5-8.8c-0.6-2.4-1.4-4.4-2.2-6 c-0.8-1.6-1.7-2.9-2.5-4c-3.3-4-7.5-6.5-12.5-7.5c-5.1-1-10.5-1.5-16.2-1.5c-5.8,0-11.2,0.5-16.2,1.5c-5,1-9.1,3.5-12.4,7.5 c-2.1,2.8-3.8,6.5-5,11.2c-1.2,4.7-1.8,11.3-1.8,19.9C932.5,166.2,932.7,170.2,933.1,173.5z"/></g><g><path d="M532.1,251.5l1.9-2.2c1.7,1.5,3.4,2.3,5.5,2.3c1.9,0,3.1-0.9,3.1-2.2v-0.1c0-1.2-0.7-1.9-4-2.7c-3.7-0.9-5.8-2-5.8-5.2 v0c0-3,2.5-5.1,6-5.1c2.6,0,4.6,0.8,6.4,2.2l-1.7,2.3c-1.6-1.2-3.2-1.8-4.8-1.8c-1.8,0-2.9,0.9-2.9,2.1v0c0,1.4,0.8,2,4.2,2.8 c3.7,0.9,5.6,2.2,5.6,5.1v0c0,3.3-2.6,5.2-6.3,5.2C536.7,254.3,534.2,253.3,532.1,251.5z"/><path d="M551.3,236.5h3.1V254h-3.1V236.5z"/><path d="M560.9,236.5h3.3l5.3,8.3l5.3-8.3h3.3V254H575v-12.6l-5.5,8.3h-0.1l-5.5-8.2V254h-3V236.5z"/><path d="M584.2,246.6v-10.1h3.1v10c0,3.3,1.7,5,4.4,5c2.7,0,4.4-1.6,4.4-4.9v-10.1h3.1v9.9c0,5.2-3,7.9-7.5,7.9 C587.1,254.3,584.2,251.7,584.2,246.6z"/><path d="M605.3,236.5h3.1v14.7h9.2v2.8h-12.3V236.5z"/><path d="M628.8,236.4h2.9l7.7,17.6h-3.3l-1.8-4.2h-8.3l-1.8,4.2h-3.2L628.8,236.4z M633.2,247.1l-3-7l-3,7H633.2z"/><path d="M646.3,239.4h-5.6v-2.9H655v2.9h-5.6V254h-3.1V239.4z"/><path d="M660.3,236.5h3.1V254h-3.1V236.5z"/><path d="M669.1,245.3L669.1,245.3c0-5,3.8-9.1,9.2-9.1s9.1,4.1,9.1,9v0c0,4.9-3.8,9.1-9.2,9.1 C672.9,254.3,669.1,250.2,669.1,245.3z M684.2,245.3L684.2,245.3c0-3.5-2.5-6.3-6-6.3c-3.5,0-5.9,2.8-5.9,6.2v0 c0,3.4,2.5,6.2,6,6.2C681.8,251.5,684.2,248.7,684.2,245.3z"/><path d="M693,236.5h2.9l9.4,12.1v-12.1h3V254h-2.6l-9.7-12.5V254h-3V236.5z"/><path d="M723.3,245.3L723.3,245.3c0-5,3.8-9.1,9.2-9.1c5.4,0,9.1,4.1,9.1,9v0c0,4.9-3.8,9.1-9.2,9.1 C727,254.3,723.3,250.2,723.3,245.3z M738.3,245.3L738.3,245.3c0-3.5-2.5-6.3-6-6.3c-3.5,0-5.9,2.8-5.9,6.2v0 c0,3.4,2.5,6.2,6,6.2C735.9,251.5,738.3,248.7,738.3,245.3z"/><path d="M747.2,236.5h13v2.8h-10v4.8h8.8v2.8h-8.8v7.1h-3.1V236.5z"/><path d="M774.5,246.6v-10.1h3.1v10c0,3.3,1.7,5,4.4,5c2.7,0,4.4-1.6,4.4-4.9v-10.1h3.1v9.9c0,5.2-3,7.9-7.5,7.9 C777.4,254.3,774.5,251.7,774.5,246.6z"/><path d="M795.6,236.5h7.8c2.2,0,3.9,0.7,5.1,1.8c0.9,0.9,1.5,2.3,1.5,3.8v0c0,2.9-1.7,4.6-4.2,5.3l4.7,6.6h-3.7l-4.3-6.1h-3.9 v6.1h-3.1V236.5z M803.2,245.2c2.2,0,3.6-1.2,3.6-2.9v-0.1c0-1.9-1.4-2.9-3.6-2.9h-4.5v5.9H803.2z"/><path d="M815.6,236.5h7.9c2,0,3.6,0.5,4.6,1.5c0.8,0.8,1.2,1.7,1.2,2.9v0.1c0,2.1-1.2,3.2-2.5,3.9c2.1,0.7,3.5,1.9,3.5,4.3v0 c0,3.1-2.6,4.8-6.5,4.8h-8.1V236.5z M826.1,241.5c0-1.4-1.1-2.2-3.1-2.2h-4.4v4.7h4.2C824.8,243.9,826.1,243.1,826.1,241.5 L826.1,241.5z M823.5,246.5h-4.9v4.8h5.1c2.1,0,3.4-0.8,3.4-2.4v0C827.1,247.4,825.9,246.5,823.5,246.5z"/><path d="M841.7,236.4h2.9l7.7,17.6H849l-1.8-4.2h-8.3l-1.8,4.2H834L841.7,236.4z M846.1,247.1l-3-7l-3,7H846.1z"/><path d="M857.1,236.5h2.9l9.4,12.1v-12.1h3V254h-2.6l-9.7-12.5V254h-3V236.5z"/><path d="M888.1,236.5h3.3l5.3,8.3l5.3-8.3h3.3V254h-3.1v-12.6l-5.5,8.3h-0.1l-5.5-8.2V254h-3V236.5z"/><path d="M910.9,245.3L910.9,245.3c0-5,3.8-9.1,9.2-9.1c5.4,0,9.1,4.1,9.1,9v0c0,4.9-3.8,9.1-9.2,9.1 C914.7,254.3,910.9,250.2,910.9,245.3z M926,245.3L926,245.3c0-3.5-2.5-6.3-6-6.3c-3.5,0-5.9,2.8-5.9,6.2v0c0,3.4,2.5,6.2,6,6.2 C923.6,251.5,926,248.7,926,245.3z"/><path d="M934.8,236.5h7.9c2,0,3.6,0.5,4.6,1.5c0.8,0.8,1.2,1.7,1.2,2.9v0.1c0,2.1-1.2,3.2-2.5,3.9c2.1,0.7,3.5,1.9,3.5,4.3v0 c0,3.1-2.6,4.8-6.5,4.8h-8.1V236.5z M945.4,241.5c0-1.4-1.1-2.2-3.1-2.2h-4.4v4.7h4.2C944,243.9,945.4,243.1,945.4,241.5 L945.4,241.5z M942.7,246.5h-4.9v4.8h5.1c2.1,0,3.4-0.8,3.4-2.4v0C946.3,247.4,945.2,246.5,942.7,246.5z"/><path d="M954.9,236.5h3.1V254h-3.1V236.5z"/><path d="M964.6,236.5h3.1v14.7h9.2v2.8h-12.3V236.5z"/><path d="M982.1,236.5h3.1V254h-3.1V236.5z"/><path d="M996,239.4h-5.6v-2.9h14.2v2.9h-5.6V254H996V239.4z"/><path d="M1014.9,247.1l-7-10.6h3.7l4.9,7.7l5-7.7h3.5l-7,10.5v7h-3.1V247.1z"/></g></g></g></g></svg>