<svg xmlns="http://www.w3.org/2000/svg" xmlns:svg="http://www.w3.org/2000/svg" id="svg2" width="210mm" height="297mm" version="1.1"><defs id="defs4"><marker id="Arrow1Lstart" orient="auto" refX="0" refY="0" style="overflow:visible"><path id="path3901" d="M 0.0,0.0 L 5.0,-5.0 L -12.5,0.0 L 5.0,5.0 L 0.0,0.0 z" transform="scale(0.8) translate(12.5,0)" style="fill-rule:evenodd;stroke:#000;stroke-width:1pt;marker-start:none"/></marker><marker id="Arrow1Lstart-9" orient="auto" refX="0" refY="0" style="overflow:visible"><path id="path3901-4" d="M 0,0 5,-5 -12.5,0 5,5 0,0 z" transform="matrix(0.8,0,0,0.8,10,0)" style="fill-rule:evenodd;stroke:#000;stroke-width:1pt;marker-start:none"/></marker></defs><metadata id="metadata7"/><g id="layer1"><path style="fill:none;stroke:#000;stroke-width:1px;stroke-linecap:butt;stroke-linejoin:miter;stroke-opacity:1" id="path2987" d="m 219.28571,297.71933 a 31.071428,31.071428 0 1 1 -62.14286,0 31.071428,31.071428 0 1 1 62.14286,0 z" transform="matrix(2.561086,0,0,2.561086,-198.22305,-422.62261)"/><text style="font-size:40px;font-style:normal;font-weight:400;line-height:125%;letter-spacing:0;word-spacing:0;fill:#000;fill-opacity:1;stroke:none;font-family:Bitstream Vera Sans" id="text2989" x="265.177" y="231.648" xml:space="preserve"><tspan id="tspan2991" x="265.177" y="231.648">0°</tspan></text><text style="font-size:40px;font-style:normal;font-weight:400;line-height:125%;letter-spacing:0;word-spacing:0;fill:#000;fill-opacity:1;stroke:none;font-family:Bitstream Vera Sans" id="text2993" x="395.857" y="354.179" xml:space="preserve"><tspan id="tspan2995" x="395.857" y="354.179">-90°</tspan></text><text style="font-size:40px;font-style:normal;font-weight:400;line-height:125%;letter-spacing:0;word-spacing:0;fill:#000;fill-opacity:1;stroke:none;font-family:Bitstream Vera Sans" id="text2997" x="111.429" y="354.179" xml:space="preserve"><tspan id="tspan2999" x="111.429" y="354.179">90°</tspan></text><text style="font-size:40px;font-style:normal;font-weight:400;line-height:125%;letter-spacing:0;word-spacing:0;fill:#000;fill-opacity:1;stroke:none;font-family:Bitstream Vera Sans" id="text3001" x="187.931" y="470.219" xml:space="preserve"><tspan id="tspan3003" x="187.931" y="470.219">180°/-180°</tspan></text><path style="fill:none;stroke-width:2.56100011;stroke-miterlimit:4;stroke-dasharray:none" id="path3009" d="m 490.71429,225.93362 -2.39149,-2.90499 -2.39148,-2.90499 3.71154,-0.61859 3.71153,-0.61859 -1.32005,3.52358 z"/><path style="fill:none;stroke-width:2.56100011;stroke-miterlimit:4;stroke-dasharray:none" id="path3011" d="m 563.57142,300.21933 -80.48007,-15.67766 -80.48007,-15.67766 53.81729,-61.85896 53.81729,-61.85896 26.66278,77.53662 z"/><path style="fill:none;stroke-width:2.56100011;stroke-miterlimit:4;stroke-dasharray:none" id="path3013" d="m 533.57145,222.36218 112.61262,29.26879 -81.65382,82.89099 z"/><path style="fill:#ff0;stroke-width:2.56100011;stroke-miterlimit:4;stroke-dasharray:none" id="path3021" d="m 475.71428,110.21933 -168.49267,0.13642 84.12818,-145.987142 z" transform="matrix(0.15638552,0,0,0.35415056,222.58999,399.84462)"/><path style="fill:#ff0;stroke-width:2.56100011;stroke-miterlimit:4;stroke-dasharray:none" id="path3021-1" d="m 475.71428,110.21933 -168.49267,0.13642 84.12818,-145.987142 z" transform="matrix(0.15638552,0,0,-0.35415056,222.58999,274.87973)"/><path style="fill:#ff0;stroke-width:2.56100011;stroke-miterlimit:4;stroke-dasharray:none" id="path3021-1-7" d="m 475.71428,110.21933 -168.49267,0.13642 84.12818,-145.987142 z" transform="matrix(0,-0.15638552,-0.35415056,0,215.62364,401.08212)"/><path style="fill:#ff0;stroke-width:2.56100011;stroke-miterlimit:4;stroke-dasharray:none" id="path3021-1-7-4" d="m 475.71428,110.21933 -168.49267,0.13642 84.12818,-145.987142 z" transform="matrix(0,-0.15638552,0.35415056,0,346.19674,401.08212)"/></g></svg>