<svg xmlns="http://www.w3.org/2000/svg" xmlns:xlink="http://www.w3.org/1999/xlink" xmlns:lucid="lucid" width="1096.2" height="399.26"><g transform="translate(1605.5052083333333 -278.4375)" lucid:page-tab-id="0_0"><path d="M-860 501.6l60 34.52v69.05l-60 34.53-60-34.53v-69.04l60-34.53z" stroke="#000" stroke-opacity="0" stroke-width="3.13" fill="#76b900"/><path d="M-835.58 549.66c-10.96 0-19.86 8.94-19.86 19.95 0 11.03 8.9 19.97 19.86 19.97 10.96 0 19.86-8.94 19.86-19.96 0-11-8.9-19.94-19.86-19.94zm-3.3 28.97l-8.97-9.02 2.34-2.34 6.62 6.66 13.23-13.33 2.34 2.35-15.58 15.68z" stroke="#000" stroke-opacity="0" stroke-width="3.13" fill="#fff"/><path d="M-852.62 585.47l-13.76 9.2c-.05-.06-.1-.06-.16-.13l9.57-15.9c-.5-1.23-.9-2.52-1.18-3.82l-6.4-3.24c.1-.57.2-1.15.2-1.8 0-.64-.1-1.22-.2-1.8l6.13-3.1v.08c.27-1.44.53-2.5 1.07-3.8l-9.08-14.33c.1-.14.2-.3.32-.43l13.38 7.77c.64-.8 1.4-1.5 2.15-2.16l-14.14-8.05c.2-.72.36-1.44.36-2.16 0-3.9-3.1-7.06-7-7.06-3.86 0-6.97 3.17-6.97 7.05 0 .72.15 1.43.36 2.15l-14.14 8.13c-1.3-1.44-3.12-2.37-5.2-2.37-3.88 0-7 3.1-7 7 0 3.87 3.12 7.04 7 7.04.8 0 1.6-.14 2.3-.43l4.1 6.77-3.94 6.2c-.75-.3-1.6-.44-2.47-.44-3.86 0-6.98 3.16-6.98 7.05 0 3.88 3.12 6.98 7 6.98 1.92 0 3.7-.8 5-2.1l14.45 9.37c-.32.8-.48 1.65-.48 2.5 0 3.9 3.1 7.06 6.97 7.06 3.88 0 7-3.17 7-7.06 0-.93-.17-1.8-.5-2.6l14.3-9.5m-26-41.07c.1.07.2.22.3.36l-9.02 14.32-5.32-2.66c.16-.6.27-1.16.27-1.8 0-.73-.16-1.45-.38-2.17l14.14-8.06zm-1.5 25.1l-6.57 3.32-2.9-4.83 3.27-5.18 6.2 3.1c-.18.56-.28 1.14-.28 1.78 0 .65.1 1.23.25 1.8zm-14.48-9.7c.2-.3.48-.5.7-.8l5 2.53-2.37 3.74-3.34-5.47zm.1 15.97l3.17-5.03 2.05 3.4-4.63 2.3c-.22-.23-.38-.44-.6-.66zm16.13 16.9l-14.52-9.4c.34-.74.5-1.6.5-2.46 0-.65-.1-1.23-.27-1.8l4.9-2.45 9.56 15.9-.17.22zm3.55-2c-.32.07-.65.2-.92.28l-9.5-15.68 6.38-3.17c.97 1.23 2.37 2.16 4.04 2.52v16.04zm0-29.86c-1.67.36-3.07 1.3-4.03 2.6l-5.92-3.03 8.87-14.1c.38.14.7.28 1.08.35v14.18zm2.85-14.18c.32-.07.7-.2 1.02-.36l8.92 14.1-5.9 3.03c-1.03-1.3-2.43-2.23-4.04-2.6V548.7zm0 44.04V576.7c1.6-.37 3-1.3 4.03-2.53l6.3 3.17-9.47 15.68c-.28-.07-.6-.2-.87-.28z" stroke="#000" stroke-opacity="0" stroke-width="3.13" fill="#fff"/><use xlink:href="#a" transform="matrix(1,0,0,1,-950,648.7) translate(2.071397569444457 21.52777777777778)"/><use xlink:href="#b" transform="matrix(1,0,0,1,-950,648.7) translate(77.83094618055557 21.52777777777778)"/><use xlink:href="#c" transform="matrix(1,0,0,1,-950,648.7) translate(142.43598090277777 21.52777777777778)"/><path d="M-1279.7 403.75h119.63v119.7h-119.63v-119.7z" stroke="#000" stroke-opacity="0" stroke-width="3.13" fill="#666"/><path d="M-1280 528.78h120v11.4h-120v-11.4z" stroke="#000" stroke-opacity="0" stroke-width="3.13" fill="#76b900"/><path d="M-1254.7 426.4h25.7c1.13 0 2.28.85 2.28 2.27v25.64c0 1.13-.85 2.28-2.27 2.28h-25.7c-1.1 0-2.26-.85-2.26-2.27v-25.63c0-1.12 1.15-2.26 2.27-2.26zM-1254.7 470.63h25.7c1.13 0 2.28.85 2.28 2.27v25.64c0 1.1-.85 2.26-2.27 2.26h-25.7c-1.1 0-2.26-.84-2.26-2.26V472.9c0-1.42 1.15-2.26 2.27-2.26zM-1210.77 426.4h25.7c1.12 0 2.27.85 2.27 2.27v25.64c0 1.13-.85 2.28-2.27 2.28h-25.7c-1.12 0-2.27-.85-2.27-2.27v-25.63c.27-1.12 1.15-2.26 2.27-2.26zM-1182.92 488.57h-11.95v11.96h-5.98v-11.96h-11.95v-5.98h11.95v-11.97h5.98v11.96h11.95v5.97z" stroke="#000" stroke-opacity="0" stroke-width="3.13" fill="#fff"/><use xlink:href="#d" transform="matrix(1,0,0,1,-1310,549.25) translate(53.33550347222223 21.52777777777778)"/><path d="M-1580 403.75h120v119.57h-120V403.75z" stroke="#000" stroke-opacity="0" stroke-width="3.13" fill="#df6500"/><path d="M-1580 528.92h120v11.38h-120v-11.38z" stroke="#000" stroke-opacity="0" stroke-width="3.13" fill="#76b900"/><path d="M-1580 528.92h120v11.38h-120v-11.38z" stroke="#000" stroke-opacity="0" stroke-width="3.13" fill="#76b900"/><path d="M-1490 478.82v12.7c0 8.98-13.44 16.24-30 16.24-16.56 0-30-7.26-30-16.23v-12.7c5.04 6.65 16.44 11.17 30 11.17 13.56 0 24.96-4.52 30-11.18zM-1490 432.7c0 7.16-13.74 13.23-30 13.23-16.26 0-30-6.07-30-13.24 0-7.2 13.74-13.25 30-13.25 16.26 0 30 6.06 30 13.24z" stroke="#000" stroke-opacity="0" stroke-width="3.13" fill="#fff"/><path d="M-1490 439.38v10.94c0 8.94-13.44 16.22-30 16.22-16.56 0-30-7.28-30-16.22v-10.94c5.04 5.62 16.44 9.45 30 9.45 13.56 0 24.96-3.83 30-9.45z" stroke="#000" stroke-opacity="0" stroke-width="3.13" fill="#fff"/><path d="M-1490 458.2v12.72c0 8.97-13.44 16.23-30 16.23-16.56 0-30-7.26-30-16.23v-12.7c5.04 6.68 16.44 11.2 30 11.2 13.56 0 24.96-4.52 30-11.2z" stroke="#000" stroke-opacity="0" stroke-width="3.13" fill="#fff"/><use xlink:href="#e" transform="matrix(1,0,0,1,-1610,549.25) translate(5.494791666666671 21.52777777777778)"/><use xlink:href="#f" transform="matrix(1,0,0,1,-1610,549.25) translate(87.12456597222223 21.52777777777778)"/><use xlink:href="#g" transform="matrix(1,0,0,1,-1610,549.25) translate(52.038845486111114 53.79340277777778)"/><use xlink:href="#h" transform="matrix(1,0,0,1,-1610,549.25) translate(79.58875868055556 53.79340277777778)"/><path d="M-1459.5 472h163.4" stroke="#3a414a" fill="none"/><path d="M-1459.5 472.48h-.5v-.96h.5z" stroke="#3a414a" stroke-width=".05" fill="#3a414a"/><path d="M-1281.32 472l-14.27 4.63v-9.26z" stroke="#3a414a" fill="#3a414a"/><path d="M-936.38 570.65h-97.65a6 6 0 0 1-6-6V477.2a6 6 0 0 0-6-6h-97.65" stroke="#3a414a" fill="none"/><path d="M-921.62 570.65l-14.26 4.63v-9.26zM-1158.45 471.2l14.27-4.63v9.26z" stroke="#3a414a" fill="#3a414a"/><path d="M-860 280l60 34.52v69.06l-60 34.52-60-34.53v-69.05l60-34.52z" stroke="#000" stroke-opacity="0" stroke-width="3.13" fill="#666"/><path d="M-839.55 347.8c0-.56-.06-1.2-.12-1.76l7.15-7.44-5.83-10.18-9.78 2.63c-1.04-.74-2.14-1.37-3.24-1.88l-2.8-9.95h-11.66l-2.63 9.83c-1.1.52-2.2 1.15-3.25 1.9l-9.95-2.52-5.83 10.17 7.14 7.26c-.05.63-.1 1.26-.1 1.95 0 .64.05 1.2.1 1.78l-7.14 7.43 5.83 10.2 9.78-2.64c1.04.74 2.14 1.37 3.24 1.9l2.8 9.93h11.66l2.63-9.84c1.1-.5 2.2-1.14 3.25-1.9l9.95 2.53 5.83-10.2-7.14-7.25c.05-.63.1-1.26.1-1.94zm-12.37 0c0 4.52-3.63 8.18-8.08 8.18s-8.08-3.66-8.08-8.17c0-4.45 3.63-8.1 8.08-8.1s8.08 3.65 8.08 8.1z" stroke="#000" stroke-opacity="0" stroke-width="3.13" fill="#fff"/><path d="M-884.24 376.46V388h-14.28v-11.54h4.43V348.5h6.23v2.88h-3.37v25.08h7zM-821.48 376.46V388h-14.28v-11.54h6.65v-25.08h-3.4v-2.88h6.25v27.96h4.77zM-891.24 321.76v21.94h3.37v2.86h-6.22v-24.8h-4.42v-11.52h14.28v11.52h-7zM-821.48 310.24v11.52h-4.77v24.8h-6.25v-2.87h3.4v-21.94h-6.66v-11.52h14.28z" stroke="#000" stroke-opacity="0" stroke-width="3.13" fill="#fff"/><use xlink:href="#i" transform="matrix(1,0,0,1,-950,427.1) translate(32.46419270833334 21.52777777777778)"/><use xlink:href="#c" transform="matrix(1,0,0,1,-950,427.1) translate(112.04318576388889 21.52777777777778)"/><path d="M-1159.57 472h113.54a6 6 0 0 0 6-6V355.05a6 6 0 0 1 6-6h97.65" stroke="#3a414a" fill="none"/><path d="M-1159.55 472.48h-.52v-.96h.52z" stroke="#3a414a" stroke-width=".05" fill="#3a414a"/><path d="M-921.62 349.05l-14.26 4.63v-9.26z" stroke="#3a414a" fill="#3a414a"/><path d="M-660 289.05h120v120h-120v-120z" stroke="#000" stroke-opacity="0" stroke-width="3.57" fill="#952fc6"/><path d="M-563.52 309.93h-72.96v20.88h72.96v-20.87zm-62.53 14.34c-2.1 0-3.94-1.73-3.94-3.92 0-2.17 1.76-3.93 3.95-3.93 2.2 0 3.94 1.76 3.94 3.93 0 2.2-1.76 3.92-3.95 3.92zM-636.48 338.6v20.9h72.96v-20.9h-72.96zm10.43 14.35c-2.1 0-3.94-1.73-3.94-3.92 0-2.17 1.76-3.93 3.95-3.93 2.2 0 3.94 1.76 3.94 3.93 0 2.2-1.76 3.93-3.95 3.93zM-636.48 388.17h72.96V367.3h-72.96v20.87zm10.43-14.4c2.2 0 3.94 1.77 3.94 3.94 0 2.2-1.76 3.94-3.95 3.94-2.1 0-3.94-1.74-3.94-3.93 0-2.16 1.76-3.92 3.95-3.92z" stroke="#000" stroke-opacity="0" stroke-width="3.57" fill="#fff"/><use xlink:href="#i" transform="matrix(1,0,0,1,-690,418.05) translate(15.5588107638889 21.52777777777778)"/><use xlink:href="#j" transform="matrix(1,0,0,1,-690,418.05) translate(95.13780381944444 21.52777777777778)"/><path d="M-783.62 349.05h107.24" stroke="#3a414a" fill="none"/><path d="M-798.38 349.05l14.26-4.63v9.26zM-661.62 349.05l-14.26 4.63v-9.26z" stroke="#3a414a" fill="#3a414a"/><path d="M-540 537.64v67.02l-58.56 33.44v-20.88h-2.88v20.88L-660 604.66v-67.02l17.52 11.74 1.56-2.46-17.64-11.74L-600 501.6l58.56 33.44-17.76 11.88 1.56 2.46 17.64-11.74z" stroke="#000" stroke-opacity="0" stroke-width="3.14" fill="#76b900"/><path d="M-573.17 578.6c-.65 0-1.24.15-1.83.36l-5.04-7.9v-.08l5.04-8.4c.6.2 1.18.35 1.83.35 3.14 0 5.7-2.63 5.7-5.77 0-3.13-2.56-5.7-5.7-5.7-1.63 0-3.14.7-4.2 1.78l-17.45-10.12c.13-.42.2-.92.2-1.42 0-3.14-2.55-5.7-5.7-5.7-3.13 0-5.75 2.56-5.75 5.7 0 .57.14 1.14.27 1.57l-17.2 9.97c-1.05-1.07-2.55-1.78-4.2-1.78-3.13 0-5.68 2.56-5.68 5.7 0 3.13 2.55 5.77 5.7 5.77.5 0 .97-.07 1.43-.2l5.16 8.6-4.76 7.56c-.6-.15-1.18-.3-1.83-.3-3.13 0-5.68 2.64-5.68 5.78 0 3.13 2.55 5.7 5.7 5.7 1.5 0 2.87-.57 3.85-1.5l17.53 11.4c-.13.43-.27 1-.27 1.57 0 3.14 2.62 5.7 5.76 5.7 3.13 0 5.68-2.56 5.68-5.7 0-.64-.13-1.28-.33-1.85l17.53-11.55c.98 1.22 2.55 1.93 4.25 1.93 3.14 0 5.7-2.57 5.7-5.7 0-3.14-2.56-5.77-5.7-5.77zm-31.2-32.84l-10.2 16.1-7-3.5c.07-.35.14-.77.14-1.2 0-.5-.07-.93-.2-1.42l17.26-9.98zm-1.63 25.58c.07.28.07.5.2.7l-8.44 4.22-2.94-4.92 3.66-5.77 7.6 3.85c-.08.35-.15.78-.15 1.2 0 .3.07.5.07.72zm-17.27-10.05c.13-.08.26-.22.4-.36l6.8 3.34-2.75 4.35-4.45-7.34zm.13 19.45l.2-.3 4.06-6.33 2.1 3.5-6.1 2.98-.25.14zm1.38 5.4c.2-.56.33-1.13.33-1.77 0-.43-.07-.86-.14-1.2l6.22-3.15 10.2 16.96-16.6-10.84zm20 9.84c-.2.06-.32.06-.5.14l-10.48-17.4 8.3-4.2c.73.8 1.64 1.36 2.7 1.57V596zm0-30.93c-1.1.28-2.15.93-2.87 1.78l-7.4-3.63 10.15-16.04c0 .08.06.08.13.08v17.8zm19.96 3.2l-2.42-3.77 6.8-3.5-4.38 7.28zm-12.9 1.57l7.93-4.06 3.33 5.27-3 5.06-8.3-4.2c.05-.42.12-.85.12-1.27 0-.3 0-.57-.07-.8zm-1.5-24.22l17.47 10.12c-.13.5-.2.92-.2 1.42 0 .5.07.93.2 1.35l-7 3.58h-.06l-10.46-16.4.07-.06zm-2.67 1.64c.06 0 .13-.08.2-.08l10.33 16.18-7.46 3.85c-.72-1.06-1.83-1.78-3.07-2.13v-17.8zm.33 48.8c-.07 0-.2-.07-.33-.07v-19.9c1.04-.2 2.02-.84 2.75-1.63l8.17 4.07-10.6 17.52zm3 .65l10.14-16.88 6.6 3.35c-.06.35-.13.78-.13 1.2 0 .44.07.86.2 1.22l-16.8 11.1zm18.05-16.1l-6.4-3.2 2.23-3.64 4.25 6.7c0 .07 0 .14-.07.14z" stroke="#000" stroke-opacity="0" stroke-width="3.14" fill="#fff"/><g><use xlink:href="#a" transform="matrix(1,0,0,1,-690,647.1) translate(0.9320746527777715 21.52777777777778)"/><use xlink:href="#k" transform="matrix(1,0,0,1,-690,647.1) translate(76.69162326388889 21.52777777777778)"/></g><path d="M-783.62 570.65h107.24" stroke="#3a414a" fill="none"/><path d="M-798.38 570.65l14.26-4.63v9.26zM-661.62 570.65l-14.26 4.63v-9.26z" stroke="#3a414a" fill="#3a414a"/><defs><path d="M180 0v-1490h224l606 953c40 63 108 177 176 312-27-437-7-821-13-1265h190V0h-226C860-448 622-778 356-1262c27 476 11 792 15 1262H180" id="l"/><path d="M537 14c-226 0-379-139-379-422v-710h180v695c0 172 97 275 253 275 160 0 281-109 281-300v-670h181V0H879v-209C806-46 684 14 537 14" id="m"/><path d="M180 0v-1490h510c348 0 508 194 508 460 0 198-88 351-276 417L1256 0h-220L726-579c-117 2-238 0-356 1V0H180zm190-747h312c235 0 327-108 327-283 0-177-92-293-329-293H370v576" id="n"/><path d="M628 24c-324 0-524-230-524-574 0-343 198-582 503-582 237 0 487 146 487 559v75H286c9 234 145 362 343 362 132 0 231-58 273-172l174 48C1024-91 857 24 628 24zM287-650h624c-17-190-120-322-304-322-192 0-309 151-320 322" id="o"/><path d="M613 24c-304 0-509-231-509-576 0-350 205-580 509-580 216 0 392 114 453 309l-173 49c-33-115-133-197-280-197-223 0-326 196-326 419 0 220 103 415 326 415 150 0 252-85 285-206l172 49C1010-95 832 24 613 24" id="p"/><g id="a"><use transform="matrix(0.010850694444444444,0,0,0.010850694444444444,0,0)" xlink:href="#l"/><use transform="matrix(0.010850694444444444,0,0,0.010850694444444444,16.74262152777778,0)" xlink:href="#m"/><use transform="matrix(0.010850694444444444,0,0,0.010850694444444444,29.8828125,0)" xlink:href="#n"/><use transform="matrix(0.010850694444444444,0,0,0.010850694444444444,43.85850694444444,0)" xlink:href="#o"/><use transform="matrix(0.010850694444444444,0,0,0.010850694444444444,56.81423611111111,0)" xlink:href="#p"/></g><path d="M611 442c-248 0-391-105-460-228l146-94c47 65 117 165 314 165 178 0 307-82 307-266v-224h-17C863-141 792-18 576-18c-268 0-472-195-472-546 0-346 197-568 476-568 216 0 288 133 326 193h17v-179h175V29c0 289-215 413-487 413zm-5-620c203 0 314-146 314-390 0-237-108-403-314-403-213 0-319 180-319 403 0 230 109 390 319 390" id="q"/><path d="M180 0v-1490h510c348 0 508 209 508 474 0 266-160 477-507 477H370V0H180zm190-706h312c236 0 327-133 327-310 0-176-91-307-329-307H370v617" id="r"/><path d="M783 20c-382 0-661-292-661-764 0-473 279-766 661-766 302 0 548 182 601 489h-190c-42-204-217-313-411-313-268 0-476 208-476 590 0 381 209 588 476 588 195 0 369-110 411-313h190c-52 303-296 489-601 489" id="s"/><g id="b"><use transform="matrix(0.010850694444444444,0,0,0.010850694444444444,0,0)" xlink:href="#q"/><use transform="matrix(0.010850694444444444,0,0,0.010850694444444444,13.628472222222221,0)" xlink:href="#n"/><use transform="matrix(0.010850694444444444,0,0,0.010850694444444444,27.9296875,0)" xlink:href="#r"/><use transform="matrix(0.010850694444444444,0,0,0.010850694444444444,42.12239583333333,0)" xlink:href="#s"/></g><path d="M52 0l541-1490h220L1361 0h-200l-149-416H398L254 0H52zm404-582h497c-103-290-145-390-251-756-108 377-145 460-246 756" id="t"/><path d="M370-1490V0H180v-1490h190" id="u"/><g id="c"><use transform="matrix(0.010850694444444444,0,0,0.010850694444444444,0,0)" xlink:href="#t"/><use transform="matrix(0.010850694444444444,0,0,0.010850694444444444,15.33203125,0)" xlink:href="#r"/><use transform="matrix(0.010850694444444444,0,0,0.010850694444444444,29.524739583333332,0)" xlink:href="#u"/></g><path d="M180 0v-1490h190v1322h690V0H180" id="v"/><g id="d"><use transform="matrix(0.010850694444444444,0,0,0.010850694444444444,0,0)" xlink:href="#s"/><use transform="matrix(0.010850694444444444,0,0,0.010850694444444444,15.79861111111111,0)" xlink:href="#t"/><use transform="matrix(0.010850694444444444,0,0,0.010850694444444444,31.13064236111111,0)" xlink:href="#n"/><use transform="matrix(0.010850694444444444,0,0,0.010850694444444444,45.431857638888886,0)" xlink:href="#v"/><use transform="matrix(0.010850694444444444,0,0,0.010850694444444444,57.99696180555555,0)" xlink:href="#t"/></g><path d="M600 0L52-1490h200c166 485 304 806 458 1336 156-533 285-846 449-1336h202L819 0H600" id="w"/><path d="M645 0H180v-1490h484c435 0 692 280 692 742 0 466-257 748-711 748zM370-168h263c363 0 539-218 539-580 0-358-176-574-521-574H370v1154" id="x"/><g id="e"><use transform="matrix(0.010850694444444444,0,0,0.010850694444444444,0,0)" xlink:href="#l"/><use transform="matrix(0.010850694444444444,0,0,0.010850694444444444,16.74262152777778,0)" xlink:href="#w"/><use transform="matrix(0.010850694444444444,0,0,0.010850694444444444,32.07465277777778,0)" xlink:href="#u"/><use transform="matrix(0.010850694444444444,0,0,0.010850694444444444,38.04253472222222,0)" xlink:href="#x"/><use transform="matrix(0.010850694444444444,0,0,0.010850694444444444,54.07986111111112,0)" xlink:href="#u"/><use transform="matrix(0.010850694444444444,0,0,0.010850694444444444,60.04774305555555,0)" xlink:href="#t"/></g><path d="M338-670V0H158v-1490h180v566c73-149 190-208 336-208 226 0 379 139 379 422V0H872v-695c0-172-96-275-252-275-161 0-282 109-282 300" id="y"/><path d="M140 405l46-156c120 36 205 19 263-150l32-93L54-1118h197c107 313 237 620 324 950 87-331 219-637 326-950h196L606 167c-68 178-176 259-334 259-64 0-113-12-132-21" id="z"/><path d="M538 24C308 24 148-78 108-271l171-41c32 123 123 178 257 178 156 0 256-77 256-169 0-77-54-128-164-154l-186-44c-203-48-300-148-300-305 0-192 176-326 414-326 230 0 351 112 402 269l-163 42c-31-80-94-158-238-158-133 0-233 69-233 162 0 83 57 129 188 160l169 40c203 48 298 149 298 302 0 196-179 339-441 339" id="A"/><path d="M158 0v-1118h180V0H158zm91-1301c-68 0-125-53-125-119s57-119 125-119c69 0 126 53 126 119s-57 119-126 119" id="B"/><path d="M471 26C259 26 90-98 90-318c0-256 228-303 435-329 202-27 287-16 287-108 0-139-79-219-234-219-161 0-248 86-283 164l-173-57c86-203 278-265 451-265 150 0 419 46 419 395V0H815v-152h-12C765-73 660 26 471 26zm31-159c199 0 310-134 310-271v-155c-30 35-226 55-295 64-131 17-246 59-246 186 0 116 97 176 231 176" id="C"/><path d="M338-1490V0H158v-1490h180" id="D"/><g id="f"><use transform="matrix(0.010850694444444444,0,0,0.010850694444444444,0,0)" xlink:href="#r"/><use transform="matrix(0.010850694444444444,0,0,0.010850694444444444,14.192708333333332,0)" xlink:href="#y"/><use transform="matrix(0.010850694444444444,0,0,0.010850694444444444,27.00737847222222,0)" xlink:href="#z"/><use transform="matrix(0.010850694444444444,0,0,0.010850694444444444,39.49652777777778,0)" xlink:href="#A"/><use transform="matrix(0.010850694444444444,0,0,0.010850694444444444,51.22612847222222,0)" xlink:href="#B"/><use transform="matrix(0.010850694444444444,0,0,0.010850694444444444,56.608072916666664,0)" xlink:href="#p"/><use transform="matrix(0.010850694444444444,0,0,0.010850694444444444,69.52039930555554,0)" xlink:href="#C"/><use transform="matrix(0.010850694444444444,0,0,0.010850694444444444,81.99869791666666,0)" xlink:href="#D"/></g><g id="g"><use transform="matrix(0.010850694444444444,0,0,0.010850694444444444,0,0)" xlink:href="#t"/><use transform="matrix(0.010850694444444444,0,0,0.010850694444444444,15.33203125,0)" xlink:href="#u"/></g><path d="M598-1118v154H368v674c0 100 37 144 132 144 23 0 62-6 92-12L629-6c-37 13-88 20-134 20-193 0-307-107-307-290v-688H20v-154h168v-266h180v266h230" id="E"/><g id="h"><use transform="matrix(0.010850694444444444,0,0,0.010850694444444444,0,0)" xlink:href="#x"/><use transform="matrix(0.010850694444444444,0,0,0.010850694444444444,16.03732638888889,0)" xlink:href="#C"/><use transform="matrix(0.010850694444444444,0,0,0.010850694444444444,28.515625,0)" xlink:href="#E"/><use transform="matrix(0.010850694444444444,0,0,0.010850694444444444,35.89409722222222,0)" xlink:href="#C"/></g><g id="i"><use transform="matrix(0.010850694444444444,0,0,0.010850694444444444,0,0)" xlink:href="#s"/><use transform="matrix(0.010850694444444444,0,0,0.010850694444444444,15.79861111111111,0)" xlink:href="#t"/><use transform="matrix(0.010850694444444444,0,0,0.010850694444444444,31.13064236111111,0)" xlink:href="#n"/><use transform="matrix(0.010850694444444444,0,0,0.010850694444444444,45.431857638888886,0)" xlink:href="#v"/><use transform="matrix(0.010850694444444444,0,0,0.010850694444444444,57.99696180555555,0)" xlink:href="#t"/></g><path d="M657 26c-323 0-524-166-541-416h195c15 169 171 246 346 246 202 0 356-106 356-265 5-203-294-238-475-293-239-73-380-191-380-389 0-252 224-419 512-419 294 0 499 171 508 396H992c-17-145-151-228-328-228-193 0-321 102-321 242 0 156 175 211 284 241l149 41c160 44 422 134 422 412 0 244-197 432-541 432" id="F"/><path d="M158 0v-1118h174v172h12c41-113 157-188 290-188 26 0 70 2 91 3v181c-11-2-60-10-108-10-161 0-279 109-279 260V0H158" id="G"/><path d="M481 0L54-1118h197c107 314 236 620 325 951 87-331 217-637 324-951h197L670 0H481" id="H"/><g id="j"><use transform="matrix(0.010850694444444444,0,0,0.010850694444444444,0,0)" xlink:href="#F"/><use transform="matrix(0.010850694444444444,0,0,0.010850694444444444,14.2578125,0)" xlink:href="#o"/><use transform="matrix(0.010850694444444444,0,0,0.010850694444444444,27.213541666666664,0)" xlink:href="#G"/><use transform="matrix(0.010850694444444444,0,0,0.010850694444444444,35.92664930555555,0)" xlink:href="#H"/><use transform="matrix(0.010850694444444444,0,0,0.010850694444444444,47.98177083333333,0)" xlink:href="#o"/><use transform="matrix(0.010850694444444444,0,0,0.010850694444444444,60.937499999999986,0)" xlink:href="#G"/></g><path d="M613 24c-304 0-509-231-509-576 0-350 205-580 509-580 305 0 511 230 511 580 0 345-206 576-511 576zm0-161c226 0 329-195 329-415 0-222-103-419-329-419-223 0-326 196-326 419 0 220 103 415 326 415" id="I"/><path d="M338-670V0H158v-1118h173l1 207c72-158 192-221 342-221 226 0 378 139 378 422V0H872v-695c0-172-96-275-252-275-161 0-282 109-282 300" id="J"/><g id="k"><use transform="matrix(0.010850694444444444,0,0,0.010850694444444444,0,0)" xlink:href="#s"/><use transform="matrix(0.010850694444444444,0,0,0.010850694444444444,16.23263888888889,0)" xlink:href="#I"/><use transform="matrix(0.010850694444444444,0,0,0.010850694444444444,29.557291666666664,0)" xlink:href="#J"/><use transform="matrix(0.010850694444444444,0,0,0.010850694444444444,42.68663194444444,0)" xlink:href="#E"/><use transform="matrix(0.010850694444444444,0,0,0.010850694444444444,50.065104166666664,0)" xlink:href="#C"/><use transform="matrix(0.010850694444444444,0,0,0.010850694444444444,62.54340277777778,0)" xlink:href="#B"/><use transform="matrix(0.010850694444444444,0,0,0.010850694444444444,67.92534722222221,0)" xlink:href="#J"/><use transform="matrix(0.010850694444444444,0,0,0.010850694444444444,81.05468749999999,0)" xlink:href="#o"/><use transform="matrix(0.010850694444444444,0,0,0.010850694444444444,94.01041666666666,0)" xlink:href="#G"/></g></defs></g></svg>