/* XPM */
static const char *accept_xpm[] = {
/* columns rows colors chars-per-pixel */
"16 16 30 1 ",
"  c #26AD87",
". c #25AE87",
"X c #25AE88",
"o c #25AF89",
"O c #26AE88",
"+ c #28AF89",
"@ c #28AF8A",
"# c #2BB08B",
"$ c #2EB18D",
"% c #33B38F",
"& c #34B390",
"* c #35B491",
"= c #39B593",
"- c #3CB795",
"; c #40B896",
": c #44B999",
"> c #46BA9A",
", c #56C0A3",
"< c #63C5AA",
"1 c #69C7AD",
"2 c #80D0B9",
"3 c #86D2BD",
"4 c #8FD5C2",
"5 c #96D8C6",
"6 c #9DDAC9",
"7 c #AEE1D3",
"8 c #B6E4D7",
"9 c #B9E5D9",
"0 c #BEE7DC",
"q c None",
/* pixels */
"qqqqqo. o  qqqqq",
"qqqqXX.oo.XXqqqq",
"qqooXXXX XXX.oqq",
"qqo.XXXXXXXXooqq",
"qoo o XXo.o-&o.q",
".. oXXXX  &0=.oq",
".o. XXXXo+9:o...",
"o.o+$XXXo7,o.o.o",
"o o-0:XX61XXXXXX",
" o o&8<32  oXXXX",
" .o oo54o o .oXq",
"qo o oXX o oo.oq",
"qqo.o oXo o.. qq",
"qqoo.o X o.oooqq",
"qqqqo.XXo o.qqqq",
"qqqqq . o..qqqqq"
};
