/* XPM */
static const char * allow_rotation_xpm[] = {
"20 20 130 2",
"  	c None",
". 	c #7b7b7b",
"X 	c #7c7c7c",
"o 	c Gray47",
"O 	c #656565",
"+ 	c #515151",
"@ 	c #3e3e3e",
"# 	c #282828",
"$ 	c #484848",
"% 	c #767676",
"& 	c #5b5b5b",
"* 	c #505050",
"= 	c #444444",
"- 	c Gray21",
"; 	c Gray15",
": 	c #151514",
"> 	c #080a04",
", 	c #020300",
"< 	c #0e0e0e",
"1 	c #474845",
"2 	c Gray42",
"3 	c Gray34",
"4 	c #131313",
"5 	c #030500",
"6 	c #1d2e00",
"7 	c #3d6200",
"8 	c #5e9700",
"9 	c Black",
"0 	c #1f3100",
"q 	c #142000",
"w 	c #2f2f2f",
"e 	c #565656",
"r 	c #686868",
"t 	c #6f6f6f",
"y 	c #343434",
"u 	c #1d2f00",
"i 	c #6cae00",
"p 	c #75bb00",
"a 	c #76bd00",
"s 	c Red",
"d 	c #85d500",
"f 	c #3c6000",
"g 	c #101900",
"h 	c #1a1c17",
"j 	c #111111",
"k 	c Gray9",
"l 	c Gray50",
"z 	c #141a09",
"x 	c #619b00",
"c 	c #99f500",
"v 	c #588a04",
"b 	c #4b7800",
"n 	c #76be00",
"m 	c #548700",
"M 	c #385a00",
"N 	c #1f3102",
"B 	c #649f01",
"V 	c #68a504",
"C 	c Gray19",
"Z 	c #1e1f1d",
"A 	c #66a400",
"S 	c #89db00",
"D 	c #518200",
"F 	c #111903",
"G 	c Gray23",
"H 	c #497500",
"J 	c #528300",
"K 	c #64a100",
"L 	c #5b9200",
"P 	c #487300",
"I 	c #70b300",
"U 	c #3a5310",
"Y 	c #83d200",
"T 	c #91e900",
"R 	c #070a01",
"E 	c Gray20",
"W 	c #375506",
"Q 	c #85d600",
"! 	c #82d000",
"~ 	c #5e9600",
"^ 	c #7dc900",
"/ 	c #91e800",
"( 	c #131908",
") 	c #90e700",
"_ 	c #98f400",
"` 	c Gray1",
"' 	c #6c6c6c",
"] 	c #314312",
"[ 	c #314d03",
"{ 	c #82d100",
"} 	c #9fff00",
"| 	c #294102",
" .	c #2a2a2a",
"..	c #121c02",
"X.	c #585858",
"o.	c #1a2803",
"O.	c #578c00",
"+.	c #86d700",
"@.	c #365600",
"#.	c Gray6",
"$.	c #4b4b4b",
"%.	c Gray45",
"&.	c Gray30",
"*.	c #24271e",
"=.	c #375308",
"-.	c #2e3a19",
";.	c #555555",
":.	c #646464",
">.	c Gray41",
",.	c #5d5d5d",
"<.	c #4e4f4c",
"1.	c #5d5d5c",
"2.	c #777777",
"3.	c #6a6a6a",
"4.	c #73ae12",
"5.	c #93eb00",
"6.	c #1b1f15",
"7.	c Gray48",
"8.	c #56712a",
"9.	c #5f9900",
"0.	c #575855",
"q.	c #89dc00",
"w.	c #9bf800",
"e.	c #69a800",
"r.	c #8de200",
"t.	c #67a008",
"y.	c #4e6f18",
"u.	c #464646",
"i.	c Gray18",
"p.	c #323232",
"                                        ",
"                      . X               ",
"              o O + @ # $               ",
"      % & * = - ; : > , < 1 2 X         ",
"      3 4 5 6 7 8 9 9 9 0 q w e r 2 t   ",
"    % y u 8 i p a 9 s 9 d f g h j k =   ",
"  l = z x c 9 v 9 s 9 b n m M N B V C   ",
"  & Z A S D F G 9 s 9 H J K L P I n 4   ",
"  + U Y T R E 9 s 9 W Q ! ~ ^ / 8 ( E   ",
"9 9 9 ) _ ` ' 9 s 9 ] [ D { } p |  .l   ",
"9 s s 9 9 ..9 s 9 . X.; o.O.+.@.#.$.    ",
"  9 9 s s 9 9 s 9     %.&.*.=.-.$ %.    ",
"    ;.9 9 s s s 9 %.r :.>.,.<.1.2.      ",
"    3.4.5.9 s s s 9 9 6.s               ",
"    7.8.9.9 s 9 9 s s 9 9 s             ",
"    l 0.9 s 9 q.w.9 9 s s 9 9           ",
"      % 9 s 9 e.r.t.y.9 9 s 9           ",
"      9 s 9 u.i.p.$ & t l 9 9           ",
"      9 s 9 7.                          ",
"    9 9 9                               "};
