/* XPM */
static const char *app_tlstracker_xpm[] = {
"16 16 110 2",
"  	c None",
"1.	c #ef1800",
"2.	c Black",
"3.	c #f7e700",
"4.	c #4abd00",
". 	c #338033",
"+ 	c #F2F7F2",
"@ 	c #FFFFFF",
"# 	c #89B78A",
"$ 	c #438D46",
"% 	c #47904A",
"& 	c #D1E3D1",
"* 	c #F0F6F0",
"= 	c #A8CBA9",
"- 	c #6FA972",
"; 	c #95BF97",
"> 	c #CADFCB",
", 	c #A6C9A7",
"' 	c #6CA66E",
") 	c #5A9B5D",
"! 	c #D8E8D8",
"~ 	c #F8FDF8",
"{ 	c #FEFEFE",
"] 	c #CBE0CC",
"^ 	c #80B282",
"/ 	c #9EC7A0",
"( 	c #9BC59D",
"_ 	c #8FBE92",
": 	c #64A266",
"< 	c #3F8B42",
"[ 	c #64A166",
"} 	c #8CB98E",
"| 	c #DFECDF",
"1 	c #FBFEFB",
"2 	c #F8FBF8",
"3 	c #A7CAA8",
"4 	c #408C43",
"5 	c #2C7F2F",
"6 	c #6BA86D",
"7 	c #94C196",
"8 	c #9DC79F",
"9 	c #90BD91",
"0 	c #8CBB8E",
"a 	c #4B934E",
"b 	c #2D8030",
"c 	c #3D8A40",
"d 	c #6BA56D",
"e 	c #FCFEFC",
"f 	c #DAE9DA",
"g 	c #DEEBDF",
"h 	c #93BD94",
"i 	c #6DA76F",
"j 	c #368539",
"k 	c #529755",
"l 	c #8FBD91",
"m 	c #9EC6A0",
"n 	c #93BF95",
"o 	c #5F9E61",
"p 	c #CFE2D0",
"q 	c #4B924E",
"r 	c #5F9F61",
"s 	c #B0CFB1",
"t 	c #B4D3B6",
"u 	c #D4E7D5",
"v 	c #539755",
"w 	c #2E8031",
"x 	c #5B9D5E",
"y 	c #81B383",
"z 	c #CDE1CD",
"A 	c #A8CBAA",
"B 	c #338436",
"C 	c #70A972",
"D 	c #BBD7BC",
"E 	c #5C9D5F",
"F 	c #B3D3B5",
"G 	c #F7FCF8",
"H 	c #C6DFC7",
"I 	c #73AA75",
"J 	c #5E9D60",
"K 	c #FBFDFB",
"L 	c #328032",
"M 	c #7EB180",
"N 	c #86B688",
"O 	c #378639",
"P 	c #549857",
"Q 	c #87B789",
"R 	c #5C9E5E",
"S 	c #479049",
"T 	c #2F8132",
"U 	c #CDE1CE",
"V 	c #318032",
"W 	c #5D9D5F",
"X 	c #77AD79",
"Y 	c #A5C9A7",
"Z 	c #73AB75",
"` 	c #9DC59F",
" .	c #80B281",
"..	c #A4C8A5",
"+.	c #FDFEFD",
"@.	c #BED8BF",
"#.	c #39873C",
"$.	c #328335",
"%.	c #5B9C5D",
"&.	c #94BE96",
"*.	c #F3FAF4",
"=.	c #FAFEFA",
"-.	c #91BC93",
";.	c #F7FAF7",
">.	c #FCFFFC",
",.	c #FBFEFC",
". . . . . . . . . . . . . . . . ",
". + @ @ @ @ @ @ @ @ @ @ @ @ + . ",
". @ @ @ @ @ @ @ @ @ @ @ @ @ @ . ",
". @ @ @ @ @ @ @ @ + # $ % & @ . ",
". @ @ @ * = - ; > , ' ) ! ~ @ . ",
". @ { ] ^ / ( _ : < [ } | 1 @ . ",
". @ 2 3 4 2.2.2.2.2.2.2.2.2.2.2.",
". @ e f g 2.2.2.2.2.2.2.2.2.2.2.",
". @ @ p q 2.1.1.1.1.1.4.4.4.3.3.",
". @ A B C 2.2.2.2.2.2.2.2.2.2.2.",
"L M 5 N 3 2.4.4.4.3.3.1.1.1.1.1.",
"V W X Y 5 2.2.2.2.2.2.2.2.2.2.2.",
". +.@.#.$.2.1.1.1.1.2.4.4.4.3.3.",
". @ @ 3 -.2.2.2.2.2.2.2.2.2.2.2.",
". + @ @ @ 2.4.4.4.3.3.1.1.1.1.1.",
". . . . . 2.2.2.2.2.2.2.2.2.2.2."};