/* XPM */
static const char *bigarrowright_xpm[] = {
/* columns rows colors chars-per-pixel */
"30 15 2 1 ",
"  c black",
". c None",
/* pixels */
"..............  ..............",
".............. .  ............",
".............. ...  ..........",
".............. .....  ........",
"               .......  ......",
" .......................  ....",
" .........................  ..",
" ...........................  ",
" .........................  ..",
" .......................  ....",
" .....................  ......",
"               .....  ........",
".............. ...  ..........",
".............. .  ............",
"..............  .............."
};
