/* XPM */
static const char *busstop_xpm[] = {
/* columns rows colors chars-per-pixel */
"16 16 54 1 ",
"  c #57AE2F",
". c #59AF2E",
"X c #5BAF2E",
"o c #4BA831",
"O c #4BA931",
"+ c #4BAA31",
"@ c #4BA932",
"# c #4BAA32",
"$ c #4CA931",
"% c #4CAA31",
"& c #4EAB31",
"* c #4FAB31",
"= c #4CA932",
"- c #4CAA32",
"; c #4DAA32",
": c #4DAB32",
"> c #52AC30",
", c #54AD30",
"< c #55AD30",
"1 c #65B32B",
"2 c #66B42B",
"3 c #76B926",
"4 c #7ABB25",
"5 c #7EBC24",
"6 c #83BE23",
"7 c #93C41E",
"8 c #97C51D",
"9 c #94C41E",
"0 c #95C41E",
"q c #9CC71C",
"w c #A1C91A",
"e c #A4CA19",
"r c #A5CA19",
"t c #A6CB19",
"y c #A7CB19",
"u c #A8CC18",
"i c #B5D015",
"p c #BDD312",
"a c #BCD313",
"s c #C8D70F",
"d c #C9D70F",
"f c #EDE405",
"g c #EEE505",
"h c #F4E703",
"j c #F0E604",
"k c #F2E604",
"l c #F6E802",
"z c #F8E802",
"x c #F8E902",
"c c #FDEA00",
"v c #FCEA01",
"b c #FDEA01",
"n c #FFEB00",
"m c None",
/* pixels */
"mmmmm=O==Ommmmmm",
"mmm=O<6q05&&mmmm",
"mm==rknnnng0:Omm",
"mO>dnnnnnnnna&mm",
"m=ynnxxnnxxnn7Om",
"OXcnn53nn>5nnh&m",
"=0nnn53nn>5nnn5O",
"=unnn5 44#5nnnw&",
"&pnnn51ii&5nnnyO",
"O0nnn53nn>5nnn6#",
"O2nnn53nn<5ncz.#",
"mO7nnxnnnxcnnr-m",
"mm&annnnnnnns-=m",
"mm#O0gnnnngy--mm",
"mmmm&&50q6<==mmm",
"mmmmmm=O:O=mmmmm"
};
