/* XPM */
static const char *camera_xpm[] = {
"16 16 6 1",
" 	c None",
".	c Black",
"X	c #009cff",
"o	c #7dcdff",
"O	c #005184",
"+	c Gray100",
"                ",
"                ",
"           .... ",
"          .XXXX.",
"................",
".ooo.....oooooo.",
".oX..XXX..XXXXO.",
".o..+ooXX..X..O.",
".o.Xo+XXoX.X..O.",
".o.XoXXXoX.XXXO.",
".o.XXXX++X.XXXO.",
".o..Xoo++..XXXO.",
".oX..XXX..XXXXO.",
".oOO.....OOOOOO.",
"................",
"                "};
