/* XPM */
static const char *chargingstation_xpm[] = {
/* columns rows colors chars-per-pixel */
"16 16 67 1 ",
"  c #FFEB00",
". c #FEEB01",
"X c #FFEB01",
"o c #FDEB03",
"O c #FEEB02",
"+ c #FDEB04",
"@ c #FCEA06",
"# c #FAEA09",
"$ c #F9EA0A",
"% c #F2E917",
"& c #F0E81A",
"* c #DFE538",
"= c #DFE539",
"- c #DEE53B",
"; c #DCE53E",
": c #E7E72B",
"> c #E1E636",
", c #E0E637",
"< c #BCDF77",
"1 c #BBDF7A",
"2 c #BCDF78",
"3 c #D4E34C",
"4 c #CEE258",
"5 c #D2E351",
"6 c #C6E167",
"7 c #C5E168",
"8 c #C4E069",
"9 c #C1E06F",
"0 c #C2E06E",
"q c #C0E070",
"w c #7FD4E4",
"e c #7ED4E6",
"r c #7ED4E7",
"t c #7DD4E8",
"y c #7CD4E9",
"u c #7DD4E9",
"i c #7AD3ED",
"p c #75D2F7",
"a c #78D3F0",
"s c #78D3F1",
"d c #78D3F2",
"f c #73D2F9",
"g c #71D1FA",
"h c #71D1FB",
"j c #72D1FB",
"k c #71D2FB",
"l c #73D2FA",
"z c #72D2FB",
"x c #73D2FB",
"c c #74D2F9",
"v c #72D1FC",
"b c #72D1FD",
"n c #71D2FC",
"m c #71D2FD",
"M c #71D3FD",
"N c #72D2FC",
"B c #72D2FD",
"V c #B6DE82",
"C c #B4DE86",
"Z c #B1DD8C",
"A c #ABDC96",
"S c #A8DC9B",
"D c #A4DBA3",
"F c #A2DAA7",
"G c #8DD7CC",
"H c #84D5DB",
"J c None",
/* pixels */
"JJJJJxxvvxkJJJJJ",
"JJJvveZqqZevxJJJ",
"JJvp6     +7xxJJ",
"Jvs*        *dxJ",
"Jv9    %,:o .9vJ",
"vr   +SxidC ..yx",
"kA   4v1 +:   Ax",
"M1   Zd+      1v",
"v1   Vx&      1v",
"xF   ,xD:;5   FM",
"vr$   3GyH4  $yv",
"Jv1          2MJ",
"Jvd*        *dMJ",
"JJkk7+    +7vMJJ",
"JJJMveZqqZrvvJJJ",
"JJJJJkxMvvxJJJJJ"
};
