/* XPM */
static const char *cleanjunctions_xpm[] = {
/* columns rows colors chars-per-pixel */
"16 16 85 1 ",
"  c #870606",
". c #8F0100",
"X c #B60706",
"o c #C63734",
"O c #D13836",
"+ c #8E7404",
"@ c #8F7911",
"# c #A97116",
"$ c #A77018",
"% c #BB7B13",
"& c #AE4529",
"* c #B95C3B",
"= c #B66227",
"- c #A67424",
"; c #A97728",
": c #AB7A2C",
"> c #AE7C2E",
", c #B17C27",
"< c #BA7735",
"1 c #9B8213",
"2 c #B28110",
"3 c #BA8633",
"4 c #BF8F35",
"5 c #D6BC08",
"6 c #D9BE10",
"7 c #D8BE12",
"8 c #D7BD19",
"9 c #D6BC1F",
"0 c #C58827",
"q c #C68826",
"w c #C1A82D",
"e c #C3AA2F",
"r c #CFB127",
"t c #D0B220",
"y c #D2B528",
"u c #D3B529",
"i c #D8BF29",
"p c #C9B237",
"a c #D8BF31",
"s c #D3B938",
"d c #D4BB38",
"f c #D5BD3A",
"g c #D2BB3E",
"h c #DEC619",
"j c #E2C917",
"k c #E5CB1E",
"l c #DAC022",
"z c #DCC427",
"x c #DCC527",
"c c #DDC62D",
"v c #DDC72E",
"b c #DEC829",
"n c #DBC433",
"m c #DDC730",
"M c #DEC936",
"N c #D9C03A",
"B c #DBC13F",
"V c #DBC43D",
"C c #E1C620",
"Z c #E9CF22",
"A c #E0C72E",
"S c #EAD220",
"D c #EBD224",
"F c #E6D02C",
"G c #E0CB3B",
"H c #EED433",
"J c #E7D338",
"K c #E9D43E",
"L c #F5DC30",
"P c #F4DD32",
"I c #F5DE3E",
"U c #B58943",
"Y c #D8C049",
"T c #DAC34B",
"R c #DFCB50",
"E c #DFC852",
"W c #F6DF40",
"Q c #E0CB5C",
"! c #FAE440",
"~ c #FBE649",
"^ c #F7E257",
"/ c #E2C466",
"( c #EACF68",
") c #F6E56D",
"_ c None",
/* pixels */
"-:______________",
">U3_____________",
";00_____________",
"_,%$____________",
"__#2EB__________",
"__r)/& _________",
"__u=Oo<_________",
"__.X*(!Ky_______",
"___4~^ISbd______",
"___NPIHZhvT_____",
"___tFDLC6znQ____",
"____Mjkvz5GnT___",
"____f6zJ9znp____",
"____1Vv8Rg+_____",
"_____wsw@_______",
"________________"
};
