/* XPM */
static const char * close_gaps_xpm[] = {
"17 17 4 1",
" 	c None",
"!	c black",
"#	c #BA0000",
"$	c #FF2424",
"                 ",
" !!!!       !!!! ",
" !!!!       !!!! ",
" !  !       !!!! ",
" !! !       !!!! ",
" ! !!    #  !!!! ",
" !! !     # !!!! ",
" ! !!      #!!!! ",
" !!!$#######$!!! ",
" ! !!      #!!!! ",
" !! !     # !!!! ",
" ! !!    #  !!!! ",
" ! !!       !!!! ",
" !! !       !!!! ",
" ! !!       !!!! ",
" !!!!       !!!! ",
"                 "};
