/* XPM */
static const char * colour_vehicle_xpm[] = {
"16 16 10 1",
" 	c None",
".	c Black",
"X	c #ff13f5",
"o	c #ff1313",
"O	c #ff8d13",
"+	c #851d1d",
"@	c #fff513",
"#	c #50b6ff",
"$	c #88ff13",
"%	c #1d9136",
"                ",
"                ",
"                ",
"                ",
"                ",
"                ",
"                ",
"                ",
"      ......    ",
"     .XXooOO.   ",
"  ...X+++O++@.  ",
" .##X++++O+++$. ",
".##XXooOO@@$$$%.",
".#XXooOO@@$$$%%.",
"...oo......$%.. ",
"   ..      ..   "};
