/* XPM */
static const char *colorwheel_xpm[] = {
/* width height ncolors chars_per_pixel */
"16 16 11 1",
"  c #000000",
". c #ff0000",
"+ c #6e0091",
"@ c #ff6e00",
"# c #0080ff",
"$ c #ff7b00",
"% c #ffbf00",
"& c #00ff00",
"* c #00ffd9",
"= c #ffee00",
"- c None",
"-----      -----",
"---  ......  ---",
"-- ++......@@ --",
"- +++......@@@ -",
"- ++++....@@@@ -",
" ###++....@$%%% ",
" #####+..@%%%%% ",
" #######.%%%%%% ",
" ######&%%%%%%% ",
" #####*&&=%%%%% ",
" ###**&&&&==%%% ",
"- ****&&&&==== -",
"- ***&&&&&&=== -",
"-- **&&&&&&== --",
"---  &&&&&&  ---",
"-----      -----",
};

