/* XPM */
static const char *computejunctions_xpm[] = {
/* columns rows colors chars-per-pixel */
"16 16 74 1 ",
"  c #D79300",
". c #DB9401",
"X c #DF9C00",
"o c #DC9E00",
"O c #DDA000",
"+ c #E0A301",
"@ c #E1A500",
"# c #E4AC00",
"$ c #E8AE00",
"% c #E8B100",
"& c #EAB500",
"* c #EEB700",
"= c #ECB900",
"- c #EEB800",
"; c #F0BE00",
": c #DBA220",
"> c #F1C200",
", c #F2C500",
"< c #F0C700",
"1 c #F3C900",
"2 c #F4CC00",
"3 c #F5CF00",
"4 c #F5D100",
"5 c #939292",
"6 c #979797",
"7 c #B4A391",
"8 c #B5A99F",
"9 c #A4A4A4",
"0 c #A5A5A5",
"q c #AFA7A2",
"w c #ADACAC",
"e c gray68",
"r c #AFADAD",
"t c #B3AFAD",
"y c #B2B1B1",
"u c #B2B1B2",
"i c #B4B3B3",
"p c #B4B4B5",
"a c #B7B6B6",
"s c #B7B7B7",
"d c gray72",
"f c #B9B9B9",
"g c #BAB9B9",
"h c gray73",
"j c #BCBBBB",
"k c gray74",
"l c #C0BFBF",
"z c #BFBFC0",
"x c #C2C1C1",
"c c gray76",
"v c #C3C3C3",
"b c #C4C3C3",
"n c #C5C5C7",
"m c #C6C5C6",
"M c #C6C6C6",
"N c gray78",
"B c #C9C8C8",
"V c #CDCDCE",
"C c #CECECE",
"Z c gray81",
"A c #D0CFCF",
"S c #D0D0D1",
"D c gray82",
"F c LightGray",
"G c #D3D3D4",
"H c #D4D4D5",
"J c #D5D4D5",
"K c gray84",
"L c #D9D9DA",
"P c gray86",
"I c #DEDDDE",
"U c #E2E1E2",
"Y c #E2E2E3",
"T c None",
/* pixels */
"TTTTTTTTTTTTTTTT",
"T#<oTTTTTTTTTTTT",
"T*1; TTTTTLTTTTT",
"T$>3-TTTThVTTTVT",
"TT@<4%TTTeINdSkT",
"TTTT&2OTThAPYKTT",
"TTTTTX-+8MBeTTTT",
"TTTTTT.:tbTTTTTT",
"TTTTTT7qj6TTTTTT",
"TTTTTyvl5aTTTTTT",
"TT0SKVbTTTyTTTTT",
"TTShzKvTTTTeTTTT",
"TTKTT0STTTTTyMTT",
"TTTTThNTTTTTeYTT",
"TTTTTpTTTTTTTTTT",
"TTTTTTTTTTTTTTTT"
};
