/* XPM */
static const char * cont_xpm[] = {
"15 16 11 1",
" 	c None",
".	c Black",
"X	c #8cff25",
"o	c #82ff11",
"O	c #78fc00",
"+	c #6de600",
"@	c #68dc00",
"#	c #64d200",
"$	c #5fc800",
"%	c #5bc000",
"&	c #56b600",
"  ..           ",
"   ...         ",
"    .X.        ",
"     .o.       ",
"      .O..     ",
"       .+@.    ",
"        .#$.   ",
"         .%&.. ",
"        .%&.   ",
"       .%&.    ",
"      .%..     ",
"     .%.       ",
"    .%.        ",
"   ...         ",
"  ..           ",
"               "};
