/* XPM */
static const char *containerstop_xpm[] = {
/* columns rows colors chars-per-pixel */
"16 16 47 1 ",
"  c #5159AB",
". c #5258AA",
"X c #5258AB",
"o c #5358AB",
"O c #5359AB",
"+ c #5258AC",
"@ c #5358AC",
"# c #5259AC",
"$ c #5359AC",
"% c #5359AD",
"& c #545AAC",
"* c #555BAC",
"= c #565CAC",
"- c #575DAD",
"; c #585EAD",
": c #5A60AD",
"> c #666DAF",
", c #686FAF",
"< c #696FAF",
"1 c #6C72B0",
"2 c #6D73B0",
"3 c #6E74B0",
"4 c #6F75B0",
"5 c #6F76B0",
"6 c #7076B0",
"7 c #7077B0",
"8 c #7177B0",
"9 c #737AB1",
"0 c #767CB1",
"q c #767DB1",
"w c #7B82B2",
"e c #7C83B2",
"r c #7D84B2",
"t c #7E84B2",
"y c #8188B3",
"u c #8289B3",
"i c #8389B3",
"p c #838AB3",
"a c #8990B4",
"s c #8B92B4",
"d c #8D94B4",
"f c #8E95B4",
"g c #8F96B5",
"h c #9097B5",
"j c #9198B5",
"k c #9299B5",
"l c None",
/* pixels */
"llllloooo olllll",
"lllo$&,55,=oolll",
"llo$5gkjhjg7$$ll",
"l$&ekkkjjjjjr=$l",
"l$9jjjjjgjkkj9$l",
"$=jjjjq===qkjh=$",
"$,jjkpo5hspjjj5X",
"+9jjk8=gjjjjjj9$",
"oqkjj7ofjjjjkkq$",
"$<kjjp$2gspjkk5o",
"o=jjjjw=o=qjjh;$",
"l$9kkkkjjjjjj5$l",
"lo=rjjjjjjjje$ol",
"llo&5gjjkjg1$$ll",
"lllo$=,58,$$olll",
"lllll  oooolllll"
};
