/* XPM */
static const char * create_graph_xpm[] = {
"17 17 4 1",
" 	c None",
"!	c black",
"#	c #BA0000",
"$	c #F00000",
"!             #! ",
" !#          #$# ",
" #$#          #  ",
"  #!         !   ",
"    !        !   ",
"     !      #    ",
"     !     #$#   ",
"      !# !! # !!!",
"      #$#        ",
"      !#!        ",
"    !!   !       ",
"  #!     !       ",
" #$#      !#     ",
"  #       #$#    ",
" !         #!    ",
" !           !   ",
" !            !  "};
