/* XPM */
static const char *crossing_xpm[] = {
/* columns rows colors chars-per-pixel */
"16 16 256 2 ",
"   c gray1",
".  c gray2",
"X  c #090909",
"o  c #0C0C0C",
"O  c #0E0E0E",
"+  c #151515",
"@  c #191919",
"#  c gray11",
"$  c gray12",
"%  c #202020",
"&  c gray13",
"*  c gray15",
"=  c gray17",
"-  c gray18",
";  c #2F2F2F",
":  c gray25",
">  c #414141",
",  c #4C4C4C",
"<  c gray30",
"1  c gray31",
"2  c #505050",
"3  c #515151",
"4  c gray32",
"5  c #5D5D5D",
"6  c #606060",
"7  c gray38",
"8  c gray39",
"9  c gray40",
"0  c #6F6F6F",
"q  c blue",
"w  c #0303FF",
"e  c #0404FF",
"r  c #0606FF",
"t  c #0A0AFF",
"y  c #0C0CFF",
"u  c #1111FF",
"i  c #1515FF",
"p  c #1919FF",
"a  c #1F1FFF",
"s  c #2424FF",
"d  c #2D2DFF",
"f  c #3232FF",
"g  c #3737FF",
"h  c #4949FF",
"j  c #4F4FFF",
"k  c #5050FF",
"l  c #5A5AFF",
"z  c #6161FF",
"x  c #6868FF",
"c  c #7A7AFF",
"v  c #808080",
"b  c gray52",
"n  c gray55",
"m  c #8D8D8D",
"M  c gray57",
"N  c #929292",
"B  c #939393",
"V  c #979797",
"C  c gray60",
"Z  c #A0A0A0",
"A  c gray63",
"S  c gray65",
"D  c #B4B4B4",
"F  c #8080FF",
"G  c #8787FF",
"H  c #8B8BFF",
"J  c #9999FF",
"K  c #A3A3FF",
"L  c #AAAAFF",
"P  c #BCBCFF",
"I  c #C3C3C3",
"U  c gray78",
"Y  c #CACACA",
"T  c #D0D0D0",
"R  c gray84",
"E  c #D8D8D8",
"W  c gray86",
"Q  c #DDDDDD",
"!  c gray87",
"~  c #C2C2FF",
"^  c #D2D2FF",
"/  c #D7D7FF",
"(  c #E1E1E1",
")  c #E4E4E4",
"_  c #E9E9E9",
"`  c gray92",
"'  c #EFEFEF",
"]  c #E3E3FF",
"[  c #E7E7FF",
"{  c #EDEDFF",
"}  c gray94",
"|  c #F3F3F3",
" . c #F1F1FF",
".. c #F4F4FF",
"X. c #F7F7FF",
"o. c gray98",
"O. c #F9F9FF",
"+. c gray99",
"@. c #FCFCFE",
"#. c #FEFEFE",
"$. c #FEFEFF",
"%. c black",
"&. c black",
"*. c black",
"=. c black",
"-. c black",
";. c black",
":. c black",
">. c black",
",. c black",
"<. c black",
"1. c black",
"2. c black",
"3. c black",
"4. c black",
"5. c black",
"6. c black",
"7. c black",
"8. c black",
"9. c black",
"0. c black",
"q. c black",
"w. c black",
"e. c black",
"r. c black",
"t. c black",
"y. c black",
"u. c black",
"i. c black",
"p. c black",
"a. c black",
"s. c black",
"d. c black",
"f. c black",
"g. c black",
"h. c black",
"j. c black",
"k. c black",
"l. c black",
"z. c black",
"x. c black",
"c. c black",
"v. c black",
"b. c black",
"n. c black",
"m. c black",
"M. c black",
"N. c black",
"B. c black",
"V. c black",
"C. c black",
"Z. c black",
"A. c black",
"S. c black",
"D. c black",
"F. c black",
"G. c black",
"H. c black",
"J. c black",
"K. c black",
"L. c black",
"P. c black",
"I. c black",
"U. c black",
"Y. c black",
"T. c black",
"R. c black",
"E. c black",
"W. c black",
"Q. c black",
"!. c black",
"~. c black",
"^. c black",
"/. c black",
"(. c black",
"). c black",
"_. c black",
"`. c black",
"'. c black",
"]. c black",
"[. c black",
"{. c black",
"}. c black",
"|. c black",
" X c black",
".X c black",
"XX c black",
"oX c black",
"OX c black",
"+X c black",
"@X c black",
"#X c black",
"$X c black",
"%X c black",
"&X c black",
"*X c black",
"=X c black",
"-X c black",
";X c black",
":X c black",
">X c black",
",X c black",
"<X c black",
"1X c black",
"2X c black",
"3X c black",
"4X c black",
"5X c black",
"6X c black",
"7X c black",
"8X c black",
"9X c black",
"0X c black",
"qX c black",
"wX c black",
"eX c black",
"rX c black",
"tX c black",
"yX c black",
"uX c black",
"iX c black",
"pX c black",
"aX c black",
"sX c black",
"dX c black",
"fX c black",
"gX c black",
"hX c black",
"jX c black",
"kX c black",
"lX c black",
"zX c black",
"xX c black",
"cX c black",
"vX c black",
"bX c black",
"nX c black",
"mX c black",
"MX c black",
"NX c black",
"BX c black",
"VX c black",
"CX c black",
"ZX c black",
"AX c black",
"SX c black",
"DX c black",
"FX c black",
"GX c black",
"HX c black",
"JX c black",
"KX c black",
"LX c black",
"PX c black",
"IX c black",
"UX c black",
/* pixels */
"q q q q q q q q e q q q q q q q ",
"q q q q q q q G ] u q q q q q q ",
"q q q q q q s O.$.H q q q q q q ",
"q q q q q q L 6 M X.a q q q q q ",
"q q q q q g $.% 5 $.K q q q q q ",
"q q q q q ~ $.) < C @.f q q q q ",
"q q q q j $.$.b o , 2 P q q q q ",
"q q q e / $.U 3 X $.* $.h q q q ",
"q q q x $.E = 8 . $.> $.^ w q q ",
"q q y [ $.$.I + 7 D #.$.$.z q q ",
"q q F $.$.o.@ Z U # ' $.$.] t q ",
"q p ..+.W S - | ! 0 9 Q ` $.c q ",
"q J $.v O : B n   ( & ; $ }  .i ",
"q { _ 4 m V | N 1 Y R T 1 A $.l ",
"q d k k k k k k k k k k k k h r ",
"q q q q q q q q q q q q q q q q "
};
