/* XPM */
static const char *datainterval_xpm[] = {
"16 16 3 1 ",
"  c #00137F",
". c #0026FF",
"X c None",
/* pixels */
"....XXXXXXXX....",
"....XXXXXXXX....",
"..XXXXXXXXXXXX..",
"..XXXXXXXXXXXX..",
"..XXXXXXXXXXXX..",
"..XXXXXXXXXXXX..",
"..XXXXXXXXXXXX..",
"..XXXXXXXXXXXX..",
"..XXXXXXXXXXXX..",
"..XXXXXXXXXXXX..",
"..XXXXXXXXXXXX..",
"..X  XX  XX  X..",
"..X  XX  XX  X..",
"..XXXXXXXXXXXX..",
"....XXXXXXXX....",
"....XXXXXXXX...."
};
