/* XPM */
static const char * dilate_xpm[] = {
"17 17 4 1",
" 	c None",
"!	c black",
"#	c #7C0000",
"$	c #D90000",
"                 ",
" !!!       !!!!! ",
" !!!       !!!!! ",
" !!!       !!!!! ",
" !!!       !!!!! ",
" !!!     # !!!!! ",
" !!!      #!!!!! ",
" !!!       $!!!! ",
" !!$#######$$!!! ",
" !!!       $!!!! ",
" !!!      #!!!!! ",
" !!!     # !!!!! ",
" !!!       !!!!! ",
" !!!       !!!!! ",
" !!!       !!!!! ",
" !!!       !!!!! ",
"                 "};
