/* XPM */
static const char *dlr_xpm[] = {
/* width height num_colors chars_per_pixel */
"    64    64      256            2",
/* colors */
"`` c #231f20",
"`. c #242021",
"`# c #252122",
"`a c #262222",
"`b c #272324",
"`c c #282425",
"`d c #292526",
"`e c #292626",
"`f c #2a2627",
"`g c #2b2728",
"`h c #2b2829",
"`i c #2d2929",
"`j c #2e2a2b",
"`k c #2f2b2c",
"`l c #302d2d",
"`m c #312d2e",
"`n c #332e2f",
"`o c #332f30",
"`p c #383435",
"`q c #3c3739",
"`r c #3c393a",
"`s c #413d3e",
"`t c #423e3e",
"`u c #423e40",
"`v c #464242",
"`w c #464343",
"`x c #474344",
"`y c #484445",
"`z c #494747",
"`A c #4a4748",
"`B c #4b4949",
"`C c #4c4849",
"`D c #4d4a4a",
"`E c #4e4a4b",
"`F c #4f4b4d",
"`G c #4f4c4c",
"`H c #524d4f",
"`I c #504e4e",
"`J c #514f50",
"`K c #535050",
"`L c #575555",
"`M c #575456",
"`N c #595657",
"`O c #5b5858",
"`P c #5c595b",
"`Q c #5d5a5a",
"`R c #605c5e",
"`S c #636062",
"`T c #676365",
"`U c #686565",
"`V c #6c6a6a",
"`W c #6d6b6b",
"`X c #6e6a6c",
"`Y c #6e6c6c",
"`Z c #6f6d6d",
"`0 c #716e6e",
"`1 c #716f6f",
"`2 c #726e70",
"`3 c #747173",
"`4 c #747272",
"`5 c #757273",
"`6 c #777474",
"`7 c #777577",
"`8 c #787575",
".` c #7a7777",
".. c #7b7979",
".# c #7b787a",
".a c #7e7b7b",
".b c #807d7d",
".c c #818080",
".d c #828181",
".e c #848081",
".f c #848384",
".g c #878484",
".h c #868485",
".i c #8b8788",
".j c #8a8888",
".k c #8a8889",
".l c #8d8b8b",
".m c #8e8c8c",
".n c #918f8f",
".o c #918f90",
".p c #939192",
".q c #949292",
".r c #979696",
".s c #999697",
".t c #9a9899",
".u c #9a999a",
".v c #9d9a9a",
".w c #9d9c9c",
".x c #9d9d9d",
".y c #a4a3a3",
".z c #a4a4a4",
".A c #a7a5a6",
".B c #adabab",
".C c #adacad",
".D c #afacae",
".E c #b0afaf",
".F c #b1b1b1",
".G c #b6b4b5",
".H c #b7b6b6",
".I c #bbb9b9",
".J c #bcbbbb",
".K c #bdbbbd",
".L c #bebdbd",
".M c #c0bebe",
".N c #c1c0c0",
".O c #c2c2c2",
".P c #c4c3c4",
".Q c #c6c5c5",
".R c #c8c7c7",
".S c #c9c8c9",
".T c #cbcacb",
".U c #cccaca",
".V c #d1d0d1",
".W c #d3d2d2",
".X c #d9d8d9",
".Y c #dbdada",
".Z c #dfdedf",
".0 c #e0dfdf",
".1 c #e2e1e1",
".2 c #e5e5e5",
".3 c #e6e5e6",
".4 c #e8e6e6",
".5 c #e8e7e7",
".6 c #eaeaea",
".7 c #ececec",
".8 c #ededed",
"#` c #eeeeee",
"#. c #f0f0f0",
"## c #f1f1f1",
"#a c #f2f2f2",
"#b c #f3f3f3",
"#c c #f5f3f5",
"#d c #f5f4f4",
"#e c #f6f6f6",
"#f c #f8f8f8",
"#g c #fafafa",
"#h c #fbfbfb",
"#i c #fcfbfb",
"#j c #fcfcfc",
"#k c #fdfdfd",
"#l c #fefefe",
"#m c #ffffff",
"#n c #000000",
"#o c #000000",
"#p c #000000",
"#q c #000000",
"#r c #000000",
"#s c #000000",
"#t c #000000",
"#u c #000000",
"#v c #000000",
"#w c #000000",
"#x c #000000",
"#y c #000000",
"#z c #000000",
"#A c #000000",
"#B c #000000",
"#C c #000000",
"#D c #000000",
"#E c #000000",
"#F c #000000",
"#G c #000000",
"#H c #000000",
"#I c #000000",
"#J c #000000",
"#K c #000000",
"#L c #000000",
"#M c #000000",
"#N c #000000",
"#O c #000000",
"#P c #000000",
"#Q c #000000",
"#R c #000000",
"#S c #000000",
"#T c #000000",
"#U c #000000",
"#V c #000000",
"#W c #000000",
"#X c #000000",
"#Y c #000000",
"#Z c #000000",
"#0 c #000000",
"#1 c #000000",
"#2 c #000000",
"#3 c #000000",
"#4 c #000000",
"#5 c #000000",
"#6 c #000000",
"#7 c #000000",
"#8 c #000000",
"a` c #000000",
"a. c #000000",
"a# c #000000",
"aa c #000000",
"ab c #000000",
"ac c #000000",
"ad c #000000",
"ae c #000000",
"af c #000000",
"ag c #000000",
"ah c #000000",
"ai c #000000",
"aj c #000000",
"ak c #000000",
"al c #000000",
"am c #000000",
"an c #000000",
"ao c #000000",
"ap c #000000",
"aq c #000000",
"ar c #000000",
"as c #000000",
"at c #000000",
"au c #000000",
"av c #000000",
"aw c #000000",
"ax c #000000",
"ay c #000000",
"az c #000000",
"aA c #000000",
"aB c #000000",
"aC c #000000",
"aD c #000000",
"aE c #000000",
"aF c #000000",
"aG c #000000",
"aH c #000000",
"aI c #000000",
"aJ c #000000",
"aK c #000000",
"aL c #000000",
"aM c #000000",
"aN c #000000",
"aO c #000000",
"aP c #000000",
"aQ c #000000",
"aR c #000000",
"aS c #000000",
"aT c #000000",
"aU c #000000",
"aV c #000000",
"aW c #000000",
"aX c #000000",
"aY c #000000",
"aZ c #000000",
"a0 c #000000",
"a1 c #000000",
"a2 c #000000",
"a3 c #000000",
"a4 c #000000",
"a5 c #000000",
"a6 c #000000",
"a7 c #000000",
"a8 c #000000",
/* pixels */
"#m#m#m#m#m#m#m#m#m#m#m#m#m#m#m#m#m#m#m#m#m#m#m#m#m#m#m#m#m#m#m#m#m#m#m#m#m#m#m#m#m#m#m#m#m#m#m#m#m#m#m#m#m#m#m#m#m#m#m#m#m#m#m#m",
"#m#m#m#m#m#m#m#m#m#m#m#m#m#m#m#m#m#m#m#m#m#m#m#m#m#m#m#m#m#m#m#m#m#m#m#m#m#m#m#m#m#m#m#m#m#m#m#m#m#m#m#m#m#m#m#m#m#m#m#m#m#m#m#m",
"#m#m#m#m#m#m#m#m#m#m#m#m#m#m#m#m#m#m#m#m#m#m#m#m#m#m#m#m#m#m#m#m#m#m#m#m#m#m#m#m#m#m#m#m#m#m#m#m#m#m#m#m#m#m#m#m#m#m#m#m#m#m#m#m",
"#m#m#m#m#m#m#m#m#m#m#m#m#m#m#m#m#m#m#m#m#m#m#m#m#m#m#m#m#m#m#m#m#m#m#m#m#m#m#m#m#m#m#m#m#m#m#m#m#m#m#m#m#m#m#m#m#m#m#m#m#m#m#m#m",
"#m#m#m#m#m#m#m#m#m#m#m#m#m#m#m#m#m#m#m#m#m#m#m#m#m#m#m#m#m#m#m#m#m#m#m#m#m#m#m#m#m#m#m#m#m#m#m#m#m#m#m#m#m#m#m#m#m#m#m#m#m#m#m#m",
"#m#m#m#m#m#m#m#m#m#m#m#m#m#m#m#m#m#m#m#m#m#m#m#m#m#m#m#m#m#m#m#m#m#m#m#m#m#m#m#m#m#m#m#m#m#m#m#m#m#m#m#m#m#m#m#m#m#m#m#m#m#m#m#m",
"#m#m#m#m#m#m#m#m#m#m#m#m#m#m#m#m#m#m#m#m#m#m#m#m#m#m#m#m#m#m#m#m#m#m#m#m#m#m#m#m#m#m#m#m#m.4#m#m#m#m#m#m#m#m#m#m#m#m#m#m#m#m#m#m",
"#m#m#m#m#m#m#m#m#m#m#m#m#m#m#m#m#m#m#m#m#m#m#m#m#m#m#m#m#m#m#m#m#m#m#m#m#m#m#m#m#m#m#m#m.2`z#m#m#m#m#m#m#m#m#m#m#m#m#m#m#m#m#m#m",
"#m#m#m#m#m#m#m#m#m#m#m#m#m#m#m#m#m#m#m#m#m#m#m#m#m#m#m#m#m#m#m#m#m#m#m#m#m#m#m#m#m#m#m.3`s`i#m#m#m#m#m#m#m#m#m#m#m#m#m#m#m#m#m#m",
"#m#m#m#m#m#m#m#m#m#m#m#m#m#m#m#m#m#m#m#m#m#m#m#m#m#m#m#m#m#m#m#m#m#m#m#m#m#m#m#m#m#m.4`t```i#m#m#m#m#m#m#m#m#m#m#m#m#m#m#m#m#m#m",
"#m#m#m#m#m#m#m#m#m#m#m#m#m#m#m#m#m#m#m#m#m#m#m#m#m#m#m#m#m#m#m#m#m#m#m#m#m#m#m#m#m.6`w`````i#m#m#m#m#m#m#m#m#m#m#m#m#m#m#m#m#m#m",
"#m#m#m#m#m#m#m#m#m#m#m#m#m#m#m#m#m#m#m#m#m#m#m#m#m#m#m#m#m#m#m#m#m#m#m#m#m#m#m#m.7`x```````i#m#m#m#m#m#m#m#m#m#m#m#m#m#m#m#m#m#m",
"#m#m#m#m#m#m#m#m#m#m#m#m#m#m#m#m#m#m#m#m#m#m#m#m#m#m#m#m#m#m#m#m#m#m#m#m#m#m#m.7`y`````````i#m#m#m#m#m#m#m#m#m#m#m#m#m#m#m#m#m#m",
"#m#m#m#m#m#m#m#m#m#m#m#m#m#m#m#m#m#m#m#m#m#m#m#m#m#m#m#m#m#m#m#m#m#m#m#m#m#m.7`z```````````i#m#m#m#m#m#m#m#m#m#m#m#m#m#m#m#m#m#m",
"#m#m#m#m#m#m#m#m#m#m#m#m#m#m#m#m#m#m#m#m#m#m#m#m#m#m#m#m#m#m#m#m#m#m#m#m#m#``A```````c`````i#m#m#m#m#m#m#m#m#m#m#m#m#m#m#m#m#m#m",
"#m#m#m#m#m#m#m#m#m#m#m#m#m#m#m#m#m#m#m#m#m#m#m#m#m#m#m#m#m#m#m#m#m#m#m#m##`G```````K.n`````i#m#m#m#m#m#m#m#m#m#m#m#m#m#m#m#m#m#m",
"#m#m#m#m#m#m#m#m#m#m#m#m#m#m#m#m#m#m#m#m#m#m#m#m#m#m#m#m#m#m#m#m#m#m#m#a`I```````E#..t`````i#m#m#m#m#m#m#m#m#m#m#m#m#m#m#m#m#m#m",
"#m#m#m#m#m#m#m#m#m#m#m#m#m#m#m#m#m#m#m#m#m#m#m#m#m#m#m#m#m#m#m#m#m#m#a`H```````E#`#m.t`````i#m#m#m#m#m#m#m#m#m#m#m#m#m#m#m#m#m#m",
"#m#m#m#m#m#m#m#m#m#m#m#m#m#m#m#m#m#m#m#m#m#m#m#m#m#m#m#m#m#m#m#m#m#d`L```````D#`#m#m.t`````i#m#m#m#m#m#m#m#m#m#m#m#m#m#m#m#m#m#m",
"#m#m#m#m#m#m#m#m#m#m#m#m#m#m#m#m#m#m#m#m#m#m#m#m#m#m#m#m#m#m#m#m#d`N```````B#`#m#m#m.t`````i#m#m#m#m#m#m#m#m#m#m#m#m#m#m#m#m#m#m",
"#m#m#m#m#m#m#m#m#m#m#m#m#m#m#m#m#m#m#m#m#m#m#m#m#m#m#m#m#m#m#m#e`N```````B#`#m#m#m#m.t`````i#m#m#m#m#m#m#m#m#m#m#m#m#m#m#m#m#m#m",
"#m#m#m#m#m#m#m#m#m#m#m#m#m#m#m#m#m#m#m#m#m#m#m#m#m#m#m#m#m#m#e`O```````C#`#m#m#m#m#m.t`````i#m#m#m#m#m#m#m#m#m#m#m#m#m#m#m#m#m#m",
"#m#m#m#m#m#m#m#m#m#m#m#m#m#m#m#m#m#m#m#m#m#m#m#m#m#m#m#m#m#e`P```````C.8#m#m#m#m#m#m.t`````i#m#m#m#m#m#m#m#m#m#m#m#m#m#m#m#m#m#m",
"#m#m#m#m#m#m#m#m#m#m#m#m#m#m.5.r.r.r.r.r.r.r.r.r.r.r.r.r.r`N```````..g.r.r.r.r.r.r.r`S`````c.r.r.r.r.r.r.r.r.r.r.r.r.r.r.r.r.5#m",
"#m#m#m#m#m#m#m#m#m#m#m#m#m.6`x````````````````````````````````````````````````````````````````````````````````````````````.o#m#m",
"#m#m#m#m#m#m#m#m#m#m#m#m.7`y````````````````````````````````````````````````````````````````````````````````````````````.n#m#m#m",
"#m#m#m#m#m#m#m#m#m#m#m.6`x```````g`m`m`m`m`m`m`m`m`k`````````c`m`m`m`m`m`m`m`m`m`.```````.`m`m`m`m`m`m`m`m`m`b````````.l#m#m#m#m",
"#m#m#m#m#m#m#m#m#m#m.7`y```````D#`#m#m#m#m#m#m#m#h`T```````l.V#m#m#m#m#m#m#m#m.x```````#.E#m#m#m#m#m#m#m#m.O`f``````.g#m#m#m#m#m",
"#m#m#m#m#m#m#m#m#m.7`z```````B#`#m#m#m#m#m#m#m#h`U```````l.V#m#m#m#m#m#m#m#m.w```````#.D#m#m#m#m#m#m#m#m.S`h``````.h#m#m#m#m#m#m",
"#m#m#m#m#m#m#m#m#.`F```````B#`#m#m#m#m#m#m#m#j`Y```````l.V#m#m#m#m#m#m#m#m.v```````#.D#m#m#m#m#m#m#m#m.S`i``````.f#m#m#m#m#m#m#m",
"#m#m#m#m#m#m#m##`F```````C#`#m#m#m#m#m#m#m#j`Y```````l.V#m#m#m#m#m#m#m#m.v```````..C#m#m#m#m#m#m#m#m.T`i``````.e#m#m#m#m#m#m#m#m",
"#m#m#m#m#m#m##`G```````A.8#m#m#m#m#m#m#m#j`Z```````m.V#m#m#m#m#m#m#m#m.t````````.z#m#m#m#m#m#m#m#m.T`i``````.e#m#m#m#m#m#m#m#m#m",
"#m#m#m#m#m##`I```````v.6#m#m#m#m#m#m#m#j`2```````m.V#m#m#m#m#m#m#m#m.u````````.z#m#m#m#m#m#m#m#m.U`j``````.d#l#m#m#m#m#m#m#m#m#m",
"#m#m#m#m##`G```````j.F.P.P.P.P.P.P.P.P`X```````..t.P.P.P.P.P.P.P.P.l`````````0.P.P.P.P.P.P.P.P.E`i``````.b#l#m#m#m#m#m#m#m#m#m#m",
"#m#m#m#a`J````````````````````````````````````````````````````````````````````````````````````````````.`#l#m#m#m#m#m#m#m#m#m#m#m",
"#m#m#a`J`````````````````````````````````````````````````````````````````````````````````````````````7#k#m#m#m#m#m#m#m#m#m#m#m#m",
"#m#d`M`````````````````````````````````````````````````````````````````````````````````````````````8#k#m#m#m#m#m#m#m#m#m#m#m#m#m",
"#m#b.1.1.1.1.1.1.1.1.1.1.1.1.1.1.1.1`i````.j.1.1.1.1#`#.#..y````````.i.1.1.1.1.1.1.1.1.1.1.1.1.1.1#k#m#m#m#m#m#m#m#m#m#m#m#m#m#m",
"#m#m#m#m#m#m#m#m#m#m#m#m#m#m#m#m#m#m`k````.s#m#m#m#m#m#m.G`a``````.h#m#m#m#m#m#m#m#m#m#m#m#m#m#m#m#m#m#m#m#m#m#m#m#m#m#m#m#m#m#m",
"#m#m#m#m#m#m#m#m#m#m#m#m#m#m#m#m#m#m`k````.s#m#m#m#m#m.H`b``````.f#m#m#m#m#m#m#m#m#m#m#m#m#m#m#m#m#m#m#m#m#m#m#m#m#m#m#m#m#m#m#m",
"#m#m#m#m#m#m#m#m#m#m#m#m#m#m#m#m#m#m`k````.s#m#m#m#m.H`b``````.e#m#m#m#m#m#m#m#m#m#m#m#m#m#m#m#m#m#m#m#m#m#m#m#m#m#m#m#m#m#m#m#m",
"#m#m#m#m#m#m#m#m#m#m#m#m#m#m#m#m#m#m`k````.s#m#m#m.L`d``````.e#m#m#m#m#m#m#m#m#m#m#m#m#m#m#m#m#m#m#m#m#m#m#m#m#m#m#m#m#m#m#m#m#m",
"#m#m#m#m#m#m#m#m#m#m#m#m#m#m#m#m#m#m`k````.s#m#m.M`d``````.c#l#m#m#m#m#m#m#m#m#m#m#m#m#m#m#m#m#m#m#m#m#m#m#m#m#m#m#m#m#m#m#m#m#m",
"#m#m#m#m#m#m#m#m#m#m#m#m#m#m#m#m#m#m`k````.s#m.N`d``````.`#l#m#m#m#m#m#m#m#m#m#m#m#m#m#m#m#m#m#m#m#m#m#m#m#m#m#m#m#m#m#m#m#m#m#m",
"#m#m#m#m#m#m#m#m#m#m#m#m#m#m#m#m#m#m`k````.s.N`e``````.`#l#m#m#m#m#m#m#m#m#m#m#m#m#m#m#m#m#m#m#m#m#m#m#m#m#m#m#m#m#m#m#m#m#m#m#m",
"#m#m#m#m#m#m#m#m#m#m#m#m#m#m#m#m#m#m`k`````R`d``````.##l#m#m#m#m#m#m#m#m#m#m#m#m#m#m#m#m#m#m#m#m#m#m#m#m#m#m#m#m#m#m#m#m#m#m#m#m",
"#m#m#m#m#m#m#m#m#m#m#m#m#m#m#m#m#m#m`k`````````````8#k#m#m#m#m#m#m#m#m#m#m#m#m#m#m#m#m#m#m#m#m#m#m#m#m#m#m#m#m#m#m#m#m#m#m#m#m#m",
"#m#m#m#m#m#m#m#m#m#m#m#m#m#m#m#m#m#m`k```````````6#k#m#m#m#m#m#m#m#m.0.......g.x.X#m#m#m#m.A`1.Q#m#m#m#m#f......`3`6.w###m#m#m#m",
"#m#m#m#m#m#m#m#m#m#m#m#m#m#m#m#m#m#m`k`````````5#k#m#m#m#m#m#m#m#m#m.U```#`m`#`````Z#f#m#m`4``.z#m#m#m#m#b`````````````q#`#m#m#m",
"#m#m#m#m#m#m#m#m#m#m#m#m#m#m#m#m#m#m`k```````3#k#m#m#m#m#m#m#m#m#m#m.U```B#m#e.D`m``.a#m#m`4``.z#m#m#m#m#b```##m#e.R`n``.z#m#m#m",
"#m#m#m#m#m#m#m#m#m#m#m#m#m#m#m#m#m#m`k`````X#i#m#m#m#m#m#m#m#m#m#m#m.U```B#m#m#m.I```c#a#m`4``.z#m#m#m#m#b```##m#m#m`X``.m#m#m#m",
"#m#m#m#m#m#m#m#m#m#m#m#m#m#m#m#m#m#m`k```W#i#m#m#m#m#m#m#m#m#m#m#m#m.U```B#m#m#m#m`u``.R#m`4``.z#m#m#m#m#b```##m#m.Y`p``.I#m#m#m",
"#m#m#m#m#m#m#m#m#m#m#m#m#m#m#m#m#m#m`k`V#i#m#m#m#m#m#m#m#m#m#m#m#m#m.U```B#m#m#m#m`O``.I#m`4``.z#m#m#m#m#b`````m`i```..o#m#m#m#m",
"#m#m#m#m#m#m#m#m#m#m#m#m#m#m#m#m#m#m`8#i#m#m#m#m#m#m#m#m#m#m#m#m#m#m.U```B#m#m#m#l`r``.T#m`4``.z#m#m#m#m#b`````Q`N`h``.q#m#m#m#m",
"#m#m#m#m#m#m#m#m#m#m#m#m#m#m#m#m#m#m#k#m#m#m#m#m#m#m#m#m#m#m#m#m#m#m.U```B#m#m#m.z```h#e#m`4``.z#m#m#m#m#b```##m#m.K```j#`#m#m#m",
"#m#m#m#m#m#m#m#m#m#m#m#m#m#m#m#m#m#m#m#m#m#m#m#m#m#m#m#m#m#m#m#m#m#m.U```z#..W.h`b``.p#m#m`4``.k.W.W.W#a#b```##m#m#m`D``.p#m#m#m",
"#m#m#m#m#m#m#m#m#m#m#m#m#m#m#m#m#m#m#m#m#m#m#m#m#m#m#m#m#m#m#m#m#m#m.U```````````h.p#l#m#m`4``````````.J#b```##m#m#m.y```o#c#m#m",
"#m#m#m#m#m#m#m#m#m#m#m#m#m#m#m#m#m#m#m#m#m#m#m#m#m#m#m#m#m#m#m#m#m#m.4.r.r.t.B.P#d#m#m#m#m.L.r.r.r.r.r.0#g.r.s#m#m#m#b.r.r.Z#m#m",
"#m#m#m#m#m#m#m#m#m#m#m#m#m#m#m#m#m#m#m#m#m#m#m#m#m#m#m#m#m#m#m#m#m#m#m#m#m#m#m#m#m#m#m#m#m#m#m#m#m#m#m#m#m#m#m#m#m#m#m#m#m#m#m#m",
"#m#m#m#m#m#m#m#m#m#m#m#m#m#m#m#m#m#m#m#m#m#m#m#m#m#m#m#m#m#m#m#m#m#m#m#m#m#m#m#m#m#m#m#m#m#m#m#m#m#m#m#m#m#m#m#m#m#m#m#m#m#m#m#m",
"#m#m#m#m#m#m#m#m#m#m#m#m#m#m#m#m#m#m#m#m#m#m#m#m#m#m#m#m#m#m#m#m#m#m#m#m#m#m#m#m#m#m#m#m#m#m#m#m#m#m#m#m#m#m#m#m#m#m#m#m#m#m#m#m",
"#m#m#m#m#m#m#m#m#m#m#m#m#m#m#m#m#m#m#m#m#m#m#m#m#m#m#m#m#m#m#m#m#m#m#m#m#m#m#m#m#m#m#m#m#m#m#m#m#m#m#m#m#m#m#m#m#m#m#m#m#m#m#m#m",
"#m#m#m#m#m#m#m#m#m#m#m#m#m#m#m#m#m#m#m#m#m#m#m#m#m#m#m#m#m#m#m#m#m#m#m#m#m#m#m#m#m#m#m#m#m#m#m#m#m#m#m#m#m#m#m#m#m#m#m#m#m#m#m#m",
"#m#m#m#m#m#m#m#m#m#m#m#m#m#m#m#m#m#m#m#m#m#m#m#m#m#m#m#m#m#m#m#m#m#m#m#m#m#m#m#m#m#m#m#m#m#m#m#m#m#m#m#m#m#m#m#m#m#m#m#m#m#m#m#m"
};
