/* XPM */
static const char * document_xpm[] = {
"16 16 16 1",
" 	c None",
".	c Gray84",
"X	c Gray71",
"o	c Gray100",
"O	c #9ca59c",
"+	c #8c8494",
"@	c #ef1800",
"#	c #6b6b63",
"$	c #848484",
"%	c #7b7b7b",
"&	c Gray13",
"*	c #524a4a",
"=	c Black",
"-	c #f7e700",
";	c #4abd00",
":	c #84845a",
" .XX.oo..XXXO+O+",
".O@O+.oo..ooooo#",
".@@@$.ooX#ooooo+",
".O@X#.oo%&ooooo$",
"X..X##oo*=.o+Xo$",
"X.-X+*&XO%.*&oo$",
"O---+X&=..#=Xoo$",
"X.-X$.X++$O$ooo$",
"XX.X**&O*&O**%X+",
"OX;X**&*O+%&&#X$",
"O;;;+.o$.XO.ooo$",
"O:;O$.X&*$=#ooo+",
"%..O#..=$O&$ooo$",
" O$%+.o&XX*Xooo$",
"  X..ooX.XXoooo+",
"  X+++$$##$$$$+*"};
