/* XPM */
static const char *e3_xpm[] = {
/* columns rows colors chars-per-pixel */
"16 16 256 2 ",
"   c #464646",
".  c gray33",
"X  c #585858",
"o  c #5B5B5B",
"O  c #5F5F5F",
"+  c #626262",
"@  c gray40",
"#  c #6D6D6D",
"$  c gray44",
"%  c #747474",
"&  c gray47",
"*  c #7B7B7B",
"=  c gray50",
"-  c gray51",
";  c #868686",
":  c #898989",
">  c #8D8D8D",
",  c #909090",
"<  c gray58",
"1  c #979797",
"2  c gray62",
"3  c gray63",
"4  c #A2A2A2",
"5  c #A5A5A5",
"6  c #A9A9A9",
"7  c #ACACAC",
"8  c gray69",
"9  c gray70",
"0  c gray73",
"q  c gray",
"w  c #C1C1C1",
"e  c #C5C5C5",
"r  c gray80",
"t  c gray81",
"y  c LightGray",
"u  c gray84",
"i  c #DADADA",
"p  c #E1E1E1",
"a  c black",
"s  c black",
"d  c black",
"f  c black",
"g  c black",
"h  c black",
"j  c black",
"k  c black",
"l  c black",
"z  c black",
"x  c black",
"c  c black",
"v  c black",
"b  c black",
"n  c black",
"m  c black",
"M  c black",
"N  c black",
"B  c black",
"V  c black",
"C  c black",
"Z  c black",
"A  c black",
"S  c black",
"D  c black",
"F  c black",
"G  c black",
"H  c black",
"J  c black",
"K  c black",
"L  c black",
"P  c black",
"I  c black",
"U  c black",
"Y  c black",
"T  c black",
"R  c black",
"E  c black",
"W  c black",
"Q  c black",
"!  c black",
"~  c black",
"^  c black",
"/  c black",
"(  c black",
")  c black",
"_  c black",
"`  c black",
"'  c black",
"]  c black",
"[  c black",
"{  c black",
"}  c black",
"|  c black",
" . c black",
".. c black",
"X. c black",
"o. c black",
"O. c black",
"+. c black",
"@. c black",
"#. c black",
"$. c black",
"%. c black",
"&. c black",
"*. c black",
"=. c black",
"-. c black",
";. c black",
":. c black",
">. c black",
",. c black",
"<. c black",
"1. c black",
"2. c black",
"3. c black",
"4. c black",
"5. c black",
"6. c black",
"7. c black",
"8. c black",
"9. c black",
"0. c black",
"q. c black",
"w. c black",
"e. c black",
"r. c black",
"t. c black",
"y. c black",
"u. c black",
"i. c black",
"p. c black",
"a. c black",
"s. c black",
"d. c black",
"f. c black",
"g. c black",
"h. c black",
"j. c black",
"k. c black",
"l. c black",
"z. c black",
"x. c black",
"c. c black",
"v. c black",
"b. c black",
"n. c black",
"m. c black",
"M. c black",
"N. c black",
"B. c black",
"V. c black",
"C. c black",
"Z. c black",
"A. c black",
"S. c black",
"D. c black",
"F. c black",
"G. c black",
"H. c black",
"J. c black",
"K. c black",
"L. c black",
"P. c black",
"I. c black",
"U. c black",
"Y. c black",
"T. c black",
"R. c black",
"E. c black",
"W. c black",
"Q. c black",
"!. c black",
"~. c black",
"^. c black",
"/. c black",
"(. c black",
"). c black",
"_. c black",
"`. c black",
"'. c black",
"]. c black",
"[. c black",
"{. c black",
"}. c black",
"|. c black",
" X c black",
".X c black",
"XX c black",
"oX c black",
"OX c black",
"+X c black",
"@X c black",
"#X c black",
"$X c black",
"%X c black",
"&X c black",
"*X c black",
"=X c black",
"-X c black",
";X c black",
":X c black",
">X c black",
",X c black",
"<X c black",
"1X c black",
"2X c black",
"3X c black",
"4X c black",
"5X c black",
"6X c black",
"7X c black",
"8X c black",
"9X c black",
"0X c black",
"qX c black",
"wX c black",
"eX c black",
"rX c black",
"tX c black",
"yX c black",
"uX c black",
"iX c black",
"pX c black",
"aX c black",
"sX c black",
"dX c black",
"fX c black",
"gX c black",
"hX c black",
"jX c black",
"kX c black",
"lX c black",
"zX c black",
"xX c black",
"cX c black",
"vX c black",
"bX c black",
"nX c black",
"mX c black",
"MX c black",
"NX c black",
"BX c black",
"VX c black",
"CX c black",
"ZX c black",
"AX c black",
"SX c black",
"DX c black",
"FX c black",
"GX c black",
"HX c black",
"JX c black",
"KX c black",
"LX c black",
"PX c black",
"IX c black",
"UX c None",
/* pixels */
"3 6 6 6 6 6 6 6 6 6 6 6 6 6 6 3 ",
"5 6 6 q y < w p p p p p p p p 6 ",
"> . 6 q 2 q X p p p p p p p p 6 ",
"> + e i p u # p p p p p p p p 6 ",
"> . 6 y r > @ y p p p p p p p 6 ",
"> $ p p i p - 9 p p p p p p p 6 ",
"2 = > 7 4 : , p p p p p p p p 6 ",
"6 p p p p p p p p p p p p p p 6 ",
"6 p 1 i p p p p p p p p p p p 6 ",
"6 8 - @ 5 p p p p p p p r * p 6 ",
"6 $ ; < = & w p p p p r ; > p 6 ",
"6 # # % > , ; p p ; & o o &   < ",
"6 $ $ * , < & p q - . O % : r 6 ",
"6 & : < & ; i p p p @ 4 0 t e 2 ",
"6 w * % e p p p p p q p > * < * ",
"3 6 % 6 6 6 6 6 6 6 6 6 6 6 6 3 "
};
