/* XPM */
static const char * ext_xpm[] = {
"16 15 4 1",
" 	c None",
".	c Black",
"X	c Gray50",
"o	c Red",
" ....       ....",
" ...         ...",
" ...         ...",
" .  .       .  .",
"     .     .    ",
" ...        ... ",
".XXX.XXXXXX.XXX.",
".XXX.oooooo.XXX.",
".XXX.XXXXXX.XXX.",
" ...        ... ",
"     .     .    ",
" .  .       .  .",
" ...         ...",
" ...         ...",
" ....       ...."};
