/* XPM */
static const char * extract_streets_xpm[] = {
"17 17 2 1",
" 	c None",
"!	c black",
" !   !   !   !   ",
" !   !   !   !   ",
" !   !   !   ! !!",
" !   !   ! !!!!  ",
"  !   !!!!!   !  ",
"  !!!!!   !   !  ",
" !!   !   !   !  ",
"  !   !   !   !!!",
"  !   !   !!!!!  ",
"   !   !!!!!   ! ",
"   !!!!!   !   ! ",
" !!!   !   !   ! ",
"   !   !   !   !!",
"   !   !   !!!!! ",
"    !  !!!! !   !",
"  !!!!! !   !   !",
" !  !   !   !   !"};


