/* XPM */
static const char *filesave_xpm[] = {
"    14    14        4            1",
". c #040404",
"# c #808304",
"a c #bfc2bf",
"b c None",
"..............",
".#.aaaaaaaa.a.",
".#.aaaaaaaa...",
".#.aaaaaaaa.#.",
".#.aaaaaaaa.#.",
".#.aaaaaaaa.#.",
".#.aaaaaaaa.#.",
".##........##.",
".############.",
".##.........#.",
".##......aa.#.",
".##......aa.#.",
".##......aa.#.",
"b............."
};
