/* XPM */
static const char *frontelement_xpm[] = {
/* columns rows colors chars-per-pixel */
"16 16 3 1 ",
"  c green",
". c blue",
"X c None",
/* pixels */
"    ....    ....",
"    ....    ....",
"    ....    ....",
"    ....    ....",
"....XXXXXXXX    ",
"....XXXXXXXX    ",
"....XXXXXXXX    ",
"....XXXXXXXX    ",
"    XXXXXXXX....",
"    XXXXXXXX....",
"    XXXXXXXX....",
"    XXXXXXXX....",
"....    ....    ",
"....    ....    ",
"....    ....    ",
"....    ....    "
};