/* XPM */
static const char * halt_xpm[] = {
"15 16 62 1",
" 	c Black",
".	c None",
"X	c #ffc4ad",
"o	c #ffbba1",
"O	c #ffb497",
"+	c #ffad8d",
"@	c #ffa37f",
"#	c #ff8455",
"$	c #ff7c49",
"%	c #ff743f",
"&	c #ff6c33",
"*	c #ff6327",
"=	c #ffbda3",
"-	c #ffa481",
";	c #ff9b75",
":	c #ff7d4b",
">	c #ff6d35",
",	c #ff5c1d",
"<	c #ffb599",
"1	c #ff9d77",
"2	c #ff966d",
"3	c #ff7641",
"4	c #ff6529",
"5	c #ff5513",
"6	c #ff8d61",
"7	c #ff5615",
"8	c #ff4d09",
"9	c #ffa683",
"0	c #ff8657",
"q	c #ff5d1f",
"w	c #ff4c07",
"e	c #fc4600",
"r	c #f24300",
"t	c #ff976f",
"y	c #ff8e63",
"u	c #ff7f4d",
"i	c #ff4700",
"p	c #e84100",
"a	c #f44400",
"s	c #de3e00",
"d	c #ff8759",
"f	c #ff7743",
"g	c #ff6f37",
"h	c #ff662b",
"j	c #dc3d00",
"k	c #d23a00",
"l	c #ff804f",
"z	c #ff672d",
"x	c #ff6023",
"c	c #f64400",
"v	c #d43b00",
"b	c #c83800",
"n	c #ff7039",
"m	c #ff5817",
"M	c #ca3800",
"N	c #bc3400",
"B	c #ff4f0b",
"V	c #b23200",
"C	c #ff500d",
"Z	c #be3500",
"A	c #b43200",
"S	c #a82f00",
"       .       ",
" XoO+@ . #$%&* ",
" =O+-; . :%>*, ",
" <+-12 . 3>4,5 ",
" +-126 . >4,78 ",
" 91260 . 4q7we ",
" 1260: . q78er ",
" ty0u3 . 78irp ",
" y0u3> . 8iaps ",
" dufgh . iapjk ",
" lfgzx . cpsvb ",
" fnzxm . psvMN ",
" nzxmB . svMNV ",
" zxmCi . vMZAS ",
"       .       ",
"..............."};
