/* XPM */
static const char *incorrect_xpm[] = {
/* columns rows colors chars-per-pixel */
"16 16 10 1 ",
"  c #E2564B",
". c #E1574C",
"X c #E2574C",
"o c #E3574C",
"O c #E2564D",
"+ c #E2574D",
"@ c #E3574D",
"# c #E2584B",
"$ c #E1584C",
"% c None",
/* pixels */
"%%%%%#o@@.#%%%%%",
"%%%%o..o@@..%%%%",
"%%..#%%%%%%#o.%%",
"%%.%%%%%%%%%%.%%",
"%.@%%%%%%%%%%#.%",
"#o%%%%o%%.%%%%o%",
"o.%%%.o..o.%%%@o",
".o%%%%.oo.%%%%@@",
"@@%%%%o..o%%%%@@",
"o.%%%o.o@.o%%%@o",
"..%%%%.%%.%%%%.%",
"%o#%%%%%%%%%%#.%",
"%%.%%%%%%%%%%o%%",
"%%.o@%%%%%%#..%%",
"%%%%..@@@@@.%%%%",
"%%%%%..@@.#%%%%%"
};
