/* XPM */
static const char *joinjunctions_xpm[] = {
/* columns rows colors chars-per-pixel */
"16 16 40 1 ",
"  c black",
". c #0A0801",
"X c #0C0A01",
"o c #0D0B01",
"O c #110E02",
"+ c #131002",
"@ c #161202",
"# c #191502",
"$ c #201B03",
"% c #231D03",
"& c #362E05",
"* c #3B3206",
"= c #463B07",
"- c #5A4C08",
"; c #5F5009",
": c #605109",
"> c #836F0E",
", c #84700E",
"< c #8A750F",
"1 c #8F790D",
"2 c #957E0E",
"3 c #857110",
"4 c #8B7611",
"5 c #8C7712",
"6 c #A38A0F",
"7 c #A68D0F",
"8 c #B39811",
"9 c #CFAF13",
"0 c #D2B214",
"q c #D4B314",
"w c #D6B514",
"e c #E4C115",
"r c #E5C215",
"t c #E6C315",
"y c #E9C516",
"u c #F4CE17",
"i c #F5CF17",
"p c #F6D017",
"a c #F7D117",
"s c None",
/* pixels */
"sssssss<5sssssss",
"ssssss,tt3ssssss",
"sssss,taat3sssss",
"ssss>ta12at>ssss",
"sss,ta0.oqpt3sss",
"ss,tau&  *pat3ss",
"s,taa9:o+:qapt3s",
"<taaaaa#Opaappt5",
"5tapaaa# 8paapt4",
"s3tpaaa# +9pat>s",
"ss3taaa#%-=pt>ss",
"sss3tap#%pyt>sss",
"ssss3tp67pt>ssss",
"sssss3tppe>sssss",
"ssssss3tt>ssssss",
"sssssss44sssssss"
};
