/* XPM */
static const char *junction_xpm[] = {
/* columns rows colors chars-per-pixel */
"16 16 256 2 ",
"   c black",
".  c #BE1919",
"X  c #B92323",
"o  c #BA2424",
"O  c #B92626",
"+  c #BE2B2B",
"@  c #B83030",
"#  c #BD5757",
"$  c #CE0707",
"%  c #CF0808",
"&  c #CC0909",
"*  c #CE0A0A",
"=  c #CC0B0B",
"-  c #C21414",
";  c #C01515",
":  c #C21717",
">  c #C51212",
",  c #C51818",
"<  c #C81212",
"1  c #D30505",
"2  c #D30606",
"3  c #D70404",
"4  c #D50505",
"5  c #D80303",
"6  c #D80404",
"7  c #DC0303",
"8  c #DE1C1C",
"9  c #DF1D1D",
"0  c #DC1E1E",
"q  c #C33939",
"w  c #C13D3D",
"e  c #C93B3B",
"r  c #C83C3C",
"t  c #D52D2D",
"y  c #D62F2F",
"u  c #DC2121",
"i  c #D92828",
"p  c #E50101",
"a  c #E40202",
"s  c #E50F0F",
"d  c #EA0101",
"f  c #EC0101",
"g  c #EF0505",
"h  c #EC0606",
"j  c #EA0808",
"k  c #E90A0A",
"l  c #E90C0C",
"z  c #EC0808",
"x  c #EC0909",
"c  c #E31111",
"v  c #E01414",
"b  c #E01717",
"n  c #E11818",
"m  c #E21B1B",
"M  c #E41919",
"N  c #F00000",
"B  c #F20303",
"V  c #F20404",
"C  c #F00505",
"Z  c #F50000",
"A  c #F70202",
"S  c #F40404",
"D  c #F90000",
"F  c #F90101",
"G  c #F80202",
"H  c #FD0000",
"J  c #FC0101",
"K  c #C25858",
"L  c #DB5050",
"P  c #DA5454",
"I  c #C16969",
"U  c #C36E6E",
"Y  c #C97575",
"T  c #C87B7B",
"R  c #DC6060",
"E  c #DC6969",
"W  c #D87878",
"Q  c #DC7A7A",
"!  c black",
"~  c black",
"^  c black",
"/  c black",
"(  c black",
")  c black",
"_  c black",
"`  c black",
"'  c black",
"]  c black",
"[  c black",
"{  c black",
"}  c black",
"|  c black",
" . c black",
".. c black",
"X. c black",
"o. c black",
"O. c black",
"+. c black",
"@. c black",
"#. c black",
"$. c black",
"%. c black",
"&. c black",
"*. c black",
"=. c black",
"-. c black",
";. c black",
":. c black",
">. c black",
",. c black",
"<. c black",
"1. c black",
"2. c black",
"3. c black",
"4. c black",
"5. c black",
"6. c black",
"7. c black",
"8. c black",
"9. c black",
"0. c black",
"q. c black",
"w. c black",
"e. c black",
"r. c black",
"t. c black",
"y. c black",
"u. c black",
"i. c black",
"p. c black",
"a. c black",
"s. c black",
"d. c black",
"f. c black",
"g. c black",
"h. c black",
"j. c black",
"k. c black",
"l. c black",
"z. c black",
"x. c black",
"c. c black",
"v. c black",
"b. c black",
"n. c black",
"m. c black",
"M. c black",
"N. c black",
"B. c black",
"V. c black",
"C. c black",
"Z. c black",
"A. c black",
"S. c black",
"D. c black",
"F. c black",
"G. c black",
"H. c black",
"J. c black",
"K. c black",
"L. c black",
"P. c black",
"I. c black",
"U. c black",
"Y. c black",
"T. c black",
"R. c black",
"E. c black",
"W. c black",
"Q. c black",
"!. c black",
"~. c black",
"^. c black",
"/. c black",
"(. c black",
"). c black",
"_. c black",
"`. c black",
"'. c black",
"]. c black",
"[. c black",
"{. c black",
"}. c black",
"|. c black",
" X c black",
".X c black",
"XX c black",
"oX c black",
"OX c black",
"+X c black",
"@X c black",
"#X c black",
"$X c black",
"%X c black",
"&X c black",
"*X c black",
"=X c black",
"-X c black",
";X c black",
":X c black",
">X c black",
",X c black",
"<X c black",
"1X c black",
"2X c black",
"3X c black",
"4X c black",
"5X c black",
"6X c black",
"7X c black",
"8X c black",
"9X c black",
"0X c black",
"qX c black",
"wX c black",
"eX c black",
"rX c black",
"tX c black",
"yX c black",
"uX c black",
"iX c black",
"pX c black",
"aX c black",
"sX c black",
"dX c black",
"fX c black",
"gX c black",
"hX c black",
"jX c black",
"kX c black",
"lX c black",
"zX c black",
"xX c black",
"cX c black",
"vX c black",
"bX c black",
"nX c black",
"mX c black",
"MX c black",
"NX c black",
"BX c black",
"VX c black",
"CX c black",
"ZX c black",
"AX c black",
"SX c black",
"DX c black",
"FX c black",
"GX c black",
"HX c black",
"JX c black",
"KX c black",
"LX c black",
"PX c black",
"IX c black",
"UX c None",
/* pixels */
"UXUXUXUXUXUXUXUXUXUXUXUXUXUXUXUX",
"UXUXUXUXUXUXUXUXUXUXUXUXUXUXUXUX",
"UXUXUXUXUXUXUXUXUXUXUXUXUXUXUXUX",
"UXUX5 * U UXUXUXUXUXUXI & 5 UXUX",
"0 C w d H N < : : , N H d @ 3 X ",
"Q H H n . H 2 UXUX4 H ; - H Z T ",
"UXL A H F e 7 D $ % O f N a K UX",
"UXUXV UXs H l + Z p 1 - UX4 UXUX",
"UXUXV UXc g F H t = H > UX3 UXUX",
"UXP G H F y j h H S q f N a # UX",
"W H H b v H z UXUXg H 8 . D D Y ",
"u C i J H F m 9 8 M H H F r 6 o ",
"UXUXB k E UXUXUXUXUXUXR x B UXUX",
"UXUXUXUXUXUXUXUXUXUXUXUXUXUXUXUX",
"UXUXUXUXUXUXUXUXUXUXUXUXUXUXUXUX",
"UXUXUXUXUXUXUXUXUXUXUXUXUXUXUXUX"
};
