/* XPM */
static const char *lanepedestrian[] = {
/* columns rows colors chars-per-pixel */
"16 16 40 1",
"  c #000000",
". c #010101",
"X c #030303",
"o c #060606",
"O c #070707",
"+ c #090909",
"@ c #0B0B0B",
"# c #0C0C0C",
"$ c #111111",
"% c #161616",
"& c #171717",
"* c #262626",
"= c #292929",
"- c #2B2B2B",
"; c #2E2E2E",
": c #323232",
"> c #333333",
", c #343434",
"< c #363636",
"1 c #383838",
"2 c #393939",
"3 c #414141",
"4 c #454545",
"5 c #474747",
"6 c #4A4A4A",
"7 c #4D4D4D",
"8 c #4F4F4F",
"9 c #535353",
"0 c #545454",
"q c #555555",
"w c #585858",
"e c #5F5F5F",
"r c #606060",
"t c #626262",
"y c #636363",
"u c #656565",
"i c #686868",
"p c #6C6C6C",
"a c #6F6F6F",
"s c None",
/* pixels */
"sssssss,;sssssss",
"sssssss  sssssss",
"sssssssuysssssss",
"ssssssp@wsssssss",
"sssssw   sssssss",
"ssss7%   3ssssss",
"ssss$i  7@ysssss",
"ssss%i  ss%5ssss",
"ssssqq  sssassss",
"sssss,  ,sssssss",
"sssss#*3 qssssss",
"sssss 7s> ssssss",
"ssss5 sss esssss",
"ssss 2ssso5sssss",
"sss2ossss--sssss",
"sss>yssssy2sssss"
};
