/* XPM */
static const char *lane_xpm[] = {
/* columns rows colors chars-per-pixel */
"16 16 256 2 ",
"   c black",
".  c #010101",
"X  c gray1",
"o  c gray2",
"O  c #070707",
"+  c #131313",
"@  c #161616",
"#  c #191919",
"$  c #1D1D1D",
"%  c #222222",
"&  c gray14",
"*  c #252525",
"=  c #2A2A2A",
"-  c gray17",
";  c #2D2D2D",
":  c #434343",
">  c #484848",
",  c #4B4B4B",
"<  c #4E4E4E",
"1  c gray33",
"2  c #585858",
"3  c #5B5B5B",
"4  c gray38",
"5  c #646464",
"6  c #686868",
"7  c #6A6A6A",
"8  c #0126FE",
"9  c #0026FF",
"0  c #1033FE",
"q  c #1335FE",
"w  c #1537FE",
"e  c #1638FE",
"r  c #193AFD",
"t  c #2040FE",
"y  c #2645FD",
"u  c #2847FD",
"i  c #2B4AFE",
"p  c #4761FE",
"a  c #516AFE",
"s  c #556DFF",
"d  c #5870FE",
"f  c #677DFE",
"g  c black",
"h  c black",
"j  c black",
"k  c black",
"l  c black",
"z  c black",
"x  c black",
"c  c black",
"v  c black",
"b  c black",
"n  c black",
"m  c black",
"M  c black",
"N  c black",
"B  c black",
"V  c black",
"C  c black",
"Z  c black",
"A  c black",
"S  c black",
"D  c black",
"F  c black",
"G  c black",
"H  c black",
"J  c black",
"K  c black",
"L  c black",
"P  c black",
"I  c black",
"U  c black",
"Y  c black",
"T  c black",
"R  c black",
"E  c black",
"W  c black",
"Q  c black",
"!  c black",
"~  c black",
"^  c black",
"/  c black",
"(  c black",
")  c black",
"_  c black",
"`  c black",
"'  c black",
"]  c black",
"[  c black",
"{  c black",
"}  c black",
"|  c black",
" . c black",
".. c black",
"X. c black",
"o. c black",
"O. c black",
"+. c black",
"@. c black",
"#. c black",
"$. c black",
"%. c black",
"&. c black",
"*. c black",
"=. c black",
"-. c black",
";. c black",
":. c black",
">. c black",
",. c black",
"<. c black",
"1. c black",
"2. c black",
"3. c black",
"4. c black",
"5. c black",
"6. c black",
"7. c black",
"8. c black",
"9. c black",
"0. c black",
"q. c black",
"w. c black",
"e. c black",
"r. c black",
"t. c black",
"y. c black",
"u. c black",
"i. c black",
"p. c black",
"a. c black",
"s. c black",
"d. c black",
"f. c black",
"g. c black",
"h. c black",
"j. c black",
"k. c black",
"l. c black",
"z. c black",
"x. c black",
"c. c black",
"v. c black",
"b. c black",
"n. c black",
"m. c black",
"M. c black",
"N. c black",
"B. c black",
"V. c black",
"C. c black",
"Z. c black",
"A. c black",
"S. c black",
"D. c black",
"F. c black",
"G. c black",
"H. c black",
"J. c black",
"K. c black",
"L. c black",
"P. c black",
"I. c black",
"U. c black",
"Y. c black",
"T. c black",
"R. c black",
"E. c black",
"W. c black",
"Q. c black",
"!. c black",
"~. c black",
"^. c black",
"/. c black",
"(. c black",
"). c black",
"_. c black",
"`. c black",
"'. c black",
"]. c black",
"[. c black",
"{. c black",
"}. c black",
"|. c black",
" X c black",
".X c black",
"XX c black",
"oX c black",
"OX c black",
"+X c black",
"@X c black",
"#X c black",
"$X c black",
"%X c black",
"&X c black",
"*X c black",
"=X c black",
"-X c black",
";X c black",
":X c black",
">X c black",
",X c black",
"<X c black",
"1X c black",
"2X c black",
"3X c black",
"4X c black",
"5X c black",
"6X c black",
"7X c black",
"8X c black",
"9X c black",
"0X c black",
"qX c black",
"wX c black",
"eX c black",
"rX c black",
"tX c black",
"yX c black",
"uX c black",
"iX c black",
"pX c black",
"aX c black",
"sX c black",
"dX c black",
"fX c black",
"gX c black",
"hX c black",
"jX c black",
"kX c black",
"lX c black",
"zX c black",
"xX c black",
"cX c black",
"vX c black",
"bX c black",
"nX c black",
"mX c black",
"MX c black",
"NX c black",
"BX c black",
"VX c black",
"CX c black",
"ZX c black",
"AX c black",
"SX c black",
"DX c black",
"FX c black",
"GX c black",
"HX c black",
"JX c black",
"KX c black",
"LX c black",
"PX c black",
"IX c black",
"UX c None",
/* pixels */
"UXUXUXUXUXUXUXUXUXUXUXUXUXUXUXUX",
"UXUXUXUXUXUXUXUXUXUXUXUXUXUXUXUX",
"UXUXUXUXUXUXUXUXUXUXUXUXUXUXUXUX",
"UXUXUXUX6 1   7 f 9 a 6 UXUXUXUX",
"UXUXUX< UX@   @ w 9 q UX< UXUXUX",
"UXUXUXO UX    = y 9 9 UXO UXUXUX",
"UXUXUX* UX    UXUX9 9 UX* UXUXUX",
"UXUX> 5 2     ; i 9 9 s 5 > UXUX",
"UXUXo UX#     - u 9 9 e UXo UXUX",
"UXUX  UX      UXUX9 9 9 UX  UXUX",
"UX: % UX      , p 9 9 9 UX% : UX",
"UXX 4 3     . & t 8 9 9 d 4 X UX",
"UX  UX$     + UXUX0 9 9 r UX  UX",
"UXUXUXUXUXUXUXUXUXUXUXUXUXUXUXUX",
"UXUXUXUXUXUXUXUXUXUXUXUXUXUXUXUX",
"UXUXUXUXUXUXUXUXUXUXUXUXUXUXUXUX"
};
