/* XPM */
static const char *lanebus[] = {
/* columns rows colors chars-per-pixel */
"16 16 34 1",
"  c #000000",
". c #020202",
"X c #2F2F2F",
"o c #323232",
"O c #383838",
"+ c #404040",
"@ c #424242",
"# c #464646",
"$ c #4A4A4A",
"% c #4C4C4C",
"& c #525252",
"* c #535353",
"= c #555555",
"- c #575757",
"; c #666666",
": c #6A6A6A",
"> c #6E6E6E",
", c #7E7E7E",
"< c #828282",
"1 c #8B8B8B",
"2 c #8F8F8F",
"3 c #929292",
"4 c #959595",
"5 c #999999",
"6 c #AAAAAA",
"7 c #B5B5B5",
"8 c #C8C8C8",
"9 c #DDDDDD",
"0 c #ECECEC",
"q c #FBFBFB",
"w c #FDFDFD",
"e c #FEFEFE",
"r c #FFFFFF",
"t c None",
/* pixels */
"tttttttttttttttt",
"tttttttttttttttt",
"tttttttttttttttt",
"tttttttttttttttt",
"tttttttttttttttt",
"t&=#-+;o;#&;X;Ot",
"tq97r1r2r06r,r8 ",
"+5<:5$5>,5%5=34 ",
"                ",
"                ",
"ttt ttttttt  ttt",
"tttttttttttttttt",
"tttttttttttttttt",
"tttttttttttttttt",
"tttttttttttttttt",
"tttttttttttttttt"
};
