/* XPM */
static const char * locate_container_xpm[] = {
"16 16 4 1",
" 	c None",
".	c Black",
"X	c Red",
"o	c #851d1d",
"           ...  ",
"          .   . ",
"              . ",
"   ......    .  ",
"  .XXXXXX.  .   ",
"  .XXXXXX.  .   ",
"  .XXXXXX.  .   ",
"  .XXXXXX.  o   ",
"  .XXXXXX.      ",
"  .XXXXXX.      ",
"  .XXXXXX.      ",
"  .XXXXXX.      ",
"  .XXXXXX.      ",
"  .XXXXXX.      ",
"   ......       ",
"                "};
