/* XPM */
static const char * locate_vehicle_xpm[] = {
"16 16 4 1",
" 	c None",
".	c Black",
"X	c Red",
"o	c #851d1d",
"           ...  ",
"          .   . ",
"              . ",
"             .  ",
"            .   ",
"                ",
"            .   ",
"                ",
"      ......    ",
"     .XXXXXX.   ",
"  ...XoooXooX.  ",
" .XXXooooXoooX. ",
".XXXXXXXXXXXXXX.",
".XXXXXXXXXXXXXX.",
"...XX......XX.. ",
"   ..      ..   "};
