/* XPM */
static const char * locate_tls_xpm[] = {
"16 16 5 1",
" 	c None",
".	c #161616",
"X	c Red",
"o	c Black",
"O	c Gray50",
" .......   ...  ",
" .XoooX.  .   . ",
" .oOOOo.      . ",
" .oOOOo.     .  ",
" .oOOOo.    .   ",
" .XoooX.        ",
" .oOOOo.    .   ",
" .oOOOo.        ",
" .oOOOo.        ",
" .XoooX.        ",
" .oOOOo.        ",
" .oOOOo.        ",
" .oOOOo.        ",
" .XoooX.        ",
" .XXXXX.        ",
" .......        "};
