/* XPM */
static const char *locate_xpm[] = {
"16 16 3 1",
" 	c None",
".	c Black",
"X	c Red",
"                ",
"        ....    ",
"       ......   ",
"      ...   ..  ",
"      ..    ..  ",
"            ..  ",
"    .  ..  ..   ",
"  ..X..X  ..    ",
" .XXXXXX ..     ",
".XXXXXXX ..     ",
".XXXXXXX ..     ",
".XXXXXX.        ",
" .XXXXXX ..     ",
" .XXXXXX ..     ",
"  .XXX..        ",
"   ...  ...     "};
