/* XPM */
static const char *lock_xpm[] = {
/* columns rows colors chars-per-pixel */
"48 48 169 2 ",
"   c None",
".  c #7E4F01",
"X  c #6E5B39",
"o  c #735D37",
"O  c #7A6030",
"+  c #7C643A",
"@  c #555753",
"#  c #555854",
"$  c #595954",
"%  c #5B5D59",
"&  c #655941",
"*  c #72664E",
"=  c #646662",
"-  c #696B66",
";  c #6B6D69",
":  c #6E716C",
">  c #70726D",
",  c #727470",
"<  c #797B76",
"1  c #7B7E79",
"2  c #8F5902",
"3  c #8A5502",
"4  c #935C03",
"5  c #985F05",
"6  c #925E09",
"7  c #9C6206",
"8  c #9F6E0F",
"9  c #9A630A",
"0  c #A16607",
"q  c #A26708",
"w  c #A66909",
"e  c #AB6D0A",
"r  c #AF700C",
"t  c #B3730D",
"y  c #B8760E",
"u  c #BB780F",
"i  c #A97918",
"p  c #BE7B11",
"a  c #866732",
"s  c #C17D11",
"d  c #8D7449",
"f  c #BC801F",
"g  c #B88C1E",
"h  c #BC8E22",
"j  c #B58C24",
"k  c #BE9126",
"l  c #BE992C",
"z  c #C48218",
"x  c #C08729",
"c  c #C48B2C",
"v  c #C98E2D",
"b  c #C2962B",
"n  c #C6982F",
"m  c #C69730",
"M  c #C79A31",
"N  c #C99D35",
"B  c #CC9F38",
"V  c #CEA13B",
"C  c #CBAC37",
"Z  c #D0A43D",
"A  c #DEC10B",
"S  c #DEC310",
"D  c #E6CB03",
"F  c #EED504",
"G  c #F1D90D",
"H  c #E0C519",
"J  c #EED711",
"K  c #EFD815",
"L  c #E9D01D",
"P  c #F3DB13",
"I  c #F5DE1C",
"U  c #F4DE24",
"Y  c #E3CC34",
"T  c #F7E224",
"R  c #F7E12D",
"E  c #F9E42B",
"W  c #FAE632",
"Q  c #FCE837",
"!  c #F9E63D",
"~  c #FEEA3C",
"^  c #958261",
"/  c #81837F",
"(  c #D3A542",
")  c #D4A945",
"_  c #D6AA48",
"`  c #D1B347",
"'  c #D8BF55",
"]  c #D7BE54",
"[  c #DFCA52",
"{  c #E4CE4A",
"}  c #EEDB4C",
"|  c #E5D044",
" . c #F0DD4F",
".. c #F2DF43",
"X. c #E2CC54",
"o. c #E7D351",
"O. c #EEDB51",
"+. c #F1DF52",
"@. c #FEEC43",
"#. c #F3E24D",
"$. c #FEEB49",
"%. c #F4E354",
"&. c #FFEE55",
"*. c #F5E45B",
"=. c #EACD6E",
"-. c #EDD475",
";. c #F5E664",
":. c #F7E864",
">. c #FAEA63",
",. c #F6E76B",
"<. c #F7E96E",
"1. c #F9EA6B",
"2. c #F7E874",
"3. c #FAEC74",
"4. c #FAEC7C",
"5. c #FEF17F",
"6. c #878984",
"7. c #888A85",
"8. c #8C8D89",
"9. c #848681",
"0. c #8E908C",
"q. c #91928E",
"w. c #949692",
"e. c #9C9E9A",
"r. c #969894",
"t. c #AC9D83",
"y. c #9EA19C",
"u. c #B6A482",
"i. c #A1A39F",
"p. c #A7A9A4",
"a. c #A8AAA6",
"s. c #AEB0AC",
"d. c #B2B5AE",
"f. c #BABDB6",
"g. c #B9BBB8",
"h. c #FAED84",
"j. c #FBEF8B",
"k. c #FDF183",
"l. c #FDF18C",
"z. c #F7E790",
"x. c #F9EB93",
"c. c #FDF293",
"v. c #FEF59C",
"b. c #C1C3BE",
"n. c #CFC5B2",
"m. c #D0C7B6",
"M. c #FEF5A3",
"N. c #FEF5AB",
"B. c #FEF7B4",
"V. c #C4C6C2",
"C. c #C8CAC5",
"Z. c #CDCECB",
"A. c #C7C9C5",
"S. c #CFD0CE",
"D. c #D1D3CE",
"F. c #D7D8D6",
"G. c #D9DAD6",
"H. c #DDDEDB",
"J. c #D5D6D2",
"K. c #DFE0DD",
"L. c #E1E2DF",
"P. c #E4E5E3",
"I. c #E7E8E5",
"U. c #E9E9E7",
"Y. c #ECECEA",
"T. c #F1F1EF",
"R. c #F4F4F3",
"E. c #F8F8F7",
"W. c #FEFEFE",
/* pixels */
"                                                                                                ",
"                                              , ;                                               ",
"                                    7.7.9.< , ; = % @ # @ @                                     ",
"                                7.7.7./ / 7.8.w.8.1 = $ @ @ @ @                                 ",
"                            7.7.7.e.Z.H.H.H.H.L.P.U.Y.Y.S.8.# @ @ @                             ",
"                          7.7.0.K.R.H.H.H.P.P.P.P.Y.Y.P.P.H.V.9.@ @                             ",
"                          7.q.E.Y.G.K.V.w.; % @ @ % ; q.b.G.J.D.q.@ @                           ",
"                        7.7.F.E.K.G.8.% @ @ @ @ @ @ @ @ @ 9.C.Z.C., @ @                         ",
"                        7.w.W.U.H.< % @ @             @ @ @ , V.b.a.$ @                         ",
"                        9.Z.W.P.e.% #                     @ @ 0.f.f.$ @                         ",
"                      / < P.W.Y.= @                         @ - f.f.- @                         ",
"                      < > E.E.C.@ @                         @ @ d.f.1 @ @                       ",
"                      > ; W.R.i.@ @                         @ @ i.V.q.@ @                       ",
"                      = ; W.T.r.@ @                         @ @ p.S.y.@ @                       ",
"                      % = W.Y.q.@ @                         @ @ s.H.i.@ @                       ",
"                      @ = W.Y.0.@ @                         @ @ g.Y.p.@ @                       ",
"                      @ = W.L.q.@ @                         @ @ V.E.a.@ @                       ",
"                      $ = W.L.q.@ @                         @ @ S.W.s.@ @                       ",
"                      $ * n.^ ^ + a                         O o t.m.^ X &                       ",
"                      u s s z u u u y y y t t r r e e e w w w q q q 7 7 7 5                     ",
"                  s s s z ( _ ) ) ( Z Z V V N N N M n b b b k k h h g i 9 7 4 4                 ",
"                  s z -.B.B.B.B.N.N.M.M.v.c.c.l.k.h.4.4.3.<.,.;.*.%.%.O.{ b 4 4                 ",
"                s s =.B.B.N.M.v.v.c.c.l.l.k.h.4.4.3.1.1.:.*.*.%.%.#...} o.X.j 4 4               ",
"                s s N.B.5.$.@.~ ~ ~ Q W W E E T T I I I P G G G F F F D Y X.` 4 2               ",
"                s v B.B.&.@.@.@.~ Q Q W W E E T T I I I P P G G F F F D A [ ' 6 2               ",
"                s v B.B.$.@.@.@.~ Q Q Q W W E T T I I P P P G G G F F D A X.] 6 2               ",
"                s v B.B.$.@.@.@.~ ~ Q W E E E T T I I I P G G G F F F D A X.] 6 2               ",
"                p v B.B.$.@.@.@.~ ~ Q W W W E E T I I I P P G G F F F D A X.' 6 2               ",
"                u v B.B.$.@.@.@.~ ~ Q W W E E T T T I P I P G G F F F D A X.' 6 2               ",
"                u v B.B.$.@.@.~ @.~ Q W W E T T T I I I P P G G F F F D A X.' 6 2               ",
"                u v B.B.$.@.@.@.~ ~ Q W W E E T I I I I P P G G G F F D A X.' 6 2               ",
"                u b B.B.$.@.@.@.~ ~ Q W W E E T T T I I P G G G F F F D A X.' 6 2               ",
"                p x B.N.$.@.@.@.~ ~ Q W W E E T T I I I P P G G F F F D A X.' 6 2               ",
"                p x B.N.$.@.$.~ ~ ~ Q Q W E E E T I I I P P P G F F F D A X.' 6 2               ",
"                y x B.N.$.@.@.~ ~ ~ ! W W E E T T T I I P P G G F F F D A X.' 6 2               ",
"                y k N.N.$.@.@.@.~ ! Q W W E T T T I I P P P G G F F F D A X.' 6 2               ",
"                t j N.N.&.@.@.@.~ ~ Q W W E T T T I I I P P G G F F F D S X.] 2 2               ",
"                t t z.N.c.>.&.&.&.$.$.@.@.! ! ! W E E U U U I I K K J L | X.C 2 2               ",
"                t t ) M.M.v.v.v.c.c.l.k.h.4.3.3.1.:.>.;.*.*.%.%.%.%.#.} o.[ i 2 2               ",
"                  t t m -.x.c.j.j.h.h.4.2.2.,.,.;.*.*.+.+.+.+. .} } } { C 8 3 2                 ",
"                    t e e e w w w q q 0 7 7 7 7 5 5 4 4 4 2 2 4 2 2 2 2 2 2 2                   ",
"                      9 w e w w w q 0 0 7 7 7 7 5 4 4 4 2 2 2 4 2 2 2 2 3 .                     ",
"                                                                                                ",
"                                                                                                ",
"                                                                                                ",
"                                                                                                ",
"                                                                                                ",
"                                                                                                "
};
