/* XPM */
static const char *magnify_xpm[] = {
"16 16 6 1",
" 	c None",
".	c #6bcfe7",
"X	c #4355e3",
"o	c #9b9b9b",
"O	c Gray100",
"+	c #cbcbcb",
"   .....        ",
" ..XXXXXXX      ",
" .XX   XXX      ",
".XXoOO  X.X     ",
".X O+    .X     ",
".X O   + .X     ",
".X     O .X     ",
".XX  +O ..X     ",
" XXX   ....     ",
" XX......X..    ",
"   XXXXXXXX..   ",
"          XX..  ",
"           XX.. ",
"            XX..",
"             XXX",
"              X "};
