/* XPM */
static const char *modedelete_xpm[] = {
/* columns rows colors chars-per-pixel */
"16 16 104 2 ",
"   c #C56B7D",
".  c #C76E80",
"X  c #C97082",
"o  c #CA7385",
"O  c #CE7688",
"+  c #D27A8C",
"@  c #D27D8E",
"#  c #D47F90",
"$  c #D67F90",
"%  c gray60",
"&  c #9A9A9A",
"*  c #9B9B9B",
"=  c #9D9D9D",
"-  c #9F9F9F",
";  c gray64",
":  c gray65",
">  c #A9A9A9",
",  c #AFAFAF",
"<  c #B1B1B1",
"1  c gray73",
"2  c #BCBCBC",
"3  c gray75",
"4  c #D68192",
"5  c #D88192",
"6  c #D88293",
"7  c #D88394",
"8  c #D98495",
"9  c #DA8495",
"0  c #DB8495",
"q  c #DB8596",
"w  c #DB8697",
"e  c #DC8798",
"r  c #E38E9F",
"t  c #E792A3",
"y  c #EA95A6",
"u  c #ED98A9",
"i  c #EE99AA",
"p  c #E89DAE",
"a  c #E99FB0",
"s  c #E9A1B2",
"d  c #EAA2B3",
"f  c #EBA4B5",
"g  c #ECA5B6",
"h  c #ECA7B8",
"j  c #E3BBC3",
"k  c #E4BDC5",
"l  c #E5BEC6",
"z  c #E7BFC7",
"x  c #F9B0C1",
"c  c #FBB3C4",
"v  c #FCB5C6",
"b  c #FDB8C9",
"n  c #FEB9CA",
"m  c #C0C0C0",
"M  c #C1C1C1",
"N  c gray76",
"B  c #C3C3C3",
"V  c gray77",
"C  c #C6C6C6",
"Z  c #C8C8C8",
"A  c #CACACA",
"S  c #CBCBCB",
"D  c gray80",
"F  c #CDCDCD",
"G  c #CECECE",
"H  c gray81",
"J  c #D0D0D0",
"K  c gray82",
"L  c #D2D2D2",
"P  c gray83",
"I  c gray84",
"U  c #D8D8D8",
"Y  c gray85",
"T  c gainsboro",
"R  c #DDDDDD",
"E  c #DFDFDF",
"W  c #EAC2CA",
"Q  c #ECC4CC",
"!  c #EDC6CE",
"~  c #EEC6CE",
"^  c #EEC7CF",
"/  c #EFC8D0",
"(  c #E1E1E1",
")  c gray89",
"_  c #E4E4E4",
"`  c gray90",
"'  c #E6E6E6",
"]  c #E7E7E7",
"[  c #E9E9E9",
"{  c gray92",
"}  c #ECECEC",
"|  c gray93",
" . c #EEEEEE",
".. c #EFEFEF",
"X. c gray94",
"o. c #F1F1F1",
"O. c gray95",
"+. c #F3F3F3",
"@. c #F4F4F4",
"#. c gray96",
"$. c #F6F6F6",
"%. c #F8F8F8",
"&. c gray100",
"*. c None",
/* pixels */
"*.*.*.*.*.*.*.*.*./ 9 9 ~ *.*.*.",
"*.*.*.*.*.*.*.*.~ 9 n n 7 ~ *.*.",
"*.*.*.*.*.*.*.~ 7 v g h n $ ~ *.",
"*.*.*.*.*.*.~ 5 c d f g h n + W ",
"*.*.*.*.*.[ J x a s d f g e i O ",
"*.*.*.*.[ G %.$.p a s d 9 9 i o ",
"*.*.*.' Z $.X.X.X.p a 4 7 y X z ",
"*.*.' Z $.X.X.X.....@ # t . z *.",
"*.' Z X.} } } } } G J r   z *.*.",
"( C X.[ [ [ [ [ Z G T < j *.*.*.",
"m X.' ' ' ' ' C Z U > P *.*.*.*.",
"3 X.( ' ( ' m C P ; P *.*.*.*.*.",
"T < X.( ( m m J ; J *.*.*.*.*.*.",
"&.P : ( G G G & G *.*.*.*.*.*.*.",
"} U 1 = & & & m ( ' } X.*.*.*.*.",
"$.} ' ' [ [ [ } X.*.*.*.*.*.*.*."
};
