/* XPM */
static const char *modecreateedge_xpm[] = {
/* columns rows colors chars-per-pixel */
"16 16 12 1 ",
"  c black",
". c #7F0000",
"X c #830808",
"o c #850C0C",
"O c #A54C4C",
"+ c #A75050",
"@ c #4CFF00",
"# c #51FF08",
"$ c #54FF0C",
"% c #81FF4C",
"& c #84FF50",
"* c None",
/* pixels */
"**+XX+**********",
"*o....o*********",
"+......+********",
"X......X********",
"X......X********",
"O......  *******",
"*o....    ******",
"**OXX      *****",
"*****      ##&**",
"******    @@@@$*",
"*******  @@@@@@&",
"********#@@@@@@#",
"********#@@@@@@#",
"********%@@@@@@%",
"*********$@@@@$*",
"**********%##%**"
};
