/* XPM */
static const char *modeadditional_xpm[] = {
/* columns rows colors chars-per-pixel */
"16 16 9 1 ",
"  c #4CAA32",
". c #65B02A",
"X c #6AB129",
"o c #C6C90F",
"O c #C9CA0E",
"+ c #F6D502",
"@ c #F9D601",
"# c #FFD800",
"$ c None",
/* pixels */
"$$$$$$    $$$$$$",
"$$$$        $$$$",
"$$$  .o@@o.  $$$",
"$$$ .+####+. $$$",
"$$  o# ## #o  $$",
"$$  @# ## #@  $$",
"$$  @#    #@  $$",
"$$  O# ## #O  $$",
"$$$ X+ ## +X $$$",
"$$$  XO@@OX  $$$",
"                ",
"                ",
"                ",
"                ",
"                ",
"                "
};
