/* XPM */
static const char *modepolygon_xpm[] = {
/* columns rows colors chars-per-pixel */
"16 16 30 1 ",
"  c #1D136F",
". c #1E136F",
"X c #00127D",
"o c #00127E",
"O c #00137E",
"+ c #00137F",
"@ c #08137B",
"# c #351362",
"$ c #41125B",
"% c #501354",
"& c #6A1346",
"* c #671348",
"= c #711343",
"- c #B3141F",
"; c #9B142B",
": c #98142D",
"> c #811439",
", c #DD1307",
"< c #DF1405",
"1 c #DC1409",
"2 c #CA1412",
"3 c #CD1411",
"4 c #E01305",
"5 c #E11305",
"6 c #E01306",
"7 c #E11306",
"8 c #E11405",
"9 c #E01406",
"0 c #E11406",
"q c None",
/* pixels */
"qqqqqqqq,qqqqqqq",
"qqqqqqqq5$qqqqqq",
"qqqqqqq59&oqqqqq",
"qqqqqqq09;+qqqqq",
"qqqqqq<503++qqqq",
"qqqqq00000.++qqq",
"qqqq500000%++qqq",
"qqqq000000>++oqq",
"qqq<000000-++++q",
"qq000000001@+++q",
"q5500000000#++qq",
"q0<00000000*+oqq",
"qqqq0000000:++qq",
"qqqqqq<00002+qqq",
"qqqqqqqqq000.qqq",
"qqqqqqqqqqq0=qqq"
};
