/* XPM */
static const char *modemove_xpm[] = {
/* columns rows colors chars-per-pixel */
"16 16 2 1 ",
"  c red",
". c None",
/* pixels */
"................",
"......... ......",
".........  .....",
".........   ....",
"             ...",
"              ..",
"               .",
"                ",
"                ",
"               .",
"              ..",
"             ...",
".........   ....",
".........  .....",
"......... ......",
"................"
};
