/* XPM */
static const char *modeprohibition_xpm[] = {
"16 16 31 1",
" 	c None",
".	c #FF0000",
"+	c #FF0101",
"@	c #FF0202",
"#	c #FF1717",
"$	c #FF6666",
"%	c #FF1919",
"&	c #FFCCCC",
"*	c #FFFFFF",
"=	c #FFD5D5",
"-	c #FF0404",
";	c #FF0303",
">	c #FF3E3E",
",	c #FF4646",
"'	c #FFADAD",
")	c #FFAFAF",
"!	c #FF1E1E",
"~	c #FFF7F7",
"{	c #FFF9F9",
"]	c #FF2222",
"^	c #FF8686",
"/	c #FF8888",
"(	c #FF0A0A",
"_	c #FFE5E5",
":	c #FFE8E8",
"<	c #FF0B0B",
"[	c #FF6060",
"}	c #FFC9C9",
"|	c #FFCDCD",
"1	c #FF3939",
"2	c #FF3838",
"                ",
".+@@@@@@@@@@@@+.",
" +#$$$$$$$$$$%+ ",
" .+&********=-. ",
"  ;>********,;  ",
"   .'******).   ",
"   @!~****{]-   ",
"    .^****/.    ",
"    +(_**:<+    ",
"     @[**[@     ",
"     .+}|+.     ",
"      ;12;      ",
"       ..       ",
"       @@       ",
"                ",
"                "};
