/* XPM */
static const char *modeinspect_xpm[] = {
/* columns rows colors chars-per-pixel */
"16 16 2 1 ",
"  c #0026FF",
". c None",
/* pixels */
"...     ........",
"..       .......",
".   ...   ......",
"   .....   .....",
"  .......  .....",
"  .......  .....",
"  .......  .....",
"   .....   .....",
".   ...    .....",
"..          ....",
"...          ...",
".........     ..",
"..........     .",
"...........     ",
"............    ",
".............  ."
};
