/* XPM */
static const char * netedit_icon64_xpm[] = {
"64 64 620 2",
"  	c None",
". 	c #000000",
"+ 	c #010101",
"@ 	c #0B0B0B",
"# 	c #1D1D1D",
"$ 	c #353535",
"% 	c #020202",
"& 	c #161616",
"* 	c #292929",
"= 	c #343434",
"- 	c #383838",
"; 	c #454544",
"> 	c #979796",
", 	c #9E9E9D",
"' 	c #9F9F9E",
") 	c #9D9D9C",
"! 	c #9C9C9B",
"~ 	c #878786",
"{ 	c #2D2D2D",
"] 	c #424242",
"^ 	c #606060",
"/ 	c #282828",
"( 	c #333333",
"_ 	c #2B2B2B",
": 	c #2B2B2E",
"< 	c #484847",
"[ 	c #5F5F5E",
"} 	c #757574",
"| 	c #959594",
"1 	c #545453",
"2 	c #363636",
"3 	c #0C0C0C",
"4 	c #B4B4B3",
"5 	c #B6B6B5",
"6 	c #AAAAA9",
"7 	c #8B8B8B",
"8 	c #5E5E5E",
"9 	c #1F1F1E",
"0 	c #4B420B",
"a 	c #3D3711",
"b 	c #2A2716",
"c 	c #202020",
"d 	c #323232",
"e 	c #2B2B2C",
"f 	c #393939",
"g 	c #727272",
"h 	c #B1B1B0",
"i 	c #B2B2B1",
"j 	c #B5B5B4",
"k 	c #B6B6B4",
"l 	c #A8A8A8",
"m 	c #898988",
"n 	c #5A5A59",
"o 	c #272727",
"p 	c #1F1E1C",
"q 	c #8F7D0D",
"r 	c #FEE118",
"s 	c #FADE18",
"t 	c #95810E",
"u 	c #1B1A16",
"v 	c #2A2A2A",
"w 	c #2A2712",
"x 	c #252418",
"y 	c #222222",
"z 	c #373737",
"A 	c #171717",
"B 	c #B3B3B2",
"C 	c #A7A7A6",
"D 	c #868685",
"E 	c #575756",
"F 	c #201F19",
"G 	c #9B870F",
"H 	c #FFE419",
"I 	c #FFE719",
"J 	c #BCA512",
"K 	c #2C2917",
"L 	c #554A0C",
"M 	c #E3C816",
"N 	c #DCC315",
"O 	c #8E7C0D",
"P 	c #15150F",
"Q 	c #3B3B3B",
"R 	c #737372",
"S 	c #A1A1A0",
"T 	c #A5A5A4",
"U 	c #838382",
"V 	c #535353",
"W 	c #313130",
"X 	c #232116",
"Y 	c #A89310",
"Z 	c #FFE519",
"` 	c #FFE619",
" .	c #C1A912",
"..	c #2A2715",
"+.	c #2C2C2C",
"@.	c #4E440D",
"#.	c #EDD117",
"$.	c #E9CE16",
"%.	c #433C0F",
"&.	c #2F2F2F",
"*.	c #585858",
"=.	c #8F8F8E",
"-.	c #AFAFAE",
";.	c #A3A3A2",
">.	c #808080",
",.	c #50504F",
"'.	c #262314",
").	c #B49D11",
"!.	c #C6AE13",
"~.	c #2C2914",
"{.	c #2E2E2E",
"].	c #463F0E",
"^.	c #E8CD16",
"/.	c #F2D617",
"(.	c #4F450C",
"_.	c #414141",
":.	c #787877",
"<.	c #7D7D7D",
"[.	c #4D4D4D",
"}.	c #313131",
"|.	c #2B2712",
"1.	c #BFA812",
"2.	c #CCB313",
"3.	c #2F2B12",
"4.	c #40390E",
"5.	c #FBDF18",
"6.	c #685A0C",
"7.	c #6B6B6B",
"8.	c #5D5D5D",
"9.	c #929291",
"0.	c #B0B0AF",
"a.	c #B8B8B6",
"b.	c #6F6F6F",
"c.	c #312C10",
"d.	c #CAB113",
"e.	c #D2B814",
"f.	c #322D11",
"g.	c #3A3410",
"h.	c #DDC315",
"i.	c #FFE319",
"j.	c #82710C",
"k.	c #232323",
"l.	c #F5F5F5",
"m.	c #D5D5D5",
"n.	c #939393",
"o.	c #484848",
"p.	c #7D7D7C",
"q.	c #A6A6A5",
"r.	c #ACACAB",
"s.	c #38320E",
"t.	c #675C0B",
"u.	c #332E10",
"v.	c #39340D",
"w.	c #DCC215",
"x.	c #FFEB1A",
"y.	c #D7BD14",
"z.	c #353010",
"A.	c #353011",
"B.	c #9D890F",
"C.	c #20201D",
"D.	c #F1F1F1",
"E.	c #F4F4F4",
"F.	c #F8F8F8",
"G.	c #E9E9E9",
"H.	c #B8B8B8",
"I.	c #696969",
"J.	c #616161",
"K.	c #B7B7B6",
"L.	c #989897",
"M.	c #404040",
"N.	c #5E510B",
"O.	c #E5CA16",
"P.	c #EED016",
"Q.	c #BBA412",
"R.	c #7A6B0C",
"S.	c #3D360F",
"T.	c #1F1E1A",
"U.	c #242424",
"V.	c #2F2A0C",
"W.	c #796C0D",
"X.	c #B49E11",
"Y.	c #C8B013",
"Z.	c #39330F",
"`.	c #363112",
" +	c #B69F11",
".+	c #222118",
"++	c #F2F2F2",
"@+	c #F7F7F7",
"#+	c #D4D4D4",
"$+	c #929292",
"%+	c #474747",
"&+	c #494949",
"*+	c #7B7B7A",
"=+	c #211F17",
"-+	c #8E7D0D",
";+	c #FCDE18",
">+	c #FFE118",
",+	c #FEDD18",
"'+	c #FFDF18",
")+	c #F5D617",
"!+	c #C8AF13",
"~+	c #89790D",
"{+	c #47400D",
"]+	c #222117",
"^+	c #262626",
"/+	c #1D1C15",
"(+	c #191711",
"_+	c #9E8A0F",
":+	c #FBDE18",
"<+	c #FFE819",
"[+	c #CDB314",
"}+	c #2A2612",
"|+	c #B7B7B7",
"1+	c #686868",
"2+	c #303030",
"3+	c #3C350F",
"4+	c #C4AD13",
"5+	c #FFDE18",
"6+	c #FFE219",
"7+	c #FBDB18",
"8+	c #D4BA14",
"9+	c #97850E",
"0+	c #554B0C",
"a+	c #272414",
"b+	c #272726",
"c+	c #262419",
"d+	c #3F390F",
"e+	c #72660C",
"f+	c #35300F",
"g+	c #D3D3D3",
"h+	c #909090",
"i+	c #4B4B4B",
"j+	c #191919",
"k+	c #4C4208",
"l+	c #B6A112",
"m+	c #EED117",
"n+	c #DEC315",
"o+	c #A59110",
"p+	c #61560C",
"q+	c #2E2A11",
"r+	c #1F1F1F",
"s+	c #4C4C4C",
"t+	c #9C9C9C",
"u+	c #DDDDDD",
"v+	c #F6F6F6",
"w+	c #FFFFFF",
"x+	c #BFBFBF",
"y+	c #7C6D0C",
"z+	c #C9B013",
"A+	c #FBDC18",
"B+	c #FFE018",
"C+	c #E8CB16",
"D+	c #B39D11",
"E+	c #70630C",
"F+	c #373110",
"G+	c #1D1D1B",
"H+	c #C9C9C9",
"I+	c #9A9A9A",
"J+	c #1E1D17",
"K+	c #1F1E19",
"L+	c #49400D",
"M+	c #98850E",
"N+	c #F0D217",
"O+	c #C0A812",
"P+	c #80700C",
"Q+	c #201F18",
"R+	c #5F5F5F",
"S+	c #B1B1B1",
"T+	c #E7E7E7",
"U+	c #FAFAFA",
"V+	c #D8D8D8",
"W+	c #636363",
"X+	c #232115",
"Y+	c #97840E",
"Z+	c #CEB714",
"`+	c #7D6F0C",
" @	c #322E10",
".@	c #212121",
"+@	c #252525",
"@@	c #272513",
"#@	c #62560C",
"$@	c #B29C11",
"%@	c #EFD217",
"&@	c #F7D818",
"*@	c #CDB313",
"=@	c #8E7D0E",
"-@	c #4C440D",
";@	c #232215",
">@	c #464646",
",@	c #979797",
"'@	c #A7A7A7",
")@	c #3A3A3A",
"!@	c #39330E",
"~@	c #C3AC13",
"{@	c #ECCF16",
"]@	c #A79310",
"^@	c #52480C",
"/@	c #36310F",
"(@	c #7E6F0C",
"_@	c #CBB213",
":@	c #FCDC18",
"<@	c #FDDD18",
"[@	c #D8BD15",
"}@	c #594F0C",
"|@	c #292613",
"1@	c #62550B",
"2@	c #E7CC16",
"3@	c #FEDE18",
"4@	c #4A420D",
"5@	c #9A870F",
"6@	c #E0C415",
"7@	c #E2C615",
"8@	c #AA9510",
"9@	c #675B0C",
"0@	c #312C11",
"a@	c #1E1E1E",
"b@	c #201F14",
"c@	c #99860E",
"d@	c #FFDD18",
"e@	c #EACD16",
"f@	c #A49010",
"g@	c #4F460D",
"h@	c #282613",
"i@	c #63580C",
"j@	c #F0D317",
"k@	c #EBCE16",
"l@	c #B9A412",
"m@	c #484007",
"n@	c #1E1C13",
"o@	c #74660C",
"p@	c #CFB614",
"q@	c #FFE218",
"r@	c #C9B113",
"s@	c #77690B",
"t@	c #2F2A11",
"u@	c #37320F",
"v@	c #81710C",
"w@	c #FCDD18",
"x@	c #FDDE18",
"y@	c #4B4210",
"z@	c #212016",
"A@	c #64580C",
"B@	c #A08D0F",
"C@	c #4C430C",
"D@	c #9C890F",
"E@	c #E1C515",
"F@	c #B39C11",
"G@	c #242423",
"H@	c #5D5D5C",
"I@	c #1F1E18",
"J@	c #5A4F0C",
"K@	c #BCA612",
"L@	c #2D2912",
"M@	c #665A0C",
"N@	c #B6A011",
"O@	c #F1D417",
"P@	c #544A0E",
"Q@	c #50470C",
"R@	c #B39E11",
"S@	c #F9DB18",
"T@	c #E5C916",
"U@	c #9D8A0F",
"V@	c #49410D",
"W@	c #1E1E1A",
"X@	c #83730D",
"Y@	c #CEB514",
"Z@	c #C4AB13",
"`@	c #23221E",
" #	c #48400D",
".#	c #F5D717",
"+#	c #2B2812",
"@#	c #212018",
"##	c #4E450D",
"$#	c #E2C715",
"%#	c #66590D",
"&#	c #7C7C7B",
"*#	c #40390D",
"=#	c #E3C716",
"-#	c #463F0D",
";#	c #1E1E1B",
">#	c #685B0C",
",#	c #BAA512",
"'#	c #C8AD13",
")#	c #8F800E",
"!#	c #96840E",
"~#	c #EACE16",
"{#	c #F9DA18",
"]#	c #C0A912",
"^#	c #6C5F0B",
"/#	c #1E1D1D",
"(#	c #211F0E",
"_#	c #696968",
":#	c #BABAB9",
"<#	c #584D0B",
"[#	c #EFD317",
"}#	c #917F0E",
"|#	c #282826",
"1#	c #322E0F",
"2#	c #8C7B0D",
"3#	c #E4C816",
"4#	c #443C0D",
"5#	c #555554",
"6#	c #949494",
"7#	c #61540B",
"8#	c #F3D717",
"9#	c #FFEC1A",
"0#	c #BEA512",
"a#	c #1B190F",
"b#	c #2D2911",
"c#	c #82720C",
"d#	c #F8D917",
"e#	c #BEA612",
"f#	c #695C0C",
"g#	c #282513",
"h#	c #414140",
"i#	c #6A5C0B",
"j#	c #F7DB18",
"k#	c #DDC215",
"l#	c #3A340E",
"m#	c #534809",
"n#	c #302C11",
"o#	c #D5BB14",
"p#	c #93820E",
"q#	c #3D360D",
"r#	c #74650C",
"s#	c #E6CB16",
"t#	c #64570B",
"u#	c #FDE018",
"v#	c #88770D",
"w#	c #242215",
"x#	c #CDB414",
"y#	c #FFED1A",
"z#	c #96830E",
"A#	c #7D6D0C",
"B#	c #4A420C",
"C#	c #4A410C",
"D#	c #F0D417",
"E#	c #E7CD16",
"F#	c #504607",
"G#	c #62560B",
"H#	c #C4AC13",
"I#	c #F3D417",
"J#	c #3E3811",
"K#	c #A3A3A3",
"L#	c #515151",
"M#	c #1F1E1D",
"N#	c #87760D",
"O#	c #F4D717",
"P#	c #564B0B",
"Q#	c #E0C515",
"R#	c #2E2B15",
"S#	c #584E0C",
"T#	c #FEDF18",
"U#	c #AD9610",
"V#	c #FCFCFC",
"W#	c #EDEDED",
"X#	c #C1C1C1",
"Y#	c #777777",
"Z#	c #1F1F1C",
"`#	c #907E0D",
" $	c #F9DC18",
".$	c #63560C",
"+$	c #39320E",
"@$	c #1B1B1B",
"#$	c #453D0A",
"$$	c #B19B11",
"%$	c #4F460F",
"&$	c #70620C",
"*$	c #212019",
"=$	c #B09911",
"-$	c #F8DB18",
";$	c #574C0B",
">$	c #262417",
",$	c #373211",
"'$	c #463D09",
")$	c #77680B",
"!$	c #F7D817",
"~$	c #C1A812",
"{$	c #211F18",
"]$	c #A28E0F",
"^$	c #7E6D0C",
"/$	c #93800E",
"($	c #3E380E",
"_$	c #685C0C",
":$	c #DCC015",
"<$	c #F2D317",
"[$	c #64580D",
"}$	c #555555",
"|$	c #EFEFEF",
"1$	c #AB9610",
"2$	c #8C7A0D",
"3$	c #20201F",
"4$	c #A89210",
"5$	c #22221F",
"6$	c #A69210",
"7$	c #D7BC14",
"8$	c #F7D717",
"9$	c #FFE119",
"0$	c #D4B814",
"a$	c #252314",
"b$	c #9A860F",
"c$	c #F7DA18",
"d$	c #1C1A11",
"e$	c #6F620B",
"f$	c #B9A211",
"g$	c #EDD017",
"h$	c #7C6B0D",
"i$	c #E4E4E4",
"j$	c #F3F3F3",
"k$	c #292512",
"l$	c #BDA512",
"m$	c #A79210",
"n$	c #302A05",
"o$	c #423B09",
"p$	c #A28F0F",
"q$	c #E7CB16",
"r$	c #E5C715",
"s$	c #2E2A15",
"t$	c #8E8E8E",
"u$	c #2C2911",
"v$	c #C5AD13",
"w$	c #D6BC15",
"x$	c #E8CA16",
"y$	c #927F0E",
"z$	c #2E2A0E",
"A$	c #D3B814",
"B$	c #262414",
"C$	c #242216",
"D$	c #F1D217",
"E$	c #3B3511",
"F$	c #2B2711",
"G$	c #20201C",
"H$	c #A38E0F",
"I$	c #FFE919",
"J$	c #A99310",
"K$	c #C6C6C6",
"L$	c #8D7B0D",
"M$	c #FEE018",
"N$	c #D6BC14",
"O$	c #312D0F",
"P$	c #85730D",
"Q$	c #E6C916",
"R$	c #DABD15",
"S$	c #D0B514",
"T$	c #C7AF13",
"U$	c #463E0E",
"V$	c #4A4A4A",
"W$	c #C8C8C8",
"X$	c #C2C2C2",
"Y$	c #BDBDBD",
"Z$	c #BCBCBC",
"`$	c #C0C0C0",
" %	c #CACACA",
".%	c #DADADA",
"+%	c #EAEAEA",
"@%	c #6A5D0B",
"#%	c #F5D918",
"$%	c #E2C716",
"%%	c #FCDF18",
"&%	c #EBCD16",
"*%	c #AB9510",
"=%	c #89770D",
"-%	c #675A0C",
";%	c #4C430D",
">%	c #383210",
",%	c #2B2813",
"'%	c #1D1C1A",
")%	c #DCDCDC",
"!%	c #5C5C5C",
"~%	c #4C430B",
"{%	c #423A0C",
"]%	c #F2D517",
"^%	c #FADA18",
"/%	c #DBBF15",
"(%	c #AF9911",
"_%	c #302B11",
":%	c #717171",
"<%	c #EACC16",
"[%	c #B8A111",
"}%	c #453E0E",
"|%	c #252215",
"1%	c #FBFBFB",
"2%	c #878787",
"3%	c #C3AA12",
"4%	c #E7CA16",
"5%	c #2F2B11",
"6%	c #FEFEFE",
"7%	c #565656",
"8%	c #564C0D",
"9%	c #E3C916",
"0%	c #6C5E0B",
"a%	c #2D2A12",
"b%	c #CBB313",
"c%	c #E8CC16",
"d%	c #423A0D",
"e%	c #1D1D1C",
"f%	c #282512",
"g%	c #AE9910",
"h%	c #E6CA16",
"i%	c #8A790D",
"j%	c #302C10",
"k%	c #A4A4A4",
"l%	c #ECD417",
"m%	c #302B10",
"n%	c #F9F9F9",
"o%	c #C3C3C3",
"p%	c #3F3F3F",
"q%	c #2F2B0D",
"r%	c #E0E0E0",
"s%	c #858585",
"t%	c #B6B6B6",
"u%	c #EEEEEE",
"v%	c #AEAEAE",
"w%	c #151515",
"x%	c #666666",
"y%	c #6E6E6E",
"z%	c #767676",
"A%	c #050505",
"B%	c #4F4F4F",
"C%	c #7E7E7E",
"        . . . . . . . . . . . . . . . . . . . . . . . . . . . . . . . . . . . . . . . . . . . . . . . . . . . . + @ # $         ",
"      . . . . . . . . . . . . . . . . . . . . . . . . . . . . . . . . . . . . . . . . . . . . . . . . . . . . . . . . . .       ",
"    . . % & * = - - - - - - - - - - - - - - - - - - - - - - - - - - - - - - - - - - - - - - - - * ; > , ' ' ) ! > ~ { % . .     ",
"  + . ] ^ - / ( - - - - - - - - - - - - - - - - - - - - - - - - - - - - - - - - - - - - - - - = _ : - < [ } ~ | ! 1 _ 2 3 . .   ",
". . / 4 5 6 7 8 2 / = - - - - - - - - - - - - - - - - - - - - - - - - - - - - - - - - - - - 9 0 a b c 2 d _ e $ f * - - 2 % . . ",
". . g h h i j k l m n = o $ - - - - - - - - - - - - - - - - - - - - - - - - - - - - - - - p q r s t u v w x y _ z - - - - A . . ",
". . > 5 B h h h i j j C D E d * $ - - - - - - - - - - - - - - - - - - - - - - - - - - z F G H I J K _ L M N O P z - - - - * . . ",
". . Q R S j j h h h h i 5 j T U V W v 2 - - - - - - - - - - - - - - - - - - - - - - 2 X Y Z `  ...+.@.#.I $.%.d - - - - - = . . ",
". . - { &.*.=.-.5 B h h h h i 5 4 ;.>.,.&._ 2 - - - - - - - - - - - - - - - - - - $ '.).` Z !.~.{.].^.H /.(.{.- - - - - - - . . ",
". . $ - - = / _.:.;.5 j h h h h h B 5 4 S <.[.}.{ z - - - - - - - - - - - - - - = |.1.` Z 2.3.{.4.M H 5.6.* - - - - - - - - . . ",
". . 7.d &.- - - +.}.8.9.0.5 i h h h h h B a.a.b.c - = &.- - - - - - - - - - - d c.d.Z H e.f.&.g.h.H i.j.k.- - - - - - - - - . . ",
". . l.m.n.o./ 2 - - ( * ; p.q.5 4 h h h j r.^ v - +.s.t.u.# +.2 - - - - - - {.v.w.x.Z y.z.&.A.y.H Z B.C.- - - - - - - - - - . . ",
". . D.E.F.G.H.I.d &.- - - v ( J.| i 5 K.L.M.{.- y N.O.` P.Q.R.S.T.* $ - - - U.V.W.X.Y.Z.&.`.e.H Z  +.+- - - - - - - - - - - . . ",
". . D.D.D.++@+l.#+$+%+/ 2 - - d * &+U *+{ 2 2 =+-+;+>+,+'+i.Z )+!+~+{+]+^+( - - &.c /+&.(+_+:+<+[+}+2 - - - - - - - - - - - . . ",
". . ++D.D.D.D.D.E.F.G.|+1+}.2+- - z / o - +.3+4+I 5+,+,+,+,+,+5+6+Z 7+8+9+0+a+k.d - - - b+c+d+e+f+= - - - - - - - - - - - - . . ",
". . G.F.E.D.D.D.D.D.++@+E.g+h+i+{.2 - - - j+k+l+m+Z 6+5+,+,+,+,+,+,+5+>+Z '+n+o+p+q+r+{.- - - &.d - - - - - - - - - - - - - . . ",
". . s+t+u+@+v+D.D.D.D.D.D.l.w+x+}.( - - - - }.r+z.y+z+A+Z B+,+,+,+,+,+,+,+,+B+Z 6+C+D+E+F+G++.z - - - - - - - - - - - - - - . . ",
". . - { - <.H+++F.++D.D.l.D.I+d 2 - - r+J+_ - - - _ K+L+M+n+6+H '+,+,+,+,+,+,+,+,+'+H H N+O+P+4.Q+/ = - - - - - - - - - - - . . ",
". . - - - d +.R+S+T+F.U+V+W+* - - ( X+Y+Z+`+ @.@( - - $ +@@@#@$@%@Z 6+5+,+,+,+,+,+,+,+,+'+i.Z &@*@=@-@;@+@d - - - - - - - - . . ",
". . - - - - - 2 / >@,@'@)@( - - _ !@~@Z 6+Z {@]@^@Q++.- - - 2+r+/@(@_@:@Z B+,+,+,+,+,+,+,+,+,+5+6+Z <@[@B.}@|@.@2+- - - - - . . ",
". . - - - - - - - - {./ - - - c 1@2@H ,+,+,+'+Z 3@2.R.c.y ( - - z _ Q+4@5@6@6+H '+,+,+,+,+,+,+,+,+,+5+>+Z B+7@8@9@0@a@{ 2 - . . ",
". . - - - - - - - - - - - = b@c@H >+,+,+,+,+,+,+d@6+Z e@f@g@Q++.- - - = +@h@i@X.j@Z 6+5+,+,+,+,+,+,+,+,+,+,+B+H i.k@l@m@+.$ . . ",
". . - - - - - - - - - - - d n@o@p@q@i.d@,+,+,+,+,+,+,+'+Z <@r@s@t@k.= - - - 2+a@u@v@2.w@Z B+,+,+,+,+,+,+,+,+,+,+,+B+x@y@z {.. . ",
". . - - - - - - - - - - - - - { z@A@!.B+i.5+,+,+,+,+,+,+,+5+6+Z C+B@C@K+{ - - - z v Q+C@D@E@i.H 5+,+,+,+,+,+,+,+,+H F@G@$ H@. . ",
". . - - - - - - - - - - - - - - - &.I@J@K@x@H 5+,+,+,+,+,+,+,+,+'+Z :@!.o@L@U.= - - - = U.|@M@N@O@Z 6+5+,+,+,+,+,+;+P@2 * 9.. . ",
". . - - - - - - - - - - - - - - - - - 2+G+Q@R@S@Z 5+,+,+,+,+,+,+,+,+5+6+H T@U@V@W@{.- - - - 2+a@Z.X@Y@<@Z B+,+,+i.Z@`@- ; h . . ",
". . - - - - - - - - - - - - - - - - - - - = #  #8@.#Z '+,+,+,+,+,+,+,+,+,+B+Z 7+~@E++#+@$ - - - z v @###_+$#i.H i.%#( +.&#5 . . ",
". . - - - - - - - - - - - - - - - - - - +.^+- $ c *#B@j@Z '+,+,+,+,+,+,+,+,+,+5+i.H =#5@-#;#{.- - - - = U.w >#,#'#c+- ( C i . . ",
". . - - - - - - - - - - - - - - - - - v ^@)#u.^+- z y !@!#~#Z B+,+,+,+,+,+,+,+,+,+,+B+Z {#]#^#}++@$ - - - - &./#(#&.d _#:#h . . ",
". . - - - - - - - - - - - - - - - - / <#[#<+~#}#z.|#- z +@1#2#3#Z >+,+,+,+,+,+,+,+,+,+,+5+i.i.E@!#4#G+&.- - - - - - / 5#6#-.. . ",
". . - - - - - - - - - - - - - - - ^+7#8#>+,+'+9#0#a#z &.- - o b#c#w.Z >+,+,+,+,+,+,+,+,+,+,+,+B+Z d#e#f#g#^+$ - - - z d / h#. . ",
". . - - - - - - - - - - - - - - U.i#j#B+,+,+i.k#l#= +@m#n#/ - - * g#s@o#i.6+,+,+,+,+,+,+,+,+,+,+,+5+i.i.n+p#q#^+- - - - - - . . ",
". . - - - - - - - - - - - - - y r#s B+,+,+q@s#*#d +.t#u#O.v#b#/ - - _ w#^#x#q@i.d@,+,+,+,+,+,+,+,+,+,+,+B+y#z#o - ^++.- - - . . ",
". . - - - - - - - - - - - - c A#u#'+,+,+>+#.B#&.}.C#D#B+B+Z E#F#/ - - - { =+G#H#B+i.5+,+,+,+,+,+,+,+,+,+5+I#J#z }.<.K#L#v = . . ",
". . - - - - - - - - - - - M#N#6+'+,+,+B+O#P#+.$ f+Q#6+,+,+H 2.R#2 - - - - - &.K+S#J T#H ,+,+,+,+,+,+,+,+H U#U.- 2+m.V#W#X#Y#. . ",
". . - - - - - - - - - - Z#`#i.5+,+,+'+ $.$* - g#d.H ,+,+>+O.+$= - - - - - - - - ( @$#$$$w@,+,+,+,+,+,+5+A+%$$ $ b.v+D.++v+@+. . ",
". . - - - - - - - - z F c@Z 5+,+,+'+u#&$^+- *$=$` ,+,+'+-$;${.- - - - - z 2+o # >$,$'$)$!$3@,+,+,+,+,+i.~$`@- v x+@+D.D.D.D.. . ",
". . - - - - - - - z {$]$Z d@,+,+5+6+^$k.- c /$Z ,+,+,+H ^$^+- - - 2+k.X ($_$!#J :$<$>+H d@,+,+,+,+,+,+6+[$d z }$|$D.D.D.D.D.. . ",
". . - - - - - - 2 X+1$` ,+,+,+,+H 2$3$- o o@6+5+,+,+` 4$5$- {.# u.f#6$7$8$i.Z i.B+5+,+,+,+,+,+,+,+,+9$0$c+- _ l F.D.D.D.D.D.. . ",
". . - - - - - $ a$X.` ,+,+,+,+Z b$Z#- { <#c$'+,+,+i.[+d$k.t@e$f$g$i.Z >+5+,+,+,+,+,+,+,+,+,+,+,+,+,+H h$&.- M.i$j$D.D.D.D.D.. . ",
". . - - - - = k$l$` ,+,+,+,+` m$F - d *#~#>+,+,+'+~#n$o$p$q$H i.'+,+,+,+,+,+,+,+,+,+,+,+,+,+,+,+,+B+r$s$- 2+t$F.D.D.D.D.D.D.. . ",
". . - - - ( u$v$Z ,+,+,+,+` D+X z $ t@w$i.,+,+,+T#x$~$w@Z '+,+,+,+,+,+,+,+,+,+,+,+,+,+,+,+,+,+,+,+Z y$v - d m.E.D.D.D.D.D.D.. . ",
". . - - ( z$A$Z ,+,+,+,+Z O+B$2 z C$e#Z ,+,+,+,+,+'+i.5+,+,+,+,+,+,+,+,+,+,+,+,+,+,+,+,+,+,+,+,+'+D$E$z = g v+D.D.D.D.D.D.D.. . ",
". . - - = w $$Z 5+,+,+Z _@F$$ - G$H$` ,+,+,+,+,+,+,+,+,+,+,+,+,+,+,+,+,+,+,+,+,+,+,+,+d@5+'+>+q@I$J$+@- { K$V#@+@+v+l.j$++D.. . ",
". . 2 2 - 2 K+L$M$'+H N$O$= - k.P$H ,+,+,+,+,+,+,+,+,+,+,+,+,+,+,+,+,+,+,+,+'+6+H Z i.,+I#Q$R$S$T$U$2 2 V$W$X$Y$Z$`$ %.%+%E.. . ",
". . ] &+( - - .@@%#%$%!@d - v 6.%%5+,+,+,+,+,+,+,+,+,+,+,+,+,+,+,+5+B+H Z 5+&%*@*%=%-%;%>%,%X F '%/ - $ * { * / / / +.2 V$1+. . ",
". . )%+%!%2+- - / ~%{%2+- &.C@]%B+,+,+,+,+,+,+,+,+,+,+,+,+,+'+i.Z ^%/%(%`+g@_%K+y v }.$ - - - - - - - - - - - - - - - - - z . . ",
". . V#w+++:%_ - - &.&.- ( Z.7@q@,+,+,+,+,+,+,+,+,+,+,+'+H 6+<%[%y+}%|%.@+.= - - - - - - - - - - - - - - - - - - - - - - - - . . ",
". . 1%w+w+U+2%&.z - - z n@3%<+,+,+,+,+,+,+,+,+,+5+i.i.4%1$A@5%a@+.2 - - - - - - - - - - - - - - - - - - - - - - - - - - - - . . ",
". . U+w+w+w+6%7%( - - - |#8%9%H ,+,+,+,+,+,+'+Z !$J 0%a%.@2+- - - - - - - - - - - - - - - - - - - - - - - - - - - - - - - - . . ",
". . F.w+w+w+t${.- - - - - { !@b%` ,+,+,+B+Z c%c@d%e%{.- - - - - - - - - - - - - - - - - - - - - - - - - - - - - - - - - - - . . ",
". . F.w+w+6#* - z _ * - - - ( f%g%Z '+Z h%i%j%U.$ - - - - - - - - - - - - - - - - - - - - - - - - - - - - - - - - - - - - - . . ",
". . @+w+t+* - z z  %k%{.z - - 2 K+q l%Y+m%o z - - - - - - - - - - - - - - - - - - - - - - - - - - - - - - - - - - - - - - - . . ",
". . n%k%v - - = W$w+w+o%p%= - - - c q%k.z - - - - - - - - - - - - - - - - - - - - - - - - - - - - - - - - - - - - - - - - - . . ",
". . K#+.- - d X$w+w+w+w+r%8.{.- - - 2 - - - - - - - - - - - - - - - - - - - - - - - - - - - - - - - - - - - - - - - - - - - . . ",
". . / - - &.Z$w+w+w+w+w+w+l.s%}.z - - - - - - - - - - - - - - - - - - - - - - - - - - - - - - - - - - - - - - - - - - - - - . . ",
". . = - { t%w+w+w+w+w+w+w+w+u%p%2 - - - - - - - - - - - - - - - - - - - - - - - - - - - - - - - - - - - - - - - - - - - - = . . ",
". . * _ v%w+w+w+w+w+w+w+w+D.R+}.- - - - - - - - - - - - - - - - - - - - - - - - - - - - - - - - - - - - - - - - - - - - - * . . ",
". . w%'@w+w+w+w+w+w+w+w+E.x%2+- - - - - - - - - - - - - - - - - - - - - - - - - - - - - - - - - - - - - - - - - - - - - - A . . ",
". . # 6%w+w+w+w+w+w+w+@+y%&.- - - - - - - - - - - - - - - - - - - - - - - - - - - - - - - - - - - - - - - - - - - - - - 2 % . . ",
"  . . - u+w+w+w+w+w+U+z%{ - - - - - - - - - - - - - - - - - - - - - - - - - - - - - - - - - - - - - - - - - - - - - - 2 3 . .   ",
"    . . A%B%`$@+w+V#C%+.- - - - - - - - - - - - - - - - - - - - - - - - - - - - - - - - - - - - - - - - - - - - = * & % . .     ",
"      . . . . . . . . . . . . . . . . . . . . . . . . . . . . . . . . . . . . . . . . . . . . . . . . . . . . . . . . . .       ",
"        . . . . . . . . . . . . . . . . . . . . . . . . . . . . . . . . . . . . . . . . . . . . . . . . . . . . . . . .         "};
