/* XPM */
static const char * netedit_icon16_xpm[] = {
"16 16 124 2",
"  	c None",
". 	c #000000",
"+ 	c #2C2C2C",
"@ 	c #383838",
"# 	c #544E2C",
"$ 	c #AA9518",
"% 	c #857516",
"& 	c #907F19",
"* 	c #383733",
"= 	c #413F31",
"- 	c #817320",
"; 	c #665D25",
"> 	c #3E3C30",
", 	c #32312E",
"' 	c #948218",
") 	c #7F7017",
"! 	c #B29C18",
"~ 	c #464330",
"{ 	c #343434",
"] 	c #62581E",
"^ 	c #DCC117",
"/ 	c #F4D617",
"( 	c #E9CC16",
"_ 	c #B29C1A",
": 	c #716620",
"< 	c #564F20",
"[ 	c #3F3C2C",
"} 	c #373737",
"| 	c #524C2A",
"1 	c #B9A219",
"2 	c #97861D",
"3 	c #575023",
"4 	c #635922",
"5 	c #A8951C",
"6 	c #ECCF17",
"7 	c #FBDC18",
"8 	c #F3D517",
"9 	c #C1AA1A",
"0 	c #87791F",
"a 	c #554F29",
"b 	c #363636",
"c 	c #645B22",
"d 	c #CEB618",
"e 	c #F7D817",
"f 	c #BCA51A",
"g 	c #6F6421",
"h 	c #4B4625",
"i 	c #6D6322",
"j 	c #B8A21A",
"k 	c #FFE018",
"l 	c #E6C816",
"m 	c #39372C",
"n 	c #6F641D",
"o 	c #B8A31A",
"p 	c #F9DA18",
"q 	c #FEDF18",
"r 	c #E4C817",
"s 	c #9A891D",
"t 	c #554E25",
"u 	c #494427",
"v 	c #827520",
"w 	c #8A7A1E",
"x 	c #45412D",
"y 	c #CCB218",
"z 	c #A08D19",
"A 	c #454023",
"B 	c #675D1F",
"C 	c #AB971B",
"D 	c #F3D417",
"E 	c #FFE319",
"F 	c #F6D717",
"G 	c #C7AF19",
"H 	c #766920",
"I 	c #333333",
"J 	c #4C472B",
"K 	c #D7BB17",
"L 	c #CFB418",
"M 	c #635A1E",
"N 	c #E9CA16",
"O 	c #494527",
"P 	c #A49016",
"Q 	c #FFE318",
"R 	c #373736",
"S 	c #554F2A",
"T 	c #E1C517",
"U 	c #D4BA19",
"V 	c #544D21",
"W 	c #DCC018",
"X 	c #B69F15",
"Y 	c #9E8C1D",
"Z 	c #C6AE19",
"` 	c #DFC317",
" .	c #FDDD18",
"..	c #F6D617",
"+.	c #5C5428",
"@.	c #DDC015",
"#.	c #DBC018",
"$.	c #4C4723",
"%.	c #C9B019",
"&.	c #FFDF18",
"*.	c #E4C716",
"=.	c #FBDB18",
"-.	c #FFE218",
";.	c #FCDC18",
">.	c #BBA319",
",.	c #363635",
"'.	c #524B24",
").	c #BBA41A",
"!.	c #FFE118",
"~.	c #FADA18",
"{.	c #E2C517",
"].	c #B49F1A",
"^.	c #897A1F",
"/.	c #696025",
"(.	c #565029",
"_.	c #403D2F",
":.	c #3E3C2F",
"<.	c #BEA619",
"[.	c #EACE17",
"}.	c #A7941B",
"|.	c #635A26",
"1.	c #3C3B30",
"2.	c #3E3C2B",
"3.	c #5F551E",
". . . . . . . . . . . . . . . . ",
". + @ @ @ @ @ @ @ @ @ @ @ @ + . ",
". @ @ @ @ @ @ @ @ @ # $ % & * . ",
". @ @ @ @ = - ; > , ' ) ! ~ @ . ",
". @ @ @ { ] ^ / ( _ : < [ @ @ . ",
". @ } | 1 2 3 4 5 6 7 8 9 0 a . ",
". @ b c d 7 e f g h i j 8 k l . ",
". @ @ @ m n o p q r s t u v w . ",
". @ @ x y z A B C D E F G H I . ",
". @ J K L M N H } O P p Q 1 R . ",
". S T U V W X c Y Z `  ...+.@ . ",
". @.#.$.%.&.*.=.-.k ;.F >.,.@ . ",
". ; '.).!.k ~.{.].^./.(._.@ @ . ",
". @ :.<.[.}.|.1.} @ @ @ @ @ @ . ",
". + @ 2.3.b @ @ @ @ @ @ @ @ + . ",
". . . . . . . . . . . . . . . . "};
