/* XPM */
static const char * new_window_xpm[] = {
"16 16 96 2",
"  	c None",
". 	c #ff8514",
"X 	c #ffcb0a",
"o 	c #ffff0a",
"O 	c #5b5b5b",
"+ 	c #5a5b5b",
"@ 	c Gray35",
"# 	c DimGray",
"$ 	c #4e4e4e",
"% 	c #494949",
"& 	c #434343",
"* 	c Gray100",
"= 	c #adadff",
"- 	c #aaaaff",
"; 	c #a7a7ff",
": 	c #a4a5ff",
"> 	c #a2a2ff",
", 	c #9f9fff",
"< 	c #9c9cff",
"1 	c #5b5a5b",
"2 	c #5b5bff",
"3 	c #5555ff",
"4 	c #5050ff",
"5 	c #4a4aff",
"6 	c #4444ff",
"7 	c #3f3fff",
"8 	c #3a3aff",
"9 	c #2e2eff",
"0 	c #242324",
"q 	c Gray68",
"w 	c #5b5b5a",
"e 	c #565656",
"r 	c #505050",
"t 	c #4b4b4b",
"y 	c Gray27",
"u 	c Gray25",
"i 	c #3a3a3a",
"p 	c #2f2f2f",
"a 	c #2a2a2a",
"s 	c #191919",
"d 	c Gray12",
"f 	c Gray92",
"g 	c #d5d5d5",
"h 	c Gray83",
"j 	c #d3d3d3",
"k 	c Gray82",
"l 	c #d0d0d0",
"z 	c Gray81",
"x 	c #cdcdcd",
"c 	c Gray80",
"v 	c #cbcbcb",
"b 	c Gray79",
"n 	c Gray55",
"m 	c Gray10",
"M 	c #d2d2d2",
"N 	c #cececd",
"B 	c #cacaca",
"V 	c #c8c8c8",
"C 	c #8b8b8b",
"Z 	c #151515",
"A 	c #585857",
"S 	c #eaeaea",
"D 	c #cecece",
"F 	c Gray78",
"G 	c Gray54",
"H 	c #101010",
"J 	c #525253",
"K 	c #e9e9e9",
"L 	c #d1d1d0",
"P 	c #c6c6c6",
"I 	c #898989",
"U 	c #0b0b0b",
"Y 	c Gray77",
"T 	c #888888",
"R 	c #060607",
"E 	c Gray91",
"W 	c #cfcfd0",
"Q 	c #c5c5c5",
"! 	c #c3c3c3",
"~ 	c Gray53",
"^ 	c #020202",
"/ 	c #444444",
"( 	c #909090",
") 	c Gray56",
"_ 	c #8e8e8e",
"` 	c #8d8d8d",
"' 	c #8b8b8c",
"] 	c #3f3f3f",
"[ 	c #343434",
"{ 	c Gray16",
"} 	c #242323",
"| 	c #1e1e1e",
" .	c #131313",
"..	c #0e0e0e",
"X.	c Gray3",
"o.	c Gray1",
"                                ",
"                              . ",
"                    X   .   X   ",
"                      o o o     ",
"O O O O + @ # $ % & . o * o .   ",
"O = = = = - ; : > , < o o o     ",
"1 = 2 2 3 4 5 6 7 8 X 9 . 0 X   ",
"O q w e r t y u i . p a s d     ",
"O f g h j k l z x c v b n m     ",
"O f h j M l z N c v B V C Z     ",
"A S j M l z D c v B V F G H     ",
"J K M L z D c v B V F P I U     ",
"$ K k z D x v B b F P Y T R     ",
"% E W D x v B b F P Q ! ~ ^     ",
"/ E ( ) _ ` n ' G G T ~ ~ ^     ",
"] i [ p { } | s  ...X.o.^ ^     "};
