/* XPM */
static const char * new_window_3d_xpm[] = {
"16 16 84 2",
"Qt c None",
".9 c #020202",
"#r c #030303",
".4 c #060607",
"#q c #080808",
".3 c #0b0b0b",
"#p c #0e0e0e",
".Y c #101010",
"#o c #131313",
".S c #151515",
".H c #191919",
".N c #1a1a1a",
"#n c #1e1e1e",
".I c #1f1f1f",
"#m c #242323",
".A c #242324",
"#l c #292929",
".z c #2e2eff",
"#k c #2f2f2f",
"#j c #343434",
"#i c #3a3a3a",
".y c #3a3aff",
"#h c #3f3f3f",
".x c #3f3fff",
".G c #404040",
".i c #434343",
"#. c #444444",
".w c #4444ff",
".F c #454545",
".h c #494949",
".v c #4a4aff",
".g c #4e4e4e",
".u c #5050ff",
".Z c #525253",
".t c #5555ff",
".T c #585857",
".e c #595959",
".d c #5a5b5b",
".r c #5b5a5b",
".C c #5b5b5a",
".c c #5b5b5b",
".s c #5b5bff",
".f c #696969",
".8 c #878787",
"#g c #888888",
"#f c #8a8a8a",
"#e c #8b8b8c",
"#d c #8c8c8c",
"#c c #8d8d8d",
"#b c #8e8e8e",
"#a c #8f8f8f",
"## c #909090",
".q c #9c9cff",
".p c #9f9fff",
".o c #a2a2ff",
".n c #a4a5ff",
".m c #a7a7ff",
".l c #aaaaff",
".B c #adadad",
".k c #adadff",
".E c #c00000",
".2 c #c7c7c7",
".X c #c8c8c8",
".7 c #c9c9c9",
".R c #cacaca",
".M c #cbcbcb",
".W c #cccccc",
".Q c #cececd",
".V c #cecece",
".L c #cfcfcf",
".6 c #cfcfd0",
".1 c #d1d1d0",
".P c #d2d2d2",
".K c #d3d3d3",
".O c #d4d4d4",
".5 c #e8e8e8",
".0 c #e9e9e9",
".U c #eaeaea",
".J c #ebebeb",
".D c #ff0000",
".# c #ff8514",
".a c #ffcb0a",
".b c #ffff0a",
".j c #ffffff",
"QtQtQtQtQtQtQtQtQtQtQtQtQtQtQtQt",
"QtQtQtQtQtQtQtQtQtQtQtQtQtQtQt.#",
"QtQtQtQtQtQtQtQtQtQt.aQt.#Qt.aQt",
"QtQtQtQtQtQtQtQtQtQtQt.b.b.bQtQt",
".c.c.c.c.d.e.f.g.h.i.#.b.j.b.#Qt",
".c.k.k.k.k.l.m.n.o.p.q.b.b.bQtQt",
".r.k.s.s.t.u.v.w.x.y.a.z.#.A.aQt",
".c.B.C.D.D.E.F.G.D.D.D.E.H.IQtQt",
".c.J.D.E.K.D.E.L.D.E.M.D.E.NQtQt",
".c.J.O.K.P.D.E.Q.D.E.R.D.E.SQtQt",
".T.U.K.P.D.E.V.W.D.E.X.D.E.YQtQt",
".Z.0.P.1.L.D.E.M.D.E.2.D.E.3QtQt",
".g.0.D.E.V.D.E.R.D.E.R.D.E.4QtQt",
".h.5.6.D.D.E.R.7.D.D.D.E.8.9QtQt",
"#..5###a#b#c#d#e#f#f#g.8.8.9QtQt",
"#h#i#j#k#l#m#n.H#o#p#q#r.9.9QtQt"};
