/* XPM */
static const char *no_xpm[] = {
"16 16 7 1",
" 	c None",
".	c #ffefef",
"X	c #ffc6b5",
"o	c #ff5a31",
"O	c #ff7b5a",
"+	c #ff3100",
"@	c #ff9c84",
"            ... ",
".XX.       XoO. ",
".OoO.     .O+O  ",
"..O+oX   .@+oX  ",
"  XO++@..@ooX.  ",
"   .O++OOo+@.   ",
"   ..O++++o.    ",
"     @++++@     ",
"   .@o++++o.    ",
"  .@+++O@o+O.   ",
"  X++o@. Xo+@.  ",
" .O+oX    Xo+@. ",
" .OoX      Xo+X ",
"  XX        X@. ",
"                ",
"                "};
