/* XPM */
static const char * open_bmp_dialog_xpm[] = {
"17 17 2 1",
" 	c None",
"!	c black",
"                !",
" !!   !!  !  ! ! ",
"!  ! !  ! !! ! ! ",
"!    !  ! ! !! !!",
"!    !  ! !  ! ! ",
"!  ! !  ! !  ! ! ",
" !!   !!  !  ! ! ",
"                 ",
"                 ",
"  !  !   !  !!   ",
"  !  !! !! !  !  ",
"  !  ! ! ! !     ",
"  !  !   ! !     ",
"  !  !   ! ! !!  ",
"  !  !   ! !  !  ",
"  !  !   !  !!   ",
"                 "};
