/* XPM */
static const char *options_xpm[] = {
/* columns rows colors chars-per-pixel */
"16 16 73 1 ",
"  c #323232",
". c gray20",
"X c #393939",
"o c #3A3A3A",
"O c gray25",
"+ c gray26",
"@ c #444444",
"# c gray31",
"$ c #505050",
"% c gray35",
"& c #5A5A5A",
"* c #5B5B5B",
"= c #626262",
"- c gray39",
"; c #656565",
": c gray40",
"> c #6C6C6C",
", c #6D6D6D",
"< c gray43",
"1 c #6F6F6F",
"2 c gray44",
"3 c gray45",
"4 c gray46",
"5 c #767676",
"6 c gray47",
"7 c #797979",
"8 c gray48",
"9 c #7C7C7C",
"0 c #7E7E7E",
"q c #808080",
"w c #818181",
"e c #838383",
"r c #848484",
"t c #868686",
"y c gray53",
"u c #898989",
"i c #8B8B8B",
"p c gray55",
"a c #8D8D8D",
"s c #8E8E8E",
"d c gray56",
"f c #909090",
"g c gray57",
"h c #929292",
"j c #959595",
"k c #989898",
"l c #9B9B9B",
"z c gray61",
"x c #9D9D9D",
"c c #9F9F9F",
"v c #A2A2A2",
"b c #A4A4A4",
"n c #A5A5A5",
"m c #A7A7A7",
"M c gray66",
"N c gray67",
"B c gray68",
"V c #AEAEAE",
"C c #AFAFAF",
"Z c #B1B1B1",
"A c gray70",
"S c #B4B4B4",
"D c gray71",
"F c #B9B9B9",
"G c gray73",
"H c #BBBBBB",
"J c #BCBCBC",
"K c gray74",
"L c gray",
"P c gray75",
"I c #C5C5C5",
"U c gray78",
"Y c None",
/* pixels */
"YYYYYYYY*vbYYYYY",
"YYYYsff8tbNVYYYY",
"YYY.3fjzbNZDYYYY",
"YY..3ff83tbJIHJY",
"YYq:sfY%=18zIIJY",
"Y+fssYYYY18tVIHY",
".#ssfYYYYY39tJHY",
".X%ssYYYYYY22DZY",
"Y..9sYYYYYY::VVb",
"Y.o8sYYYYYY%1bbb",
"Y.1sfsYYYYY$szul",
"Y.@sfssYYY$qlfYY",
"Y..%%=sssufssYYY",
"YYYY..1sfu8sfsYY",
"YYYY..2ss+.=YYYY",
"YYYYY..@YYYYYYYY"
};
