/* XPM */
static const char * paintbrush2x_xpm[] = {
"17 17 43 1",
" 	c None",
"!	c black",
"#	c #0B0900",
"$	c #F8F6E9",
"%	c #FFFFF4",
"&	c #030100",
"'	c #030000",
"(	c #FFFDFA",
")	c #FFFDFC",
"*	c #010000",
"+	c #FFFDFF",
",	c #060501",
"-	c #FEF9FD",
".	c #FDF8FC",
"0	c #050200",
"1	c #080800",
"2	c #FFFFFB",
"3	c #F9F5F6",
"4	c #080403",
"5	c #FFFFFD",
"6	c #FFFEFD",
"7	c #F4F3F1",
"8	c #090502",
"9	c #010002",
":	c #FFFEFF",
";	c #050100",
"<	c #08050C",
"=	c #FCF9FF",
">	c #07050A",
"?	c #000100",
"@	c #050500",
"A	c #FEFCFF",
"B	c #030300",
"C	c #090601",
"D	c #FFFEFC",
"E	c #010004",
"F	c #040300",
"G	c #040000",
"H	c #020003",
"I	c #010100",
"J	c #FFFFFA",
"K	c #020100",
"L	c #020200",
"                 ",
"        #$%&     ",
"        '()'     ",
"       *++'      ",
"       ,-.0      ",
"      1234       ",
"      *56'       ",
"     *578        ",
"     9:5'        ",
"    ;<9*         ",
"   ;%=>*         ",
"  *5:5?@  !!     ",
"  *:A?*B !  !    ",
" CD:EF@  !  !!  !",
" G:9HI     !  !! ",
"'JKK*     !   !! ",
"''L      !!!!!  !"};
