/* XPM */
static const char *personflow_xpm[] = {
/* columns rows colors chars-per-pixel */
"16 16 3 1 ",
"  c None",
". c red",
"X c #FF6A00",
/* pixels */
"      ....      ",
"      ....      ",
"      ....      ",
"      ....      ",
"                ",
"    ........    ",
"    ........    ",
"    ........    ",
"    ........    ",
"    X......X    ",
"    ........    ",
"     ......     ",
"     ......     ",
"     ..  ..     ",
"     ..  ..     ",
"     ..  ..     "
};
