/* XPM */
static const char *play_xpm[]={
"15 16 29 1",
"# c #000000",
"v c #5fa400",
"u c #64ac00",
"z c #65ae00",
"r c #68b400",
"x c #6ab600",
"A c #6bb800",
"q c #6ebe00",
"t c #6fc000",
"n c #73c600",
"p c #74c800",
"w c #75ca00",
"m c #79d000",
"o c #7ad200",
"l c #7fda00",
"y c #80dc00",
"i c #83e200",
"s c #84e400",
"h c #89ec00",
"k c #8aee00",
"g c #8ef400",
"j c #8ff600",
"f c #94ff00",
"d c #97ff07",
"e c #98ff09",
"c c #9bff11",
"b c #9fff1b",
"a c #a3ff23",
". c None",
"..##...........",
"..#a##.........",
"..#bcd#........",
"..#cefg#.......",
"..#efghi##.....",
"..#fjkilmn#....",
"..#jkilopqr#...",
"..#ksloptruv##.",
"..#slowtxuv#...",
"..#yoptxzv#....",
"..#owtxz##.....",
"..#wtxz#.......",
"..#tAz#........",
"..#A##.........",
"..##...........",
"..............."};
