/* XPM */
static const char *prohibition_xpm[] = {
/* columns rows colors chars-per-pixel */
"16 16 256 2 ",
"   c black",
".  c #231F20",
"X  c #331F20",
"o  c #5F1E21",
"O  c #413D3E",
"+  c #533C3E",
"@  c #4E4B4B",
"#  c #4E4B4C",
"$  c #524A4B",
"%  c #5D5A5B",
"&  c #5E5B5C",
"*  c #744A4D",
"=  c #6C696A",
"-  c #A11F25",
";  c #BC1C23",
":  c #876264",
">  c #D21C24",
",  c #D61B23",
"<  c #D2353B",
"1  c #E31B24",
"2  c #EB1B24",
"3  c #EC1B24",
"4  c #ED1C25",
"5  c #ED1D26",
"6  c #EC1E27",
"7  c #EC242C",
"8  c #EE2831",
"9  c #EE2932",
"0  c #EF363E",
"q  c #EE3B42",
"w  c #EF3B43",
"e  c #EF3C43",
"r  c #EF3C44",
"t  c #EF4148",
"y  c #EF434A",
"u  c #F0484F",
"i  c #F04B52",
"p  c #F04C52",
"a  c #F04D54",
"s  c #F04F56",
"d  c #F15057",
"f  c #F05158",
"g  c #F1555B",
"h  c #F2666C",
"j  c #F2676D",
"k  c #F2686D",
"l  c #F36C72",
"z  c #F36E74",
"x  c #F37076",
"c  c #F47176",
"v  c #F37479",
"b  c #F3747A",
"n  c #F3767C",
"m  c #F4747A",
"M  c #F4777C",
"N  c #8A8888",
"B  c #969495",
"V  c #AE8789",
"C  c #B6B5B5",
"Z  c #D5B8B9",
"A  c #E28488",
"S  c #F69095",
"D  c #F69599",
"F  c #F6989C",
"G  c #F8B8BA",
"H  c #DBC2C3",
"J  c #E0DFDF",
"K  c #FBDBDC",
"L  c #FCDFE0",
"P  c #EEEEEE",
"I  c #EFEFEF",
"U  c #F0EBEC",
"Y  c #FCE1E2",
"T  c #FCE4E5",
"R  c #FCE5E6",
"E  c #FDEAEB",
"W  c #FDEEEE",
"Q  c #FEF7F7",
"!  c #FEF7F8",
"~  c #F9F9F9",
"^  c gray100",
"/  c black",
"(  c black",
")  c black",
"_  c black",
"`  c black",
"'  c black",
"]  c black",
"[  c black",
"{  c black",
"}  c black",
"|  c black",
" . c black",
".. c black",
"X. c black",
"o. c black",
"O. c black",
"+. c black",
"@. c black",
"#. c black",
"$. c black",
"%. c black",
"&. c black",
"*. c black",
"=. c black",
"-. c black",
";. c black",
":. c black",
">. c black",
",. c black",
"<. c black",
"1. c black",
"2. c black",
"3. c black",
"4. c black",
"5. c black",
"6. c black",
"7. c black",
"8. c black",
"9. c black",
"0. c black",
"q. c black",
"w. c black",
"e. c black",
"r. c black",
"t. c black",
"y. c black",
"u. c black",
"i. c black",
"p. c black",
"a. c black",
"s. c black",
"d. c black",
"f. c black",
"g. c black",
"h. c black",
"j. c black",
"k. c black",
"l. c black",
"z. c black",
"x. c black",
"c. c black",
"v. c black",
"b. c black",
"n. c black",
"m. c black",
"M. c black",
"N. c black",
"B. c black",
"V. c black",
"C. c black",
"Z. c black",
"A. c black",
"S. c black",
"D. c black",
"F. c black",
"G. c black",
"H. c black",
"J. c black",
"K. c black",
"L. c black",
"P. c black",
"I. c black",
"U. c black",
"Y. c black",
"T. c black",
"R. c black",
"E. c black",
"W. c black",
"Q. c black",
"!. c black",
"~. c black",
"^. c black",
"/. c black",
"(. c black",
"). c black",
"_. c black",
"`. c black",
"'. c black",
"]. c black",
"[. c black",
"{. c black",
"}. c black",
"|. c black",
" X c black",
".X c black",
"XX c black",
"oX c black",
"OX c black",
"+X c black",
"@X c black",
"#X c black",
"$X c black",
"%X c black",
"&X c black",
"*X c black",
"=X c black",
"-X c black",
";X c black",
":X c black",
">X c black",
",X c black",
"<X c black",
"1X c black",
"2X c black",
"3X c black",
"4X c black",
"5X c black",
"6X c black",
"7X c black",
"8X c black",
"9X c black",
"0X c black",
"qX c black",
"wX c black",
"eX c black",
"rX c black",
"tX c black",
"yX c black",
"uX c black",
"iX c black",
"pX c black",
"aX c black",
"sX c black",
"dX c black",
"fX c black",
"gX c black",
"hX c black",
"jX c black",
"kX c black",
"lX c black",
"zX c black",
"xX c black",
"cX c black",
"vX c black",
"bX c black",
"nX c black",
"mX c black",
"MX c black",
"NX c black",
"BX c black",
"VX c black",
"CX c black",
"ZX c black",
"AX c black",
"SX c black",
"DX c black",
"FX c black",
"GX c black",
"HX c black",
"JX c black",
"KX c black",
"LX c black",
"PX c black",
"IX c black",
"UX c None",
/* pixels */
"UXUXUXUXUXn e 6 6 e M UXUXUXUXUX",
"UXUXUXv 3 6 d m m d 6 3 b UXUXUX",
"UXUXf 3 z R ^ ^ ^ ^ R g 3 f UXUX",
"UXv 3 F ^ ^ ^ ^ ^ ^ K 9 y 3 v UX",
"UX3 l ^ ^ ^ ^ ^ ^ W w i Q l 3 UX",
"n 6 T ^ ^ I = @ $ < , + % H 5 n ",
"e a ^ ^ ^ B . O - 7 * # & J a e ",
"6 x ^ ^ ^ N . A 5 G ^ ^ ^ ^ c 6 ",
"6 x ^ ^ ^ N o 2 D ^ ^ ^ ^ ^ x 6 ",
"e p ^ ^ ^ V 1 x ^ ^ ^ ^ ^ ^ i r ",
"n 5 Y ^ E 0 ; U ^ ^ ^ ^ ^ Y 5 n ",
"UX3 k ! a > X P ^ ^ ^ ^ ^ j 3 UX",
"UXb 3 t 8 : . P ^ ^ ^ ^ S 3 b UX",
"UXUXf 3 s Z C ~ ^ ^ L h 3 f UXUX",
"UXUXUXv 3 4 u l l u 4 3 v UXUXUX",
"UXUXUXUXUXn q 6 6 r n UXUXUXUXUX"
};
