/* XPM */
static const char * rarify_xpm[] = {
"16 13 2 1",
" 	c None",
"!	c black",
"              ! ",
"                ",
"                ",
"! !!  !! ! !!!!!",
" ! !    ! ! ! ! ",
" !    !!! !   ! ",
" !   !  ! !   ! ",
" !   !  ! !   ! ",
" !!   !!! !!  ! ",
"                ",
"                ",
"                ",
"                "};
