/* XPM */
static const char * redo_xpm[] = {
"16 16 66 1",
" 	c None",
".	c None",
"+	c #000000",
"@	c #BADA9C",
"#	c #79B463",
"$	c #C0DEA1",
"%	c #F0F7EC",
"&	c #8ABC6D",
"*	c #D8EBC3",
"=	c #DEEECB",
"-	c #DFEED0",
";	c #DCEDCF",
">	c #DBEBCE",
",	c #EAF3E2",
"'	c #97C677",
")	c #D3E8BA",
"!	c #D4E9BD",
"~	c #CCE5B3",
"{	c #C4E0AA",
"]	c #BDDCA3",
"^	c #DAEBCD",
"/	c #93C46A",
"(	c #C8E2AB",
"_	c #DBECC7",
":	c #DAECC7",
"<	c #ACD672",
"[	c #9CCE5B",
"}	c #90C84C",
"|	c #89C349",
"1	c #81BE46",
"2	c #81BD45",
"3	c #589F43",
"4	c #C8E3A8",
"5	c #D0E7B5",
"6	c #CBE5AA",
"7	c #B9DD8B",
"8	c #A4D554",
"9	c #A0D253",
"0	c #9BCE50",
"a	c #92C94D",
"b	c #8BC54A",
"c	c #44913E",
"d	c #B4D793",
"e	c #BDDE98",
"f	c #AAD572",
"g	c #9ED054",
"h	c #A3D453",
"i	c #82BE4A",
"j	c #91C84C",
"k	c #338438",
"l	c #A2CE74",
"m	c #90C74E",
"n	c #9ACF50",
"o	c #A2D453",
"p	c #7CBA49",
"q	c #60A63F",
"r	c #237733",
"s	c #84C047",
"t	c #8FC74B",
"u	c #99CE50",
"v	c #62A740",
"w	c #80BD45",
"x	c #8AC449",
"y	c #6AAF3C",
"z	c #70B33F",
"A	c #6EB23E",
"................",
"................",
"..........++....",
".........+@#+...",
"......++++$%&+..",
".....+**=-;>,'+.",
"...++)***!~{]^/+",
"..+(_:**<[}|123+",
".+456788890abc+.",
"+defgh8+++ijk+..",
"+lmnop+..+qr+...",
"+stuv+....++....",
"+wxt+...........",
"+yzA+...........",
".+++............",
"................"};
