/* XPM */
static const char *reload_xpm[]={
"15 16 5 1",
"# c #000000",
"c c #bf7e00",
". c None",
"b c #efc001",
"a c #fff665",
".........##....",
"......####a#...",
"....##aaaabb#..",
"...#aabbbbbb#..",
"..#abbb##bbbb#.",
".#abb###ccccbb#",
".#ab#...####cc#",
"#abb#......####",
".###.......#bb#",
"#aaa##.....#bc#",
"#bbbaa##..#abc#",
".#bbbba#..#ac#.",
".#bbbb####abc#.",
".#bb#baaaabc#..",
".###.#ccccc#...",
".....######...."};
