/* XPM */
static const char * removedb_xpm[] = {
"16 16 22 1",
" 	c None",
".	c Black",
"o	c #939393",
"O	c Gray",
"+	c #3f3f3f",
"@	c #9e9d9d",
"#	c #bdbdbc",
"$	c #5e5e5f",
"%	c #9d9e9e",
"&	c Gray74",
"*	c #dddddd",
"=	c #5f5e5e",
"-	c #dcdddc",
";	c #9e9d9e",
":	c #9d9d9d",
">	c #dcdddd",
",	c #7e7e7d",
"<	c Red",
"1	c #dddcdc",
"2	c #9d9e9d",
"3	c Gray37",
"4	c #9d9d9e",
"    ....        ",
"  ..oooo..      ",
" .oooooooo.     ",
".oooooooooo.    ",
"..oooooooo..    ",
".O..oooo..+.    ",
".O@#....O$+.    ",
"..%&**&%O=..    ",
".O..--&;..+.    ",
".O@&....O...  ..",
"..:&>>&:,.<. .<.",
".O..11&2...<.<. ",
".O%&....O3+.<.  ",
" .;&--&;O$.<.<. ",
"  ..**&4..<. .<.",
"    .... ..   .."};
