/* XPM */
static const char *reset_xpm[] = {
/* columns rows colors chars-per-pixel */
"16 16 13 1 ",
"  c #3DB29D",
". c #3DB39D",
"X c #3CB29E",
"o c #3CB39E",
"O c #3DB39E",
"+ c #3DB29F",
"@ c #3CB39F",
"# c #3DB39F",
"$ c #3EB39E",
"% c #3DB49D",
"& c #3DB49E",
"* c #3DB49F",
"= c None",
/* pixels */
"================",
"====oo$$$#======",
"===$$$$$$$$o====",
"==$$$====oo$o===",
"=$$o=======$o===",
"=$$========ooo==",
"$$o=========o$==",
"$o==========$o==",
"o$=========$o$o$",
"$o$========o$oo=",
"=oo=========o$==",
"=$$$============",
"==*oo====o$$====",
"===$$o$oo$oo====",
"====o$$o$$======",
"================"
};
