/* XPM */
static const char *ridefromto_xpm[] = {
/* columns rows colors chars-per-pixel */
"16 16 9 1 ",
"  c blue",
". c black",
"X c #007F46",
"o c #0A7F4A",
"O c red",
"+ c #FFD800",
"@ c #0026FF",
"# c cyan",
"$ c white",
/* pixels */
"                ",
" XXXX           ",
" X##X  .......  ",
"X+XX+X .$.$.$.  ",
"XXXXoX .......  ",
".    . .$. .$.  ",
".......... ...  ",
"..O.$.$.$. .$.  ",
".......... ...  ",
"           .$.  ",
"           ...  ",
"  @        .$.  ",
"..@@..........  ",
"@@@@@.O.$.$.$.  ",
"..@@..........  ",
"  @             "
};
