/* XPM */
static const char *routeflow_xpm[] = {
/* columns rows colors chars-per-pixel */
"16 16 6 1 ",
"  c black",
". c #FF7272",
"X c #FFD800",
"o c cyan",
"O c #808080",
"+ c None",
/* pixels */
"++++++++++++++++",
"+++..........+++",
"++.oooooooooo.++",
"++.oo oooo oo.++",
"+..o   oo   o..+",
"+..............+",
"................",
".XX..........XX.",
".XX.OOOOOOOO.XX.",
"................",
"....OOOOOOOO....",
"................",
"+  ++++++++++  +",
"+  ++++++++++  +",
"++++++++++++++++",
"++++++++++++++++"
};
