/* XPM */
static const char *routeprobe_xpm[] = {
/* columns rows colors chars-per-pixel */
"16 16 256 2 ",
"   c #504400",
".  c #605100",
"X  c #685800",
"o  c #6C5B00",
"O  c #705E00",
"+  c #746200",
"@  c #786500",
"#  c #20789F",
"$  c #24799B",
"%  c #648A5C",
"&  c #7C9044",
"*  c #0094FF",
"=  c #249EDB",
"-  c #40A5BF",
";  c #64AF9B",
":  c #68B097",
">  c #70B28F",
",  c #78B487",
"<  c #7CB583",
"1  c #806C00",
"2  c #836F00",
"3  c #877300",
"4  c #8B7600",
"5  c #8F7A00",
"6  c #937D00",
"7  c #978000",
"8  c #9B8400",
"9  c #9F8700",
"0  c #A38A00",
"q  c #A78E00",
"w  c #AB9100",
"e  c #A39B1C",
"r  c #B39800",
"t  c #B79B00",
"y  c #BFA200",
"u  c #83B77C",
"i  c #9FBE60",
"p  c #AF9D40",
"a  c #B3A140",
"s  c #A3C05C",
"d  c #A7C158",
"f  c #B3C44C",
"g  c #C7A900",
"h  c #CBAC00",
"j  c #CFB000",
"k  c #D3B300",
"l  c #D7B600",
"z  c #DFBD00",
"x  c #C3C83C",
"c  c #CFCB30",
"v  c #D3CC2C",
"b  c #E3C000",
"n  c #E7C400",
"m  c #EBC700",
"M  c #EFCA00",
"N  c #E7D218",
"B  c #EBD314",
"V  c #F3CE00",
"C  c #F3D50C",
"Z  c #F7D608",
"A  c #FFD800",
"S  c #80B680",
"D  c black",
"F  c black",
"G  c black",
"H  c black",
"J  c black",
"K  c black",
"L  c black",
"P  c black",
"I  c black",
"U  c black",
"Y  c black",
"T  c black",
"R  c black",
"E  c black",
"W  c black",
"Q  c black",
"!  c black",
"~  c black",
"^  c black",
"/  c black",
"(  c black",
")  c black",
"_  c black",
"`  c black",
"'  c black",
"]  c black",
"[  c black",
"{  c black",
"}  c black",
"|  c black",
" . c black",
".. c black",
"X. c black",
"o. c black",
"O. c black",
"+. c black",
"@. c black",
"#. c black",
"$. c black",
"%. c black",
"&. c black",
"*. c black",
"=. c black",
"-. c black",
";. c black",
":. c black",
">. c black",
",. c black",
"<. c black",
"1. c black",
"2. c black",
"3. c black",
"4. c black",
"5. c black",
"6. c black",
"7. c black",
"8. c black",
"9. c black",
"0. c black",
"q. c black",
"w. c black",
"e. c black",
"r. c black",
"t. c black",
"y. c black",
"u. c black",
"i. c black",
"p. c black",
"a. c black",
"s. c black",
"d. c black",
"f. c black",
"g. c black",
"h. c black",
"j. c black",
"k. c black",
"l. c black",
"z. c black",
"x. c black",
"c. c black",
"v. c black",
"b. c black",
"n. c black",
"m. c black",
"M. c black",
"N. c black",
"B. c black",
"V. c black",
"C. c black",
"Z. c black",
"A. c black",
"S. c black",
"D. c black",
"F. c black",
"G. c black",
"H. c black",
"J. c black",
"K. c black",
"L. c black",
"P. c black",
"I. c black",
"U. c black",
"Y. c black",
"T. c black",
"R. c black",
"E. c black",
"W. c black",
"Q. c black",
"!. c black",
"~. c black",
"^. c black",
"/. c black",
"(. c black",
"). c black",
"_. c black",
"`. c black",
"'. c black",
"]. c black",
"[. c black",
"{. c black",
"}. c black",
"|. c black",
" X c black",
".X c black",
"XX c black",
"oX c black",
"OX c black",
"+X c black",
"@X c black",
"#X c black",
"$X c black",
"%X c black",
"&X c black",
"*X c black",
"=X c black",
"-X c black",
";X c black",
":X c black",
">X c black",
",X c black",
"<X c black",
"1X c black",
"2X c black",
"3X c black",
"4X c black",
"5X c black",
"6X c black",
"7X c black",
"8X c black",
"9X c black",
"0X c black",
"qX c black",
"wX c black",
"eX c black",
"rX c black",
"tX c black",
"yX c black",
"uX c black",
"iX c black",
"pX c black",
"aX c black",
"sX c black",
"dX c black",
"fX c black",
"gX c black",
"hX c black",
"jX c black",
"kX c black",
"lX c black",
"zX c black",
"xX c black",
"cX c black",
"vX c black",
"bX c black",
"nX c black",
"mX c black",
"MX c black",
"NX c black",
"BX c black",
"VX c black",
"CX c black",
"ZX c black",
"AX c black",
"SX c black",
"DX c black",
"FX c black",
"GX c black",
"HX c black",
"JX c black",
"KX c black",
"LX c black",
"PX c black",
"IX c black",
"UX c None",
/* pixels */
"p y y y y y y y y y y y y y y p ",
"w y k A V y h A A A A A A A A y ",
". 5 3 0 y @ 8 4 A A A A A A A y ",
". q 0 0 y 9 b O A A A A A A A y ",
". @   M y   1 m A A A A A A A y ",
". y g 4 y 9 A A A A A A A A A y ",
"5 z A w z j A A A A A A A A A y ",
"y A A A A A A A A A A A A A A y ",
"y A A N i A A A A A A A A A A y ",
"y x u B d v < A A A A A n 4 A y ",
"y A c S u f C A A A A n 7 9 A y ",
"% , ; * - > s < A 7 3 X X 3   q ",
"y A - * * = A A l 6 . o 2 8 n y ",
"y A - * * * A A A A + t k m z r ",
"y A : - - - Z A A A l A 9 4 q 4 ",
"a e & $ # # & y y y y y y y y p "
};
