/* XPM */
static const char * rubber3x_xpm[] = {
"17 17 2 1",
" 	c None",
"!	c black",
"        !!!!!!!  ",
"       !     !!  ",
"      !     ! !  ",
"     !     !  !  ",
"    !     !   !  ",
"   !     !   !   ",
"  !     !   !    ",
" !     !   !     ",
"!     !   !      ",
"!!!!!!   !       ",
"!    !  ! !!     ",
"!    ! ! !  !    ",
"!!!!!!!  !  !    ",
"           ! !  !",
"            ! !! ",
"         !  ! !! ",
"          !! !  !"};
