/* XPM */
static const char *shapeopen_xpm[] = {
"16 15 7 1",
" 	c None",
".	c #040404",
"X	c #f3f704",
"o	c #f3f7f3",
"O	c Black",
"+	c #ff0000",
"@	c #808304",
"         ...    ",
"        .   . . ",
"             .. ",
" ...        ... ",
".XoX.......     ",
".oXoXoXoXo.     ",
".XoXoXoXoX.     ",
".oXoXo@OOOOOOO  ",
".XoXo@OO+++++OO ",
".oX.@OO+++++++OO",
".X.@@O+++++++++O",
"..@@@O+++++++++O",
".....OO+++++++OO",
"      OO+++++OO ",
"       OOOOOOO  "};
