/* XPM */
static const char * skeletonize_xpm[] = {
"17 17 4 1",
" 	c None",
"!	c black",
"#	c #808080",
"$	c #9F9F9F",
"       ###       ",
"      #!!!#      ",
"      #!!!#      ",
"       $!$       ",
"       $$$       ",
"        !        ",
"      !! !!      ",
"    !!     !     ",
"   !   !!! $!!   ",
"  !  $     $  !  ",
"      !!!!!   !  ",
"   !  $   $   !  ",
"   !   !!!       ",
"     !! ! !!     ",
"      !!!!!      ",
"    !       !    ",
"   !         !   "};
