/* XPM */
static const char *step_xpm[]={
"15 16 41 1",
". c #000000",
"B c #3e9000",
"F c #3f9200",
"A c #429800",
"E c #429a00",
"J c #439c00",
"v c #46a200",
"z c #47a400",
"u c #4aac00",
"H c #4bae00",
"q c #4eb400",
"D c #4fb600",
"M c #4fb800",
"p c #52be00",
"y c #53c000",
"n c #55c600",
"t c #56c800",
"L c #57ca00",
"m c #5ad000",
"s c #5bd200",
"K c #5bd400",
"k c #5eda00",
"G c #5fdc00",
"j c #61e200",
"C c #62e400",
"I c #63e600",
"g c #66ec00",
"x c #67ee00",
"f c #69f400",
"r c #6af600",
"w c #6bf800",
"d c #6eff00",
"l c #73ff09",
"i c #78ff11",
"o c #79ff13",
"e c #7dff1b",
"c c #82ff23",
"h c #83ff25",
"b c #88ff2d",
"a c #8dff37",
"# c None",
".....#..#######",
".abc.#.d.######",
".bce.#.fg.#####",
".hei.#.gjk.####",
".eil.#.jkmn.###",
".old.#.kmnpq.##",
".ldr.#.stpquv.#",
".dwx.#.tyquzAB.",
".wxC.#.yDuzEF.#",
".xCG.#.DHzEF.##",
".IGs.#.HzJF.###",
".GKL.#.zEF.####",
".KLy.#.JF.#####",
".LyM.#.F.######",
".....#..#######",
"###############"};
