/* XPM */
static const char * stop_xpm[] = {
"15 16 66 1",
" 	c Black",
".	c #ffbeab",
"X	c #ffb59f",
"o	c #ffac93",
"O	c #ffa489",
"+	c #ff9a7b",
"@	c #ff9271",
"#	c #ff8965",
"$	c #ff815b",
"%	c #ff784f",
"&	c #ff6e43",
"*	c #ff6537",
"=	c #ff5c2b",
"-	c #ff5421",
";	c #ff9b7d",
":	c #ff7045",
">	c #ff5e2d",
",	c #ff4b15",
"<	c #ffae95",
"1	c #ff9373",
"2	c #ff8a67",
"3	c #ff6739",
"4	c #ff430b",
"5	c #ff3b00",
"6	c #ff9d7f",
"7	c #ff825d",
"8	c #ff7951",
"9	c #ff4d17",
"0	c #f43800",
"q	c #ff5f2f",
"w	c #ff5623",
"e	c #e83600",
"r	c #ff8c69",
"t	c #ff845f",
"y	c #ff7247",
"u	c #ff4e19",
"i	c #f63900",
"p	c #de3300",
"a	c #ff5725",
"s	c #ff450d",
"d	c #ea3600",
"f	c #e03400",
"g	c #d43100",
"h	c #ff7b53",
"j	c #ff683b",
"k	c #ff6131",
"l	c #ff3d03",
"z	c #d23100",
"x	c #c82e00",
"c	c #ff7349",
"v	c #ff501b",
"b	c #ec3700",
"n	c #ca2f00",
"m	c #bc2b00",
"M	c #ff6a3d",
"N	c #ff6233",
"B	c #be2c00",
"V	c #b22900",
"C	c #ff470f",
"Z	c #a62600",
"A	c #ff3f05",
"S	c #d63200",
"D	c #b42a00",
"F	c #a82700",
"G	c #9c2400",
"H	c None",
"               ",
" .XoO+@#$%&*=- ",
" XoO;@#$%:*>-, ",
" <O;12$%&3>-,4 ",
" O;12$%:3>-,45 ",
" 61278:3>-9450 ",
" 1278:3qw9450e ",
" rt8y3qwu45iep ",
" t8y3qaus5idfg ",
" hyjkwuslidfzx ",
" cjkavslibfgnm ",
" MNavslidfgnBV ",
" NavClibfgnBVZ ",
" avCAibfSnBDFG ",
"               ",
"HHHHHHHHHHHHHHH"};
