/* XPM */
static const char * sumo_logo_xpm[] = {
/* columns rows colors chars-per-pixel */
"128 138 50 1 ",
"  c #000000",
". c #0C0C0C",
"X c #131313",
"o c #1C1C1C",
"O c #232323",
"+ c #2C2C2C",
"@ c #333333",
"# c #3B3B3B",
"$ c #444444",
"% c #4A4A4A",
"& c #535353",
"* c #5B5B5B",
"= c #636363",
"- c #6B6B6B",
"; c #747474",
": c #7C7C7C",
"> c #338033",
", c #3B843B",
"< c #418641",
"1 c #468846",
"2 c #4B8B4B",
"3 c #528E52",
"4 c #569056",
"5 c #5C935C",
"6 c #649664",
"7 c #679867",
"8 c #6C9A6C",
"9 c #749D74",
"0 c #789F78",
"q c #7CA17C",
"w c #848484",
"e c #8B8B8B",
"r c #949494",
"t c #9B9B9B",
"y c #83A483",
"u c #88A788",
"i c #8DA98D",
"p c #94AC94",
"a c #9AAF9A",
"s c #9DB09D",
"d c #A3A3A3",
"f c #ABABAB",
"g c #A4B3A4",
"h c #AAB6AA",
"j c #AEB8AE",
"k c #B4B4B4",
"l c #B3BAB3",
"z c #BCBDBC",
"x c #BFC0BF",
"c c None",
/* pixels */
"cccccccccccccccccccccccccccccccccccccccccccccccccccccccccccccccccccccccccccccccccccccccccccccccccccccccccccccccccccccccccccccccc",
"cccccccccccccccccccccccccccccccccccccccccccccccccccccccccccccccccccccccccccccccccccccccccccccccccccccccccccccccccccccccccccccccc",
"cccccccccccccccccccccccccccccccccccccccccccccccccccccccccccccccccccccccccccccccccccccccccccccccccccccccccccccccccccccccccccccccc",
"ccccccccccccccccccccccccccccccccccccccccccccccccccccccccccccccccccccccccccccccccccccccccjyajxccccccccccccccccccccccccccccccccccc",
"ccccccccccccccccccccccccccccccccccccccccccccccccccccccccccccccccccccccccccccccccccccccca,>>>,26yljxccccccccccccccccccccccccccccc",
"cccccccccccccccccccccccccccccccccccccccccccccccccccccccccccccccccccccccccccccccccccccxq>>>>>>><a1>>15qujcccccccccccccccccccccccc",
"ccccccccccccccccccccccccccccccccccccccccccccccccccccccccccccccccccccccccccccccccccccz5>>>>>>>2s<>>>>>>1jcccccccccccccccccccccccc",
"ccccccccccccccccccccccccccccccccccccccccccccccccccccccccccccccccccccccccccccccccccch2>>>>>>>4s,>>>>>>1jccccccccccccccccccccccccc",
"cccccccccccccccccccccccccccccccccccccccccccccccccccccccccccccccccccccccccccccccccca,>>>>>>>6a,>>>>>><jcccccccccccccccccccccccccc",
"ccccccccccccccccccccccccccccccccccccccccccccccccccccccccccccccccccccccccccccccccz0>>>>>>>>8a>>>>>>><jccccccccccccccccccccccccccc",
"cccccccccccccccccccccccccccccccccccccccccccccccccccccccccccccccccccccccccccccccl5>>>>>>>>yi>>>>>>><hcccccccccccccccccccccccccccc",
"ccccccccccccccccccccccccccccccccccccccccccccccccccccccccccccccccccccccccccccccg2>>>>>>>>ay>>>>>>>,gccccccccccccccccccccccccccccc",
"ccccccccccccccccccccccccccccccccccccccccccccccccccccccccccccccccccccccccccccci,>>>>>>>,g0>>>>>>>,gcccccccccccccccccccccccccccccc",
"cccccccccccccccccccccccccccccccccccccccccccccccccccccccccccccccccccccccccccx9>>>>>>>><h8>>>>>>>,gccccccccccccccccccccccccccccccc",
"ccccccccccccccccccccccccccccccccccccccccccccccccccccxcccccccccccccccccccccl4>>>>>>>>2j7>>>>>>>,scccccccccccccccccccccccccccccccc",
"ccccccccccccccccccccccccccccccccccccccccccccccccccz8>4qszccccccccccccccccg<>>>>>>>>5j6>>>>>>>,sccccccccccccccccccccccccccccccccc",
"cccccccccccccccccccccccccccccccccccccccccccccccccp,>>>>>,5qgxcccccccccccu,>>>>>>>>6l5>>>>>>>,scccccccccccccccccccccccccccccccccc",
"cccccccccccccccccccccccccccccccccccccccccccccccj5>>>>>>>>>>>,5yhxccccccchu7<>>>>>0l3>>>>>>>>accccccccccccccccccccccccccccccccccc",
"cccccccccccccccccccccccccccccccccccccccccccccxy,>>>>>>>>>>>>>>>><6ujccccccccju81uj1>>>>>>>>acccccccccccccccccccccccccccccccccccc",
"ccccccccccccccccccccccccccccccccccccccccccccg2>>>>>>>>>>>>>>>>>>>>>>18pjcccccccccs82>>>>>>pccccccccccccccccccccccccccccccccccccc",
"ccccccccccccccccccccccccccccccccccccccccccz9>>>>>>>>>>>>>>>>>>>>>>>>>>>>29plcccccccclp82>icccccccccccccccccccccccccccccccccccccc",
"cccccccccccccccccccccccccccccccccccccccccx5>>>>>>>>>>>>>>>>>>>>>>>>>>>>>>>>>20azccccccccxccccccccccccccccccccccccccccccccccccccc",
"cccccccccccccccccccccccccccccccccccccccl0pzjy4>>>>>>>>>>>>>>>>>>>>>>>>>>>>>>>>>>4qszcccccccccccccccccccccccccccccccccccccccccccc",
"cccccccccccccccccccccccccccccccccccccxy,>>,6axlu5,>>>>>>>>>>>>>>>>>>>>>>>>>>>>>>>>>,5ygxcccccccccccccccccccccccccccccccccccccccc",
"ccccccccccccccccccccccccccccccccccccg4>>>>>>>,7azza6,>>>>>>>>>>>>>>>>>>>>>>>>>>>>>>>>>>,5yjccccccccccccccccccccccccccccccccccccc",
"ccccccccccccccccccccccccccccccccccz0>>>>>>>>>>>>,8axxs8<>>>>>>>>>>>>>>>>>>>>>>>>>>>>>>>>>>><6ujccccccccccccccccccccccccccccccccc",
"ccccccccccccccccccccccccccccccccca1>>>>>>>>>>>>>>>>,8axcgq1>>>>>>>>>>>>>>>>>>>>>>>>>>>>>>>>>>>>18pjccccccccccccccccccccccccccccc",
"cccccccccccccccccccccccccccccccl8>>>>>>>>>>>>>>>>>>>>><8sxchq3>>>>>>>>>>>>>>>>>>>>>>>>>>>>>>>>>>>>>29azccccccccccccccccccccccccc",
"cccccccccccccccccccccccccccccxu,>>>>>>>>>>>>>>>>>>>>>>>>>,9sxclu5>>>>>>>>>>>>>>>>>>>>>>>>>>>>>>>>>>>>>>30azccccccccccccccccccccc",
"cccccccccccccccccccccccccccccu,>>>>>>>>>>>>>>>>>>>>>>>>>>>>><8gxczi6,>>>>>>>>>>>>>>>>>>>>>>>>>>>>>>>>>>>>>>5qgzccccccccccccccccc",
"ccccccccccccccccccccccccccccccly1>>>>>>>>>>>>>>>>>>>>>>>>>>>>>><9sxcza8,>>>>>>>>>>>>>>>>>>>>>>>>>>>>>>>>>>>>>>,5ygxccccccccccccc",
"cccccccccccccccccccccccccccccccccs8>>>>>>>>>>>>>>>>>>>>>>>>>>>>>>><9gxcxg91>>>>>>>>>>>>>>>>>>>>>>>>>>>>>>>>>>>>>>>uccccccccccccc",
"ccccccccccccccccccccccccccccccccccczy2>>>>>>>>>>>>>>>>>>>>>>>>>>>>>>>19gccchq3>>>>>>>>>>>>>>>>>>>>>>>>>>>>>>>>>>>1xccccccccccccc",
"ccccccccccccccccccccccccccccccccccccccg8,>>>>>>>>>>>>>>>>>>>>>>>>>>>>>>>10gcccjy4>>>>>>>>>>>>>>>>>>>>>>>>>>>>>>>>pcccccccccccccc",
"cccccccccccccccccccccccccccccccccccccccczy3>>>>>>>>>>>>>>>>>>>>>>>>>>>>>>>>10gccclu6,>>>>>>>>>>>>>>>>>>>>>>>>>>>3ccccccccccccccc",
"cccccccccccccccccccccccccccccccccccccccccccg8,>>>>>>>>>>>>>>>>>>>>>>>>>>>>>>>>10hccczp8,>>>>>>>>>>>>>>>>>>>>>>>>sccccccccccccccc",
"ccccccccccccccccccccccccccccccccccccccccccccczu3>>>>>>>>>>>>>>>>>>>>>>>>>>>>>>>>>1qhcccxs81>>>>>>>>>>>>>>>>>>>>5cccccccccccccccc",
"ccccccccccccccccccccccccccccccccccccccccccccccccg8,>>>>>>>>>>>>>>>>>>>>>>>>>>>>>>>>>2qhccccgq2>>>>>>>>>>>>>>>>>hcccccccccccccccc",
"ccccccccccccccccccccccccccccccccccccccccccccccccccxi3>>>>>>>>>>>>>>>>>>>>>>>>>>>>>>>>>>1qjcccchy4>>>>>>>>>>>>>8ccccccccccccccccc",
"cccccccccccccccccccccccccccccccccccccccccccu8hcccccccg9,>>>>>>>>>>>>>>>>>>>>>>>>>>>>>>>>>>3qjccccly5>>>>>>>>>,jccccccccccccccccc",
"cccccccccccccccccccccccccccccccccccccccccz8>>>5pxcccccczi4>>>>>>>>>>>>>>>>>>>>>>>>>>>>>>>>>>>2qjcccczi7,>>>>>0cccccccccccccccccc",
"ccccccccccccccccccccccccccccccccccccccccj3>>>>>>1qlccccccch9,>>>>>>>>>>>>>>>>>>>>>>>>>>>>>>>>>>>3yjccccza8<>,zcccccccccccccccccc",
"cccccccccccccccccccccccccccccccccccccccs,>>>>>>>>>>8gcccccccxp4>>>>>>>>>>>>>>>>>>>>>>>>>>>>>>>>>>>>4yjccccxssccccccccccccccccccc",
"ccccccccccccccccccccccccccccccccccccccq>>>>>>>>>>>>,scgzcccccccj9,>>>>>>>>>>>>>>>>>>>>>>>>>>>>>>>>>>>>4yjccccccccccccccccccccccc",
"ccccccccccccccccccccccccccccccccccccz6>>>>>>>>>>>><gcy>,0jccccccczp5>>>>>>>>>>>>>>>>>>>>>>>>>>>>>>>>>>>>>5uccccccccccccccccccccc",
"cccccccccccccccccccccccccccccccccccj1>>>>>>>>>>>>1jcy>>>>>5axcccccccj0<>>>>>>>>>>>>>>>>>>>>>>>>>>>>>>>>>>>8ccccccccccccccccccccc",
"cccccccccccccccccccccccccccccccccca,>>>>>>>>>>>>2lcy>>>>>>>>2yzcccccccxp5>>>>>>>>>>>>>>>>>>>>>>>>>>>>>>>>,jccccccccccccccccccccc",
"ccccccccccccccccccccccccccccccccxq>>>>>>>>>>>>>5zcq>>>>>>>>>>>,jcccccccccjq<>>>>>>>>>>>>>>>>>>>>>>>>>>>>>0cccccccccccccccccccccc",
"cccccccccccccccccccccccccccccccl5>>>>>>>>>>>>>7zcq>>>>>>>>>>>>accccccccccccza5>>>>>>>>>>>>>>>>>>>>>>>>>>,zcccccccccccccccccccccc",
"cccccccccccccccccccccccccccccch1>>>>>>>>>>>>>9xcq>>>>>>>>>>>>accccccccccccccccjq<>>>>>>>>>>>>>>>>>>>>>>>yccccccccccccccccccccccc",
"cccccccccccccccccccccccccccccp,>>>>>>>>>>>>>ycc0>>>>>>>>>>>>icccccccccccccccccccxa6>>>>>>>>>>>>>>>>>>>><zccccccccccccccccccccccc",
"cccccccccccccccccccccccccccx0>>>>>>>>>>>>>,icc0>>>>>>>>>>>>uccccccccccccccccccccccch6>>>>>>>>>>>>>>>>>>ucccccccccccccccccccccccc",
"ccccccccccccccccccccccccccl5>>>>>>>>>>>>>,acc9>>>>>>>>>>>>yccccccccccccccccxjsu952,>>>>>>>>>>>>>>>>>>>2xcccccccccccccccccccccccc",
"cccccccccccccccccccccccccg1>>>>>>>>>>>>><gcc9>>>>>>>>>>>>qcccccccccccczsy83,>>>>>>>>>>>>>>>>>>>>>>>>>>accccccccccccccccccccccccc",
"cccccccccccccccccccccccci,>>>>>>>>>>>>>1jcz8>>>>>>>>>>>>0ccccccccxhy71>>>>>>>>>>>>>>>>>>>>>>>>>>>>>>>3cccccccccccccccccccccccccc",
"ccccccccccccccccccccccz9>>>>>>>>>>>>>>3lcx8>>>>>>>>>>>>8ccccccgy5,>>>>>>>>>>>>>>>>>>>>>>>>>>>>>>>>>>>scccccccccccccccccccccccccc",
"cccccccccccccccccccccl4>>>>>>>>>>>>>>5zcx8>>>>>>>>>>>>8xccza8<>>>>>>>>>>>>>>>>>>>>>>>>>>>>>>>>>>>>>>5ccccccccccccccccccccccccccc",
"ccccccccccccccccccccg<>>>>>>>>>>>>>>7xcz8>>>>>>>>>>>>7zzp6>>>>>>>>>>>>>>>>>>>>>>>>>>>>>>>>>>>>>>>>>>hccccccccccccccccccccccccccc",
"cccccccccccccccccccu>>>>>>>>>>>>>>>9xcx6>>>>>>>>>>>>6a6,>>>>>>>>>>>>>>>>>>>>>>>>>>>>>>>>>>>>>>>>>>>6cccccccccccccccccccccccccccc",
"cccccccccccccccccz8>>>>>>>>>>>>>>>yccx6>>>>>>>>>>>>>,>>>>>>>>>>>>>>>>>>>>>>>>>>>>>>>>>>>>>>>>>>>>>>jcccccccccccccccccccccccccccc",
"ccccccccccccccccj3>>>>>>>>>>>>>>>iccz6>>>>>>>>>>>>>>>>>>>>>>>>>>>>>>>>>>>>>>>>>>>>>>>>>>>>>>>>>>>>9ccccccccccccccccccccccccccccc",
"cccccccccccccccs<>>>>>>>>>>>>>>,sccx6>>>>>>>>>>>>>>>>>>>>>>>>>>>>>>>>>>>>>>>>>>>>>>>>>>>>>>>>>>>>,lccccccccccccccccccccccccccccc",
"ccccccccccccccy>>>>>>>>>>>>>>>,gccx6>>>>>>>>>>>>>>>>>>>>>>>>>>>>>>>>>>>>>>>>>>>>>>>>>>>>>>>>>>>>>qcccccccccccccccccccccccccccccc",
"cccccccccccccx8>>>>>>>>>>>>>>1jccz5>>>>>>>>>>>>>>>>>>>>>>>>>>>>>>>>>>>>>>>>>>>>>>>>>>>>>>>>>>>>>,lcccccccccccccccccccccccccccccc",
"ccccccccccccccca<>>>>>>>>>>>3lccz5>>>>>>>>>>>>>>>>>>>>>>>>>>>>>>>>>>>>>>>>>>>>>>>>>>>>>>>>>>>>>>yccccccccccccccccccccccccccccccc",
"ccccccccccccccccl6>>>>>>>>>5zccz5>>>>>>>>>>>>>>>>>>>>>>>>>>>>>>>>>>>>>>>>>>>>>>>>>>>>>>>>>>>>,<2xccccccccccccccccccccccccccccccc",
"cccccccccccccccccci,>>>>>>6xccz4>>>>>>>>>>>>>>>>>>>>>>>>>>>>>>>>>>>>>>>>>>>>>>>>>,258qiagjlzcccccccccccccccccccccccccccccccccccc",
"cccccccccccccccccccj4>>>>9xccx5>>>>>>>>>>>>>>>>>>>>>>>>>>>>>>>>>>>>>>>>>>>>26qiglccccccccccccccccccccccccccccccccccccccccccccccc",
"ccccccccccccccccccccxy,>qcccz4>>>>>>>>>>>>>>>>>>>>>>>>>>>>>>>>>>>>>>>,50ihzccccccccccccccccccccccccccccccccccccccccccccccccccccc",
"cccccccccccccccccccccchpcccz4>>>>>>>>>>>>>>>>>>>>>>>>>>>>>>>>>>>>39pjccccccccccccccccccccccccccccccccccccccccccccccccccccccccccc",
"ccccccccccccccccccccccccccz3>>>>>>>>>>>>>>>>>>>>>>>>>>>>>>>>,6ygxccccccccccccccccccccccccccccccccccccccccccccccccccccccccccccccc",
"cccccccccccccccccccccccccc6>>>>>>>>>>>>>>>>>>>>>>>>>>>>>>5qgzccccccccccccccccccccccccccccccccccccccccccccccccccccccccccccccccccc",
"ccccccccccccccccccccccccccz8>>>>>>>>>>>>>>>>>>>>>>>>>18azccccccccccccccccccccccccccccccccccccccccccccccccccccccccccccccccccccccc",
"cccccccccccccccccccccccccccca<>>>>>>>>>>>>>>>>>>>>1qgccccccccccccccccccccccccccccccccccccccccccccccccccccccccccccccccccccccccccc",
"cccccccccccccccccccccccccccccl6>>>>>>>>>>>>>>>>10gcccccccccccccccccccccccccccccccccccccccccccccccccccccccccccccccccccccccccccccc",
"ccccccccccccccccccccccccccccccci,>>>>>>>>>>>,8axcccccccccccccccccccccccccccccccccccccccccccccccccccccccccccccccccccccccccccccccc",
"ccccccccccccccccccccccccccccccccj5>>>>>>>>1yzccccccccccccccccccccccccccccccccccccccccccccccccccccccccccccccccccccccccccccccccccc",
"cccccccccccccccccccccccccccccccccxy>>>>>5axccccccccccccccccccccccccccccccccccccccccccccccccccccccccccccccccccccccccccccccccccccc",
"ccccccccccccccccccccccccccccccccccch2>5gcccccccccccccccccccccccccccccccccccccccccccccccccccccccccccccccccccccccccccccccccccccccc",
"ccccccccccccccccccccccccccccccccccccxhcccccccccccccccccccccccccccccccccccccccccccccccccccccccccccccccccccccccccccccccccccccccccc",
"cccccccccccccccccccccccccccccccccccccccccccccccccccccccccccccccccccccccccccccccccccccccccccccccccccccccccccccccccccccccccccccccc",
"cccccccccccccccccccccccccccccccccccccccccccccccccccccccccccccccccccccccccccccccccccccccccccccccccccccccccccccccccccccccccccccccc",
"cccccccccccccccccccccccccccccccccccccccccccccccccccccccccccccccccccccccccccccccccccccccccccccccccccccccccccccccccccccccccccccccc",
"cccccccccccccccccccccccccccccccccccccccccccccccccccccccccccccccccccccccccccccccccccccccccccccccccccccccccccccccccccccccccccccccc",
"cccccccccccccccccccccccccccccccccccccccccccccccccccccccccccccccccccccccccccccccccccccccccccccccccccccccccccccccccccccccccccccccc",
"cccccccccccccccccccccccccccccccccccccccccccccccccccccccccccccccccccccccccccccccccccccccccccccccccccccccccccccccccccccccccccccccc",
"cccccccccccccccccccccccccccccccccccccccccccccccccccccccccccccccccccccccccccccccccccccccccccccccccccccccccccccccccccccccccccccccc",
"cccccccccccccccccccccccccccccccccccccccccccccccccccccccccccccccccccccccccccccccccccccccccccccccccccccccccccccccccccccccccccccccc",
"cccccccccccccccccccccccccccccccccccccccccccccccccccccccccccccccccccccccccccccccccccccccccccccccccccccccccccccccccccccccccccccccc",
"cccccccccccccccccccccccccccccccccccccccccccccccccccccccccccccccccccccccccccccccccccccccccccccccccccccccccccccccccccccccccccccccc",
"cccccccccccccccccccccccccccccccccccccccccccccccccccccccccccccccccccccccccccccccccccccccccccccccccccccccccccccccccccccccccccccccc",
"cccccccccccccccccccccccccccccccccccccccccccccccccccccccccccccccccccccccccccccccccccccccccccccccccccccccccccccccccccccccccccccccc",
"cccccccccccccccccccccccccccccccccccccccccccccccccccccccccccccccccccccccccccccccccccccccccccccccccccccccccccccccccccccccccccccccc",
"cccccccccccccccccccccccccccccccccccccccccccccccccccccccccccccccccccccccccccccccccccccccccccccccccccccccccccccccccccccccccccccccc",
"cccccccccccccccccccccccccccccccccccccccccccccccccccccccccccccccccccccccccccccccccccccccccccccccccccccccccccccccccccccccccccccccc",
"cccccccccccccccccccccccccccccccccccccccccccccccccccccccccccccccccccccccccccccccccccccccccccccccccccccccccccccccccccccccccccccccc",
"cccccccccccccccccccccccccccccccccccccccccccccccccccccccccccccccccccccccccccccccccccccccccccccccccccccccccccccccccccccccccccccccc",
"cccccccccccccccccccccccccccccccccccccccccccccccccccccccccccccccccccccccccccccccccccccccccccccccccccccccccccccccccccccccccccccccc",
"ccccccf;&%%%%%%%%%%%%%%%%rcccc-%%%%wccccccccccccz%%%%%fcccccw@o.o&kccccccccccccccccccf%o.o#rccccccccccck:&@oXX..XXo@%:fccccccccc",
"ccccc-                   ;cccc#    =ccccccccccccz     dcccc-      ofccccccccccccccccd.      :ccccccccd$                #tccccccc",
"cccc=                    ;cccc#    =ccccccccccccz     dcccz        %cccccccccccccccc@       occccccc;.                   =cccccc",
"cccf                     :cccc#    =ccccccccccccz     dcccd         fcccccccccccccct         zccccc;                      *ccccc",
"ccc-     o*==-=====-===-=tcccc#    =ccccccccccccz     dcccd         -cccccccccccccc&         kcccct       #-wtddtw-$.      rcccc",
"ccc%    ozcccccccccccccccccccc#    =ccccccccccccz     dcccd     +   ozccccccccccccz.   +     zcccc#     +fccccccccccf@     +cccc",
"ccc#    *ccccccccccccccccccccc#    =ccccccccccccz     dcccd    .z.   rcccccccccccc:   oz     zcccf     okccccccccccccz+     dccc",
"ccc#    *ccccccccccccccccccccc#    =ccccccccccccz     dcccd    Xc%   $cccccccccccc+   =z     zccc-     wcccccccccccccct     =ccc",
"ccc%    +ccccccccccccccccccccc#    =ccccccccccccz     dcccd    .cr   .kccccccccccd    fz     kccc$    XzcccccccccccccccO    @ccc",
"ccc=     *zccccccccccccccccccc#    =ccccccccccccz     dcccd    .ccO   -cccccccccc*   @cz     zcccO    $cccccccccccccccc&    Xccc",
"ccct      X%ezcccccccccccccccc$    =ccccccccccccz     dcccd    .cc-   OccccccccczX   :cz     kccc.    =cccccccccccccccc;     zcc",
"cccc#        .$:kccccccccccccc#    =ccccccccccccz     dcccd    .cck    tccccccccw   Xzcz     zccx     ;cccccccccccccccce     kcc",
"cccckO           #;kcccccccccc#    =ccccccccccccz     dcccd    .ccc#   %cccccccc@   &ccz     zccz     wccccccccccccccccr     fcc",
"cccccz=.            +-fccccccc#    =ccccccccccccz     dcccd    .ccce   .zccccccf    dcck     kcck     ecccccccccccccccct     dcc",
"cccccccze%X            $fccccc#    =ccccccccccccz     dcccd    .ccczX   :cccccc=   Occcz     zcck     ecccccccccccccccct     dcc",
"ccccccccccxr*o          Xtcccc#    =ccccccccccccz     dcccd     cccc*   +ccccczo   ;ccck     zccz     wccccccccccccccccr     fcc",
"ccccccccccccccd=+        ozccc#    =ccccccccccccz     dcccd    .ccccd    tcccce   .kccck     kccx     ;ccccccccccccccccw     kcc",
"cccccccccccccccccf;+      wccc#    =ccccccccccccz     dcccd     ccccc@   *cccc$   $cccck     zccc.    *cccccccccccccccc-     zcc",
"cccccccccccccccccccc;     &ccc$    *cccccccccccck     dcccd    .ccccc:   Xzcck    rcccck     zcccO    #cccccccccccccccc&    occc",
"ccccccccccccccccccccc#    @ccc%    $cccccccccccct     kcccd     cccccz.   wcc-   oxcccck     kccc$    Xzccccccccccccccco    #ccc",
"ccccccccccccccccccccc&    +ccc=    ozccccccccccc-    .zcccd     xccccc%   @ccO   =cccccf     kccc;     wccccccccccccccr     -ccc",
"ccccccccccccccccccccc$    @cccw     :cccccccccczo    +ccccd     xccccct    fr    fcccccf     zcccf     okcccccccccccczO     dccc",
"cccccccccccccccccccck.    $cccz.     wcccccccck@     -ccccd     xccccccO   $@   #ccccccf     kcccc$     +dccccccccccf+     +cccc",
"cccd===============*X     =cccc=      +-ettr:%.     Xkccccd     xcccccc-        wccccccf     zccccd       #;etdtte;$       rcccc",
"cccw                      dccccz@                   rcccccd     zcccccck       Xzccccccf     zccccc;                      *ccccc",
"ccc:                     *cccccck#                .eccccccd     zccccccc$      *cccccccd     kcccccc:                    =cccccc",
"ccc:                    %zcccccccz;o             %fcccccccd     zcccccccd     Xkcccccccf     zcccccccd$                #tccccccc",
"ccct%%%%%%%%%%%%%%%%%&-dcccccccccccxr=#Oo..Xo+%:kcccccccccf%%%%%xcccccccct#XX#dccccccccf%%%%%zccccccccck:&@OXX..XXo@%;kccccccccc",
"cccccccccccccccccccccccccccccccccccccccccccccccccccccccccccccccccccccccccccccccccccccccccccccccccccccccccccccccccccccccccccccccc",
"cccccccccccccccccccccccccccccccccccccccccccccccccccccccccccccccccccccccccccccccccccccccccccccccccccccccccccccccccccccccccccccccc",
"cccccccccccccccccccccccccccccccccccccccccccccccccccccccccccccccccccccccccccccccccccccccccccccccccccccccccccccccccccccccccccccccc",
"cccccccccccccccccccccccccccccccccccccccccccccccccccccccccccccccccccccccccccccccccccccccccccccccccccccccccccccccccccccccccccccccc",
"cccf$%dc=c:wcr-c=cc=c;fcccz%kc&$$-z=cz*#=zc&kc=cccce#%fc:$$-ccc=xc=c:$$wc;$$rccr=ccr;cteccc-rcw:cf%#wcf$$*zf;c=cccwte$$$k*kz*zcc",
"ccc=:ffc+c&of+#c+cc+c%dcccw@-ck=:zz+c&;z==co$z+ccct@ztOz*ezkccc+zc+c&rkOc%dd#cc$@fc:.ew-ccc#+fo&c+tz#rd%z$tt&c+ccc=ezk+kzw&=;ccc",
"cccd#@rc+c&;X:#c+cc+c%dccc@d+zc-wcz@cOxcd#c@==+ccc-:cc@k*+#eccc+zc+c&$&$c$#@*cd$w=c:-+--ccc#;X;&z+cc:-do$Oft&c+ccc=wcz@ccc$#cccc",
"cccrfr$c+c&tek#c#tf+c%tkzd+%@wc-wcz+c&;z=-c+x$Occct@kt+x&rccccc$rf+c&w%wc%dkOc&$%Oz:;dX-ccc#ket&c+rz#rd%z--t%c+zzz=ecz+ccc:;cccc",
"ccct%$dc=c:fck-cf$$tc;$$e:dck-cwtcz=cz*#-zc=ck*ccccw#%fc:dcccccf$$tc:fz*z;$$wz=ccwtrecweccc-zcd:cf%#wcf$$&kf:c*$$dwtcz=cccrecccc",
"cccccccccccccccccccccccccccccccccccccccccccccccccccccccccccccccccccccccccccccccccccccccccccccccccccccccccccccccccccccccccccccccc",
"cccccccccccccccccccccccccccccccccccccccccccccccccccccccccccccccccccccccccccccccccccccccccccccccccccccccccccccccccccccccccccccccc",
"cccccccccccccccccccccccccccccccccccccccccccccccccccccccccccccccccccccccccccccccccccccccccccccccccccccccccccccccccccccccccccccccc"
};
