/* XPM */
static const char * sumo_icon64_xpm[] = {
"64 64 188 2",
"  	c None",
". 	c #338033",
"+ 	c #348134",
"@ 	c #86B486",
"# 	c #D5E5D5",
"$ 	c #F6FAF6",
"% 	c #FFFFFF",
"& 	c #358235",
"* 	c #BED7BE",
"= 	c #87B587",
"- 	c #F7FAF7",
"; 	c #F4F9F4",
"> 	c #85B385",
", 	c #388438",
"' 	c #3B853B",
") 	c #468C46",
"! 	c #71A771",
"~ 	c #B1CFB1",
"{ 	c #98BF98",
"] 	c #B5D1B5",
"^ 	c #D0E2D0",
"/ 	c #E7F1E7",
"( 	c #E0ECE0",
"_ 	c #619D61",
": 	c #4D914D",
"< 	c #89B689",
"[ 	c #408840",
"} 	c #B2CFB2",
"| 	c #C6DCC6",
"1 	c #498E49",
"2 	c #5B995B",
"3 	c #92BC92",
"4 	c #408940",
"5 	c #A2C5A2",
"6 	c #A5C7A5",
"7 	c #398439",
"8 	c #67A167",
"9 	c #95BD95",
"0 	c #3C863C",
"a 	c #9CC29C",
"b 	c #F5F9F5",
"c 	c #83B283",
"d 	c #75A975",
"e 	c #95BE95",
"f 	c #E3EEE3",
"g 	c #649F64",
"h 	c #93BC93",
"i 	c #368236",
"j 	c #8FBA8F",
"k 	c #BAD5BA",
"l 	c #9EC39E",
"m 	c #F3F8F3",
"n 	c #C4DBC4",
"o 	c #90BA90",
"p 	c #FEFFFE",
"q 	c #79AC79",
"r 	c #4C904C",
"s 	c #75AA75",
"t 	c #AACAAA",
"u 	c #D9E8D9",
"v 	c #F9FCF9",
"w 	c #DCEADC",
"x 	c #599859",
"y 	c #378337",
"z 	c #A0C4A0",
"A 	c #8AB78A",
"B 	c #FCFEFC",
"C 	c #AACBAA",
"D 	c #458C45",
"E 	c #539453",
"F 	c #80B080",
"G 	c #B4D1B4",
"H 	c #E1EDE1",
"I 	c #DFEBDF",
"J 	c #B0CEB0",
"K 	c #7FB07F",
"L 	c #88B588",
"M 	c #7DAE7D",
"N 	c #FBFDFB",
"O 	c #D1E3D1",
"P 	c #65A065",
"Q 	c #3A853A",
"R 	c #8BB78B",
"S 	c #C0D8C0",
"T 	c #ECF4EC",
"U 	c #DBE9DB",
"V 	c #81B181",
"W 	c #549554",
"X 	c #DFECDF",
"Y 	c #C8DDC8",
"Z 	c #CADFCA",
"` 	c #5C9A5C",
" .	c #3E873E",
"..	c #72A872",
"+.	c #BCD6BC",
"@.	c #6DA46D",
"#.	c #D3E4D3",
"$.	c #EFF5EF",
"%.	c #A8C9A8",
"&.	c #6FA66F",
"*.	c #77AB77",
"=.	c #F8FBF8",
"-.	c #BDD6BD",
";.	c #519351",
">.	c #478D47",
",.	c #7DAF7D",
"'.	c #B9D4B9",
").	c #CFE2CF",
"!.	c #76AA76",
"~.	c #448B44",
"{.	c #FDFEFD",
"].	c #EAF2EA",
"^.	c #488E48",
"/.	c #BFD8BF",
"(.	c #D7E7D7",
"_.	c #E8F1E8",
":.	c #A4C7A4",
"<.	c #5E9B5E",
"[.	c #4B8F4B",
"}.	c #85B485",
"|.	c #C3DAC3",
"1.	c #CDE0CD",
"2.	c #CBDFCB",
"3.	c #E7F0E7",
"4.	c #CCE0CC",
"5.	c #8EB98E",
"6.	c #E9F2E9",
"7.	c #A7C9A7",
"8.	c #5D9B5D",
"9.	c #509350",
"0.	c #8DB98D",
"a.	c #EDF4ED",
"b.	c #D4E5D4",
"c.	c #418941",
"d.	c #9FC49F",
"e.	c #609C60",
"f.	c #509250",
"g.	c #5A995A",
"h.	c #569656",
"i.	c #96BE96",
"j.	c #DAE8DA",
"k.	c #AFCEAF",
"l.	c #7CAE7C",
"m.	c #9AC19A",
"n.	c #DDEADD",
"o.	c #6CA46C",
"p.	c #3D873D",
"q.	c #78AB78",
"r.	c #E5EFE5",
"s.	c #A1C5A1",
"t.	c #589858",
"u.	c #B8D3B8",
"v.	c #5F9C5F",
"w.	c #FAFCFA",
"x.	c #C5DBC5",
"y.	c #3F883F",
"z.	c #388338",
"A.	c #609D60",
"B.	c #A2C6A2",
"C.	c #E4EFE4",
"D.	c #99C099",
"E.	c #B2D0B2",
"F.	c #91BB91",
"G.	c #EBF3EB",
"H.	c #C9DEC9",
"I.	c #C2DAC2",
"J.	c #8DB88D",
"K.	c #70A670",
"L.	c #EEF5EE",
"M.	c #E6F0E6",
"N.	c #E2EDE2",
"O.	c #74A974",
"P.	c #94BD94",
"Q.	c #84B384",
"R.	c #D7E6D7",
"S.	c #7AAD7A",
"T.	c #F2F7F2",
"U.	c #D6E6D6",
"V.	c #559655",
"W.	c #B6D2B6",
"X.	c #589758",
"Y.	c #4A8F4A",
"Z.	c #69A269",
"`.	c #D2E3D2",
" +	c #AECDAE",
".+	c #B7D3B7",
"++	c #579757",
"@+	c #6BA36B",
"        . . . . . . . . . . . . . . . . . . . . . . . . . . . . . . . . . . . . . . . . . . . . . . . . . . . . . . . .         ",
"      . . . . . . . . . . . . . . . . . . . . . . . . . . . . . . . . . . . . . . . . . . . . . . . . . . . . . . . . . .       ",
"    . + @ # $ % % % % % % % % % % % % % % % % % % % % % % % % % % % % % % % % % % % % % % % % % % % % % % % % % % $ # @ + .     ",
"  . & * % % % % % % % % % % % % % % % % % % % % % % % % % % % % % % % % % % % % % % % % % % % % % % % % % % % % % % % % * & .   ",
". . = % % % % % % % % % % % % % % % % % % % % % % % % % % % % % % % % % % % % % % % % % % % % % % % % % % % % % % % % % % = . . ",
". . # % % % % % % % % % % % % % % % % % % % % % % % % % % % % % % % % % % % % % % % % % % % % % % % % % % % % % % % % % % # . . ",
". . - % % % % % % % % % % % % % % % % % % % % % % % % % % % % % % % % % % % % % % % % % % % % % % % % % % % % % % % % % % - . . ",
". . % % % % % % % % % % % % % % % % % % % % % % % % % % % % % % % % % % % % % % % % % % % % % % % % % % % % % % % % % % % % . . ",
". . % % % % % % % % % % % % % % % % % % % % % % % % % % % % % % % % % % % % % % % % % % % % % % % % % % % % % % % % % % % % . . ",
". . % % % % % % % % % % % % % % % % % % % % % % % % % % % % % % % % % % % % % % % % % % % % % % % % % % % % % % % % % % % % . . ",
". . % % % % % % % % % % % % % % % % % % % % % % % % % % % % % % % % % % % % % % % % % % ; > , ' ) ! ~ { ] ^ / % % % % % % % . . ",
". . % % % % % % % % % % % % % % % % % % % % % % % % % % % % % % % % % % % % % % % % % ( _ . . . : < [ . . . } % % % % % % % . . ",
". . % % % % % % % % % % % % % % % % % % % % % % % % % % % % % % % % % % % % % % % % | 1 . . . 2 3 4 . . . 5 % % % % % % % % . . ",
". . % % % % % % % % % % % % % % % % % % % % % % % % % % % % % % % % % % % % % % % 6 7 . . . 8 9 0 . . . a % % % % % % % % % . . ",
". . % % % % % % % % % % % % % % % % % % % % % % % % % % % % % % % % % % % % % b c . . . . d e 7 . . . e % % % % % % % % % % . . ",
". . % % % % % % % % % % % % % % % % % % % % % % % % % % % % % % % % % % % % f g . . . . c h i . . . j % % % % % % % % % % % . . ",
". . % % % % % % % % % % % % % % % % % % % % % % k l ^ m % % % % % % % % % n 1 . . . + 3 o + . . . < p % % % % % % % % % % % . . ",
". . % % % % % % % % % % % % % % % % % % % % f q . . . r s t u v % % % % w x + . . y z A . . . . c B % % % % % % % % % % % % . . ",
". . % % % % % % % % % % % % % % % % % % B C D . . . . . . . y E F G H B % p I J K ~ L . . . . M N % % % % % % % % % % % % % . . ",
". . % % % % % % % % % % % % % % % % % O P . . . . . . . . . . . . . Q 2 R S T % % % U } V W q v % % % % % % % % % % % % % % . . ",
". . % % % % % % % % % % % % % % % b X z 2 , . . . . . . . . . . . . . . . . [ g e Y m % % % % % % % % % % % % % % % % % % % . . ",
". . % % % % % % % % % % % % % % Z `  ...C +.l 8 0 . . . . . . . . . . . . . . . . . D @.z #.; % % % % % % % % % % % % % % % . . ",
". . % % % % % % % % % % % % $.R y . . . . D q } | %.&.[ . . . . . . . . . . . . . . . . . . r *.C u =.% % % % % % % % % % % . . ",
". . % % % % % % % % % % % -.;.. . . . . . . . . >.,.'.).} !.~.. . . . . . . . . . . . . . . . . . y W V G H {.% % % % % % % . . ",
". . % % % % % % % % % ].d . . . . . . . . . . . . . . ^.V /.(.k ,.^.. . . . . . . . . . . . . . . . . . . ' ` R * _.% % % % . . ",
". . % % % % % % % % % $.:.<.+ . . . . . . . . . . . . . . . [.}.| ( |.@ : . . . . . . . . . . . . . . . . . . . . 4 g e Y % . . ",
". . % % % % % % % % % % % B 1.V ~.. . . . . . . . . . . . . . . . : < 2.3.4.5.E . . . . . . . . . . . . . . . . . . . . r % . . ",
". . % % % % % % % % % % % % % % 6.7.8.. . . . . . . . . . . . . . . . . 9.0.^ a.b.e x & . . . . . . . . . . . . . . . . :.% . . ",
". . % % % % % % % % % % % % % % % % N Z K c.. . . . . . . . . . . . . . . . . E 3 # m U d.e., . . . . . . . . . . . . f.; % . . ",
". . % % % % % % % % % % % % % % % % % % % _.:.g.. . . . . . . . . . . . . . . . . . h.i.j.=.f %.8 0 . . . . . . . . . k.% % . . ",
". . % % % % % % % % % % % % % % % % % =.f % % N Y l.[ . . . . . . . . . . . . . . . . . + x m.n.B 6.k.&.4 . . . . . x =.% % . . ",
". . % % % % % % % % % % % % % % % % 6.o.p.q.Y {.% % r.s.t.. . . . . . . . . . . . . . . . . . i ` l H % $.u.*.D . . -.% % % . . ",
". . % % % % % % % % % % % % % % % O ;.. . . . v.t w.% % w.x.q y.. . . . . . . . . . . . . . . . . . z.A.B.C.% b * D.N % % % . . ",
". . % % % % % % % % % % % % % % E. .. . . . . . V H s.( % % % f l h.. . . . . . . . . . . . . . . . . . . 7 g 7./ % % % % % . . ",
". . % % % % % % % % % % % % N F.. . . . . . . 9 G.` . p.q H.B % % =.I.!. .. . . . . . . . . . . . . . . . . . . J.% % % % % . . ",
". . % % % % % % % % % % % G.K.. . . . . . + B.L.` . . . . . <.M.% % % % N.a W . . . . . . . . . . . . . . . . c.C.% % % % % . . ",
". . % % % % % % % % % % #.W . . . . . . z.~ $.` . . . . . . F.N % % % % % % - S O.0 . . . . . . . . . . . . . P.% % % % % % . . ",
". . % % % % % % % % % ] [ . . . . . . 0 * $.2 . . . . . . 0.% % % % % % % % % % % _.z W + . . . . . . . . . ) T % % % % % % . . ",
". . % % % % % % % N h + . . . . . . ~.2.L.g.. . . . . . Q.{.% % % % % % % =.M.1.E.m.Q.` + . . . . . . . . . d.% % % % % % % . . ",
". . % % % % % % a.... . . . . . . r R.a.g.. . . . . . S.N % % % {.C./.e K.;.p.. . . . . . . . . . . . . . r T.% % % % % % % . . ",
". . % % % % % U.h.. . . . . . . V.N.T x . . . . . . d % % T /.< 2 0 . . . . . . . . . . . . . . . . . . . t % % % % % % % % . . ",
". . % % % % u.c.. . . . . . . e.G.G.g.. . . . . + K.f W.O.~.. . . . . . . . . . . . . . . . . . . . . . W $ % % % % % % % % . . ",
". . % % B i.+ . . . . . . . @.m G.x . . . . . . p.K.^.. . . . . . . . . . . . . . . . . . . . . . . . . G % % % % % % % % % . . ",
". . % $.s . . . . . . . . q v ].x . . . . . . . . . . . . . . . . . . . . . . . . . . . . . . . . . . ` w.% % % % % % % % % . . ",
". . ^ X.. . . . . . . . = p 6.x . . . . . . . . . . . . . . . . . . . . . . . . . . . . . . . . . . . * % % % % % % % % % % . . ",
". . / o i . . . . . . e % _.x . . . . . . . . . . . . . . . . . . . . . . . . . . . . . . . . . . . g B % % % % % % % % % % . . ",
". . % % n 9.. . . & :.% / x . . . . . . . . . . . . . . . . . . . . . . . . . . . . 0 Y.t.Z.q.Q.0.h R.% % % % % % % % % % % . . ",
". . % % % T ,.. 7 E.% / t.. . . . . . . . . . . . . . . . . . . . . . + ~.` S.D.u.`.M.m {.% % % % % % % % % % % % % % % % % . . ",
". . % % % % % ~ /.% 3.t.. . . . . . . . . . . . . . . . . . .  .` Q. +#.L.p % % % % % % % % % % % % % % % % % % % % % % % % . . ",
". . % % % % % % % L.W . . . . . . . . . . . . . . . . ' 8.0./.M.p % % % % % % % % % % % % % % % % % % % % % % % % % % % % % . . ",
". . % % % % % % % - a 0 . . . . . . . . . . . . ~.O.k.( p % % % % % % % % % % % % % % % % % % % % % % % % % % % % % % % % % . . ",
". . % % % % % % % % % `.` . . . . . . . . y....+G.% % % % % % % % % % % % % % % % % % % % % % % % % % % % % % % % % % % % % . . ",
". . % % % % % % % % % % ; J.& . . . . ++s.f % % % % % % % % % % % % % % % % % % % % % % % % % % % % % % % % % % % % % % % % . . ",
". . % % % % % % % % % % % % n W 7 @+/.=.% % % % % % % % % % % % % % % % % % % % % % % % % % % % % % % % % % % % % % % % % % . . ",
". . % % % % % % % % % % % % % u B.B % % % % % % % % % % % % % % % % % % % % % % % % % % % % % % % % % % % % % % % % % % % % . . ",
". . % % % % % % % % % % % % % % % % % % % % % % % % % % % % % % % % % % % % % % % % % % % % % % % % % % % % % % % % % % % % . . ",
". . % % % % % % % % % % % % % % % % % % % % % % % % % % % % % % % % % % % % % % % % % % % % % % % % % % % % % % % % % % % % . . ",
". . - % % % % % % % % % % % % % % % % % % % % % % % % % % % % % % % % % % % % % % % % % % % % % % % % % % % % % % % % % % - . . ",
". . # % % % % % % % % % % % % % % % % % % % % % % % % % % % % % % % % % % % % % % % % % % % % % % % % % % % % % % % % % % # . . ",
". . = % % % % % % % % % % % % % % % % % % % % % % % % % % % % % % % % % % % % % % % % % % % % % % % % % % % % % % % % % % = . . ",
"  . & * % % % % % % % % % % % % % % % % % % % % % % % % % % % % % % % % % % % % % % % % % % % % % % % % % % % % % % % % * & .   ",
"    . + @ # $ % % % % % % % % % % % % % % % % % % % % % % % % % % % % % % % % % % % % % % % % % % % % % % % % % % $ # @ + .     ",
"      . . . . . . . . . . . . . . . . . . . . . . . . . . . . . . . . . . . . . . . . . . . . . . . . . . . . . . . . . .       ",
"        . . . . . . . . . . . . . . . . . . . . . . . . . . . . . . . . . . . . . . . . . . . . . . . . . . . . . . . .         "};
