/* XPM */
static const char * undo_xpm[] = {
"16 16 66 1",
" 	c None",
".	c None",
"+	c #000000",
"@	c #79B463",
"#	c #BADA9C",
"$	c #8ABC6D",
"%	c #F0F7EC",
"&	c #C0DEA1",
"*	c #97C677",
"=	c #EAF3E2",
"-	c #DBEBCE",
";	c #DCEDCF",
">	c #DFEED0",
",	c #DEEECB",
"'	c #D8EBC3",
")	c #93C46A",
"!	c #DAEBCD",
"~	c #BDDCA3",
"{	c #C4E0AA",
"]	c #CCE5B3",
"^	c #D4E9BD",
"/	c #D3E8BA",
"(	c #589F43",
"_	c #81BD45",
":	c #81BE46",
"<	c #89C349",
"[	c #90C84C",
"}	c #9CCE5B",
"|	c #ACD672",
"1	c #DAECC7",
"2	c #DBECC7",
"3	c #C8E2AB",
"4	c #44913E",
"5	c #8BC54A",
"6	c #92C94D",
"7	c #9BCE50",
"8	c #A0D253",
"9	c #A4D554",
"0	c #B9DD8B",
"a	c #CBE5AA",
"b	c #D0E7B5",
"c	c #C8E3A8",
"d	c #338438",
"e	c #91C84C",
"f	c #82BE4A",
"g	c #A3D453",
"h	c #9ED054",
"i	c #AAD572",
"j	c #BDDE98",
"k	c #B4D793",
"l	c #237733",
"m	c #60A63F",
"n	c #7CBA49",
"o	c #A2D453",
"p	c #9ACF50",
"q	c #90C74E",
"r	c #A2CE74",
"s	c #62A740",
"t	c #99CE50",
"u	c #8FC74B",
"v	c #84C047",
"w	c #8AC449",
"x	c #80BD45",
"y	c #6EB23E",
"z	c #70B33F",
"A	c #6AAF3C",
"................",
"................",
"....++..........",
"...+@#+.........",
"..+$%&++++......",
".+*=-;>,''+.....",
"+)!~{]^'''/++...",
"+(_:<[}|''123+..",
".+456789990abc+.",
"..+def+++9ghijk+",
"...+lm+..+nopqr+",
"....++....+stuv+",
"...........+uwx+",
"...........+yzA+",
"............+++.",
"................"};
