/* XPM */
static const char *vaporizer_xpm[] = {
/* columns rows colors chars-per-pixel */
"16 16 256 2 ",
"   c #040700",
".  c #091100",
"X  c #0B1400",
"o  c #0C1501",
"O  c #0F1B00",
"+  c #152500",
"@  c #162800",
"#  c #1C3300",
"$  c #1E3600",
"%  c #223D00",
"&  c #264400",
"*  c #2A4B01",
"=  c #2B4E00",
"-  c #2D5100",
";  c #2F5400",
":  c #315800",
">  c #335B00",
",  c #366200",
"<  c #386500",
"1  c #3A6900",
"2  c #3C6C00",
"3  c #3E6F00",
"4  c #407300",
"5  c #427600",
"6  c #447A00",
"7  c #457D00",
"8  c #478000",
"9  c #498400",
"0  c #4B8700",
"q  c #4F8E00",
"w  c #529400",
"e  c #549800",
"r  c #569B00",
"t  c #589F00",
"y  c #5AA200",
"u  c #62B000",
"i  c #63B300",
"p  c #65B600",
"a  c #67BA00",
"s  c #69BD00",
"d  c #739D40",
"f  c #6BC000",
"g  c #6DC400",
"h  c #6FC700",
"j  c #70CA00",
"k  c #72CE00",
"l  c #74D100",
"z  c #76D500",
"x  c #78D800",
"c  c black",
"v  c black",
"b  c black",
"n  c black",
"m  c black",
"M  c black",
"N  c black",
"B  c black",
"V  c black",
"C  c black",
"Z  c black",
"A  c black",
"S  c black",
"D  c black",
"F  c black",
"G  c black",
"H  c black",
"J  c black",
"K  c black",
"L  c black",
"P  c black",
"I  c black",
"U  c black",
"Y  c black",
"T  c black",
"R  c black",
"E  c black",
"W  c black",
"Q  c black",
"!  c black",
"~  c black",
"^  c black",
"/  c black",
"(  c black",
")  c black",
"_  c black",
"`  c black",
"'  c black",
"]  c black",
"[  c black",
"{  c black",
"}  c black",
"|  c black",
" . c black",
".. c black",
"X. c black",
"o. c black",
"O. c black",
"+. c black",
"@. c black",
"#. c black",
"$. c black",
"%. c black",
"&. c black",
"*. c black",
"=. c black",
"-. c black",
";. c black",
":. c black",
">. c black",
",. c black",
"<. c black",
"1. c black",
"2. c black",
"3. c black",
"4. c black",
"5. c black",
"6. c black",
"7. c black",
"8. c black",
"9. c black",
"0. c black",
"q. c black",
"w. c black",
"e. c black",
"r. c black",
"t. c black",
"y. c black",
"u. c black",
"i. c black",
"p. c black",
"a. c black",
"s. c black",
"d. c black",
"f. c black",
"g. c black",
"h. c black",
"j. c black",
"k. c black",
"l. c black",
"z. c black",
"x. c black",
"c. c black",
"v. c black",
"b. c black",
"n. c black",
"m. c black",
"M. c black",
"N. c black",
"B. c black",
"V. c black",
"C. c black",
"Z. c black",
"A. c black",
"S. c black",
"D. c black",
"F. c black",
"G. c black",
"H. c black",
"J. c black",
"K. c black",
"L. c black",
"P. c black",
"I. c black",
"U. c black",
"Y. c black",
"T. c black",
"R. c black",
"E. c black",
"W. c black",
"Q. c black",
"!. c black",
"~. c black",
"^. c black",
"/. c black",
"(. c black",
"). c black",
"_. c black",
"`. c black",
"'. c black",
"]. c black",
"[. c black",
"{. c black",
"}. c black",
"|. c black",
" X c black",
".X c black",
"XX c black",
"oX c black",
"OX c black",
"+X c black",
"@X c black",
"#X c black",
"$X c black",
"%X c black",
"&X c black",
"*X c black",
"=X c black",
"-X c black",
";X c black",
":X c black",
">X c black",
",X c black",
"<X c black",
"1X c black",
"2X c black",
"3X c black",
"4X c black",
"5X c black",
"6X c black",
"7X c black",
"8X c black",
"9X c black",
"0X c black",
"qX c black",
"wX c black",
"eX c black",
"rX c black",
"tX c black",
"yX c black",
"uX c black",
"iX c black",
"pX c black",
"aX c black",
"sX c black",
"dX c black",
"fX c black",
"gX c black",
"hX c black",
"jX c black",
"kX c black",
"lX c black",
"zX c black",
"xX c black",
"cX c black",
"vX c black",
"bX c black",
"nX c black",
"mX c black",
"MX c black",
"NX c black",
"BX c black",
"VX c black",
"CX c black",
"ZX c black",
"AX c black",
"SX c black",
"DX c black",
"FX c black",
"GX c black",
"HX c black",
"JX c black",
"KX c black",
"LX c black",
"PX c black",
"IX c black",
"UX c None",
/* pixels */
"d y y y y y y y y y y y y y y d ",
"w z x k l f g x x x x x x x x y ",
"; t x < j # 6 2 x x x x x x x y ",
"r : x > x - k ; x x x x x x x y ",
"y > t w x @ 1 a x x x x x x x y ",
"y t # l x - x x x x x x x x x y ",
"y z u x x p x x x x x x x x x y ",
"y x x x x x x x x x x x x x x y ",
"9 0 + O O + 0 u x x x x x x x y ",
"> X O   . o   7 x x x x g 5 x y ",
"y - 0 = 2 y O x x x x g 8 0 x y ",
"y - 0 - 2 y O x x 8 4 : : 4 & q ",
"y - 0 - 2 y O x p 7 - > 3 9 g y ",
"y - 0 - 2 y O x x x , r i h s e ",
"y - 4 % > 0 O x x x p x 0 5 q 5 ",
"d , $ $ $ $ * y y y y y y y y d "
};
