/* XPM */
static const char *variablespeedsign_xpm[] = {
/* columns rows colors chars-per-pixel */
"16 16 256 2 ",
"   c #505050",
".  c #606060",
"X  c #686868",
"o  c #6C6C6C",
"O  c #747474",
"+  c #BF6868",
"@  c #BF7070",
"#  c #FF3838",
"$  c #FF4444",
"%  c #FF4F4C",
"&  c #FF5454",
"*  c #FF5858",
"=  c #FF6868",
"-  c #FF766C",
";  c #FF7070",
":  c #FF7878",
">  c #FFEB7C",
",  c #838383",
"<  c gray53",
"1  c #8B8B8B",
"2  c gray56",
"3  c #939393",
"4  c #979797",
"5  c #9B9B9B",
"6  c #9F9F9F",
"7  c #A7A7A7",
"8  c gray67",
"9  c #AFAFAF",
"0  c #BFA3A3",
"q  c #BFA7A7",
"w  c gray70",
"e  c #B7B7B7",
"r  c #BFB3B3",
"t  c #BFB7B7",
"y  c #BBBBBB",
"u  c gray75",
"i  c #FF8B8B",
"p  c #FF9393",
"a  c #FF9797",
"s  c #FFABAB",
"d  c #FFAFAF",
"f  c #FFC080",
"g  c #FFCA80",
"h  c #FFDE93",
"j  c #FFEE8F",
"k  c #FFEF93",
"l  c #FFEC9B",
"z  c #FFF09B",
"x  c #FFEEA7",
"c  c #FFF4B7",
"v  c #FFF5BB",
"b  c gray81",
"n  c LightGray",
"m  c #D7D7D7",
"M  c #DFDFDF",
"N  c #FFC3C3",
"B  c #FFCBCB",
"V  c #FFCFCF",
"C  c #FFD7D7",
"Z  c #FFF8D3",
"A  c #FFFADF",
"S  c gray89",
"D  c #E7E7E7",
"F  c gray92",
"G  c #EFEFEF",
"H  c #FFFBE3",
"J  c #FFFDEF",
"K  c gray97",
"L  c #FFFEF7",
"P  c gray100",
"I  c black",
"U  c black",
"Y  c black",
"T  c black",
"R  c black",
"E  c black",
"W  c black",
"Q  c black",
"!  c black",
"~  c black",
"^  c black",
"/  c black",
"(  c black",
")  c black",
"_  c black",
"`  c black",
"'  c black",
"]  c black",
"[  c black",
"{  c black",
"}  c black",
"|  c black",
" . c black",
".. c black",
"X. c black",
"o. c black",
"O. c black",
"+. c black",
"@. c black",
"#. c black",
"$. c black",
"%. c black",
"&. c black",
"*. c black",
"=. c black",
"-. c black",
";. c black",
":. c black",
">. c black",
",. c black",
"<. c black",
"1. c black",
"2. c black",
"3. c black",
"4. c black",
"5. c black",
"6. c black",
"7. c black",
"8. c black",
"9. c black",
"0. c black",
"q. c black",
"w. c black",
"e. c black",
"r. c black",
"t. c black",
"y. c black",
"u. c black",
"i. c black",
"p. c black",
"a. c black",
"s. c black",
"d. c black",
"f. c black",
"g. c black",
"h. c black",
"j. c black",
"k. c black",
"l. c black",
"z. c black",
"x. c black",
"c. c black",
"v. c black",
"b. c black",
"n. c black",
"m. c black",
"M. c black",
"N. c black",
"B. c black",
"V. c black",
"C. c black",
"Z. c black",
"A. c black",
"S. c black",
"D. c black",
"F. c black",
"G. c black",
"H. c black",
"J. c black",
"K. c black",
"L. c black",
"P. c black",
"I. c black",
"U. c black",
"Y. c black",
"T. c black",
"R. c black",
"E. c black",
"W. c black",
"Q. c black",
"!. c black",
"~. c black",
"^. c black",
"/. c black",
"(. c black",
"). c black",
"_. c black",
"`. c black",
"'. c black",
"]. c black",
"[. c black",
"{. c black",
"}. c black",
"|. c black",
" X c black",
".X c black",
"XX c black",
"oX c black",
"OX c black",
"+X c black",
"@X c black",
"#X c black",
"$X c black",
"%X c black",
"&X c black",
"*X c black",
"=X c black",
"-X c black",
";X c black",
":X c black",
">X c black",
",X c black",
"<X c black",
"1X c black",
"2X c black",
"3X c black",
"4X c black",
"5X c black",
"6X c black",
"7X c black",
"8X c black",
"9X c black",
"0X c black",
"qX c black",
"wX c black",
"eX c black",
"rX c black",
"tX c black",
"yX c black",
"uX c black",
"iX c black",
"pX c black",
"aX c black",
"sX c black",
"dX c black",
"fX c black",
"gX c black",
"hX c black",
"jX c black",
"kX c black",
"lX c black",
"zX c black",
"xX c black",
"cX c black",
"vX c black",
"bX c black",
"nX c black",
"mX c black",
"MX c black",
"NX c black",
"BX c black",
"VX c black",
"CX c black",
"ZX c black",
"AX c black",
"SX c black",
"DX c black",
"FX c black",
"GX c black",
"HX c black",
"JX c black",
"KX c black",
"LX c black",
"PX c black",
"IX c black",
"UX c None",
/* pixels */
"9 u u u u u u u u u u u u u u 9 ",
"u P P P P P P P P P P P P P P u ",
"2 S M u 4 n 4 y P P P P P P P u ",
"e 4 4 u 8 F 1 G P P P P P P P u ",
"u 2 5 K D 4 K 2 P P P P P P P u ",
"u n m b 6 n 5 b P P P P P P P u ",
"u P P P P P P P P P P P P P P u ",
"u P P P P P P P P P P P P P P u ",
"u P V ; = s P P P P P P P P P u ",
"u a & B C : * P P P P P D 1 P u ",
"q $ l c Z z - d P P P D 4 6 P u ",
"+ a > v z J g = P 4 < X X <   7 ",
"@ i L k j H f ; m 3 . o , 5 D u ",
"r # h Z A x % B P P O e n F M w ",
"u N # i a $ p P P P m P 6 1 7 1 ",
"9 u t @ + 0 u u u u u u u u u 9 "
};
