/* XPM */
static const char *vclass_rail_electric_xpm[] = {
/* width height num_colors chars_per_pixel */
"    64    32      256            2",
/* colors */
"`` c #fefefe",
"`. c #dedde0",
"`# c #fef8ea",
"`a c #c2b194",
"`b c #fede96",
"`c c #fed169",
"`d c #ccbc9d",
"`e c #feeabb",
"`f c #fefdfb",
"`g c #fefbf4",
"`h c #fef9ec",
"`i c #fed67b",
"`j c #fed67a",
"`k c #fef2d5",
"`l c #fef1d5",
"`m c #fed77c",
"`n c #e0c385",
"`o c #cccacc",
"`p c #f5f5f6",
"`q c #d3d1d5",
"`r c #8d8991",
"`s c #716d79",
"`t c #fef1c0",
"`u c #fee895",
"`v c #e6d69b",
"`w c #a7a4ac",
"`x c #9c98a1",
"`y c #94909a",
"`z c #fee277",
"`A c #fedc5a",
"`B c #fcdb5c",
"`C c #ecd06c",
"`D c #ebd06c",
"`E c #f9e9c3",
"`F c #f3c24e",
"`G c #f9c64d",
"`H c #fdc84c",
"`I c #feca4d",
"`J c #f8c54d",
"`K c #feca4c",
"`L c #a6a3a8",
"`M c #625d6a",
"`N c #917d61",
"`O c #fece50",
"`P c #f1d15b",
"`Q c #dec25d",
"`R c #fddb5a",
"`S c #e3c65d",
"`T c #eccd5c",
"`U c #fed152",
"`V c #a98e5c",
"`W c #7b6e65",
"`X c #d5ac53",
"`Y c #927e61",
"`Z c #fec84b",
"`0 c #fdd958",
"`1 c #927e60",
"`2 c #be9c58",
"`3 c #7f7a83",
"`4 c #8d7b61",
"`5 c #fed051",
"`6 c #a69463",
"`7 c #e7ca5c",
"`8 c #645e6a",
".` c #8f8165",
".. c #fed454",
".# c #a68c5d",
".a c #786c66",
".b c #d2aa54",
".c c #e8ca5c",
".d c #8f7c61",
".e c #bb9a58",
".f c #a68b5d",
".g c #f3f2f1",
".h c #635e6a",
".i c #e7c95c",
".j c #8e8166",
".k c #a59363",
".l c #cdcbcd",
".m c #aaa7ac",
".n c #f7d89c",
".o c #f3b94f",
".p c #f9be4e",
".q c #fecc52",
".r c #b29e62",
".s c #6f6769",
".t c #edce5c",
".u c #756c68",
".v c #9d8d64",
".w c #fed154",
".x c #fbbf4d",
".y c #f8bc4e",
".z c #fdc04d",
".A c #6f6869",
".B c #fec7c5",
".C c #ff6464",
".D c #ff9760",
".E c #fea95e",
".F c #feeeec",
".G c #ff7a78",
".H c #fec598",
".I c #fea554",
".J c #febc56",
".K c #fec557",
".L c #feebc0",
".M c #877f80",
".N c #e4b54d",
".O c #f1bf4c",
".P c #f1c350",
".Q c #f3d259",
".R c #f4d35a",
".S c #f3d35a",
".T c #f2c752",
".U c #8a7862",
".V c #6c6468",
".W c #60575c",
".X c #675e63",
".Y c #f2ce57",
".Z c #928f98",
".0 c #76727e",
".1 c #6b6673",
".2 c #74707b",
".3 c #6e6a76",
".4 c #bfbdc2",
".5 c #a19ea6",
".6 c #e3e2e4",
".7 c #fbfbfb",
".8 c #b4b2b8",
"#` c #a5a2aa",
"#. c #ededee",
"## c #000000",
"#a c #000000",
"#b c #000000",
"#c c #000000",
"#d c #000000",
"#e c #000000",
"#f c #000000",
"#g c #000000",
"#h c #000000",
"#i c #000000",
"#j c #000000",
"#k c #000000",
"#l c #000000",
"#m c #000000",
"#n c #000000",
"#o c #000000",
"#p c #000000",
"#q c #000000",
"#r c #000000",
"#s c #000000",
"#t c #000000",
"#u c #000000",
"#v c #000000",
"#w c #000000",
"#x c #000000",
"#y c #000000",
"#z c #000000",
"#A c #000000",
"#B c #000000",
"#C c #000000",
"#D c #000000",
"#E c #000000",
"#F c #000000",
"#G c #000000",
"#H c #000000",
"#I c #000000",
"#J c #000000",
"#K c #000000",
"#L c #000000",
"#M c #000000",
"#N c #000000",
"#O c #000000",
"#P c #000000",
"#Q c #000000",
"#R c #000000",
"#S c #000000",
"#T c #000000",
"#U c #000000",
"#V c #000000",
"#W c #000000",
"#X c #000000",
"#Y c #000000",
"#Z c #000000",
"#0 c #000000",
"#1 c #000000",
"#2 c #000000",
"#3 c #000000",
"#4 c #000000",
"#5 c #000000",
"#6 c #000000",
"#7 c #000000",
"#8 c #000000",
"a` c #000000",
"a. c #000000",
"a# c #000000",
"aa c #000000",
"ab c #000000",
"ac c #000000",
"ad c #000000",
"ae c #000000",
"af c #000000",
"ag c #000000",
"ah c #000000",
"ai c #000000",
"aj c #000000",
"ak c #000000",
"al c #000000",
"am c #000000",
"an c #000000",
"ao c #000000",
"ap c #000000",
"aq c #000000",
"ar c #000000",
"as c #000000",
"at c #000000",
"au c #000000",
"av c #000000",
"aw c #000000",
"ax c #000000",
"ay c #000000",
"az c #000000",
"aA c #000000",
"aB c #000000",
"aC c #000000",
"aD c #000000",
"aE c #000000",
"aF c #000000",
"aG c #000000",
"aH c #000000",
"aI c #000000",
"aJ c #000000",
"aK c #000000",
"aL c #000000",
"aM c #000000",
"aN c #000000",
"aO c #000000",
"aP c #000000",
"aQ c #000000",
"aR c #000000",
"aS c #000000",
"aT c #000000",
"aU c #000000",
"aV c #000000",
"aW c #000000",
"aX c #000000",
"aY c #000000",
"aZ c #000000",
"a0 c #000000",
"a1 c #000000",
"a2 c #000000",
"a3 c #000000",
"a4 c #000000",
"a5 c #000000",
"a6 c #000000",
"a7 c #000000",
"a8 c #000000",
/* pixels */
"````````````````````````````````````````````````````````````````````````````````````````````````````````````````````````````````",
"````````````````````````````````````````````````````````````````````````````````````````````````````````````````````````````````",
"````````````````````````````````````````````````````````````````````````````````````````````````````````````````````````````````",
"`````````````````````````````````````.`.`````````````````````````````````````````````````.`.````````````````````````````````````",
"```````````````````````````````````#`a`a`#`````````````````````````````````````````````#`a`a`#``````````````````````````````````",
"```````````````````````````````#`b`c`d`d`c`b`#`````````````````````````````````````#`b`c`d`d`c`b`#``````````````````````````````",
"```````````````````````````#`b`c`e`f`````f`e`c`b`#`````````````````````````````#`b`c`e`f`````f`e`c`b`#``````````````````````````",
"```````````````````````g`b`c`e`f`````````````f`e`c`b`g`````````````````````g`b`c`e`f`````````````f`e`c`b`g``````````````````````",
"```````````````````````h`i`j`k`````````````````k`j`i`h`````````````````````h`i`j`k`````````````````k`j`i`h``````````````````````",
"```````````````````````````l`i`m`k`````````k`m`i`l`````````````````````````````l`i`m`k`````````k`m`i`l``````````````````````````",
"```````````````````````````````l`i`n`o`o`n`i`l`````````````````````````````````````l`i`n`o`o`n`i`l``````````````````````````````",
"```````````````````p`q`q`q`q`q`q`q`r`s`s`r`q`q`q`q`q`q`q`q`q`q`q`q`q`q`q`q`q`q`q`q`q`q`r`s`s`r`q`q`q`q`q`q`q`p``````````````````",
"```````````````t`u`v`w`w`w`w`w`w`w`x`y`y`x`w`w`w`w`w`w`w`w`w`w`w`w`w`w`w`w`w`w`w`w`w`w`x`y`y`x`w`w`w`w`w`w`w`v`u`t``````````````",
"```````````````z`A`B`C`D`D`D`D`D`D`D`D`D`D`D`D`D`D`D`D`D`D`D`D`D`D`D`D`D`D`D`D`D`D`D`D`D`D`D`D`D`D`D`D`D`D`C`B`A`z``````````````",
"```````````````E`F`G`H`I`I`I`I`I`H`G`F`F`J`H`F`F`F`F`F`G`H`K`I`I`I`I`K`H`G`F`F`G`H`F`F`F`F`F`G`H`I`I`I`I`I`H`G`F`E``````````````",
"```````````````L`M`N`O`P`Q`R`S`T`U`V`M`M`W`X`M`M`M`M`M`Y`Z`0`Q`P`P`Q`0`Z`Y`M`M`1`2`M`M`M`M`M`V`U`T`S`R`Q`P`O`N`M`L``````````````",
"```````````````3`M`4`5`6`M`7`8.`...#`M`M.a.b`M`M`M`M`M`4`Z.c`M`6`6`M.c`Z`4`M`M.d.e`M`M`M`M`M.f...``8`7`M`6`5`4`M`3``````````````",
"````````````.g.h`M`4`5`6`M.i.h.j...#`M`M.a.b`M`M`M`M`M`4`Z.c`M.k.k`M.c`Z`4`M`M.d.e`M`M`M`M`M.f...j.h.i`M`6`5`4`M.h.g````````````",
"````````````.l`M`M`4`5`6`M.i.h.j...#`M`M.a.b`M`M`M`M`M`4`Z.c`M.k.k`M.c`Z`4`M`M.d.e`M`M`M`M`M.f...j.h.i`M`6`5`4`M`M.l````````````",
"````````````.m`M`M`N`5`6`M.i.h.j..`V`M`M`W`X`M`M`M`M`M`Y`Z.c`M.k.k`M.c`Z`1`M`M`1`2`M`M`M`M`M`V...j.h.i`M`6`5`N`M`M.m````````````",
"````````````.n.o.o.p.q.r.s.t.u.v.w.x.o.o.y.z.o.o.o.o.o.p.z.t.A.r.r.A.t.z.p.o.o.p.z.o.o.o.o.o.x.w.v.u.t.s.r.q.p.o.o.n````````````",
"````````````.B.C.C.C.D`A`A`A`A`A.E.C.C.C.C.C.C.C.C.C.C.C.C`A`A`A`A`A`A.C.C.C.C.C.C.C.C.C.C.C.C.E`A`A`A`A`A.D.C.C.C.B````````````",
"````````````.F.C.C.C.D`A`A`A`A`A.E.C.C.C.C.C.C.C.C.C.C.C.C`A`A`A`A`A`A.C.C.C.C.C.C.C.C.C.C.C.C.E`A`A`A`A`A.D.C.C.C.F````````````",
"``````````````.G.C.C.D`A`A`A`A`A.E.C.C.C.C.C.C.C.C.C.C.C.C`A`A`A`A`A`A.C.C.C.C.C.C.C.C.C.C.C.C.E`A`A`A`A`A.D.C.C.G``````````````",
"``````````````.H.I.I.J`A`A`A`A`A.K.I.I.I.I.I.I.I.I.I.I.I.I`A`A`A`A`A`A.I.I.I.I.I.I.I.I.I.I.I.I.K`A`A`A`A`A.J.I.I.H``````````````",
"``````````````.L`Z`Z`5`A`A`A`A`A..`Z`Z`Z`Z`Z`Z`Z`Z`Z`Z`Z`Z`A`A`A`A`A`A`Z`Z`Z`Z`Z`Z`Z`Z`Z`Z`Z`Z..`A`A`A`A`A`5`Z`Z.L``````````````",
"``````````````.M.N.O.P.Q.R.R.R.S.T.U.V.V.W.W.W.X.V.V`X.O.O.Y.R.R.R.R.Y.O.O`X.V.V.X.W.W.W.V.V.U.T.S.R.R.R.Q.P.O.N.M``````````````",
"``````````````.Z.0.0.0.0.0.0.0.0.0`M`M.1.0.0.0.2`M`M.3.0.0.0.0.0.0.0.0.0.0.3`M`M.2.0.0.0.1`M`M.0.0.0.0.0.0.0.0.0.Z``````````````",
"``````````````````````````````````.4.5.6``````.7.8#`#.````````````````````#.#`.8.7``````.6.5.4``````````````````````````````````",
"````````````````````````````````````````````````````````````````````````````````````````````````````````````````````````````````",
"````````````````````````````````````````````````````````````````````````````````````````````````````````````````````````````````",
"````````````````````````````````````````````````````````````````````````````````````````````````````````````````````````````````"
};