/* XPM */
static const char *vclass_tram_xpm[] = {
/* width height num_colors chars_per_pixel */
"    64    32      256            2",
/* colors */
"`` c #fefefe",
"`. c #f5f5f6",
"`# c #d3d1d5",
"`a c #fef1c0",
"`b c #fee895",
"`c c #e6d69b",
"`d c #a7a4ac",
"`e c #fee277",
"`f c #fedc5a",
"`g c #fcdb5c",
"`h c #ecd06c",
"`i c #ebd06c",
"`j c #f9e9c3",
"`k c #f3c24e",
"`l c #f9c64d",
"`m c #fdc84c",
"`n c #feca4d",
"`o c #f8c54d",
"`p c #feca4c",
"`q c #a6a3a8",
"`r c #625d6a",
"`s c #917d61",
"`t c #fece50",
"`u c #f1d15b",
"`v c #dec25d",
"`w c #fddb5a",
"`x c #e3c65d",
"`y c #eccd5c",
"`z c #fed152",
"`A c #a98e5c",
"`B c #7b6e65",
"`C c #d5ac53",
"`D c #927e61",
"`E c #fec84b",
"`F c #fdd958",
"`G c #927e60",
"`H c #be9c58",
"`I c #7f7a83",
"`J c #8d7b61",
"`K c #fed051",
"`L c #a69463",
"`M c #e7ca5c",
"`N c #645e6a",
"`O c #8f8165",
"`P c #fed454",
"`Q c #a68c5d",
"`R c #786c66",
"`S c #d2aa54",
"`T c #e8ca5c",
"`U c #8f7c61",
"`V c #bb9a58",
"`W c #a68b5d",
"`X c #f3f2f1",
"`Y c #635e6a",
"`Z c #e7c95c",
"`0 c #8e8166",
"`1 c #a59363",
"`2 c #cdcbcd",
"`3 c #aaa7ac",
"`4 c #f7d89c",
"`5 c #f3b94f",
"`6 c #f9be4e",
"`7 c #fecc52",
"`8 c #b29e62",
".` c #6f6769",
".. c #edce5c",
".# c #756c68",
".a c #9d8d64",
".b c #fed154",
".c c #fbbf4d",
".d c #f8bc4e",
".e c #fdc04d",
".f c #6f6869",
".g c #fec7c5",
".h c #ff6464",
".i c #ff9760",
".j c #fea95e",
".k c #feeeec",
".l c #ff7a78",
".m c #fec598",
".n c #fea554",
".o c #febc56",
".p c #fec557",
".q c #feebc0",
".r c #877f80",
".s c #e4b54d",
".t c #f1bf4c",
".u c #f1c350",
".v c #f3d259",
".w c #f4d35a",
".x c #f3d35a",
".y c #f2c752",
".z c #8a7862",
".A c #6c6468",
".B c #60575c",
".C c #675e63",
".D c #f2ce57",
".E c #928f98",
".F c #76727e",
".G c #6b6673",
".H c #74707b",
".I c #6e6a76",
".J c #bfbdc2",
".K c #a19ea6",
".L c #e3e2e4",
".M c #fbfbfb",
".N c #b4b2b8",
".O c #a5a2aa",
".P c #ededee",
".Q c #000000",
".R c #000000",
".S c #000000",
".T c #000000",
".U c #000000",
".V c #000000",
".W c #000000",
".X c #000000",
".Y c #000000",
".Z c #000000",
".0 c #000000",
".1 c #000000",
".2 c #000000",
".3 c #000000",
".4 c #000000",
".5 c #000000",
".6 c #000000",
".7 c #000000",
".8 c #000000",
"#` c #000000",
"#. c #000000",
"## c #000000",
"#a c #000000",
"#b c #000000",
"#c c #000000",
"#d c #000000",
"#e c #000000",
"#f c #000000",
"#g c #000000",
"#h c #000000",
"#i c #000000",
"#j c #000000",
"#k c #000000",
"#l c #000000",
"#m c #000000",
"#n c #000000",
"#o c #000000",
"#p c #000000",
"#q c #000000",
"#r c #000000",
"#s c #000000",
"#t c #000000",
"#u c #000000",
"#v c #000000",
"#w c #000000",
"#x c #000000",
"#y c #000000",
"#z c #000000",
"#A c #000000",
"#B c #000000",
"#C c #000000",
"#D c #000000",
"#E c #000000",
"#F c #000000",
"#G c #000000",
"#H c #000000",
"#I c #000000",
"#J c #000000",
"#K c #000000",
"#L c #000000",
"#M c #000000",
"#N c #000000",
"#O c #000000",
"#P c #000000",
"#Q c #000000",
"#R c #000000",
"#S c #000000",
"#T c #000000",
"#U c #000000",
"#V c #000000",
"#W c #000000",
"#X c #000000",
"#Y c #000000",
"#Z c #000000",
"#0 c #000000",
"#1 c #000000",
"#2 c #000000",
"#3 c #000000",
"#4 c #000000",
"#5 c #000000",
"#6 c #000000",
"#7 c #000000",
"#8 c #000000",
"a` c #000000",
"a. c #000000",
"a# c #000000",
"aa c #000000",
"ab c #000000",
"ac c #000000",
"ad c #000000",
"ae c #000000",
"af c #000000",
"ag c #000000",
"ah c #000000",
"ai c #000000",
"aj c #000000",
"ak c #000000",
"al c #000000",
"am c #000000",
"an c #000000",
"ao c #000000",
"ap c #000000",
"aq c #000000",
"ar c #000000",
"as c #000000",
"at c #000000",
"au c #000000",
"av c #000000",
"aw c #000000",
"ax c #000000",
"ay c #000000",
"az c #000000",
"aA c #000000",
"aB c #000000",
"aC c #000000",
"aD c #000000",
"aE c #000000",
"aF c #000000",
"aG c #000000",
"aH c #000000",
"aI c #000000",
"aJ c #000000",
"aK c #000000",
"aL c #000000",
"aM c #000000",
"aN c #000000",
"aO c #000000",
"aP c #000000",
"aQ c #000000",
"aR c #000000",
"aS c #000000",
"aT c #000000",
"aU c #000000",
"aV c #000000",
"aW c #000000",
"aX c #000000",
"aY c #000000",
"aZ c #000000",
"a0 c #000000",
"a1 c #000000",
"a2 c #000000",
"a3 c #000000",
"a4 c #000000",
"a5 c #000000",
"a6 c #000000",
"a7 c #000000",
"a8 c #000000",
/* pixels */
"````````````````````````````````````````````````````````````````````````````````````````````````````````````````````````````````",
"````````````````````````````````````````````````````````````````````````````````````````````````````````````````````````````````",
"````````````````````````````````````````````````````````````````````````````````````````````````````````````````````````````````",
"````````````````````````````````````````````````````````````````````````````````````````````````````````````````````````````````",
"````````````````````````````````````````````````````````````````````````````````````````````````````````````````````````````````",
"````````````````````````````````````````````````````````````````````````````````````````````````````````````````````````````````",
"````````````````````````````````````````````````````````````````````````````````````````````````````````````````````````````````",
"````````````````````````````````````````````````````````````````````````````````````````````````````````````````````````````````",
"````````````````````````````````````````````````````````````````````````````````````````````````````````````````````````````````",
"````````````````````````````````````````````````````````````````````````````````````````````````````````````````````````````````",
"````````````````````````````````````````````````````````````````````````````````````````````````````````````````````````````````",
"```````````````````.`#`#`#`#`#`#`#`#`#`#`#`#`#`#`#`#`#`#`#`#`#`#`#`#`#`#`#`#`#`#`#`#`#`#`#`#`#`#`#`#`#`#`#`#`.``````````````````",
"```````````````a`b`c`d`d`d`d`d`d`d`d`d`d`d`d`d`d`d`d`d`d`d`d`d`d`d`d`d`d`d`d`d`d`d`d`d`d`d`d`d`d`d`d`d`d`d`d`c`b`a``````````````",
"```````````````e`f`g`h`i`i`i`i`i`i`i`i`i`i`i`i`i`i`i`i`i`i`i`i`i`i`i`i`i`i`i`i`i`i`i`i`i`i`i`i`i`i`i`i`i`i`h`g`f`e``````````````",
"```````````````j`k`l`m`n`n`n`n`n`m`l`k`k`o`m`k`k`k`k`k`l`m`p`n`n`n`n`p`m`l`k`k`l`m`k`k`k`k`k`l`m`n`n`n`n`n`m`l`k`j``````````````",
"```````````````q`r`s`t`u`v`w`x`y`z`A`r`r`B`C`r`r`r`r`r`D`E`F`v`u`u`v`F`E`D`r`r`G`H`r`r`r`r`r`A`z`y`x`w`v`u`t`s`r`q``````````````",
"```````````````I`r`J`K`L`r`M`N`O`P`Q`r`r`R`S`r`r`r`r`r`J`E`T`r`L`L`r`T`E`J`r`r`U`V`r`r`r`r`r`W`P`O`N`M`r`L`K`J`r`I``````````````",
"`````````````X`Y`r`J`K`L`r`Z`Y`0`P`Q`r`r`R`S`r`r`r`r`r`J`E`T`r`1`1`r`T`E`J`r`r`U`V`r`r`r`r`r`W`P`0`Y`Z`r`L`K`J`r`Y`X````````````",
"`````````````2`r`r`J`K`L`r`Z`Y`0`P`Q`r`r`R`S`r`r`r`r`r`J`E`T`r`1`1`r`T`E`J`r`r`U`V`r`r`r`r`r`W`P`0`Y`Z`r`L`K`J`r`r`2````````````",
"`````````````3`r`r`s`K`L`r`Z`Y`0`P`A`r`r`B`C`r`r`r`r`r`D`E`T`r`1`1`r`T`E`G`r`r`G`H`r`r`r`r`r`A`P`0`Y`Z`r`L`K`s`r`r`3````````````",
"`````````````4`5`5`6`7`8.`...#.a.b.c`5`5.d.e`5`5`5`5`5`6.e...f`8`8.f...e`6`5`5`6.e`5`5`5`5`5.c.b.a.#...``8`7`6`5`5`4````````````",
"````````````.g.h.h.h.i`f`f`f`f`f.j.h.h.h.h.h.h.h.h.h.h.h.h`f`f`f`f`f`f.h.h.h.h.h.h.h.h.h.h.h.h.j`f`f`f`f`f.i.h.h.h.g````````````",
"````````````.k.h.h.h.i`f`f`f`f`f.j.h.h.h.h.h.h.h.h.h.h.h.h`f`f`f`f`f`f.h.h.h.h.h.h.h.h.h.h.h.h.j`f`f`f`f`f.i.h.h.h.k````````````",
"``````````````.l.h.h.i`f`f`f`f`f.j.h.h.h.h.h.h.h.h.h.h.h.h`f`f`f`f`f`f.h.h.h.h.h.h.h.h.h.h.h.h.j`f`f`f`f`f.i.h.h.l``````````````",
"``````````````.m.n.n.o`f`f`f`f`f.p.n.n.n.n.n.n.n.n.n.n.n.n`f`f`f`f`f`f.n.n.n.n.n.n.n.n.n.n.n.n.p`f`f`f`f`f.o.n.n.m``````````````",
"``````````````.q`E`E`K`f`f`f`f`f`P`E`E`E`E`E`E`E`E`E`E`E`E`f`f`f`f`f`f`E`E`E`E`E`E`E`E`E`E`E`E`P`f`f`f`f`f`K`E`E.q``````````````",
"``````````````.r.s.t.u.v.w.w.w.x.y.z.A.A.B.B.B.C.A.A`C.t.t.D.w.w.w.w.D.t.t`C.A.A.C.B.B.B.A.A.z.y.x.w.w.w.v.u.t.s.r``````````````",
"``````````````.E.F.F.F.F.F.F.F.F.F`r`r.G.F.F.F.H`r`r.I.F.F.F.F.F.F.F.F.F.F.I`r`r.H.F.F.F.G`r`r.F.F.F.F.F.F.F.F.F.E``````````````",
"``````````````````````````````````.J.K.L``````.M.N.O.P````````````````````.P.O.N.M``````.L.K.J``````````````````````````````````",
"````````````````````````````````````````````````````````````````````````````````````````````````````````````````````````````````",
"````````````````````````````````````````````````````````````````````````````````````````````````````````````````````````````````",
"````````````````````````````````````````````````````````````````````````````````````````````````````````````````````````````````"
};
