/* XPM */
static const char *vclass_motorcycle_xpm[] = {
/* columns rows colors chars-per-pixel */
"64 32 256 2 ",
"   c #504B5A",
".  c #504C5A",
"X  c #514C5B",
"o  c #524D5C",
"O  c #524E5C",
"+  c #534E5D",
"@  c #544F5D",
"#  c #544F5E",
"$  c #5F4D5B",
"%  c #55505E",
"&  c #55505F",
"*  c #565160",
"=  c #575260",
"-  c #575261",
";  c #585361",
":  c #585362",
">  c #595462",
",  c #595463",
"<  c #5A5564",
"1  c #5B5664",
"2  c #5B5765",
"3  c #5C5765",
"4  c #5D5866",
"5  c #5E5A68",
"6  c #6F4D5A",
"7  c #605B6A",
"8  c #615C6A",
"9  c #625D6B",
"0  c #625E6B",
"q  c #635E6C",
"w  c #645F6C",
"e  c #645F6D",
"r  c #685663",
"t  c #7D5A66",
"y  c #7F5E69",
"u  c #64606D",
"i  c #65606E",
"p  c #66616F",
"a  c #66626F",
"s  c #676270",
"d  c #686370",
"f  c #686371",
"g  c #686471",
"h  c #696572",
"j  c #6A6673",
"k  c #6B6774",
"l  c #6C6774",
"z  c #6C6875",
"x  c #6E6976",
"c  c #6F6B77",
"v  c #6F6B78",
"b  c #706B78",
"n  c #706C78",
"m  c #716D79",
"M  c #726E7A",
"N  c #736F7B",
"B  c #7D6C77",
"V  c #74707C",
"C  c #76727E",
"Z  c #787480",
"A  c #797581",
"S  c #7B7883",
"D  c #7C7883",
"F  c #7C7884",
"G  c #7D7985",
"H  c #7E7A85",
"J  c #7F7B86",
"K  c #9F555E",
"L  c #875E69",
"P  c #886771",
"I  c #A6575F",
"U  c #A9585F",
"Y  c #A35962",
"T  c #B65A60",
"R  c #B66067",
"E  c #BE6167",
"W  c #C0565D",
"Q  c #C7565C",
"!  c #C55A5F",
"~  c #C8575D",
"^  c #CE575C",
"/  c #D2555A",
"(  c #D9575C",
")  c #D56064",
"_  c #D56265",
"`  c #E25A5E",
"'  c #E75C5F",
"]  c #E85C5F",
"[  c #EB5E60",
"{  c #F05F61",
"}  c #ED6365",
"|  c #F56162",
" . c #F76262",
".. c #F36F6F",
"X. c #FE6464",
"o. c #FE6767",
"O. c #FB7171",
"+. c #FB7B7B",
"@. c #FE7D7D",
"#. c #817D88",
"$. c #817E88",
"%. c #817E89",
"&. c #827F8A",
"*. c #84808B",
"=. c #85828C",
"-. c #85828D",
";. c #87838E",
":. c #898590",
">. c #898690",
",. c #8A8691",
"<. c #8B8892",
"1. c #8C8993",
"2. c #8D8A93",
"3. c #8E8A94",
"4. c #8E8B95",
"5. c #8F8C96",
"6. c #908D96",
"7. c #908D97",
"8. c #918E98",
"9. c #928F99",
"0. c #93909A",
"q. c #94909A",
"w. c #95929B",
"e. c #97949D",
"r. c #98959E",
"t. c #9A979F",
"y. c #9A97A0",
"u. c #9C99A2",
"i. c #9E9BA3",
"p. c #9E9BA4",
"a. c #9F9CA4",
"s. c #A09DA5",
"d. c #A09EA6",
"f. c #A19EA7",
"g. c #A3A0A8",
"h. c #A3A1A9",
"j. c #A4A2A9",
"k. c #A5A3AA",
"l. c #A5A3AB",
"z. c #A6A4AC",
"x. c #A7A5AD",
"c. c #A9A7AE",
"v. c #A9A7AF",
"b. c #AAA8AF",
"n. c #ABA9B0",
"m. c #ACA9B0",
"M. c #ACA9B1",
"N. c #ACAAB1",
"B. c #ADAAB2",
"V. c #B2AFB6",
"C. c #B3B1B7",
"Z. c #B3B2B9",
"A. c #B4B2B9",
"S. c #B5B3BA",
"D. c #B6B4BA",
"F. c #B8B6BC",
"G. c #B9B7BD",
"H. c #BAB8BE",
"J. c #BBB9BF",
"K. c #BCB9BF",
"L. c #BBBAC0",
"P. c #BDBBC0",
"I. c #DF868A",
"U. c #CBB2B7",
"Y. c #E08A8D",
"T. c #FE9494",
"R. c #F1A2A3",
"E. c #FEA4A4",
"W. c #FEACAC",
"Q. c #F8B8B9",
"!. c #C0BEC4",
"~. c #C0BFC5",
"^. c #EDBEC0",
"/. c #C2C0C5",
"(. c #C2C0C6",
"). c #C3C2C7",
"_. c #C5C3C8",
"`. c #C6C4C9",
"'. c #C6C5CA",
"]. c #C8C6CB",
"[. c #C8C7CC",
"{. c #CAC8CD",
"}. c #CBC9CE",
"|. c #CBCACE",
" X c #CECCD0",
".X c #CECDD1",
"XX c #D0CFD3",
"oX c #D3D2D6",
"OX c #D4D3D7",
"+X c #D5D4D7",
"@X c #D5D4D8",
"#X c #D7D5D9",
"$X c #D8D7DA",
"%X c #DAD8DC",
"&X c #DBDADD",
"*X c #DCDBDE",
"=X c #DCDCDF",
"-X c #DEDDE0",
";X c #DFDEE1",
":X c #E5CBCD",
">X c #EDC7C9",
",X c #FEC4C4",
"<X c #FECECE",
"1X c #F3D3D4",
"2X c #FED0D0",
"3X c #FEDBDB",
"4X c #FEDFDF",
"5X c #E1E0E2",
"6X c #E4E4E6",
"7X c #E6E5E7",
"8X c #E7E7E9",
"9X c #E8E8EA",
"0X c #E9E9EB",
"qX c #EBEAEC",
"wX c #ECEBED",
"eX c #ECECED",
"rX c #EDEDEE",
"tX c #EFEEEF",
"yX c #EFEEF0",
"uX c #FEE7E7",
"iX c #F9ECED",
"pX c #F0EFF1",
"aX c #F0F0F1",
"sX c #F2F1F2",
"dX c #F2F2F3",
"fX c #F3F3F4",
"gX c #F4F4F5",
"hX c #F5F5F6",
"jX c #F6F6F6",
"kX c #F6F6F7",
"lX c #F7F7F8",
"zX c #FEF5F5",
"xX c #F8F8F8",
"cX c #F8F8F9",
"vX c #F9F9FA",
"bX c gray98",
"nX c #FBFAFB",
"mX c #FBFBFC",
"MX c #FEF8F8",
"NX c #FDFBFB",
"BX c gray99",
"VX c #FCFCFD",
"CX c #FDFDFE",
"ZX c #FEFEFE",
"AX c black",
"SX c black",
"DX c black",
"FX c black",
"GX c black",
"HX c black",
"JX c black",
"KX c black",
"LX c black",
"PX c black",
"IX c black",
"UX c black",
/* pixels */
"ZXZXZXZXZXZXZXZXZXZXZXZXZXZXZXZXZXZXZXZXZXZXZXZXZXZXZXZXZXZXZXZXZXZXZXZXZXZXZXZXZXZXZXZXZXZXZXZXZXZXZXZXZXZXZXZXZXZXZXZXZXZXZXZX",
"ZXZXZXZXZXZXZXZXZXZXZXZXZXZXZXZXZXZXZXZXZXZXZXZXZXZXZXZXZXZXZXZXZXZXZXZXZXZXZXZXZXZXZXZXZXZXZXZXZXZXZXZXZXZXZXZXZXZXZXZXZXZXZXZX",
"ZXZXZXZXZXZXZXZXZXZXZXZXZXZXZXZXZXZXZXZXZXZXZXZXZXZXZXZXZXZXZXZXZXZXZXZXZXZXZXZX9X$X%XhXZXZXZXZXZXZXZXZXZXZXZXZXZXZXZXZXZXZXZXZX",
"ZXZXZXZXZXZXZXZXZXZXZXZXZXZXZXZXZXZXZXZXZXZXZXZXZXZXZXZXZXZXZXZXZXZXZXZXZXZXZXBXa 8 8 l ;XZXZXZXZXZXZXZXZXZXZXZXZXZXZXZXZXZXZXZX",
"ZXZXZXZXZXZXZXZXZXZXZXZXZXZXZXZXZXZXZXZXZXZXZXZXZXZXZXZXZXZXZXZXZXZXZXZXZXZXZXZX/.m.g.8 4.ZXZXZXZXZXZXZXZXZXZXZXZXZXZXZXZXZXZXZX",
"ZXZXZXZXZXZXZXZXZXZXZXZXZXZXZXZXZXZXZXZXZXZXZXZXZXZXZXZXZXZXZXZXZXZXZXZXZXZXZXZXZXZXZXJ e R.E.4XZXZXZXZXZXZXZXZXZXZXZXZXZXZXZXZX",
"ZXZXZXZXZXZXZXZXZXZXZXZXZXZXZXZXZXZXZXZXZXZXZXZXZXZXZXZXZXZXZXZXZXZXZXZXZXBXuX2X<XMXZXD.8 E X.+.wXVXZXZXZXZXZXZXZXZXZXZXZXZXZXZX",
"ZXZXZXZXZXZXZXZXZXZXZXZXZXoXq.u.M.K.|.&XqXbXZXZXZXZXZXZXZXZXZXzX3X,XW.T.@.o.X.| { ..B g 8 L X.O.*XyXZXZXZXZXZXZXZXZXZXZXZXZXZXZX",
"ZXZXZXZXZXZXZXZXZXZXZXZXZXl 8 8 8 8 8 8 8 9 z F 1.u.m.J.|.&XQ.o.X.X.X.X.X.X.| / / ' I   4 8 } O.*X9XZXZXZXZXZXZXZXZXZXZXZXZXZXZX",
"ZXZXZXZXZXZXZXZXZXZXZXZXZXG 8 8 8 8 8 8 8 8 8 8 8 8 8 8 8 8 } X.X.X.X.X.X.X.{ / / ` !   = 8 R O.*XyXZXZXZXZXZXZXZXZXZXZXZXZXZXZX",
"ZXZXZXZXZXZXZXZXZXZXZXZXZXsXS.#.8 8 8 8 8 8 8 8 8 8 8 8 8 8 _ X.X.X.X.X.X.X.X.] `  .^   X 8 y +.eXVXZXZXZXZXZXZXZXZXZXZXZXZXZXZX",
"ZXZXZXZXZXZXZXZXZXZXZXZXZXZXZXZX0XS.#.8 8 8 8 8 8 8 8 5 , # $ U T T T T T T T [ ] ( / r j.:.8 :XZXZXZXZXZXZXZXZXZXZXZXZXZXZXZXZX",
"ZXZXZXZXZXZXZXZXZXZXZXZXZXZXZXZXZXZXZX0XS.%.9 8 q g h .                     6 / / / / >XZX`.8 B.ZXZXZXZXZXZXZXZXZXZXZXZXZXZXZXZX",
"ZXZXZXZXZXZXZXZXZXZXZX9XA.e.6.i.(.jXZXZXZXZXkX}.M M M z &.H a a p 3 3 3 3 3 K / / / / 1XZXkXs N i.6.e.A.9XZXZXZXZXZXZXZXZXZXZXZX",
"ZXZXZXZXZXZXZXZXZXyX4.o           1 B.BXZXZXZXCX2.M M =.z.z.D M M i 8 8 8 8 Q / / / I.ZXBXB.9 8 @       o 4.yXZXZXZXZXZXZXZXZXZX",
"ZXZXZXZXZXZXZXZX5X0                   $.xXZXZXnXz.i j A d.u.V M M z 8 8 8 t / / / ) iXxX$.  & 8 ,           0 5XZXZXZXZXZXZXZXZX",
"ZXZXZXZXZXZXZXpXq     c (.aXmX7Xm.1     <.kXG.N 8 8 j M M M M m M M b j a Y / / / ^.ZX<.    2 g x bXaX(.c     q pXZXZXZXZXZXZXZX",
"ZXZXZXZXZXZXZX8.    >.cXZXgXwXvXZX7Xa X > g 8 9 g n M M M l u 8 p l m M M ~ / / I.ZX].    a 7Xp.8 {.gXZXcX>.    8.ZXZXZXZXZXZXZX",
"ZXZXZXZXZXZXrX+   z cXcX(.z.z.v.@X8X3.7 8 7 h m M M M m :     1 8 8 8 d P / / ) iXZXZ   o =XZXH.8 F z.(.cXcXz   + rXZXZXZXZXZXZX",
"ZXZXZXZXZXZXJ.    P.ZX).z.0.%.9.Z 9 8 8 - X c M M M M a       O v h w 8 t / / ^.ZXaXX   ;.ZX;Xl.f i 0.z.).ZXP.    J.ZXZXZXZXZXZX",
"ZXZXZXZXZXZXa.    9XlXx.w.@ 4 8 8 V '.V.> % j M M M M s       + M M M i 8 W Y.ZXZXOX    C.ZXL.l.e 8 * w.x.lX9X    a.ZXZXZXZXZXZX",
"ZXZXZXZXZXZXr.    fXaXz.-.; 8 4 8.Z.ZX!.8 8 q h v M M m ,   X a M M M h 8 U.NXZXZX.X    P.ZXA.d.+ 8 - -.z.aXfX    r.ZXZXZXZXZXZX",
"ZXZXZXZXZXZXz.    &XBXB.f.8 O C z.'.ZXk.# < p 8 8 i j n M x n M M M n q q tXZXZXZX=X    k.ZX'.z.C O 8 f.B.BX&X    z.ZXZXZXZXZXZX",
"ZXZXZXZXZXZX X    s.ZX=Xz.z.h.z.B.dXVXk   , gX'.<.9 8 8 9 9 9 9 9 9 8 8 n.ZXZXZXZXnX,   k VXdXB.z.h.z.z.=XZXs.     XZXZXZXZXZXZX",
"ZXZXZXZXZXZXnX0   * *XZX7X~.F.[.dXZXN.    w.ZXZXZXeXD.7.J F F F F F ,.(.ZXZXZXZXZXZXw.    N.ZXdX[.F.~.7XZX*X*   0 nXZXZXZXZXZXZX",
"ZXZXZXZXZXZXZXJ.    5 XXZXZXZXZXBXb.X   : 9XZXZXZXZXZXZXZXZXZXZXZXZXZXZXZXZXZXZXZXZX9X:   X b.BXZXZXZXZXXX5     J.ZXZXZXZXZXZXZX",
"ZXZXZXZXZXZXZXZX5.      S c.A.a.s     X ).ZXZXZXZXZXZXZXZXZXZXZXZXZXZXZXZXZXZXZXZXZXZX).X     s a.A.c.S       5.ZXZXZXZXZXZXZXZX",
"ZXZXZXZXZXZXZXZXmXt.                , _.ZXZXZXZXZXZXZXZXZXZXZXZXZXZXZXZXZXZXZXZXZXZXZXZX_.,                 t.mXZXZXZXZXZXZXZXZX",
"ZXZXZXZXZXZXZXZXZXZX+X*.#       4 y.qXZXZXZXZXZXZXZXZXZXZXZXZXZXZXZXZXZXZXZXZXZXZXZXZXZXZXqXy.4       # *.+XZXZXZXZXZXZXZXZXZXZX",
"ZXZXZXZXZXZXZXZXZXZXZXZXlX-X#X6XVXZXZXZXZXZXZXZXZXZXZXZXZXZXZXZXZXZXZXZXZXZXZXZXZXZXZXZXZXZXZXVX6X#X-XlXZXZXZXZXZXZXZXZXZXZXZXZX",
"ZXZXZXZXZXZXZXZXZXZXZXZXZXZXZXZXZXZXZXZXZXZXZXZXZXZXZXZXZXZXZXZXZXZXZXZXZXZXZXZXZXZXZXZXZXZXZXZXZXZXZXZXZXZXZXZXZXZXZXZXZXZXZXZX",
"ZXZXZXZXZXZXZXZXZXZXZXZXZXZXZXZXZXZXZXZXZXZXZXZXZXZXZXZXZXZXZXZXZXZXZXZXZXZXZXZXZXZXZXZXZXZXZXZXZXZXZXZXZXZXZXZXZXZXZXZXZXZXZXZX"
};
