/* XPM */
static const char *vclass_delivery_xpm[] = {
/* columns rows colors chars-per-pixel */
"64 32 256 2 ",
"   c #3B637B",
".  c #4E4E5E",
"X  c #504B5A",
"o  c #514C5B",
"O  c #524D5C",
"+  c #534E5D",
"@  c #544F5E",
"#  c #55505F",
"$  c #495365",
"%  c #565160",
"&  c #575261",
"*  c #595462",
"=  c #5A5564",
"-  c #5C5765",
";  c #5C5866",
":  c #5E5967",
">  c #5F5A68",
",  c #605B69",
"<  c #615C6A",
"1  c #615C6B",
"2  c #605D6C",
"3  c #66626F",
"4  c #616677",
"5  c #686471",
"6  c #6B6673",
"7  c #6B6674",
"8  c #6D6976",
"9  c #706C78",
"0  c #77737F",
"q  c #356B86",
"w  c #626F84",
"e  c #627086",
"r  c #62738A",
"t  c #62758C",
"y  c #627F9A",
"u  c #797580",
"i  c #7F7C87",
"p  c #1896BF",
"a  c #0B9CC9",
"s  c #0A9DCA",
"d  c #099ECC",
"f  c #05A6D6",
"g  c #03A7D8",
"h  c #00A9DB",
"j  c #519BB8",
"k  c #62829E",
"l  c #628AA9",
"z  c #6398BC",
"x  c #6399BD",
"c  c #56BBED",
"v  c #58B7E8",
"b  c #5CBDED",
"n  c #639DC4",
"m  c #63A0C7",
"M  c #63A9D4",
"N  c #60ADDA",
"B  c #63AFDC",
"V  c #64ADD9",
"C  c #66B0DC",
"Z  c #64B0DD",
"A  c #64B4E2",
"S  c #64BAEA",
"D  c #64BEF0",
"F  c #6AC1F1",
"G  c #71C3F1",
"H  c #7AC6F0",
"J  c #87848E",
"K  c #898690",
"L  c #8B8791",
"P  c #908D96",
"I  c #9E9BA3",
"U  c #9F9DA5",
"Y  c #A09DA6",
"T  c #A09EA5",
"R  c #A29FA7",
"E  c #A5A2AA",
"W  c #A6A4AB",
"Q  c #A9A6AE",
"!  c #ABA9B0",
"~  c #ACAAB1",
"^  c #AEABB2",
"/  c #AFACB4",
"(  c #B0AEB4",
")  c #B0AEB5",
"_  c #B2B0B6",
"`  c #B3B1B8",
"'  c #B4B3B9",
"]  c #B6B4BA",
"[  c #BBB9BE",
"{  c #BBB9BF",
"}  c #98B9C8",
"|  c #8CD1E6",
" . c #92D1F4",
".. c #9DD6F5",
"X. c #A4D9F6",
"o. c #B5DFF7",
"O. c #B7E4F2",
"+. c #B6E6F4",
"@. c #BDE1F6",
"#. c #BFE4F8",
"$. c #C5C3C8",
"%. c #C6C4C9",
"&. c #C7C5CA",
"*. c #C7C6CA",
"=. c #C9C7CC",
"-. c #C9C8CC",
";. c #CBCACE",
":. c #CCCBCE",
">. c #CDCCCF",
",. c #CDCCD0",
"<. c #CECDD1",
"1. c #CFCED2",
"2. c #D0CFD3",
"3. c #D1D0D3",
"4. c #D2D1D4",
"5. c #D2D1D5",
"6. c #D3D2D6",
"7. c #D7D6D9",
"8. c #D8D7DA",
"9. c #DCDBDE",
"0. c #DDDCDE",
"q. c #DDDCDF",
"w. c #C0E3EE",
"e. c #CCE1EE",
"r. c #C1E5F8",
"t. c #C7E7F9",
"y. c #CCE9F9",
"u. c #CEEAFA",
"i. c #D8EEFB",
"p. c #E0DFE2",
"a. c #E0E0E2",
"s. c #E1E0E3",
"d. c #E2E1E4",
"f. c #E5E4E6",
"g. c #E5E4E7",
"h. c #E7E7E9",
"j. c #E8E7E9",
"k. c #E9E8EA",
"l. c #EAE9EB",
"z. c #EAEAEB",
"x. c #EBEAEC",
"c. c #ECECED",
"v. c #E6EDF2",
"b. c #E6F4FC",
"n. c #EEF0F2",
"m. c #EBF6FC",
"M. c #EEF7FD",
"N. c #F1F1F2",
"B. c #F3F3F4",
"V. c #F4F4F5",
"C. c #F5F5F6",
"Z. c #F7F7F8",
"A. c #F2F9FD",
"S. c #F6FAFD",
"D. c #F8F8F9",
"F. c #FAF9FA",
"G. c #FBFBFB",
"H. c #FBFDFE",
"J. c #FDFDFD",
"K. c #FDFEFE",
"L. c gray100",
"P. c black",
"I. c black",
"U. c black",
"Y. c black",
"T. c black",
"R. c black",
"E. c black",
"W. c black",
"Q. c black",
"!. c black",
"~. c black",
"^. c black",
"/. c black",
"(. c black",
"). c black",
"_. c black",
"`. c black",
"'. c black",
"]. c black",
"[. c black",
"{. c black",
"}. c black",
"|. c black",
" X c black",
".X c black",
"XX c black",
"oX c black",
"OX c black",
"+X c black",
"@X c black",
"#X c black",
"$X c black",
"%X c black",
"&X c black",
"*X c black",
"=X c black",
"-X c black",
";X c black",
":X c black",
">X c black",
",X c black",
"<X c black",
"1X c black",
"2X c black",
"3X c black",
"4X c black",
"5X c black",
"6X c black",
"7X c black",
"8X c black",
"9X c black",
"0X c black",
"qX c black",
"wX c black",
"eX c black",
"rX c black",
"tX c black",
"yX c black",
"uX c black",
"iX c black",
"pX c black",
"aX c black",
"sX c black",
"dX c black",
"fX c black",
"gX c black",
"hX c black",
"jX c black",
"kX c black",
"lX c black",
"zX c black",
"xX c black",
"cX c black",
"vX c black",
"bX c black",
"nX c black",
"mX c black",
"MX c black",
"NX c black",
"BX c black",
"VX c black",
"CX c black",
"ZX c black",
"AX c black",
"SX c black",
"DX c black",
"FX c black",
"GX c black",
"HX c black",
"JX c black",
"KX c black",
"LX c black",
"PX c black",
"IX c black",
"UX c black",
/* pixels */
"L.L.L.L.L.L.K.K.K.K.K.K.K.K.K.K.K.K.K.K.K.K.K.K.K.K.K.K.K.K.K.K.K.K.K.K.K.K.K.K.K.K.K.K.K.K.K.K.K.K.K.K.K.K.K.K.K.K.L.L.L.L.L.L.",
"L.L.L.L.L.L.D.x.x.x.x.x.x.x.x.x.x.x.x.x.x.x.x.x.x.x.x.x.x.x.x.x.x.x.x.x.x.x.x.x.V.K.K.K.K.K.K.K.K.K.K.K.K.K.K.K.K.K.L.L.L.L.L.L.",
"L.L.L.L.L.L.z.9.9.9.9.9.9.9.9.9.9.9.9.9.9.9.9.9.9.9.9.9.9.9.9.9.9.9.9.9.9.9.9.9.d.K.K.K.K.K.K.K.K.K.K.K.K.K.K.K.K.K.L.L.L.L.L.L.",
"L.L.L.L.L.L.l.9.6.,.,.,.,.,.,.,.,.,.,.,.,.,.,.,.,.,.,.,.,.,.,.,.,.,.,.,.,.,.2.9.d.K.K.K.K.K.K.K.K.K.K.K.K.K.K.K.K.K.L.L.L.L.L.L.",
"L.L.L.L.L.L.l.9.3.;.;.;.;.;.;.;.;.;.;.;.;.;.;.;.;.;.;.;.;.;.;.;.;.;.;.;.;.;.,.9.d.K.K.K.K.K.K.K.K.K.K.K.K.K.K.K.K.K.L.L.L.L.L.L.",
"L.L.L.L.L.L.l.9.9.9.9.9.9.9.9.9.9.9.9.9.9.9.9.9.9.9.9.9.9.9.9.9.9.9.9.9.9.9.9.9.d.K.K.m.b.b.b.b.b.b.b.A.K.K.K.K.K.K.L.L.L.L.L.L.",
"L.L.L.L.L.L.l.9.9.9.9.9.9.9.9.9.9.9.9.9.9.9.9.9.9.9.9.9.9.9.9.9.9.9.9.9.9.9.9.9.d.K.u.D D D D D D D D D r.K.K.K.K.K.L.L.L.L.L.L.",
"L.L.L.L.L.L.l.9.9.9.9.9.9.9.9.9.9.9.9.9.9.9.9.9.9.9.9.9.9.9.9.9.9.9.9.9.9.9.9.9.d.K.#.D A x z z z z z M G H.K.K.K.K.L.L.L.L.L.L.",
"L.L.L.L.L.L.l.9.9.9.9.9.9.9.9.9.9.9.9.9.9.9.9.9.9.9.9.9.9.9.9.9.9.9.9.9.9.9.9.9.d.K.#.D k < < < < < < 1 m y.K.K.K.K.L.L.L.L.L.L.",
"L.L.L.L.L.L.l.9.9.9.9.9.9.9.9.9.9.9.9.9.9.9.9.9.9.9.9.9.9.9.9.9.9.9.9.9.9.9.9.9.d.K.#.D y < < < < < < < r  .K.K.K.K.L.L.L.L.L.L.",
"L.L.L.L.L.L.l.9.9.9.9.9.9.9.9.9.9.9.9.9.9.9.9.9.9.9.9.9.9.9.9.9.9.9.9.9.9.9.9.9.d.K.#.D y < < < < < < < < C M.K.K.K.L.L.L.L.L.L.",
"L.L.L.L.L.L.l.9.9.9.9.9.9.9.9.9.9.9.9.9.9.9.9.9.9.9.9.9.9.9.9.9.9.9.9.9.9.9.9.9.d.K.#.D y < < < < < < < < l o.K.K.K.L.L.L.L.L.L.",
"L.L.L.L.L.L.l.9.9.9.9.9.9.9.9.9.9.9.9.9.9.9.9.9.9.9.9.9.9.9.9.9.9.9.9.9.9.9.9.9.d.K.#.D y < < < < < < < < 4 H K.K.K.L.L.L.L.L.L.",
"L.L.L.L.L.L.l.9.9.9.9.9.9.9.9.9.9.9.9.9.9.9.9.9.9.9.9.9.9.9.9.9.9.9.9.9.9.9.9.9.d.K.#.D n e e e e e e e e t S i.K.K.L.L.L.L.L.L.",
"L.L.L.L.L.L.l.9.9.9.9.9.9.9.9.9.9.9.9.9.9.9.9.9.9.9.9.9.9.9.9.9.9.9.9.9.9.9.9.9.d.K.#.D D D D D D D D D D D D ..K.K.L.L.L.L.L.L.",
"L.L.L.L.L.L.l.9.9.9.9.9.9.9.9.9.9.9.9.9.9.9.9.9.9.9.9.9.9.9.9.9.9.9.9.9.9.9.9.9.d.K.#.D D D D D D D D D D D D F S.K.L.L.L.L.L.L.",
"L.L.L.L.L.L.l.9.9.9.9.9.9.9.9.9.9.9.9.9.9.9.9.9.9.9.9.9.9.9.9.9.9.9.9.9.9.9.9.9.d.K.#.D D D D D D D D D D D D D t.K.L.L.L.L.L.L.",
"L.L.L.L.L.L.l.9.9.9.9.9.9.9.9.9.9.9.9.9.9.9.9.9.9.9.9.9.9.9.9.9.9.9.9.9.9.9.9.9.d.K.#.D D D D D D D D D D D D D X.K.L.L.L.L.L.L.",
"L.L.L.L.L.L.l.9.9.9.9.9.9.9.9.9.9.9.9.9.9.9.9.9.9.9.9.9.9.9.9.9.9.9.9.9.9.9.9.9.d.K.#.D D D D D D D D D D D D D  .K.L.L.L.L.L.L.",
"L.L.L.L.L.L.l.9.4.:.:.:.:.:.:.:.:.:.:.:.:.:.:.:.:.:.:.:.:.:.:.:.:.:.:.:.:.:.<.9.s.F.@.D D D D D D D D D D D D e.v.K.L.L.L.L.L.L.",
"L.L.L.L.L.L.l.9.5.>.>.>.>.>.>.*.[ %.>.>.>.>.>.>.>.>.>.>.>.>.>.>.>.>.>.>.>.>.1.9.&.< w V Z Z B N v c c c c c b c.n.K.L.L.L.L.L.L.",
"L.L.L.L.L.L.z.9.9.9.9.9.9.;.i @ X O u $.9.9.9.9.9.9.9.9.9.9.9.9.9.9.9.9.9.9.9.9.%.< < < : # X X . q d h h h h | w.K.L.L.L.L.L.L.",
"L.L.L.L.L.L.Z.k.k.=.) ) ! ; X 6 J 9 X & W ) ) ) ) ) ) ) ) ) ) ) ) ) ) ) ) ) ) ^ L < < : o X 9 J 6 X $ a h h h p j N.L.L.L.L.L.L.",
"L.L.L.L.L.L.K.K.K.8 < < @ X W c.c.c.' o + < < < < < < < < < < < < < < < < < < < < < < + o ' c.c.c.W X   h h g 2 < E L.L.L.L.L.L.",
"L.L.L.L.L.L.K.K.K.5 < > X u c.s.9.a.c.K X ; < < < < < < < < < < < < < < < < < < < < ; X K c.a.9.s.c.u X s h f < < Y L.L.L.L.L.L.",
"L.L.L.L.L.L.K.K.K.0 < - X U k.9.9.9.j./ X = < < < < < < < < < < < < < < < < < < < < = X / j.9.9.9.k.U X } +.O.7 < / L.L.L.L.L.L.",
"L.L.L.L.L.L.K.K.K.C.g.%.X P x.q.9.0.z.T X ] g.g.g.g.g.g.g.g.g.g.g.g.g.g.g.g.g.g.g.g.] X T z.0.9.q.x.P X 7.K.K.B.h.J.L.L.L.L.L.L.",
"L.L.L.L.L.L.K.K.K.K.K.G.> * 8.z.f.k.p.< % N.K.K.K.K.K.K.K.K.K.K.K.K.K.K.K.K.K.K.K.K.N.% < p.k.f.z.8.* > G.K.K.K.K.K.L.L.L.L.L.L.",
"L.L.L.L.L.L.K.K.K.K.K.K.{ X , ~ -._ 3 X Q K.K.K.K.K.K.K.K.K.K.K.K.K.K.K.K.K.K.K.K.K.K.Q X 3 _ -.~ , X { K.K.K.K.K.K.L.L.L.L.L.L.",
"L.L.L.L.L.L.K.K.K.K.K.K.K.( # X X X O R J.K.K.K.K.K.K.K.K.K.K.K.K.K.K.K.K.K.K.K.K.K.K.J.R O X X X # ( K.K.K.K.K.K.K.L.L.L.L.L.L.",
"L.L.L.L.L.L.K.K.K.K.K.K.K.K.x.` I / g.K.K.K.K.K.K.K.K.K.K.K.K.K.K.K.K.K.K.K.K.K.K.K.K.K.K.g./ I ` x.K.K.K.K.K.K.K.K.L.L.L.L.L.L.",
"L.L.L.L.L.L.K.K.K.K.K.K.K.K.K.K.K.K.K.K.K.K.K.K.K.K.K.K.K.K.K.K.K.K.K.K.K.K.K.K.K.K.K.K.K.K.K.K.K.K.K.K.K.K.K.K.K.K.L.L.L.L.L.L."
};
