/* XPM */
static const char *vclass_private_xpm[] = {
/* columns rows colors chars-per-pixel */
"52 22 256 2 ",
"   c #504B5A",
".  c #524C5A",
"X  c #524D5B",
"o  c #524D5C",
"O  c #54505E",
"+  c #55505F",
"@  c #5F515B",
"#  c #575260",
"$  c #585361",
"%  c #585362",
"&  c #595462",
"*  c #5B5664",
"=  c #5E5967",
"-  c #63535B",
";  c #65535B",
":  c #74595C",
">  c #615C69",
",  c #625D6A",
"<  c #635E6C",
"1  c #695F6A",
"2  c #65606D",
"3  c #6F6169",
"4  c #6C606A",
"5  c #6A6673",
"6  c #6B6774",
"7  c #74646C",
"8  c #786469",
"9  c #706C78",
"0  c #726E7A",
"q  c #74707C",
"w  c #78727D",
"e  c #797581",
"r  c #7D7984",
"t  c #8B635D",
"y  c #826869",
"u  c #8A6A68",
"i  c #9D7168",
"p  c #A76C5E",
"a  c #A76E5F",
"s  c #AC655A",
"d  c #AA7567",
"f  c #B57460",
"g  c #B37867",
"h  c #B47867",
"j  c #BC7660",
"k  c #C47961",
"l  c #CA7C61",
"z  c #CC7D61",
"x  c #CE7E61",
"c  c #CD7E62",
"v  c #F67B5A",
"b  c #FA7C5A",
"n  c #FE7D5A",
"m  c #FE7F5B",
"M  c #FF6464",
"N  c #FF6664",
"B  c #FF7864",
"V  c #FE7E64",
"C  c #837F8A",
"Z  c #857F88",
"A  c #CD8066",
"S  c #D48366",
"D  c #DE8665",
"F  c #FE805B",
"G  c #FE845D",
"H  c #FE855E",
"J  c #FE865F",
"K  c #FE885F",
"L  c #E18765",
"P  c #E58763",
"I  c #E58965",
"U  c #E68B67",
"Y  c #F38D64",
"T  c #F68B62",
"R  c #F48D63",
"E  c #F78E64",
"W  c #F48F66",
"Q  c #FE8767",
"!  c #F98E64",
"~  c #FE8860",
"^  c #FE8B61",
"/  c #FE8C62",
"(  c #FE8E63",
")  c #FE8F6D",
"_  c #FB9064",
"`  c #FE9064",
"'  c #FE9265",
"]  c #FE9367",
"[  c #FE9567",
"{  c #FE9569",
"}  c #FE9769",
"|  c #FE996A",
" . c #FE9D6C",
".. c #FE9E6D",
"X. c #F7AE7A",
"o. c #FFA370",
"O. c #FFA472",
"+. c #FFA777",
"@. c #FFA478",
"#. c #FFA874",
"$. c #FFAC77",
"%. c #F8AE7B",
"&. c #FFAD78",
"*. c #FFAE78",
"=. c #FFAE79",
"-. c #FBB07B",
";. c #FBB17C",
":. c #FFB07A",
">. c #FDB17B",
",. c #FEB27B",
"<. c #FEB27C",
"1. c #87848E",
"2. c #8A8790",
"3. c #908D96",
"4. c #918E98",
"5. c #989199",
"6. c #98959E",
"7. c #9B98A1",
"8. c #A09EA5",
"9. c #A09EA6",
"0. c #AAA7AE",
"q. c #ADA7AD",
"w. c #B4B2B8",
"e. c #B9B8BD",
"r. c #BDBBC1",
"t. c #D3998D",
"y. c #D39A8F",
"u. c #D4A798",
"i. c #FAA886",
"p. c #FEA887",
"a. c #FEAB8A",
"s. c #FEAD8C",
"d. c #FEAC95",
"f. c #FEAC96",
"g. c #FEAD97",
"h. c #FEAE98",
"j. c #FFB682",
"k. c #FFB786",
"l. c #FFB884",
"z. c #FFBA88",
"x. c #FFBE8F",
"c. c #FEB191",
"v. c #FEB59E",
"b. c #FCBE92",
"n. c #FEBB9F",
"m. c #FEADA2",
"M. c #FFABAB",
"N. c #F6B9A0",
"B. c #FEBDA2",
"V. c #FEBEAC",
"C. c #C3BEC2",
"Z. c #C0BFC4",
"A. c #FFC398",
"S. c #FFC8A1",
"D. c #FFC9A3",
"F. c #FFCAA3",
"G. c #FEC1B0",
"H. c #FECAB4",
"J. c #F9CFBC",
"K. c #FFD1B1",
"L. c #FFD2B1",
"P. c #FFD3B3",
"I. c #C3C1C6",
"U. c #C9C8CC",
"Y. c #D5D4D7",
"T. c #D8D8DA",
"R. c #D8D8DB",
"E. c #DCDBDE",
"W. c #DDDCDF",
"Q. c #DEDDE0",
"!. c #DFDEE0",
"~. c #DFDEE1",
"^. c #FACDC1",
"/. c #FED2C7",
"(. c #FEDBC1",
"). c #FEDEC6",
"_. c #FED9CA",
"`. c #FEDFC8",
"'. c #EFE0DB",
"]. c #FEE0D7",
"[. c #FEE6D5",
"{. c #FEE4DC",
"}. c #F9E8DC",
"|. c #FEE8D8",
" X c #E1E0E2",
".X c #E3E2E5",
"XX c #E4E4E6",
"oX c #E5E5E7",
"OX c #E6E6E7",
"+X c #E7E6E8",
"@X c #EAEAEB",
"#X c #EBEBEC",
"$X c #ECECED",
"%X c #EEEDEF",
"&X c #EEEEEF",
"*X c #F1EFEF",
"=X c #FEEBE3",
"-X c #FEEBE4",
";X c #FEEBE6",
":X c #FEECE5",
">X c #FEEEE6",
",X c #F1EFF0",
"<X c #FEF3EB",
"1X c #FEF4ED",
"2X c #F7F6F5",
"3X c #FEF5F2",
"4X c #FEF7F4",
"5X c #FEF8F3",
"6X c #FEF9F6",
"7X c #FEF9F7",
"8X c #F9F8F8",
"9X c gray98",
"0X c #FEFCFB",
"qX c #FEFDFC",
"wX c #FDFDFD",
"eX c #FEFEFD",
"rX c #FEFEFE",
"tX c black",
"yX c black",
"uX c black",
"iX c black",
"pX c black",
"aX c black",
"sX c black",
"dX c black",
"fX c black",
"gX c black",
"hX c black",
"jX c black",
"kX c black",
"lX c black",
"zX c black",
"xX c black",
"cX c black",
"vX c black",
"bX c black",
"nX c black",
"mX c black",
"MX c black",
"NX c black",
"BX c black",
"VX c black",
"CX c black",
"ZX c black",
"AX c black",
"SX c black",
"DX c black",
"FX c black",
"GX c black",
"HX c black",
"JX c black",
"KX c black",
"LX c black",
"PX c black",
"IX c black",
"UX c black",
/* pixels */
"rXrXrXrXrXrXrXrXrXrXrXrXrXrX7X>X=X=X=X=X=X=X=X=X=X=X=X:X6XrXrXrXrXrXrXrXrXrXrXrXrXrXrXrXrXrXrXrXrXrXrXrX",
"rXrXrXrXrXrXrXrXrXrXrXrX-Xc.] ` I S z c S S S S S D ` ` U u.*XrXrXrXrXrXrXrXrXrXrXrXrXrXrXrXrXrXrXrXrXrX",
"rXrXrXrXrXrXrXrXrXrXrX_.{ ` ` h , =   + , , , , , , i ` d , w ,XrXrXrXrXrXrXrXrXrXrXrXrXrXrXrXrXrXrXrXrX",
"rXrXrXrXrXrXrXrXrXrXH.' ` ` g , , $   % , , , , , , , h _ u , Z 8XrXrXrXrXrXrXrXrXrXrXrXrXrXrXrXrXrXrXrX",
"rXrXrXrXrXrXrXrX0Xn.` ` ` g , , , o   * , , , , , , , , A Y 8 , 5.wXrXrXrXrXrXrXrXrXrXrXrXrXrXrXrXrXrXrX",
"rXrXrXrXrXrXrX4Xs.` ` ` I , , , =     = , , , , , , , , 1 L I 4 , q.rXrXrXrXrXrXrXrXrXrXrXrXrXrXrXrXrXrX",
"rXrX1X|.).P.S.k.#.o. .} W 8 , , $     > , , , , , , , , , y ` S 3 , C.rXrXrXrXrXrXrXrXrXrXrXrXrXrXrXrXrX",
"rXK.<.<.<.<.<.<.<.<.<.<.<.<.-.-.%.X.X.-.-.-.-.-.-.-.-.-.-.>.,.,.,.-.;.j.l.z.x.A.D.L.(.[.<XeXrXrXrXrXrXrX",
"3X@.+.$.$.$.$.$.$.$.$.$.$.$.$.$.$.$.$.$.$.$.$.$.$.$.$.$.$.$.$.$.$.$.$.$.$.&.*.=.:.<.<.<.<.l.F.`.5XrXrXrX",
"M.M N ` ` ` ` ` ` ` ` ` ` ` ` ` ` ` ` ` ` ` ` ` ` ` ` ` ` ` ` ` ` ` ` ` ` ` ` ` ` ` ' [ | ..O.$.b.}.rXrX",
"m.B V ` ` ` ` P j f x ! ` ` ` ` ` ` ` ` ` ` ` ` ` ` ` ` ` ` ` ` ` ` ` ` ` ` ` ` ! x f j P ` ` ` '.$X2XrX",
"B.` ` ` ` R t         - z ` ` ` ` ` ` ` ` ` ` ` ` ` ` ` ` ` ` ` ` ` ` ` ` ` ` z -         t R ` i.N.J.rX",
"B.` ` ` ! :   9 0.w.3.O . l ` ` ^ G G G G G G G G G G G G G G G G G G G / ` l . O 3.w.0.9   : ! ` J ) ].",
"B.` ` ` a   2.@X$X$X$XU.+ @ E ` H n n n n n n n n n n n n n n n n n n n K E @ + U.$X$X$X@X2.  a ` m n G.",
"v.F G ~ ; & XX#X XQ.+X$X6.  k ` ` ( ( ( ( ( ( ( ( ( ( ( ( ( ( ( ( ( ( ( ` k   6.$X+XQ. X#XXX& ; ` ` a.rX",
"/.Q n v   e $XXXE.E.W.$XZ.  p ( ( ( ( ( ( ( ( ( ( ( ( ( ( ( ( ( ( ( ( ( ( p   Z.$XW.E.E.XX$Xe   T ( p.qX",
"rXeX;X^.X 0 $XOXE.E.~.$Xe.  s n n n n n n n n n n n n n n n n n n n n n n s   e.$X!.E.E.OX$X0   b n n V.",
"rXrXrXrXq o Y.$XoX.X@X$XC   y.h.h.f.d.d.d.d.d.d.d.d.d.d.d.d.d.d.d.d.d.d.d.t.  C $X@X.XoX$XY.o 7 d.d.g.{.",
"rXrXrXrXI.  6 T.$X$X@X9.  q wXrXrXrXrXrXrXrXrXrXrXrXrXrXrXrXrXrXrXrXrXrXrXwXq   8.@X$X$XR.6   I.rXrXrXrX",
"rXrXrXrXrX7.  O r 1.2   < +XrXrXrXrXrXrXrXrXrXrXrXrXrXrXrXrXrXrXrXrXrXrXrXrX+X<   2 1.r O   7.rXrXrXrXrX",
"rXrXrXrXrXrXr.5     # 4.%XrXrXrXrXrXrXrXrXrXrXrXrXrXrXrXrXrXrXrXrXrXrXrXrXrXrX%X4.#     5 r.rXrXrXrXrXrX",
"rXrXrXrXrXrXrXrX&X+X9XrXrXrXrXrXrXrXrXrXrXrXrXrXrXrXrXrXrXrXrXrXrXrXrXrXrXrXrXrXrX9X+X&XrXrXrXrXrXrXrXrX"
};
