/* XPM */
static const char *vclass_hov_xpm[] = {
/* columns rows colors chars-per-pixel */
"64 32 256 2 ",
"   c #504B5A",
".  c #514C5A",
"X  c #514C5B",
"o  c #524D5C",
"O  c #534E5C",
"+  c #54505E",
"@  c #5D5459",
"#  c #5C555A",
"$  c #565160",
"%  c #585462",
"&  c #595463",
"*  c #5D5866",
"=  c #615759",
"-  c #625A5A",
";  c #615C6A",
":  c #625D6B",
">  c #625E6B",
",  c #635F6C",
"<  c #655F6B",
"1  c #6F6157",
"2  c #6B625A",
"3  c #6F655A",
"4  c #7C705A",
"5  c #65606E",
"6  c #69626A",
"7  c #696572",
"8  c #6C6875",
"9  c #6F6B77",
"0  c #736B69",
"q  c #746B69",
"w  c #786F69",
"e  c #726D78",
"r  c #7C7268",
"t  c #74707B",
"y  c #75717D",
"u  c #76727E",
"i  c #78747F",
"p  c #7A7681",
"a  c #7E7B86",
"s  c #82745A",
"d  c #87795A",
"f  c #947C54",
"g  c #877B67",
"h  c #FF6464",
"j  c #FF6F63",
"k  c #807D87",
"l  c #827F89",
"z  c #98875A",
"x  c #9B895A",
"c  c #9D8D65",
"v  c #9E8E64",
"b  c #A88A52",
"n  c #A3905A",
"m  c #B99651",
"M  c #BC9951",
"N  c #AA9863",
"B  c #BEA65A",
"V  c #B5A062",
"C  c #B8A362",
"Z  c #CDA54F",
"A  c #C8AF5A",
"S  c #CCB35F",
"D  c #CCB45F",
"F  c #D7BA59",
"G  c #C4AD60",
"H  c #C5AE60",
"J  c #E4B54D",
"K  c #E4C559",
"L  c #E4C75D",
"P  c #E7C95C",
"I  c #E5C85D",
"U  c #EACC5A",
"Y  c #F6C24C",
"T  c #F8C34C",
"R  c #FBC64B",
"E  c #FEC34C",
"W  c #FCC74B",
"Q  c #FEC84B",
"!  c #FECE54",
"~  c #F1D15A",
"^  c #F3D35B",
"/  c #F5D45A",
"(  c #F7D65A",
")  c #FED353",
"_  c #FED056",
"`  c #FED454",
"'  c #FED555",
"]  c #FED656",
"[  c #FBD758",
"{  c #F8D75A",
"}  c #F8D75B",
"|  c #FED65A",
" . c #F9D85A",
".. c #F9D85B",
"X. c #FBDA5A",
"o. c #FBDA5E",
"O. c #FED958",
"+. c #FED85A",
"@. c #FDDA5A",
"#. c #FEDC5A",
"$. c #FEDF6A",
"%. c #FCDE6B",
"&. c #FBDF72",
"*. c #FEE37B",
"=. c #FEE37E",
"-. c #85818A",
";. c #86828D",
":. c #89868F",
">. c #8A8690",
",. c #8E8B94",
"<. c #968B82",
"1. c #908D96",
"2. c #928F98",
"3. c #95929B",
"4. c #99969F",
"5. c #9B98A0",
"6. c #9C99A1",
"7. c #9F9CA4",
"8. c #AA9E8D",
"9. c #A09DA2",
"0. c #ACA9B0",
"q. c #ACAAB1",
"w. c #AEACB2",
"e. c #B4B2B8",
"r. c #B6B4BA",
"t. c #BBB9BF",
"y. c #BEBCC1",
"u. c #BFBEC3",
"i. c #FF8F8D",
"p. c #C0BDC0",
"a. c #FEDE88",
"s. c #FEDE93",
"d. c #FEDF98",
"f. c #E6D3AD",
"g. c #FEE281",
"h. c #F8E18A",
"j. c #FEE688",
"k. c #FEE78F",
"l. c #FEE998",
"z. c #FEEA9C",
"x. c #F8E6A2",
"c. c #FEE3A4",
"v. c #FAE9AA",
"b. c #F9E5B7",
"n. c #FEEFB7",
"m. c #FEE9B8",
"M. c #FEE9BA",
"N. c #C1C0C5",
"B. c #C8C7CB",
"V. c #C9C8CC",
"C. c #CDCCCF",
"Z. c #D0CFD2",
"A. c #D1D0D3",
"S. c #D2D1D5",
"D. c #D4D2D6",
"F. c #DBD9DA",
"G. c #D9D9DB",
"H. c #DAD9DC",
"J. c #DCDBDE",
"K. c #DDDCDF",
"L. c #DEDDE0",
"P. c #DEDEE0",
"I. c #E0DFE1",
"U. c #E0DFE2",
"Y. c #EEEADD",
"T. c #FAEEC4",
"R. c #E0E0E2",
"E. c #E1E1E3",
"W. c #E2E1E4",
"Q. c #E3E2E4",
"!. c #E4E3E5",
"~. c #E5E4E6",
"^. c #E5E5E7",
"/. c #E7E6E8",
"(. c #E8E8E9",
"). c #E9E9EA",
"_. c #E9E9EB",
"`. c #EAEAEB",
"'. c #EBEBEC",
"]. c #ECECED",
"[. c #EDECEE",
"{. c #EEEEEE",
"}. c #FEF8E1",
"|. c #FEF9EE",
" X c #FEFAED",
".X c #F1F1F0",
"XX c #F4F3F2",
"oX c #F5F4F5",
"OX c #F9F9F9",
"+X c #F9F9FA",
"@X c #FAFAF9",
"#X c #FEFDF9",
"$X c #FDFCFA",
"%X c #FDFDFD",
"&X c #FEFEFC",
"*X c #FEFEFE",
"=X c black",
"-X c black",
";X c black",
":X c black",
">X c black",
",X c black",
"<X c black",
"1X c black",
"2X c black",
"3X c black",
"4X c black",
"5X c black",
"6X c black",
"7X c black",
"8X c black",
"9X c black",
"0X c black",
"qX c black",
"wX c black",
"eX c black",
"rX c black",
"tX c black",
"yX c black",
"uX c black",
"iX c black",
"pX c black",
"aX c black",
"sX c black",
"dX c black",
"fX c black",
"gX c black",
"hX c black",
"jX c black",
"kX c black",
"lX c black",
"zX c black",
"xX c black",
"cX c black",
"vX c black",
"bX c black",
"nX c black",
"mX c black",
"MX c black",
"NX c black",
"BX c black",
"VX c black",
"CX c black",
"ZX c black",
"AX c black",
"SX c black",
"DX c black",
"FX c black",
"GX c black",
"HX c black",
"JX c black",
"KX c black",
"LX c black",
"PX c black",
"IX c black",
"UX c black",
/* pixels */
"*X*X*X*X*X*X*X*X*X*X*X*X*X*X*X*X*X*X*X*X*X*X*X*X*X*X*X*X*X*X*X*X*X*X*X*X*X*X*X*X*X*X*X*X*X*X*X*X*X*X*X*X*X*X*X*X*X*X*X*X*X*X*X*X",
"*X*X*X*X*X*X*X*X*X*X*X*X*X*X*X*X*X*X*X*X*X*X*X*X*X*X*X*X*X*X*X*X*X*X*X*X*X*X*X*X*X*X*X*X*X*X*X*X*X*X*X*X*X*X*X*X*X*X*X*X*X*X*X*X",
"*X*X*X*X*X*X*X*X*X*X*X*X*X*X*X*X*X*X*X*X*X*X*X*X*X*X*X*X*X*X*X*X*X*X*X*X*X*X*X*X*X*X*X*X*X*X*X*X*X*X*X*X*X*X*X*X*X*X*X*X*X*X*X*X",
"*X*X*X*X*X*X*X Xk.*.*.*.*.*.*.*.*.*.*.*.*.*.*.*.*.*.*.*.*.*.*.*.*.*.*.*.*.*.*.*.*.*.=.z.}.*X*X*X*X*X*X*X*X*X*X*X*X*X*X*X*X*X*X*X",
"*X*X*X*X*X*X*Xl.#.#.@...................( / ( ....................#.#.#. ....... .#.#.#.o.T.*X*X*X*X*X*X*X*X*X*X*X*X*X*X*X*X*X*X",
"*X*X*X*X*X*X*Xj.#. .0 : : : : : : : : : %   * : : : : : : : : : : v #.S > : : : : w P #.0 5 F.*X*X*X*X*X*X*X*X*X*X*X*X*X*X*X*X*X",
"*X*X*X*X*X*X*Xj.#.^ : : : : : : : : : : %   * : : : : : : : : : : g #.V : : : : : : r } G : e {.*X*X*X*X*X*X*X*X*X*X*X*X*X*X*X*X",
"*X*X*X*X*X*X*Xj.#.^ : : : : : : : : : : %   * : : : : : : : : : : g #.V : : : : : : : v #.c : -.@X*X*X*X*X*X*X*X*X*X*X*X*X*X*X*X",
"*X*X*X*X*X*X*Xj.#.^ : : : : : : : : : : %   * : : : : : : : : : : g #.V : : : : : : : : H } r : 9.*X*X*X*X*X*X*X*X*X*X*X*X*X*X*X",
"*X*X*X*X*X*X*Xj.#.^ : : : : : : : : : : %   * : : : : : : : : : : g #.V : : : : : : : : 6 I L 6 : p.*X*X*X*X*X*X*X*X*X*X*X*X*X*X",
"*X*X*X*X*X*X*Xj.#.^ : : : : : : : : : : %   * : : : : : : : : : : g #.V : : : : : : : : : r } G : 5 F.*X*X*X*X*X*X*X*X*X*X*X*X*X",
"*X*X*X*X*X*X*Xj.#. .q : : : : : : : : : %   * : : : : : : : : : : v #.D > : : : : : : : : : C #.N < e {.*X*X*X*X*X*X*X*X*X*X*X*X",
"*X*X*X*X*X*X*Xa.+.#.@. . . . . . . . . .{ /  . . . . . . . . . . .#.#.#.X. . . . . . . . . .@.#.#.@. .%.n.#X*X*X*X*X*X*X*X*X*X*X",
"*X*X*X*X*X*X*Xi.j @.#.#.#.#.#.#.#.#.#.#.#.#.#.#.#.#.#.#.#.#.#.#.#.#.#.#.#.#.#.#.#.#.#.#.#.#.#.#.#.#.#.#.#.$.n.#X*X*X*X*X*X*X*X*X",
"*X*X*X*X*X*X*Xi.h _ ' ' ' ' ' ' ' ' ' ' ' ' ' ' ' ' ' ' ' ' ' ' ' ' ' ' ' ' ' ' ' ' ' ' ' ' ' ' ' ' ' ] #.#.&.x.$X*X*X*X*X*X*X*X",
"*X*X*X*X*X*X*Xi.h E Q Q Q Q Q Q Q Q Q Q Q Q Q Q Q Q Q Q Q Q Q Q Q Q Q Q Q Q Q Q Q Q Q Q Q Q Q Q Q Q Q Q ] #.Y.].XX*X*X*X*X*X*X*X",
"*X*X*X*X*X*X*Xi.h ! ) ) ) ) ) ) ) ) ) ) ) ) ) ) ) ) ) ) ) ) ) ) ) ) ) ) ) ) ) ) ) ) ) ) ) ) ) ) ) ) ) ` #.#.Y.]..X*X*X*X*X*X*X*X",
"*X*X*X*X*X*X*Xi.h | #.#.#.#.#.#.#.#.#.#.#.#.#.#.#.#.#.#.#.#.#.#.#.#.#.#.#.#.#.#.#.#.#.#.#.#.#.#.#.#.#.#.#.#.&.h.v.*X*X*X*X*X*X*X",
"*X*X*X*X*X*X*Xi.j @.#.#.#.#.#.#.#.#.#.#.#.#.#.#.#.#.#.#.#.#.#.#.#.#.#.#.#.#.#.#.#.#.#.#.#.#.#.#.#.#.#.#.#.#.#.#.j.*X*X*X*X*X*X*X",
"*X*X*X*X*X*X*Xa.+.#.#.#.A s - 2 x U #.#.#.#.#.#.#.#.#.#.#.#.#.#.#.#.#.#.#.#.#.#.#.#.#.#.#.~ n 3 - 4 B @.#.#.#.#.j.*X*X*X*X*X*X*X",
"*X*X*X*X*X*X&Xg.O.O.O.z     ; %   # F O.O.O.O.O.O.O.O.O.O.O.O.O.O.O.O.O.O.O.O.O.O.O.O.O.K -   $ > X   d [ O.O.O.g.&X*X*X*X*X*X*X",
"*X*X*X*X*X*Xc.Q Q Q M   8 S.]._.q.O = Y Q Q Q Q Q Q Q Q Q Q Q Q Q Q Q Q Q Q Q Q Q Q Q W 1   7./.].G.i   b Q Q Q Q c.*X*X*X*X*X*X",
"*X*X*X*X*X*Xs.Q Q Q 1 + H.(.U.W.'.6.  m Q Q Q Q Q Q Q Q Q Q Q Q Q Q Q Q Q Q Q Q Q Q Q Z   >.].Q.I./.!.* @ R Q Q Q s.*X*X*X*X*X*X",
"*X*X*X*X*X*Xd.Q Q T   u ].L.J.J.~.Z.  f Q Q Q Q Q Q Q Q Q Q Q Q Q Q Q Q Q Q Q Q Q Q Q b   y./.J.J.J.'.:.  J Q Q Q d.*X*X*X*X*X*X",
"*X*X*X*X*X*X|.M.m.b.X t ].P.J.J.^.C.  <.m.m.m.m.m.m.m.m.m.m.m.m.m.m.m.m.m.m.m.m.m.m.m.8.  t./.J.J.K.].;.  f.m.m.M.|.*X*X*X*X*X*X",
"*X*X*X*X*X*X*X*X*X*Xy o S.).E.!.].2.  u.*X*X*X*X*X*X*X*X*X*X*X*X*X*X*X*X*X*X*X*X*X*X*XD.  k ].~.E.(.L.& : %X*X*X*X*X*X*X*X*X*X*X",
"*X*X*X*X*X*X*X*X*X*XB.  , N.`.R.5.. 7 +X*X*X*X*X*X*X*X*X*X*X*X*X*X*X*X*X*X*X*X*X*X*X*X*Xp   ,.J.'.V.8   e.*X*X*X*X*X*X*X*X*X*X*X",
"*X*X*X*X*X*X*X*X*X*X*X0.X   o     5 W.*X*X*X*X*X*X*X*X*X*X*X*X*X*X*X*X*X*X*X*X*X*X*X*X*X[.9     o     4.%X*X*X*X*X*X*X*X*X*X*X*X",
"*X*X*X*X*X*X*X*X*X*X*X*XH.3.u a w.oX*X*X*X*X*X*X*X*X*X*X*X*X*X*X*X*X*X*X*X*X*X*X*X*X*X*X*XOXr.l y 1.A.*X*X*X*X*X*X*X*X*X*X*X*X*X",
"*X*X*X*X*X*X*X*X*X*X*X*X*X*X*X*X*X*X*X*X*X*X*X*X*X*X*X*X*X*X*X*X*X*X*X*X*X*X*X*X*X*X*X*X*X*X*X*X*X*X*X*X*X*X*X*X*X*X*X*X*X*X*X*X",
"*X*X*X*X*X*X*X*X*X*X*X*X*X*X*X*X*X*X*X*X*X*X*X*X*X*X*X*X*X*X*X*X*X*X*X*X*X*X*X*X*X*X*X*X*X*X*X*X*X*X*X*X*X*X*X*X*X*X*X*X*X*X*X*X",
"*X*X*X*X*X*X*X*X*X*X*X*X*X*X*X*X*X*X*X*X*X*X*X*X*X*X*X*X*X*X*X*X*X*X*X*X*X*X*X*X*X*X*X*X*X*X*X*X*X*X*X*X*X*X*X*X*X*X*X*X*X*X*X*X"
};
