/* XPM */
static const char *vclass_ship_xpm[] = {
/* columns rows colors chars-per-pixel */
"52 20 256 2 ",
"   c #625D6B",
".  c #6A6572",
"X  c #6B6674",
"o  c #706C78",
"O  c #75717D",
"+  c #787480",
"@  c #797581",
"#  c #807C87",
"$  c #898690",
"%  c #8B8892",
"&  c #8D8A94",
"*  c #918D97",
"=  c #95929B",
"-  c #96939C",
";  c #9F9CA4",
":  c #A3A0A8",
">  c #A4A1A9",
",  c #ADAAB1",
"<  c #B1AEB5",
"1  c #B3B1B8",
"2  c #B5B3B9",
"3  c #B8B6BC",
"4  c #BAB8BE",
"5  c #BBB9BF",
"6  c #BFBDC3",
"7  c #BFBEC3",
"8  c #C3C1C6",
"9  c #C4C2C7",
"0  c #C4C2C8",
"q  c #C7C5CA",
"w  c #CDCBCF",
"e  c #CECCD1",
"r  c #D1D0D4",
"t  c #D6D5D8",
"y  c #DAD8DC",
"u  c #DBDADD",
"i  c #DCDBDE",
"p  c #DDDCDF",
"a  c #DEDDE0",
"s  c #DFDEE1",
"d  c #E0DFE1",
"f  c #E0DFE2",
"g  c #E1E0E3",
"h  c #E2E1E4",
"j  c #E4E3E6",
"k  c #E4E4E6",
"l  c #E6E5E7",
"z  c #E6E5E8",
"x  c #E7E6E8",
"c  c #E7E7E9",
"v  c #E8E8EA",
"b  c #E9E9EB",
"n  c #EAE9EC",
"m  c #EAEAEC",
"M  c #ECECEE",
"N  c #EDEDEF",
"B  c #EEEEEF",
"V  c #EFEFF0",
"C  c #EFEFF1",
"Z  c #F0F0F1",
"A  c #F0F0F2",
"S  c #F1F1F3",
"D  c #F2F2F3",
"F  c #F2F2F4",
"G  c #F4F4F5",
"H  c #F5F5F6",
"J  c #F6F6F7",
"K  c #F7F7F8",
"L  c #F8F8F8",
"P  c #F8F8F9",
"I  c #F9F9FA",
"U  c gray98",
"Y  c #FAFAFB",
"T  c #FBFBFC",
"R  c gray99",
"E  c #FCFCFD",
"W  c #FEFEFE",
"Q  c gray100",
"!  c black",
"~  c black",
"^  c black",
"/  c black",
"(  c black",
")  c black",
"_  c black",
"`  c black",
"'  c black",
"]  c black",
"[  c black",
"{  c black",
"}  c black",
"|  c black",
" . c black",
".. c black",
"X. c black",
"o. c black",
"O. c black",
"+. c black",
"@. c black",
"#. c black",
"$. c black",
"%. c black",
"&. c black",
"*. c black",
"=. c black",
"-. c black",
";. c black",
":. c black",
">. c black",
",. c black",
"<. c black",
"1. c black",
"2. c black",
"3. c black",
"4. c black",
"5. c black",
"6. c black",
"7. c black",
"8. c black",
"9. c black",
"0. c black",
"q. c black",
"w. c black",
"e. c black",
"r. c black",
"t. c black",
"y. c black",
"u. c black",
"i. c black",
"p. c black",
"a. c black",
"s. c black",
"d. c black",
"f. c black",
"g. c black",
"h. c black",
"j. c black",
"k. c black",
"l. c black",
"z. c black",
"x. c black",
"c. c black",
"v. c black",
"b. c black",
"n. c black",
"m. c black",
"M. c black",
"N. c black",
"B. c black",
"V. c black",
"C. c black",
"Z. c black",
"A. c black",
"S. c black",
"D. c black",
"F. c black",
"G. c black",
"H. c black",
"J. c black",
"K. c black",
"L. c black",
"P. c black",
"I. c black",
"U. c black",
"Y. c black",
"T. c black",
"R. c black",
"E. c black",
"W. c black",
"Q. c black",
"!. c black",
"~. c black",
"^. c black",
"/. c black",
"(. c black",
"). c black",
"_. c black",
"`. c black",
"'. c black",
"]. c black",
"[. c black",
"{. c black",
"}. c black",
"|. c black",
" X c black",
".X c black",
"XX c black",
"oX c black",
"OX c black",
"+X c black",
"@X c black",
"#X c black",
"$X c black",
"%X c black",
"&X c black",
"*X c black",
"=X c black",
"-X c black",
";X c black",
":X c black",
">X c black",
",X c black",
"<X c black",
"1X c black",
"2X c black",
"3X c black",
"4X c black",
"5X c black",
"6X c black",
"7X c black",
"8X c black",
"9X c black",
"0X c black",
"qX c black",
"wX c black",
"eX c black",
"rX c black",
"tX c black",
"yX c black",
"uX c black",
"iX c black",
"pX c black",
"aX c black",
"sX c black",
"dX c black",
"fX c black",
"gX c black",
"hX c black",
"jX c black",
"kX c black",
"lX c black",
"zX c black",
"xX c black",
"cX c black",
"vX c black",
"bX c black",
"nX c black",
"mX c black",
"MX c black",
"NX c black",
"BX c black",
"VX c black",
"CX c black",
"ZX c black",
"AX c black",
"SX c black",
"DX c black",
"FX c black",
"GX c black",
"HX c black",
"JX c black",
"KX c black",
"LX c black",
"PX c black",
"IX c black",
"UX c black",
/* pixels */
"Q Q Q Q Q Q Q Q Q Q Q Q Q Q Q Q Q Q F H Q Q Q Q Q Q Q Q Q Q Q Q Q Q Q Q Q Q Q Q Q Q Q Q Q Q Q Q Q Q Q Q ",
"Q Q Q Q Q Q Q Q Q Q Q Q Q Q Q Q Q Q B C Q Q Q Q Q Q Q Q Q Q Q Q Q Q Q Q Q Q Q Q Q Q Q Q Q Q Q Q Q Q Q Q ",
"Q Q Q Q Q Q Q Q Q Q Q Q Q Q Q Q Q Q W z M Q Q Q Q Q Q Q Q Q Q Q Q Q Q Q Q Q Q Q Q Q Q Q Q Q Q Q Q Q Q Q ",
"Q Q Q Q Q Q Q Q Q Q Q Q Q Q Q Q Q Q Q R d x E Q Q Q Q Q Q Q Q Q Q Q Q Q Q Q Q Q Q Q Q Q Q Q Q Q Q Q Q Q ",
"Q Q Q Q Q Q Q Q Q Q Q Q Q Q Q Q R I I I A g c P I I I Y Q Q Q Q Q Q Q Q Q Q Q Q Q Q Q Q Q Q Q Q Q Q Q Q ",
"Q Q Q Q Q Q Q Q Q Q Q Q Q Q Q Q P G F z r 1 1 1 1 1 1 1 4 L Q Q Q Q Q Q Q Q Q Q Q Q Q Q Q Q Q Q Q Q Q Q ",
"Q Q Q Q Q Q Q Q Q Q Q Q Q Q Q Q Q Q b i $                 # M Q Q Q Q Q Q Q Q Q Q Q Q Q Q Q Q Q Q Q Q Q ",
"Q Q Q Q Q Q Q Q Q Q Q Q Q Q Q Q Q Z i i q < < < < < < < < < 7 K Q Q Q Q Q Q Q Q Q Q Q Q Q Q Q Q Q Q Q Q ",
"Q Q Q Q Q Q Q Q Q Y S A A A A A A b v v v v v v v v v v v v v b A A S G I Q Q Q Q Q Q Q Q Q Q Q Q Q Q Q ",
"Q Q Q Q Q Q Q Q W N M M M M M M M M M M M M M M M M M M M M M M M M M M M V P Q Q Q Q Q Q Q Q Q Q Q Q Q ",
"Q Q Q Q Q Q Q Q Q Q Q Q Q Q R d i 2                   @ ; 0 t 3 - O           + 9 E Q Q Q Q Q Q Q Q Q Q ",
"Q Q Q Q Q Q Q Q Q Q Q Q Q Q l i w .                         o = 5 y e , % X       + 9 E Q Q Q Q Q Q Q Q ",
"Q Q Q Q Q Q Q Q Q Q Q Q Q B i i 8 & & & & & & & & & & & & & & & & 6 i i i u 8 > * & & : v W Q Q Q Q Q Q ",
"Q Q Q Q Q Q Q T K J J J H k j j j j j j j j j j j j j j j j j j j j j j j j j j j j j j j v H J J J J Y ",
"Q Q Q Q Q Y Z M M M M M M M M M M M M M M M M M M M M M M M M M M M M M M M M M M M M M M M M M M M M P ",
"Q Q Q W F M M M M M M M M M M M M M M M M M M M M M M M M M M M M M M M M M M M M M M M M M M M M M L Q ",
"Q Q P B M m f s s s s s s s s s s s s s s s s s s s s s s s s s s s s s s s s s h M M M M M M M N U Q Q ",
"E A M M M n a p p p p p p p p p p p p p p p p p p p p p p p p p p p p p p p p p f M M M M M M D E Q Q Q ",
"H M M M M M M M M M M M M M M M M M M M M M M M M M M M M M M M M M M M M M M M M M M M M S Y Q Q Q Q Q ",
"R D S S S S S S S S S S S S S S S S S S S S S S S S S S S S S S S S S S S S S S S F G P E Q Q Q Q Q Q Q "
};
