/* XPM */
static const char *vclass_passenger_xpm[] = {
/* columns rows colors chars-per-pixel */
"52 20 256 2 ",
"   c #3D657D",
".  c #504B5A",
"X  c #514C5B",
"o  c #514D5C",
"O  c #504E5E",
"+  c #544F5E",
"@  c #56515F",
"#  c #4C5364",
"$  c #515161",
"%  c #515162",
"&  c #515365",
"*  c #525567",
"=  c #565160",
"-  c #575260",
";  c #575261",
":  c #535B6F",
">  c #585362",
",  c #595462",
"<  c #5C5765",
"1  c #5C5866",
"2  c #5C5967",
"3  c #5E5968",
"4  c #5F5A68",
"5  c #535D71",
"6  c #535E73",
"7  c #47677F",
"8  c #55667D",
"9  c #55677F",
"0  c #596478",
"q  c #5A6579",
"w  c #5D687D",
"e  c #5F6A7F",
"r  c #605B69",
"t  c #615D6A",
"y  c #615D6B",
"u  c #625E6B",
"i  c #615E6C",
"p  c #625F6D",
"a  c #645F6D",
"s  c #64606D",
"d  c #65606E",
"f  c #66626F",
"g  c #616272",
"h  c #616373",
"j  c #676472",
"k  c #616A7D",
"l  c #64697A",
"z  c #686370",
"x  c #6A6673",
"c  c #6D6975",
"v  c #706C78",
"b  c #706E7B",
"n  c #257E9F",
"m  c #386781",
"M  c #3D7F9F",
"N  c #566D86",
"B  c #587794",
"V  c #597E9D",
"C  c #597F9E",
"Z  c #616E82",
"A  c #627085",
"S  c #62748A",
"D  c #62758C",
"F  c #627B94",
"G  c #787580",
"H  c #7B7782",
"J  c #0A9ECB",
"K  c #00AADC",
"L  c #08ACDD",
"P  c #30A2CE",
"I  c #23B1E3",
"U  c #24B1E3",
"Y  c #27B2E4",
"T  c #29B2E4",
"R  c #32B4E6",
"E  c #34B4E6",
"W  c #34B8E5",
"Q  c #3CBAE6",
"!  c #59809F",
"~  c #5B89AB",
"^  c #5D93B8",
"/  c #5D98BE",
"(  c #62819C",
")  c #62819D",
"_  c #69829A",
"`  c #6284A1",
"'  c #628AA9",
"]  c #6B92AE",
"[  c #6391B3",
"{  c #6F96B2",
"}  c #729BB7",
"|  c #749DB9",
" . c #749EBA",
".. c #5E9AC1",
"X. c #5E9BC2",
"o. c #46B8EA",
"O. c #4BB9EB",
"+. c #4EBAEC",
"@. c #58BCEE",
"#. c #63A1C8",
"$. c #60A4CE",
"%. c #63A7D0",
"&. c #60A7D2",
"*. c #61AEDB",
"=. c #64ADD8",
"-. c #64AEDA",
";. c #62B0DE",
":. c #64B0DC",
">. c #75A2C0",
",. c #74A6C5",
"<. c #75A7C7",
"1. c #79ADCC",
"2. c #79B4D6",
"3. c #64B4E2",
"4. c #64B7E6",
"5. c #63BAEB",
"6. c #64BBEB",
"7. c #64BBEC",
"8. c #64BCED",
"9. c #63BEF0",
"0. c #64BEF0",
"q. c #78B8E4",
"w. c #4BC3E6",
"e. c #6FC4F2",
"r. c #6CC4F3",
"t. c #6DC4F4",
"y. c #70CEEB",
"u. c #7FC3E8",
"i. c #70C6F5",
"p. c #72C8F6",
"a. c #76C9F5",
"s. c #75CAF7",
"d. c #77CCF8",
"f. c #7BCEFA",
"g. c #7DD3ED",
"h. c #ED757A",
"j. c #FE6464",
"k. c #FD6C6C",
"l. c #817D88",
"z. c #827F89",
"x. c #83808A",
"c. c #85828C",
"v. c #88848E",
"b. c #8A8791",
"n. c #8B8892",
"m. c #8F8C96",
"M. c #918E97",
"N. c #928E98",
"B. c #99969E",
"V. c #9B99A1",
"C. c #9F9DA5",
"Z. c #9EA8B3",
"A. c #A8A6AD",
"S. c #AAA8AF",
"D. c #AAACB4",
"F. c #ADABB1",
"G. c #B5B4BA",
"H. c #B6B7BF",
"J. c #B8B6BC",
"K. c #BAB8BE",
"L. c #BBB9BF",
"P. c #89AAD0",
"I. c #8DB8D2",
"U. c #ADB1CC",
"Y. c #BEBCC2",
"T. c #8DCFF4",
"R. c #83D5EE",
"E. c #80D2FC",
"W. c #84D2F9",
"Q. c #86D6FE",
"!. c #8ED0F4",
"~. c #8DD8FE",
"^. c #90D0F4",
"/. c #96D3F5",
"(. c #95DBFE",
"). c #9AD6F4",
"_. c #9CD9FA",
"`. c #BACED7",
"'. c #A2D8F6",
"]. c #BBDCEE",
"[. c #AAE2FE",
"{. c #B5E6FE",
"}. c #C69AAC",
"|. c #C0BEC3",
" X c #E7BEC5",
".X c #C6C4C9",
"XX c #CAC8CD",
"oX c #CECDD0",
"OX c #CCCDD2",
"+X c #D3D2D6",
"@X c #D5D5D8",
"#X c #D6D6D9",
"$X c #D8D7DA",
"%X c #DBDBDD",
"&X c #DCDBDE",
"*X c #DCDCDE",
"=X c #DDDCDF",
"-X c #DEDDE0",
";X c #DFDEE1",
":X c #DDDEE2",
">X c #C5E2F2",
",X c #C1E5F9",
"<X c #C6EBF7",
"1X c #C0E9FE",
"2X c #C3EAFE",
"3X c #C6EBFE",
"4X c #CFE6F6",
"5X c #CFEEF8",
"6X c #CDEDFE",
"7X c #D7E6EC",
"8X c #D0EEF8",
"9X c #D8EBF2",
"0X c #DAEFFB",
"qX c #D5F0FE",
"wX c #DFF4FE",
"eX c #E0DFE1",
"rX c #E1E0E2",
"tX c #E1E0E3",
"yX c #E2E2E4",
"uX c #E3E3E5",
"iX c #E4E3E5",
"pX c #E4E4E6",
"aX c #E5E5E7",
"sX c #E6E6E7",
"dX c #E6E6E8",
"fX c #E8E7E9",
"gX c #E8E8E9",
"hX c #E9E9EA",
"jX c #EAEAEB",
"kX c #EBEBEC",
"lX c #EBECEE",
"zX c #ECEBED",
"xX c #ECECED",
"cX c #EEEDEF",
"vX c #E4EBF0",
"bX c #E5F6FB",
"nX c #EDF8FE",
"mX c #F2F2F3",
"MX c #F5F5F6",
"NX c #F7F6F7",
"BX c #F9FBFC",
"VX c #FAFDFD",
"CX c #F9FCFE",
"ZX c #FDFBFB",
"AX c #FDFDFD",
"SX c #FCFDFE",
"DX c #FDFEFE",
"FX c black",
"GX c black",
"HX c black",
"JX c black",
"KX c black",
"LX c black",
"PX c black",
"IX c black",
"UX c black",
/* pixels */
"DXDXDXDXDXDXSX,X/.^.^.^.^.^.^.^.^.^.^.^.^.^.^.^.^.^.^.^.'.0XDXDXDXDXDXDXDXDXDXDXDXDXDXDXDXDXDXDXDXDXDXDX",
"DXDXDXDXDXCX!.0.3.F Z w 5 q Z Z Z Z Z e 5 0 Z Z Z S %.0.' Z D.DXDXDXDXDXDXDXDXDXDXDXDXDXDXDXDXDXDXDXDXDX",
"DXDXDXDXCX!.0.6.A y y + . 3 y y y y y 3 . ; y y y y h -.=.g y H.DXDXDXDXDXDXDXDXDXDXDXDXDXDXDXDXDXDXDXDX",
"DXDXDXCX!.0.0.( y y 1 . o y y y y y y 3 . ; y y y y y k 4.#.i p OXDXDXDXDXDXDXDXDXDXDXDXDXDXDXDXDXDXDXDX",
"DXDXCX!.0.0.:.y y y + . > y y y y y y 3 . ; y y y y y y D 8.[ y j :XDXDXDXDXDXDXDXDXDXDXDXDXDXDXDXDXDXDX",
"DXCX_.p.p.i.e._ l 2 . . 3 y y y y y y 3 . ; y y y y y y y ` 0.) y b lXDXDXDXDXDXDXDXDXDXDXDXDXDXDXDXDXDX",
"DX X}.U.Q.Q.Q.Q.Q.W.u.2.1.>. .| | | | } ] { | | | | | | | ,.s.a.<.| I.1X2X3X6XqXwXnXCXDXDXDXDXDXDXDXDXDX",
"ZXk.j.h.Q.Q.Q.Q.Q.Q.Q.Q.Q.Q.Q.Q.Q.Q.Q.Q.Q.Q.Q.Q.Q.Q.Q.Q.Q.Q.Q.Q.Q.Q.Q.Q.Q.Q.Q.Q.Q.Q.Q.(.[.2XwXCXDXDXDXDX",
"4XP.P.q.r.r.r.r.r.r.r.r.r.r.r.r.r.r.r.r.r.r.r.r.r.r.r.r.r.r.r.r.r.r.r.r.t.t.t.t.i.p.s.d.f.E.Q.~.{.nXDXDX",
"'.0.0.0.0.0.0.0.0.0.0.0.0.0.0.0.0.0.0.0.0.0.0.0.0.0.0.0.0.0.0.0.0.0.0.0.0.0.0.0.0.0.0.0.0.0.0.r.>XvXBXDX",
"'.0.0.0.0./ 8 O $ N $.0.0.0.@.@.@.@.@.@.@.@.@.@.@.@.@.@.@.@.@.@.@.@.@.@.0.0.0.;.B * o 6 ~ 7.0.0.].7X9XDX",
"'.0.0.0.V . o c z . o ^ 0.O.K K K K K K K K K K K K K K K K K K K K K K E 0.&.& . r v = . 9 5.0.9.L K R.",
").o.@.... x @XxXxX.X< O *.@.Y I I I I I I I I I I I I I I I I I I I I U +.7.: X F.kXxXyXz.. C 0.0.R W <X",
"y.K K   X +XgX;XeXjXG.. ! 0.0.0.0.0.0.0.0.0.0.0.0.0.0.0.0.0.0.0.0.0.0.0.0.X.. M.zXtX-XaXdXt % 7.0.0.T.DX",
"bXR.w.# f xX;X&X&XyXpX. 7 T T T T T T T T T T T T T T T T T T T T T T T T M . |.dX&X&X&XkXb.. P T T Q 5X",
"DXDXDXu 4 xXrX&X&XiX*X. m K K K K K K K K K K K K K K K K K K K K K K K K n . J.fX&X&X=XxXx.. J K K K g.",
"DXDXDXm.. K.kXuXpXxXV.. Z.8X5X5X5X5X5X5X5X5X5X5X5X5X5X5X5X5X5X5X5X5X5X5X5X`.. G kXsXyXhX$X= f 5X5X5X8XVX",
"DXDXDXtX@ - S.%X#XB.X a MXDXDXDXDXDXDXDXDXDXDXDXDXDXDXDXDXDXDXDXDXDXDXDXDXDXx.. l.oX;XL.s . Y.DXDXDXDXDX",
"DXDXDXDXXX, . . . . d ;XDXDXDXDXDXDXDXDXDXDXDXDXDXDXDXDXDXDXDXDXDXDXDXDXDXDXmXH . . . . X A.DXDXDXDXDXDX",
"DXDXDXDXDXcXS.v.n.G.NXDXDXDXDXDXDXDXDXDXDXDXDXDXDXDXDXDXDXDXDXDXDXDXDXDXDXDXDXAX.XN.c.C.;XDXDXDXDXDXDXDX"
};
