/* XPM */
static const char *vclass_evehicle_xpm[] = {
/* columns rows colors chars-per-pixel */
"64 32 256 2 ",
"   c #504B5A",
".  c #504C5A",
"X  c #514C5B",
"o  c #52505B",
"O  c #55505E",
"+  c #54535C",
"@  c #565160",
"#  c #565260",
"$  c #575361",
"%  c #585361",
"&  c #595462",
"*  c #5A5563",
"=  c #5A5564",
"-  c #5A5664",
";  c #5B5765",
":  c #5C5866",
">  c #5D5967",
",  c #5F5A68",
"<  c #5E6960",
"1  c #5F6A60",
"2  c #605C69",
"3  c #615D6A",
"4  c #625D6B",
"5  c #615E6A",
"6  c #62616A",
"7  c #63606C",
"8  c #64606C",
"9  c #65656B",
"0  c #606C60",
"q  c #65686B",
"w  c #676B6C",
"e  c #676D6C",
"r  c #68646F",
"t  c #686A6B",
"y  c #686D6C",
"u  c #6A6F6C",
"i  c #676370",
"p  c #686471",
"a  c #696572",
"s  c #6D6975",
"d  c #6E6B75",
"f  c #6A746C",
"g  c #6C736C",
"h  c #687D64",
"j  c #687E64",
"k  c #6D7B66",
"l  c #6C7C63",
"z  c #6F786D",
"x  c #706C78",
"c  c #716D79",
"v  c #726E7A",
"b  c #717C6D",
"n  c #74727A",
"m  c #74717C",
"M  c #76727D",
"N  c #76727E",
"B  c #797581",
"V  c #698164",
"C  c #698065",
"Z  c #6B8566",
"A  c #6E8C67",
"S  c #73816D",
"D  c #70826E",
"F  c #708F68",
"G  c #748B6F",
"H  c #748D6F",
"J  c #798D6E",
"K  c #788478",
"L  c #74986A",
"P  c #769B6A",
"I  c #7D936F",
"U  c #7B9E71",
"Y  c #77A06A",
"T  c #7DAA6D",
"R  c #7DAD6D",
"E  c #7EAE6E",
"W  c #7CA071",
"Q  c #7FA772",
"!  c #E97E68",
"~  c #FC6864",
"^  c #807E85",
"/  c #817E88",
"(  c #809870",
")  c #829C70",
"_  c #84A170",
"`  c #87A571",
"'  c #82AE73",
"]  c #89AA71",
"[  c #8BAE72",
"{  c #85B673",
"}  c #84BA70",
"|  c #87BA74",
" . c #85BC71",
".. c #88BD74",
"X. c #88C372",
"o. c #8AC673",
"O. c #8BC575",
"+. c #8CC975",
"@. c #8DCA75",
"#. c #8CCD73",
"$. c #8ECC76",
"%. c #8ECF75",
"&. c #8DD074",
"*. c #8ED075",
"=. c #8FD375",
"-. c #97CA75",
";. c #9ACB75",
":. c #90D276",
">. c #90D575",
",. c #91D477",
"<. c #91D776",
"1. c #92D677",
"2. c #95D17E",
"3. c #92D876",
"4. c #93DA76",
"5. c #93DA77",
"6. c #94DB77",
"7. c #94DD77",
"8. c #95DC78",
"9. c #95DE78",
"0. c #9DD075",
"q. c #9FD475",
"w. c #9FD876",
"e. c #96E078",
"r. c #98E178",
"t. c #9BE378",
"y. c #9DE578",
"u. c #A7DE7A",
"i. c #A1E778",
"p. c #A5EA78",
"a. c #A9EC78",
"s. c #ABEE78",
"d. c #ACED78",
"f. c #ADED7A",
"g. c #ADEE78",
"h. c #AEF078",
"j. c #D69F6D",
"k. c #E88B6A",
"l. c #85828C",
"z. c #86828D",
"x. c #87848E",
"c. c #8A888E",
"v. c #94919A",
"b. c #95939B",
"n. c #96939C",
"m. c #99989D",
"M. c #9E9BA3",
"N. c #9E9BA4",
"B. c #90A78A",
"V. c #9AB691",
"C. c #A3A1A8",
"Z. c #A4A2A9",
"A. c #A6A4AB",
"S. c #A7A7A9",
"D. c #AEACB2",
"F. c #B0AEB4",
"G. c #B2B0B7",
"H. c #B8B8B9",
"J. c #BDBCC1",
"K. c #BFBEC3",
"L. c #99D082",
"P. c #99D681",
"I. c #A5D292",
"U. c #B6DFA5",
"Y. c #ACE395",
"T. c #ADE597",
"R. c #AFE699",
"E. c #B6EE8B",
"W. c #B5F184",
"Q. c #BAF28D",
"!. c #B7E0A7",
"~. c #BCE5AC",
"^. c #FB8783",
"/. c #C2EF9E",
"(. c #C0F396",
"). c #C1F398",
"_. c #C6F49F",
"`. c #C0ECAE",
"'. c #C5E6B9",
"]. c #C7EEB7",
"[. c #C8E7BC",
"{. c #CBF5A9",
"}. c #D2F6B5",
"|. c #C3C2C6",
" X c #C7C7C6",
".X c #C8C7CB",
"XX c #C9C7CC",
"oX c #C9C8CC",
"OX c #CDCCD0",
"+X c #D2D1D5",
"@X c #D4D5D5",
"#X c #D7D7D8",
"$X c #D8D8DA",
"%X c #DAD9DC",
"&X c #DBDADD",
"*X c #DCDBDE",
"=X c #DDDCDE",
"-X c #DDDCDF",
";X c #DFDFDF",
":X c #DEDEE0",
">X c #DFDFE1",
",X c #CEECC1",
"<X c #D0E8C7",
"1X c #D8EDCF",
"2X c #D6E5D0",
"3X c #DAF8C1",
"4X c #E0DFE1",
"5X c #E1EBDD",
"6X c #E2EBDE",
"7X c #E1F9CD",
"8X c #E2F9CE",
"9X c #E3F2DD",
"0X c #E8FADA",
"qX c #E1E0E3",
"wX c #E3E2E4",
"eX c #E3E3E5",
"rX c #E4E3E5",
"tX c #E5E4E6",
"yX c #E5E5E7",
"uX c #E6E6E8",
"iX c #E7E7E9",
"pX c #E8E7E9",
"aX c #E8E8E9",
"sX c #E8E8EA",
"dX c #E9E9EB",
"fX c #EAEAEB",
"gX c #EBEBEC",
"hX c #ECECEB",
"jX c #ECECED",
"kX c #EDECEE",
"lX c #EFEEEF",
"zX c #E7F4E2",
"xX c #EDF7E9",
"cX c #EEFAE1",
"vX c #EEF9E5",
"bX c #F1FCE8",
"nX c #F9F4EE",
"mX c #F0F0F1",
"MX c #F1F2F0",
"NX c #F1F2F1",
"BX c #F3F2F3",
"VX c #F6F6F7",
"CX c #F9FBF4",
"ZX c #F9FBF5",
"AX c #FAFDF7",
"SX c #F8F9F8",
"DX c gray98",
"FX c #FBFBFB",
"GX c #FCFDFA",
"HX c #FCFCFB",
"JX c gray99",
"KX c #FDFDFD",
"LX c #FDFEFD",
"PX c #FEFEFE",
"IX c black",
"UX c black",
/* pixels */
"PXPXPXPXPXPXPXPXPXPXPXPXPXPXPXPXPXPXPXPXPXPXPXPXPXPXPXPXPXPXPXPXPXPXPXPXPXPXPXPXPXPXPXPXPXPXPXPXPXPXPXPXPXPXPXPXPXPXPXPXPXPXPXPX",
"PXPXPXPXPXPXPXPXPXPXPXPXPXPXPXPXPXPXPXPXPXPXPXPXPXPXPXPXPXPXPXPXPXPXPXPXPXPXPXPXPXPXPXPXPXPXPXPXPXPXPXPXPXPXPXPXPXPXPXPXPXPXPXPX",
"PXPXPXPXPXPXPXPXPXPXPXPXPXPXPXPXPXPXPXPXPXPXPXPXPXPXPXPXPXPXPXPXPXPXPXPXPXPXPXPXPXPXPXPXPXPXPXPXPXPXPXPXPXPXPXPXPXPXPXPXPXPXPXPX",
"PXPXPXPXPXPXPXPXPXPXPXPXPXPXPXPXPXPXPXPXPXPXPXPXPXPXPXPXPXPXPXPXPXPXPXPXPXPXPXPXPXPXPXPXPXPXPXPXPXPXPXPXPXPXPXPXPXPXPXPXPXPXPXPX",
"PXPXPXPXPXPXPXPXPXPXPXPXPXPXGXCXCXCXCXCXCXCXCXCXCXCXCXCXCXCXCXCXCXCXZXPXPXPXPXPXPXPXPXPXPXPXPXPXPXPXPXPXPXPXPXPXPXPXPXPXPXPXPXPX",
"PXPXPXPXPXPXPXPXPXPXPXPX6XI.$.9.e.e.,.$.$.$.$.$.+.o.@.$.$.$.$.$.9.e.9.L.2XPXPXPXPXPXPXPXPXPXPXPXPXPXPXPXPXPXPXPXPXPXPXPXPXPXPXPX",
"PXPXPXPXPXPXPXPXPXPXPX;Xr 3 3 | e.U 3 3 3 3 3 3 -   - 3 3 3 3 3 f 1.$.5 8 #XPXPXPXPXPXPXPXPXPXPXPXPXPXPXPXPXPXPXPXPXPXPXPXPXPXPX",
"PXPXPXPXPXPXPXPXPXPXNXn 3 3 w 8.5.6 3 3 3 3 3 3 ;   * 3 3 3 3 3 3 D 9.U 3 d hXPXPXPXPXPXPXPXPXPXPXPXPXPXPXPXPXPXPXPXPXPXPXPXPXPX",
"PXPXPXPXPXPXPXPXPXHXc.3 3 3 Q e.{ 3 3 3 3 3 3 3 :   & 3 3 3 3 3 3 3 W 9.D 3 ^ SXPXPXPXPXPXPXPXPXPXPXPXPXPXPXPXPXPXPXPXPXPXPXPXPX",
"PXPXPXPXPXPXPXPXPXS.3 3 3 q 6.e.H 3 3 3 3 3 3 3 >   $ 3 3 3 3 3 3 3 5 ..1.e 3 m.PXPXPXPXPXPXPXPXPXPXPXPXPXPXPXPXPXPXPXPXPXPXPXPX",
"PXPXPXPXPXPXPXPX X3 3 3 5 ' e.e.y 3 3 3 3 3 3 3 ,   # 3 3 3 3 3 3 3 3 q :.O.6 3 H.PXPXPXPXPXPXPXPXPXPXPXPXPXPXPXPXPXPXPXPXPXPXPX",
"PXPXPXPXPXPXPXcXu.q.0.;.w.p.p.p.-.[ ] ` _ ) ( I J l k S b z g u t 9 6 3 G e.' 5 7 @XPXPXPXPXPXPXPXPXPXPXPXPXPXPXPXPXPXPXPXPXPXPX",
"PXPXPXPXPXPXPX^.~ k.h.h.h.h.h.h.h.h.h.h.h.h.h.h.h.h.h.h.h.h.h.h.h.h.h.g.g.h.h.d.a.f.W.Q.(._.{.}.3X7X0XbXAXPXPXPXPXPXPXPXPXPXPXPX",
"PXPXPXPXPXPXnX! ! j.a.a.a.a.a.a.a.a.a.a.a.a.a.a.a.a.a.a.a.a.a.a.a.a.a.a.a.a.a.a.a.a.a.a.a.s.g.g.h.h.h.h.h.W.).8XPXPXPXPXPXPXPXPX",
"PXPXPXPXPXPX].e.e.e.e.e.e.e.e.e.e.e.e.e.e.e.e.e.e.e.e.e.e.e.e.e.e.e.e.e.e.e.e.e.e.e.e.e.e.e.e.e.e.r.t.y.i.p.E./.vXPXPXPXPXPXPXPX",
"PXPXPXPXPXPX`.e.e.e.e.e.e.e.e.e.e.e.e.e.e.e.e.e.e.e.e.e.e.e.e.e.e.e.e.e.e.e.e.e.e.e.e.e.e.e.e.e.e.e.e.e.e.e.5XjXMXPXPXPXPXPXPXPX",
"PXPXPXPXPXPX`.e.e.e.e.e.e.e.e.e.e.e.e.e.e.e.e.e.e.e.e.e.e.e.e.e.e.e.e.e.e.e.e.e.e.e.e.e.e.e.e.e.e.e.e.e.e.e.Y.~.,XPXPXPXPXPXPXPX",
"PXPXPXPXPXPX`.e.e.e.e.e.%.L j Z E 9.e.e.7.=.=.=.=.=.=.=.=.=.=.=.=.=.=.=.=.=.=.=.=.4.e.e.e. .A h F X.e.e.e.e.<.=.P.9XPXPXPXPXPXPX",
"PXPXPXPXPXPX`.e.e.e.e.T o         < *.e.3.#.#.#.#.#.#.#.#.#.#.#.#.#.#.#.#.#.#.#.#.>.e.7.C         . A 9.e.e.&.#.#.[.PXPXPXPXPXPX",
"PXPXPXPXPXPX~.&.=.3.} . - D.$XOXx.  1 9.e.9.9.9.9.9.9.9.9.9.9.9.9.9.9.9.9.9.9.9.9.e.e.A   v |.%XJ.a   P e.e.9.9.R.PXPXPXPXPXPXPX",
"PXPXPXPXPXPX1X2.#.#.0 X .XfXeXyXjXz.  E 7.7.7.7.7.7.7.7.7.7.7.7.7.7.7.7.7.7.7.7.7.7.*.. i yXiXwXsX4X> + 3.7.7.7.T.LXPXPXPXPXPXPX",
"PXPXPXPXPXPXPXPXxX<X. x jX:X&X&XyXoX  V #.#.#.#.#.#.#.#.#.#.#.#.#.#.#.#.#.#.#.#.#.#.Y   Z.dX&X&X*XgXv.  R #.#.#.#.'.PXPXPXPXPXPX",
"PXPXPXPXPXPXPXPXPXVX  B jX=X&X&XrX+X  K U.U.U.U.U.U.U.U.U.U.U.U.U.U.U.U.U.U.U.U.U.U.B.  D.pX&X&X&XdXM.  V.U.U.U.!.zXPXPXPXPXPXPX",
"PXPXPXPXPXPXPXPXPXPXp % qXuX-X>XgXA.  G.PXPXPXPXPXPXPXPXPXPXPXPXPXPXPXPXPXPXPXPXPXPX&X  / jXqX=XwXjXc X jXPXPXPXPXPXPXPXPXPXPXPX",
"PXPXPXPXPXPXPXPXPXPXF.  B 4XjXjXK.# = mXPXPXPXPXPXPXPXPXPXPXPXPXPXPXPXPXPXPXPXPXPXPXKXM   C.fXjXaXb.  x.PXPXPXPXPXPXPXPXPXPXPXPX",
"PXPXPXPXPXPXPXPXPXPXJXz.  @ m a   O XXPXPXPXPXPXPXPXPXPXPXPXPXPXPXPXPXPXPXPXPXPXPXPXPXtX3   2 N :   a lXPXPXPXPXPXPXPXPXPXPXPXPX",
"PXPXPXPXPXPXPXPXPXPXPXJXG.s X # l.*XPXPXPXPXPXPXPXPXPXPXPXPXPXPXPXPXPXPXPXPXPXPXPXPXPXPXkXn.>   4 N.BXPXPXPXPXPXPXPXPXPXPXPXPXPX",
"PXPXPXPXPXPXPXPXPXPXPXPXPXPXFXKXPXPXPXPXPXPXPXPXPXPXPXPXPXPXPXPXPXPXPXPXPXPXPXPXPXPXPXPXPXPXPXDXPXPXPXPXPXPXPXPXPXPXPXPXPXPXPXPX",
"PXPXPXPXPXPXPXPXPXPXPXPXPXPXPXPXPXPXPXPXPXPXPXPXPXPXPXPXPXPXPXPXPXPXPXPXPXPXPXPXPXPXPXPXPXPXPXPXPXPXPXPXPXPXPXPXPXPXPXPXPXPXPXPX",
"PXPXPXPXPXPXPXPXPXPXPXPXPXPXPXPXPXPXPXPXPXPXPXPXPXPXPXPXPXPXPXPXPXPXPXPXPXPXPXPXPXPXPXPXPXPXPXPXPXPXPXPXPXPXPXPXPXPXPXPXPXPXPXPX",
"PXPXPXPXPXPXPXPXPXPXPXPXPXPXPXPXPXPXPXPXPXPXPXPXPXPXPXPXPXPXPXPXPXPXPXPXPXPXPXPXPXPXPXPXPXPXPXPXPXPXPXPXPXPXPXPXPXPXPXPXPXPXPXPX",
"PXPXPXPXPXPXPXPXPXPXPXPXPXPXPXPXPXPXPXPXPXPXPXPXPXPXPXPXPXPXPXPXPXPXPXPXPXPXPXPXPXPXPXPXPXPXPXPXPXPXPXPXPXPXPXPXPXPXPXPXPXPXPXPX"
};
