/* XPM */
static const char *vclass_truck_xpm[] = {
/* columns rows colors chars-per-pixel */
"52 32 256 2 ",
"   c #504B5A",
".  c #504C5A",
"X  c #514C5B",
"o  c #524D5C",
"O  c #534E5D",
"+  c #544F5D",
"@  c #495365",
"#  c #565160",
"$  c #575362",
"%  c #525D6F",
"&  c #585361",
"*  c #5A5563",
"=  c #5D5866",
"-  c #5E5967",
";  c #5E5A67",
":  c #5F5A68",
">  c #526A7E",
",  c #625D6B",
"<  c #635E6B",
"1  c #625E6C",
"2  c #645F6C",
"3  c #645F6D",
"4  c #65606E",
"5  c #66616F",
"6  c #66626F",
"7  c #676270",
"8  c #686370",
"9  c #686471",
"0  c #696572",
"q  c #6A6673",
"w  c #6B6774",
"e  c #686775",
"r  c #6C6874",
"t  c #6C6875",
"y  c #6D6976",
"u  c #6E6A76",
"i  c #6F6B77",
"p  c #706B78",
"a  c #706C78",
"s  c #716D7A",
"d  c #726E7A",
"f  c #736F7B",
"g  c #75717C",
"h  c #267D9F",
"j  c #2D7493",
"k  c #2C7594",
"l  c #3E7994",
"z  c #4F6C81",
"x  c #43758F",
"c  c #597386",
"v  c #5E798B",
"b  c #6A7D8D",
"n  c #747481",
"m  c #787480",
"M  c #797581",
"N  c #7A7681",
"B  c #7A7682",
"V  c #7B7783",
"C  c #7C7884",
"Z  c #7E7B85",
"A  c #7F7C87",
"S  c #188EB5",
"D  c #1B95BC",
"F  c #2F85A5",
"G  c #2A89AB",
"H  c #288BAE",
"J  c #268CB0",
"K  c #0B9DCA",
"L  c #129CC7",
"P  c #07A1D0",
"I  c #00AADC",
"U  c #1FB0E2",
"Y  c #52AFCE",
"T  c #57ABD7",
"R  c #41B7E9",
"E  c #47B7E9",
"W  c #46B8EA",
"Q  c #4EB2E1",
"!  c #5FB5E5",
"~  c #5EB6E6",
"^  c #5ABAEB",
"/  c #58BCEE",
"(  c #63A1C8",
")  c #61A3CB",
"_  c #62B2E0",
"`  c #6AB9E6",
"'  c #62BEF0",
"]  c #64BEF0",
"[  c #47C1E6",
"{  c #4AC2E6",
"}  c #65C4ED",
"|  c #6BC1F1",
" . c #6CC1F1",
".. c #7EC9F2",
"X. c #807C87",
"o. c #83808A",
"O. c #84808B",
"+. c #86838D",
"@. c #88848F",
"#. c #8B8791",
"$. c #8B8891",
"%. c #8B8892",
"&. c #8D8A93",
"*. c #8D8A94",
"=. c #8F8C95",
"-. c #918E97",
";. c #918E98",
":. c #939099",
">. c #93909A",
",. c #91919C",
"<. c #94909A",
"1. c #95929A",
"2. c #95929B",
"3. c #96929C",
"4. c #97949D",
"5. c #98959E",
"6. c #99969F",
"7. c #9A97A0",
"8. c #9B98A1",
"9. c #9C9AA2",
"0. c #9D9AA3",
"q. c #9F9DA5",
"w. c #9CA9B8",
"e. c #A09EA5",
"r. c #A19EA6",
"t. c #A3A0A8",
"y. c #A3A1A9",
"u. c #A2A3AC",
"i. c #A5A2AA",
"p. c #A7A4AC",
"a. c #A8A5AD",
"s. c #A9A6AE",
"d. c #A4A6B0",
"f. c #ABA9B0",
"g. c #ACA9B0",
"h. c #ACAAB1",
"j. c #AEABB2",
"k. c #AFACB3",
"l. c #AFADB4",
"z. c #ADAEB6",
"x. c #AEAFB7",
"c. c #A2B0BE",
"v. c #B1AFB6",
"b. c #B2B0B6",
"n. c #B5B3B9",
"m. c #B5B3BA",
"M. c #B6B4BA",
"N. c #B7B5BB",
"B. c #B8B6BC",
"V. c #BAB8BD",
"C. c #BCBABF",
"Z. c #9BB5C2",
"A. c #9EB7CA",
"S. c #9FB8CB",
"D. c #ABB8C5",
"F. c #ACB8C5",
"G. c #BCBAC0",
"H. c #BEBCC2",
"J. c #BFBDC3",
"K. c #89CDF3",
"L. c #8ECFF4",
"P. c #95DBF0",
"I. c #9FD6F5",
"U. c #B5E0F7",
"Y. c #C0BEC3",
"T. c #C2C0C5",
"R. c #C4C3C8",
"E. c #C6C5CA",
"W. c #C8C6CB",
"Q. c #C9C8CC",
"!. c #CAC8CD",
"~. c #CBC9CE",
"^. c #CDCBCF",
"/. c #CDCBD0",
"(. c #CFCDD1",
"). c #D2D1D5",
"_. c #D6D5D8",
"`. c #D7D5D9",
"'. c #D7DADE",
"]. c #DAD9DC",
"[. c #DAD9DD",
"{. c #DBDADD",
"}. c #DCDBDE",
"|. c #C0D7E5",
" X c #DFDFE1",
".X c #CFE3ED",
"XX c #CBE9F9",
"oX c #E3E2E4",
"OX c #E4E3E5",
"+X c #E4E4E6",
"@X c #E5E5E7",
"#X c #E6E6E8",
"$X c #E9E8EA",
"%X c #EAEAEB",
"&X c #ECECED",
"*X c #EEEDEF",
"=X c #EEEEEF",
"-X c #E1F2FB",
";X c #EEF7FD",
":X c #F5F5F6",
">X c gray97",
",X c #F1F9FD",
"<X c #F4FAFD",
"1X c #F9F9FA",
"2X c gray98",
"3X c #FBFBFB",
"4X c #FBFBFC",
"5X c #FBFCFC",
"6X c #F9FCFE",
"7X c #FEFEFE",
"8X c gray100",
"9X c black",
"0X c black",
"qX c black",
"wX c black",
"eX c black",
"rX c black",
"tX c black",
"yX c black",
"uX c black",
"iX c black",
"pX c black",
"aX c black",
"sX c black",
"dX c black",
"fX c black",
"gX c black",
"hX c black",
"jX c black",
"kX c black",
"lX c black",
"zX c black",
"xX c black",
"cX c black",
"vX c black",
"bX c black",
"nX c black",
"mX c black",
"MX c black",
"NX c black",
"BX c black",
"VX c black",
"CX c black",
"ZX c black",
"AX c black",
"SX c black",
"DX c black",
"FX c black",
"GX c black",
"HX c black",
"JX c black",
"KX c black",
"LX c black",
"PX c black",
"IX c black",
"UX c black",
/* pixels */
"7X7X7X7X7X7X7X7X7X7X7X7X7X7X7X7X7X7X7X7X7X7X7X7X7X7X7X7X7X7X7X7X7X7X7X7X7X7X7X7X7X7X7X7X7X7X7X7X7X7X7X7X",
"7X7X7X7X7X7X7X7X7X7X7X7X7X7X7X7X7X7X7X7X7X7X7X7X7X7X7X7X7X7X7X7X7X7X7X7X7X7X7X7X7X7X7X7X7X7X7X7X7X7X7X7X",
"7X7X7X7X7X7X7X7X7X7X7X7X7X7X7X7X7X7X7X7X7X7X7X7X7X7X7X7X7X7X7X7X7X7X7X7X7X7X7X7X7X7X7X7X7X7X7X7X7X7X7X7X",
"7X7X7X7X7X7X7X7X7X7X7X7X7X7X7X7X7X7X7X7X7X7X7X7X7X7X7X7X7X7X7X7X7X7X7X7X7X7X7X7X7X7X7X7X7X7X7X7X7X7X7X7X",
"7X7X7X7X7X7X7X7X7X7X7X7X7X7X7X7X7X7X7X7X7X7X7X7X7X7X7X7X7X7X7X7X7X7X7X7X7X7X7X7X7X7X7X7X7X7X7X7X7X7X7X7X",
"7X7X7X7X7X7X7X7X7X7X7X7X7X7X7X7X7X7X7X7X7X7X7X7X7X7X7X7X7X7X7X{.f.l.j.{.7X7X7X7X7X7X7X7X7X7X7X7X7X7X7X7X",
"7X7X7X7X7X7X7X7X7X7X7X7X7X7X7X7X7X7X7X7X7X7X7X7X7X7X7X7X7X7X7X9.A Q.$.a.7X7X7X7X7X7X7X7X7X7X7X7X7X7X7X7X",
"7X7X7X7X7X7X7X7X7X7X7X7X7X7X7X7X7X7X7X7X7X7X7X7X7X7X7X7X7X7X7Xv./.%X#X2X7X7X7X7X7X7X7X7X7X7X7X7X7X7X7X7X",
"7XB.B N N N N N N N N N N N N N N N N N N N N N N N N N N N 6.(.+.:X7X6X<X<X<X<X<X6X7X7X7X7X7X7X7X7X7X7X",
"7X6.d a i i i i i i i i i i i i i i i i i i i i i i i i i 0.E.Z d :X,X .] ] ] ] ] | ;X7X7X7X7X7X7X7X7X7X",
"7X6.d 1 , 1 6 2 , , , 5 4 , , , 4 6 , , , 1 6 1 , , , 7 y.G.0 y d +X.XW Q ( ( ) E T |.7X7X7X7X7X7X7X7X7X",
"7X6.d 1 , 7 d 0 , , , d u , , , y d 1 , , 9 d 8 , , 7 N.b.4 , y d n.Z.I H , , , D z ,.7X7X7X7X7X7X7X7X7X",
"7X6.d 1 , 7 d 0 , , , d u , , , y d 1 , , 9 d 8 , q H.s.t , , y d n.Z.I H , , , F l e 5X7X7X7X7X7X7X7X7X",
"7X6.d 1 , 7 d 0 , , , d u , , , y d 1 , , 9 d 8 s E.<.d t , , y d n.Z.I H , , , x G , '.7X7X7X7X7X7X7X7X",
"7X6.d 1 , 7 d 0 , , , d u , , , y d 1 , , 9 d X.!.O.3 d t , , y d n.Z.I J , , , > L 1 z.7X7X7X7X7X7X7X7X",
"7X6.d 1 , 7 d 0 , , , d u , , , y d 1 , , 9 ;.~.M , 3 d t , , y d n.D./ ^ _ _ _ ~ / ! ` K.I.U.XX-X6X7X7X",
"7X6.d 1 , 4 a 8 , , , p r , , , w a , , , 3.W.f , , 1 a q , , y d n.F.] ] ] ] ] ] ] ] ] ] ] ] ] ] L.7X7X",
"2X-.d 7 5 5 5 5 5 5 5 5 5 5 5 5 5 5 5 6 t.J.y 5 5 5 5 5 5 5 5 i d n.F.] ] ] ] ] ] ] ] ] ] ] ] ] ] ..7X7X",
"n.d d d d d d d d d d d d d d d d d d i.M.g d d d d d d d d d d d n.F.] ] ] ] ] ] ' W R R R R R R } 7X7X",
"$X4.#.#.#.#.#.#.#.#.#.#.#.#.#.#.#.#.#.*.%.#.#.#.#.#.#.#.#.#.#.#.;.k.c.] ] ] ] ] ] U I I I I I I I I P.7X",
"7XJ.p.p.p.p.>.m V 7.p.p.p.3.M B 5.p.p.p.p.p.p.p.p.p.p.p.p.p.p.p.p.p.w.] ] ] ] ] ] I I I I S k h P I { 7X",
"7XE.p.p.p.o.  0 < O ;.p.@.X 7 4 o *.p.p.p.p.p.p.p.p.p.p.p.p.p.p.p.p.d.A.S.S.S.S.S.Y I I j X u = @ K [ 7X",
"7X3Xr.-.=.+ 2.}.[.C - -.# *.}.{.O.* -.-.-.-.-.-.t.^.&X=X=X=X=X=X=X=X+XB.B.B.B.B.B.x.v c   g.}._.q % b Y.",
"7X7XV.:.@.  R.}.}.s.o &.  G.}.}.b.  -.:.1.e.C.+X7X7X7X7X7X7X7X7X7X7X1XT.G.G.G.G.G.u.n e X ].}.}.:.$ n m.",
"7X7X7X7X>X& 3.}.{.C d 4X; *.}.}.O.7 7X7X7X7X7X7X7X7X7X7X7X7X7X7X7X7X7X7X7X7X7X7X7X7X7XoX. h.}.`.q *.7X7X",
"7X7X7X7X7XM.X q 2 # ).7XY.o 9 6 + !.7X7X7X7X7X7X7X7X7X7X7X7X7X7X7X7X7X7X7X7X7X7X7X7X7X7X8.X i - : @X7X7X",
"7X7X7X7X7X7X_.q.i.OX7X7X7X[.r.t. X7X7X7X7X7X7X7X7X7X7X7X7X7X7X7X7X7X7X7X7X7X7X7X7X7X7X7X7XQ.9.f.*X7X7X7X",
"7X7X7X7X7X7X7X7X7X7X7X7X7X7X7X7X7X7X7X7X7X7X7X7X7X7X7X7X7X7X7X7X7X7X7X7X7X7X7X7X7X7X7X7X7X7X7X7X7X7X7X7X",
"7X7X7X7X7X7X7X7X7X7X7X7X7X7X7X7X7X7X7X7X7X7X7X7X7X7X7X7X7X7X7X7X7X7X7X7X7X7X7X7X7X7X7X7X7X7X7X7X7X7X7X7X",
"7X7X7X7X7X7X7X7X7X7X7X7X7X7X7X7X7X7X7X7X7X7X7X7X7X7X7X7X7X7X7X7X7X7X7X7X7X7X7X7X7X7X7X7X7X7X7X7X7X7X7X7X",
"7X7X7X7X7X7X7X7X7X7X7X7X7X7X7X7X7X7X7X7X7X7X7X7X7X7X7X7X7X7X7X7X7X7X7X7X7X7X7X7X7X7X7X7X7X7X7X7X7X7X7X7X",
"7X7X7X7X7X7X7X7X7X7X7X7X7X7X7X7X7X7X7X7X7X7X7X7X7X7X7X7X7X7X7X7X7X7X7X7X7X7X7X7X7X7X7X7X7X7X7X7X7X7X7X7X"
};
