/* XPM */
static const char *vclass_custom2_xpm[] = {
/* columns rows colors chars-per-pixel */
"64 32 256 2 ",
"   c #006DF0",
".  c #016EF0",
"X  c #0670F0",
"o  c #1176F1",
"O  c #1679F1",
"+  c #187BF1",
"@  c #1C7DF2",
"#  c #1E7EF2",
"$  c #2180F2",
"%  c #2683F2",
"&  c #2C86F3",
"*  c #3189F3",
"=  c #368CF3",
"-  c #398EF3",
";  c #4B98F4",
":  c #4C99F4",
">  c #559DF5",
",  c #5BA1F5",
"<  c #63A6F6",
"1  c #67A8F6",
"2  c #68A8F6",
"3  c #6DABF6",
"4  c #72AEF7",
"5  c #74AFF7",
"6  c #74B0F7",
"7  c #79B2F7",
"8  c #7EB5F7",
"9  c #7FB6F7",
"0  c #80B6F7",
"q  c #82B7F8",
"w  c #83B8F8",
"e  c #84B9F8",
"r  c #8EBEF8",
"t  c #97C4F9",
"y  c #98C4F9",
"u  c #9EC7F9",
"i  c #9EC8F9",
"p  c #A0C9F9",
"a  c #A2CAF9",
"s  c #A4CBFA",
"d  c #ABCFFA",
"f  c #AFD1FA",
"g  c #B0D1FA",
"h  c #B1D2FA",
"j  c #B5D4FB",
"k  c #C0DBFB",
"l  c #C2DCFB",
"z  c #C4DDFB",
"x  c #C4DDFC",
"c  c #C5DEFC",
"v  c #CAE0FC",
"b  c #CEE3FC",
"n  c #DAEAFD",
"m  c #DCEBFD",
"M  c #DFECFD",
"N  c #E7F1FE",
"B  c #EAF3FE",
"V  c #F3F8FE",
"C  c #F5F9FE",
"Z  c #F7FAFE",
"A  c #F8FBFF",
"S  c #FAFCFF",
"D  c #FCFDFF",
"F  c #FEFEFF",
"G  c black",
"H  c black",
"J  c black",
"K  c black",
"L  c black",
"P  c black",
"I  c black",
"U  c black",
"Y  c black",
"T  c black",
"R  c black",
"E  c black",
"W  c black",
"Q  c black",
"!  c black",
"~  c black",
"^  c black",
"/  c black",
"(  c black",
")  c black",
"_  c black",
"`  c black",
"'  c black",
"]  c black",
"[  c black",
"{  c black",
"}  c black",
"|  c black",
" . c black",
".. c black",
"X. c black",
"o. c black",
"O. c black",
"+. c black",
"@. c black",
"#. c black",
"$. c black",
"%. c black",
"&. c black",
"*. c black",
"=. c black",
"-. c black",
";. c black",
":. c black",
">. c black",
",. c black",
"<. c black",
"1. c black",
"2. c black",
"3. c black",
"4. c black",
"5. c black",
"6. c black",
"7. c black",
"8. c black",
"9. c black",
"0. c black",
"q. c black",
"w. c black",
"e. c black",
"r. c black",
"t. c black",
"y. c black",
"u. c black",
"i. c black",
"p. c black",
"a. c black",
"s. c black",
"d. c black",
"f. c black",
"g. c black",
"h. c black",
"j. c black",
"k. c black",
"l. c black",
"z. c black",
"x. c black",
"c. c black",
"v. c black",
"b. c black",
"n. c black",
"m. c black",
"M. c black",
"N. c black",
"B. c black",
"V. c black",
"C. c black",
"Z. c black",
"A. c black",
"S. c black",
"D. c black",
"F. c black",
"G. c black",
"H. c black",
"J. c black",
"K. c black",
"L. c black",
"P. c black",
"I. c black",
"U. c black",
"Y. c black",
"T. c black",
"R. c black",
"E. c black",
"W. c black",
"Q. c black",
"!. c black",
"~. c black",
"^. c black",
"/. c black",
"(. c black",
"). c black",
"_. c black",
"`. c black",
"'. c black",
"]. c black",
"[. c black",
"{. c black",
"}. c black",
"|. c black",
" X c black",
".X c black",
"XX c black",
"oX c black",
"OX c black",
"+X c black",
"@X c black",
"#X c black",
"$X c black",
"%X c black",
"&X c black",
"*X c black",
"=X c black",
"-X c black",
";X c black",
":X c black",
">X c black",
",X c black",
"<X c black",
"1X c black",
"2X c black",
"3X c black",
"4X c black",
"5X c black",
"6X c black",
"7X c black",
"8X c black",
"9X c black",
"0X c black",
"qX c black",
"wX c black",
"eX c black",
"rX c black",
"tX c black",
"yX c black",
"uX c black",
"iX c black",
"pX c black",
"aX c black",
"sX c black",
"dX c black",
"fX c black",
"gX c black",
"hX c black",
"jX c black",
"kX c black",
"lX c black",
"zX c black",
"xX c black",
"cX c black",
"vX c black",
"bX c black",
"nX c black",
"mX c black",
"MX c black",
"NX c black",
"BX c black",
"VX c black",
"CX c black",
"ZX c black",
"AX c black",
"SX c black",
"DX c black",
"FX c black",
"GX c black",
"HX c black",
"JX c black",
"KX c black",
"LX c black",
"PX c black",
"IX c black",
"UX c black",
/* pixels */
"F F F F F F F F F F F F F F F F F F F F F F F F F F F F F F F F F F F F F F F F F F F F F F F F F F F F F F F F F F F F F F F F ",
"F F F F F F F F F F F F F F F F F F F F F F F F F F F F F F F F F F F F F F F F F F F F F F F F F F F F F F F F F F F F F F F F ",
"F F F F F F F F F F F F F F F F F F F F F F F F F F F F F F F F F F F F F F F F F F F F F F F F F F F F F F F F F F F F F F F F ",
"F F F F F F F F F F F F F F F F F F F F F F F F F F F Z h 6 : - - : 6 h Z F F F F F F F F F F F F F F F F F F F F F F F F F F F ",
"F F F F F F F F F F F F F F F F F F F F F F F F F B 5 o                 o 5 B F F F F F F F F F F F F F F F F F F F F F F F F F ",
"F F F F F F F F F F F F F F F F F F F F F F F F s o     # 2 y h h y 2 #     o s F F F F F F F F F F F F F F F F F F F F F F F F ",
"F F F F F F F F F F F F F F F F F F F F F F F 4     * j F F F F F F F F j *     4 F F F F F F F F F F F F F F F F F F F F F F F ",
"F F F F F F F F F F F F F F F F F F F F F F 4   . 0 D F F F F F F F F F F D 9 .   4 F F F F F F F F F F F F F F F F F F F F F F ",
"F F F F F F F F F F F F F F F F F F F F F s   . i F F F F M p w e d C F F F F i .   s F F F F F F F F F F F F F F F F F F F F F ",
"F F F F F F F F F F F F F F F F F F F F B o   0 F F F F 7           + x F F F F 9   o B F F F F F F F F F F F F F F F F F F F F ",
"F F F F F F F F F F F F F F F F F F F F 5   * D F F F F y             + A F F F D *   5 F F F F F F F F F F F F F F F F F F F F ",
"F F F F F F F F F F F F F F F F F F F Z o   j F F F F F N 3 k b ,       c F F F F j   o Z F F F F F F F F F F F F F F F F F F F ",
"F F F F F F F F F F F F F F F F F F F h   # F F F F F F F F F F b       c F F F F F #   h F F F F F F F F F F F F F F F F F F F ",
"F F F F F F F F F F F F F F F F F F F 6   2 F F F F F F F F F F q     O A F F F F F 1   6 F F F F F F F F F F F F F F F F F F F ",
"F F F F F F F F F F F F F F F F F F F :   y F F F F F F F F F v X     s F F F F F F t   : F F F F F F F F F F F F F F F F F F F ",
"F F F F F F F F F F F F F F F F F F F -   g F F F F F F F F V $     4 F F F F F F F f   - F F F F F F F F F F F F F F F F F F F ",
"F F F F F F F F F F F F F F F F F F F -   f F F F F F F F F r     = D F F F F F F F f   - F F F F F F F F F F F F F F F F F F F ",
"F F F F F F F F F F F F F F F F F F F :   y F F F F F F F F ;     a F F F F F F F F t   : F F F F F F F F F F F F F F F F F F F ",
"F F F F F F F F F F F F F F F F F F F 6   2 F F F F F F F F > @ @ v F F F F F F F F 1   6 F F F F F F F F F F F F F F F F F F F ",
"F F F F F F F F F F F F F F F F F F F h   # F F F F F F F F F S F F F F F F F F F F #   h F F F F F F F F F F F F F F F F F F F ",
"F F F F F F F F F F F F F F F F F F F Z o   j F F F F F F F , . % n F F F F F F F j   o Z F F F F F F F F F F F F F F F F F F F ",
"F F F F F F F F F F F F F F F F F F F F 5   * D F F F F F l       1 F F F F F F D *   5 F F F F F F F F F F F F F F F F F F F F ",
"F F F F F F F F F F F F F F F F F F F F B o   9 F F F F F z       2 F F F F F F 8   o B F F F F F F F F F F F F F F F F F F F F ",
"F F F F F F F F F F F F F F F F F F F F F s   . i F F F F F < X & m F F F F F u .   s F F F F F F F F F F F F F F F F F F F F F ",
"F F F F F F F F F F F F F F F F F F F F F F 4   . 9 D F F F F F F F F F F D 8 .   4 F F F F F F F F F F F F F F F F F F F F F F ",
"F F F F F F F F F F F F F F F F F F F F F F F 4     * j F F F F F F F F j *     4 F F F F F F F F F F F F F F F F F F F F F F F ",
"F F F F F F F F F F F F F F F F F F F F F F F F s o     # 1 t f f t 1 #     o s F F F F F F F F F F F F F F F F F F F F F F F F ",
"F F F F F F F F F F F F F F F F F F F F F F F F F B 6 o                 o 6 B F F F F F F F F F F F F F F F F F F F F F F F F F ",
"F F F F F F F F F F F F F F F F F F F F F F F F F F F Z h 6 : - - : 6 h Z F F F F F F F F F F F F F F F F F F F F F F F F F F F ",
"F F F F F F F F F F F F F F F F F F F F F F F F F F F F F F F F F F F F F F F F F F F F F F F F F F F F F F F F F F F F F F F F ",
"F F F F F F F F F F F F F F F F F F F F F F F F F F F F F F F F F F F F F F F F F F F F F F F F F F F F F F F F F F F F F F F F ",
"F F F F F F F F F F F F F F F F F F F F F F F F F F F F F F F F F F F F F F F F F F F F F F F F F F F F F F F F F F F F F F F F "
};
