/* XPM */
static const char *vclass_bicycle_xpm[] = {
/* columns rows colors chars-per-pixel */
"64 32 256 2 ",
"   c #504A5A",
".  c #514B5B",
"X  c #514C5B",
"o  c #554F5F",
"O  c #55505F",
"+  c #565060",
"@  c #5E5967",
"#  c #5F5968",
"$  c #6A555C",
"%  c #605A69",
"&  c #615B6A",
"*  c #615C6A",
"=  c #625C6B",
"-  c #645D6A",
";  c #66616E",
":  c #66616F",
">  c #67626F",
",  c #676270",
"<  c #696472",
"1  c #6B6773",
"2  c #6C6774",
"3  c #6E6976",
"4  c #6E6977",
"5  c #6F6A77",
"6  c #706B78",
"7  c #716C79",
"8  c #726D7A",
"9  c #726E7A",
"0  c #746E7A",
"q  c #746F7C",
"w  c #77737F",
"e  c #7C7178",
"r  c #797581",
"t  c #797681",
"y  c #7B7682",
"u  c #7C7884",
"i  c #88615D",
"p  c #8C6C6A",
"a  c #827277",
"s  c #81747C",
"d  c #927C7E",
"f  c #987774",
"g  c #A07168",
"h  c #AD7D71",
"j  c #B67A68",
"k  c #BF7760",
"l  c #B87865",
"z  c #837A82",
"x  c #807B87",
"c  c #847E87",
"v  c #807C88",
"b  c #837F8A",
"n  c #C5836D",
"m  c #DA8262",
"M  c #DC8666",
"N  c #EF8C64",
"B  c #E29476",
"V  c #F68E64",
"C  c #F99166",
"Z  c #FE9164",
"A  c #FE9165",
"S  c #FE9265",
"D  c #FE9266",
"F  c #FE9468",
"G  c #FE9469",
"H  c #FE956A",
"J  c #FE966B",
"K  c #FE976C",
"L  c #FE976D",
"P  c #FE986D",
"I  c #FE996F",
"U  c #FA9870",
"Y  c #FE9A71",
"T  c #FE9B72",
"R  c #FEA079",
"E  c #FEA17B",
"W  c #FEA37D",
"Q  c #84808B",
"!  c #86828D",
"~  c #88858F",
"^  c #898590",
"/  c #8A8691",
"(  c #8B8792",
")  c #97888B",
"_  c #99888C",
"`  c #938F99",
"'  c #93909A",
"]  c #95929B",
"[  c #98959E",
"{  c #99969F",
"}  c #9E9BA3",
"|  c #9E9BA4",
" . c #A18886",
".. c #A1989D",
"X. c #B99289",
"o. c #BDA09A",
"O. c #A6A3AB",
"+. c #A6A4AB",
"@. c #A8A6AD",
"#. c #ABA9B0",
"$. c #ADAAB1",
"%. c #AEACB3",
"&. c #AFADB4",
"*. c #B1AEB5",
"=. c #B1AFB6",
"-. c #BBAFB0",
";. c #B5B3BA",
":. c #B9B5BB",
">. c #B8B5BC",
",. c #B8B6BC",
"<. c #B9B7BD",
"1. c #BAB7BE",
"2. c #BDBBC1",
"3. c #BEBCC2",
"4. c #BFBDC3",
"5. c #D4A596",
"6. c #CFAFA7",
"7. c #C9B0AC",
"8. c #C3B8B9",
"9. c #C2BBBE",
"0. c #DBB7AB",
"q. c #D4BBB5",
"w. c #D0BFBC",
"e. c #FEA580",
"r. c #FEA681",
"t. c #FEA682",
"y. c #FEA884",
"u. c #FEA986",
"i. c #FAA988",
"p. c #FEAB89",
"a. c #FEAC8A",
"s. c #FEAF8F",
"d. c #FEB495",
"f. c #FEB597",
"g. c #FEB698",
"h. c #FEB89B",
"j. c #FEB89C",
"k. c #FEB99D",
"l. c #FEBA9E",
"z. c #FEBB9F",
"x. c #FEBCA1",
"c. c #C1BFC5",
"v. c #D4C2BF",
"b. c #FEC0A6",
"n. c #FEC0A7",
"m. c #FEC3AB",
"M. c #FEC4AC",
"N. c #FEC5AD",
"B. c #FEC6AE",
"V. c #FEC6AF",
"C. c #FEC7B0",
"Z. c #FEC8B1",
"A. c #FEC8B2",
"S. c #FEC9B4",
"D. c #FECBB6",
"F. c #FECCB7",
"G. c #FECDB8",
"H. c #FECDB9",
"J. c #FED1BF",
"K. c #C2C0C5",
"L. c #C2C0C6",
"P. c #C5C4C9",
"I. c #C7C5CA",
"U. c #C7C6CB",
"Y. c #C8C6CB",
"T. c #C9C7CC",
"R. c #C9C8CC",
"E. c #CBCACE",
"W. c #CDCCD0",
"Q. c #CFCDD2",
"!. c #D0CED2",
"~. c #D0CED3",
"^. c #D2D0D4",
"/. c #D3D2D5",
"(. c #D4D2D6",
"). c #D5D4D7",
"_. c #D6D5D8",
"`. c #D7D6D9",
"'. c #D8D7DA",
"]. c #D8D8DB",
"[. c #D9D9DC",
"{. c #DBDADD",
"}. c #DDDCDF",
"|. c #DFDEE1",
" X c #E9D1C9",
".X c #F3D0C2",
"XX c #F6D2C4",
"oX c #F4D5C9",
"OX c #FED3C1",
"+X c #FED3C2",
"@X c #FED4C3",
"#X c #FED6C5",
"$X c #FED7C7",
"%X c #FED8C8",
"&X c #FEDACB",
"*X c #FEDBCC",
"=X c #FEDBCD",
"-X c #FEDDCF",
";X c #FEDDD0",
":X c #FEDFD3",
">X c #E0DFE1",
",X c #E0DFE2",
"<X c #F3E3DD",
"1X c #FEE0D3",
"2X c #FEE0D4",
"3X c #FEE3D8",
"4X c #FEE4DA",
"5X c #FEE6DC",
"6X c #FDE6DD",
"7X c #E4E3E5",
"8X c #E6E5E7",
"9X c #E7E6E8",
"0X c #E7E7E9",
"qX c #E8E7E9",
"wX c #E9E9EA",
"eX c #EBEAEC",
"rX c #EBEBED",
"tX c #ECEAEB",
"yX c #ECECED",
"uX c #EDEDEE",
"iX c #EEEEEF",
"pX c #EFEEF0",
"aX c #FCEAE2",
"sX c #FEECE5",
"dX c #FEEDE6",
"fX c #FEEEE7",
"gX c #FEEFE8",
"hX c #FEF0EA",
"jX c #FEF0EB",
"kX c #FEF2ED",
"lX c #FEF3EE",
"zX c #FCF3EF",
"xX c #F0F0F1",
"cX c #F2F1F3",
"vX c gray95",
"bX c #F3F3F4",
"nX c #F4F3F4",
"mX c #F7F4F3",
"MX c #F4F4F5",
"NX c #F5F5F6",
"BX c gray97",
"VX c #F7F7F8",
"CX c #FAF6F4",
"ZX c #FEF4F1",
"AX c #FDF6F4",
"SX c #FCF8F6",
"DX c #F8F8F8",
"FX c #F9F8F9",
"GX c gray98",
"HX c #FBFBFB",
"JX c #FEFAF9",
"KX c #FEFBFA",
"LX c #FDFCFC",
"PX c #FDFDFD",
"IX c #FEFEFD",
"UX c #FEFEFE",
/* pixels */
"UXUXUXUXUXUXUXUXUXUXUXUXUXUXUXUXUXUXUXUXUXUXUXUXUXUXUXUXUXUXUXUXUXUXUXUXUXUXUXUXUXUXUXUXUXUXUXUXUXUXUXUXUXUXUXUXUXUXUXUXUXUXUXUX",
"UXUXUXUXUXUXUXUXUXUXUXUXUXUXUXUXUXUXUXUXUXUXUXUXUXUXUXUXUXUXUXUXUXUXUXUXUXUXUXUXUXUXUXUXUXUXUXUXUXUXUXUXUXUXUXUXUXUXUXUXUXUXUXUX",
"UXUXUXUXUXUXUXUXUXUXUXUXUXUXUXUXUXUXUXUXUXUXUXUXUXUXUXUXUXUXUXUXUXUXUXPX{.'.[.VXUXUXUXUXUXUXUXUXUXUXUXUXUXUXUXUXUXUXUXUXUXUXUXUX",
"UXUXUXUXUXUXUXUXUXUXUXUXUXUXUXUXUXUXUXUXUXUXUXUXUXUXUXUXUXUXUXUXUXUXUX`.* * * 7 qXUXUXUXUXUXUXUXUXUXUXUXUXUXUXUXUXUXUXUXUXUXUXUX",
"UXUXUXUXUXUXUXUXUXUXUXUXUXUXUXUXUXUXUXUXUXUXUXUXUXUXUXUXUXUXUXUXUXUXUXPX}.[./.< ] UXUXUXUXUXUXUXUXUXUXUXUXUXUXUXUXUXUXUXUXUXUXUX",
"UXUXUXUXUXUXUXUXUXUXUXUXUXUXUXUXUXUXUXUXUXUXUXUXUXUXUXUXUXUXUXUXUXUXUXUXUXUXq.- @.UXUXUXUXUXUXUXUXUXUXUXUXUXUXUXUXUXUXUXUXUXUXUX",
"UXUXUXUXUXUXUXUXUXUXUXUXUXUXUXUXUXUXUXUXUXUXUXY.O.O.O.O.O.!.UXUXUXUXUXUXUXAXZ 5.PXUXUXUXUXUXUXUXUXUXUXUXUXUXUXUXUXUXUXUXUXUXUXUX",
"UXUXUXUXUXUXUXUXUXUXUXUXUXUXUXUXUXUXUXUXUXUXUXu * * * * * ` UXUXUXUXUXUXAXD.G u.UXUXUXUXUXUXUXUXUXUXUXUXUXUXUXUXUXUXUXUXUXUXUXUX",
"UXUXUXUXUXUXUXUXUXUXUXUXUXUXUXUXUXUXUXUXUXUXUX3.{ _ g -.}.HXUXUXUXUXUX$XI S E Z gXUXUXUXUXUXUXUXUXUXUXUXUXUXUXUXUXUXUXUXUXUXUXUX",
"UXUXUXUXUXUXUXUXUXUXUXUXUXUXUXUXUXUXUXUXUXUXUXUXUXkXS F.UXUXUXUXUXUXm.Z s.fX%XZ A.UXUXUXUXUXUXUXUXUXUXUXUXUXUXUXUXUXUXUXUXUXUXUX",
"UXUXUXUXUXUXUXUXUXUXUXUXUXUXUXUXUXUXUXUXUXUXUXUXUXUXa.r.UXUXUXUXUXC.Z M.KXx.Z D E UXUXUXUXUXUXUXUXUXUXUXUXUXUXUXUXUXUXUXUXUXUXUX",
"UXUXUXUXUXUXUXUXUXUXUXUXUXUXUXUXPX>XK.,.L.,XPXUXUXUXOXZ sXUXUXUX=XZ b.IXg.S S.#XZ 6X,XL.,.K.>XPXUXUXUXUXUXUXUXUXUXUXUXUXUXUXUXUX",
"UXUXUXUXUXUXUXUXUXUXUXUXUXUXGX*.:           : =.GXUX4XZ B.UXUXhXP p.LXH.Z J.UXCXC l           : *.GXUXUXUXUXUXUXUXUXUXUXUXUXUXUX",
"UXUXUXUXUXUXUXUXUXUXUXUXUX8X5 . v <.[.7X[.<.x . 6  XI Z R UXJXy.Y lXjXG h.UX9X6 k N :.[.7X[.<.v . 5 8XUXUXUXUXUXUXUXUXUXUXUXUXUX",
"UXUXUXUXUXUXUXUXUXUXUXUX9X& & I.uXpXbXMXbXpXuXP.p V W H.Z 3Xf.D 2XUXj.K ZXqX= % 6.Z oXbXMXbXpXuXI.& & 9XUXUXUXUXUXUXUXUXUXUXUXUX",
"UXUXUXUXUXUXUXUXUXUXUXHX9 % [.iXDXUXUXUXUXUXDX.XF m s SXK H S +XUXfXD C.LXq # ].yXT j.UXUXUXUXDXiX[.% 9 HXUXUXUXUXUXUXUXUXUXUXUX",
"UXUXUXUXUXUXUXUXUXUXUX>.  L.iXHXUXUXUXUXUXUX@XD i.9.  1.k.Z -XUXUXk.L AX1.  c.iXHXn.J ZXUXUXUXUXHXiXL.  >.UXUXUXUXUXUXUXUXUXUXUX",
"UXUXUXUXUXUXUXUXUXUXUX4 r uXVXUXUXUXUXUXUXG.A d.mXuXw 6 1XZ :XUXdXD V.UX6 w uXBXUXhXG z.UXUXUXUXUXVXuXr 4 UXUXUXUXUXUXUXUXUXUXUX",
"UXUXUXUXUXUXUXUXUXUXeX  *.iXUXUXUXUXUXGXN.Z l.LXUXiX%.  tXB  .' X.U AXyX  %.iXUXUXUXZ.S 5XUXUXUXUXUXiX*.  eXUXUXUXUXUXUXUXUXUXUX",
"UXUXUXUXUXUXUXUXUXUXW.  W.vXUXUXUXUX$.n Z e.&X*X*XXX0.i 7.w a f 0 ..UX~.  W.vXUXUXUXJXR t.LXUXUXUXUXvXW.  W.UXUXUXUXUXUXUXUXUXUX",
"UXUXUXUXUXUXUXUXUXUXP.  `.bXUXUXUXUXd Z Z Z Z Z Z Z Z Z h e M j o.9 pXY.  ).bXUXUXUXUX;XZ aXUXUXUXUXbX`.  P.UXUXUXUXUXUXUXUXUXUX",
"UXUXUXUXUXUXUXUXUXUX^.  E.vXUXUXUXUXK.) v.fXfXfXfX<Xw.$ z c 8.* ;.9 0X(.  R.vXUXUXUXUXUXzXUXUXUXUXUXvXE.  ^.UXUXUXUXUXUXUXUXUXUX",
"UXUXUXUXUXUXUXUXUXUXxX. @.iXPXUXUXUXUXUXUXUXUXUXPXiX+.X P.9 [ * 1 ~ PXcXX +.iXPXUXUXUXUXUXUXUXUXUXPXiX@.. xXUXUXUXUXUXUXUXUXUXUX",
"UXUXUXUXUXUXUXUXUXUXUXr 3 uXNXUXUXUXUXUXUXUXUXUXNXyX2 y UX2.t ; < wXUXUXy 2 yXNXUXUXUXUXUXUXUXUXUXNXuX3 r UXUXUXUXUXUXUXUXUXUXUX",
"UXUXUXUXUXUXUXUXUXUXUXU.  =.uXFXUXUXUXUXUXUXUXFXuX&.  T.UXUXLX,.@ !.pXUXT.  &.uXFXUXUXUXUXUXUXUXFXuX=.  U.UXUXUXUXUXUXUXUXUXUXUX",
"UXUXUXUXUXUXUXUXUXUXUXUXQ + R.uXMXPXUXUXUXPXMXuXY.+ ! UXUXUXUX(     , UXUX! + Y.uXMXPXUXUXUXPXMXuXR.+ Q UXUXUXUXUXUXUXUXUXUXUXUX",
"UXUXUXUXUXUXUXUXUXUXUXUXbX7 + $.rXuXxXvXxXuXeX#.O 8 nXUXUXUXUXwXT.R.|.UXUXnX8 O #.eXuXxXvXxXuXrX$.+ 7 bXUXUXUXUXUXUXUXUXUXUXUXUX",
"UXUXUXUXUXUXUXUXUXUXUXUXUXnX^   > | 4.Y.3.} :   / MXUXUXUXUXUXUXUXUXUXUXUXUXMX/   : } 3.Y.4.| >   ^ nXUXUXUXUXUXUXUXUXUXUXUXUXUX",
"UXUXUXUXUXUXUXUXUXUXUXUXUXUXUXQ.b o       O Q ~.UXUXUXUXUXUXUXUXUXUXUXUXUXUXUXUX~.Q O       o b Q.UXUXUXUXUXUXUXUXUXUXUXUXUXUXUX",
"UXUXUXUXUXUXUXUXUXUXUXUXUXUXUXUXUXFX,X_.,XFXUXUXUXUXUXUXUXUXUXUXUXUXUXUXUXUXUXUXUXUXFX,X_.,XFXUXUXUXUXUXUXUXUXUXUXUXUXUXUXUXUXUX",
"UXUXUXUXUXUXUXUXUXUXUXUXUXUXUXUXUXUXUXUXUXUXUXUXUXUXUXUXUXUXUXUXUXUXUXUXUXUXUXUXUXUXUXUXUXUXUXUXUXUXUXUXUXUXUXUXUXUXUXUXUXUXUXUX",
"UXUXUXUXUXUXUXUXUXUXUXUXUXUXUXUXUXUXUXUXUXUXUXUXUXUXUXUXUXUXUXUXUXUXUXUXUXUXUXUXUXUXUXUXUXUXUXUXUXUXUXUXUXUXUXUXUXUXUXUXUXUXUXUX"
};
