/* XPM */
static const char *vclass_vip_xpm[] = {
/* columns rows colors chars-per-pixel */
"52 32 256 2 ",
"   c black",
".  c gray1",
"X  c #020305",
"o  c #040505",
"O  c #0D0F0F",
"+  c #131413",
"@  c #121414",
"#  c #151818",
"$  c #191C1C",
"%  c #1B1E1E",
"&  c #101C27",
"*  c #111E2A",
"=  c #1C2020",
"-  c #132332",
";  c #142332",
":  c #152533",
">  c #192835",
",  c #1A2936",
"<  c #1C2A36",
"1  c #182939",
"2  c #1B2A39",
"3  c #1D2C38",
"4  c #1C2C3A",
"5  c #1F2E3A",
"6  c #1C2D3D",
"7  c #1F2F3D",
"8  c #221A07",
"9  c #252929",
"0  c #292E2E",
"q  c #2C2D2E",
"w  c #2C383F",
"e  c #303737",
"r  c #333939",
"t  c #303A3F",
"y  c #313D3D",
"u  c #343E3C",
"i  c #373E3E",
"p  c #383F3F",
"a  c #172F44",
"s  c #1D2E45",
"d  c #183045",
"f  c #183146",
"g  c #193247",
"h  c #1E3142",
"j  c #1F3243",
"k  c #1F3345",
"l  c #1A3348",
"z  c #1B3349",
"x  c #1C364B",
"c  c #1D374C",
"v  c #1E384D",
"b  c #1E394E",
"n  c #1F3B50",
"m  c #203446",
"M  c #223547",
"N  c #253442",
"B  c #2B3944",
"V  c #2E3E4B",
"C  c #253D50",
"Z  c #263E51",
"A  c #263E52",
"S  c #383F40",
"D  c #2E404F",
"F  c #244258",
"G  c #27475C",
"H  c #284155",
"J  c #32414D",
"K  c #33444F",
"L  c #3A4141",
"P  c #3B4242",
"I  c #3C4444",
"U  c #304251",
"Y  c #394956",
"T  c #3F4B53",
"R  c #2A4B61",
"E  c #2C4E63",
"W  c #2C4E64",
"Q  c #384F60",
"!  c #31556A",
"~  c #31556B",
"^  c #32566C",
"/  c #33586D",
"(  c #395161",
")  c #404848",
"_  c #414B4C",
"`  c #414F5A",
"'  c #46525C",
"]  c #4D5758",
"[  c #455665",
"{  c #485560",
"}  c #4C5860",
"|  c #4C5B67",
" . c #514D64",
".. c #505E62",
"X. c #4B6779",
"o. c #486B7F",
"O. c #4D6A7C",
"+. c #546163",
"@. c #54676F",
"#. c #5B6A6D",
"$. c #64717A",
"%. c #66757F",
"&. c #6B757B",
"*. c #706A6E",
"=. c #406B81",
"-. c #416D83",
";. c #46748A",
":. c #47758B",
">. c #48778C",
",. c #4D7E94",
"<. c #4E7F95",
"1. c #51849A",
"2. c #79838C",
"3. c #7B878E",
"4. c #7D868F",
"5. c #7E888D",
"6. c #7E898F",
"7. c #7F8C98",
"8. c #6691A4",
"9. c #AD768C",
"0. c #E07DA2",
"q. c #B4A36B",
"w. c #FEAA00",
"e. c #838E93",
"r. c #848F95",
"t. c #879095",
"y. c #8E9A9D",
"u. c #90999E",
"i. c #8C98A3",
"p. c #939DA2",
"a. c #929DA7",
"s. c #959EA3",
"d. c #92A09B",
"f. c #90A09E",
"g. c #93A4A2",
"h. c #90A4A4",
"j. c #9BA4A9",
"k. c #9DA6AB",
"l. c #9DA7B0",
"z. c #9FB4B3",
"x. c #9CB1BC",
"c. c #AEA282",
"v. c #ACA886",
"b. c #A2A8AE",
"n. c #A0A9B2",
"m. c #A7AEB3",
"M. c #A4B8B7",
"N. c #A4B9B8",
"B. c #ACB6B7",
"V. c #AEB4B9",
"C. c #B4B9BE",
"Z. c #B6BFC4",
"A. c #B7C1C6",
"S. c #B1C5CF",
"D. c #BAC4C3",
"F. c #BBC5C4",
"G. c #BEC2C6",
"H. c #BFC4CA",
"J. c #BFC9CE",
"K. c #BACED6",
"L. c #C4CACF",
"P. c #C6CCD1",
"I. c #C4CED2",
"U. c #C6D1D0",
"Y. c #C2D3DA",
"T. c #CED7D6",
"R. c #CED8DC",
"E. c #CED8DD",
"W. c #D0D4D7",
"Q. c #D3DDE1",
"!. c #D8E2E6",
"~. c #DFE8EC",
"^. c #F7D5E1",
"/. c #FEEDCB",
"(. c #FEEECF",
"). c #E7E8E9",
"_. c #E7E9EA",
"`. c #E7EAEA",
"'. c #E8EBEB",
"]. c #E9ECEB",
"[. c #EAEDEC",
"{. c #EDF0EF",
"}. c #F0F1F2",
"|. c #F1F2F3",
" X c #F2F4F5",
".X c #F4F6F6",
"XX c #F5F6F7",
"oX c #F8FAFA",
"OX c #FBFCFC",
"+X c gray99",
"@X c #FEFEFD",
"#X c #FEFEFE",
"$X c gray100",
"%X c black",
"&X c black",
"*X c black",
"=X c black",
"-X c black",
";X c black",
":X c black",
">X c black",
",X c black",
"<X c black",
"1X c black",
"2X c black",
"3X c black",
"4X c black",
"5X c black",
"6X c black",
"7X c black",
"8X c black",
"9X c black",
"0X c black",
"qX c black",
"wX c black",
"eX c black",
"rX c black",
"tX c black",
"yX c black",
"uX c black",
"iX c black",
"pX c black",
"aX c black",
"sX c black",
"dX c black",
"fX c black",
"gX c black",
"hX c black",
"jX c black",
"kX c black",
"lX c black",
"zX c black",
"xX c black",
"cX c black",
"vX c black",
"bX c black",
"nX c black",
"mX c black",
"MX c black",
"NX c black",
"BX c black",
"VX c black",
"CX c black",
"ZX c black",
"AX c black",
"SX c black",
"DX c black",
"FX c black",
"GX c black",
"HX c black",
"JX c black",
"KX c black",
"LX c black",
"PX c black",
"IX c black",
"UX c black",
/* pixels */
"#X#X#X#X#X#X#X#X#X#X#X#X#X#X#X#X#X#X#X#X#X#X#X#X#X#X#X#X#X#X#X#X#X#X#X#X#X#X#X#X#X#X#X#X#X#X#X#X#X#X#X#X",
"#X#X#X#X#X#X#X#X#X#X#X#X#X#X#X#X#X#X#X#X#X#X#X#X#X#X#X#X#X#X#X#X#X#X#X#X#X#X#X#X#X#X#X#X#X#X#X#X#X#X#X#X",
"#X#X#X#X#X#X#X#X#X#X#X#X#X#X#X#X#X#X#X#X#X#X#X#X#X#X#X#X#X#X#X#X#X#X#X#X#X#X#X#X#X#X#X#X#X#X#X#X#X#X#X#X",
"#X#X#X#X#X#X#X#X#X#X#X#X#X#X#X#X#X#X#X#X#X#X#X#X#X#X#X#X#X#X#X#X#X#X#X#X#X#X#X#X#X#X#X#X#X#X#X#X#X#X#X#X",
"#X#X#X#X#X#X#X#X#X#X#X#X#X#X#X#X#X#X#X#X#X#X#X#X#X#X#X#X#X#X#X#X#X#X#X#X#X#X#X#X#X#X#X#X#X#X#X#X#X#X#X#X",
"#X#X#X#X#X#X#X#X#X#X#X#X#X#X#X#X#X#X#X#X#X#X#X#X#X#X#X#X#X#X#X#X#X#X#X#X#X#X#X#X#X#X#X#X#X#X#X#X#X#X#X#X",
"#X#X#X#X#X#X#X#X#X#X#X#X#X#X#X#X#X#X#X#X#X#X#X#X#X#X#X#X#X#X#X#X#X#X#X#X#X#X#X#X#X#X#X#X#X#X#X#X#X#X#X#X",
"#X#X#X#X#X#X#X#X#X#X#X#XL.l.l.l.l.l.l.l.l.l.l.l.l.l.l.l.l.l.l.l.l.l.l.P.#X#X#X#X#X#X#X#X#X#X#X#X#X#X#X#X",
"#X#X#X#X#X#X#X#X#X#X#X.XH c c g a a f c c c c c c c c c c l a a a x c A XX#X#X#X#X#X#X#X#X#X#X#X#X#X#X#X",
"#X#X#X#X#X#X#X#X#X#X#XS.1.1.1.>.v f -.1.1.1.1.1.1.1.1.1.1.,.c z E 1.1./ x.#X#X#X#X#X#X#X#X#X#X#X#X#X#X#X",
"#X#X#X#X#X#X#X#X#X#XOX8.1.1.1.<.l d :.1.1.1.1.1.1.1.1.1.1.1.c f ^ 1.1.=.o.oX#X#X#X#X#X#X#X#X#X#X#X#X#X#X",
"#X#X#X#X#X#X#X#X#X#XY.1.1.1.1.,.a a ;.1.1.1.1.1.1.1.1.1.1.1.l a ^ 1.1.,.W K.#X#X#X#X#X#X#X#X#X#X#X#X#X#X",
"#X#X Xi.7.7.7.7.7.7.X.~ ~ ~ ~ G a a F ~ ~ ~ ~ ~ ~ ~ ~ ~ ~ R a a b ! ~ ~ n O.a.a.a.a.a.a.a.a.a.a.n.XX#X#X",
"#X#Xa.a a a a a a a a a a a a a a a a Q ( d a a a a a a a a a a a a a a a a a a a a a a a a a a a c.@X#X",
"#X^. .a a a a a a a a a a a a a a a a C Z a a a a a a a a a a a a a a a a a a a a a a a a a a a y w.(.#X",
"#X0.s a a a a a a a a a a a a a a a a a a a a a a a a a a a a a a a a a a a a a a a a a a a a a u w./.#X",
"#X9.X X X X X X X X X X X X X X X X X X X X X X X X X X X X X X X X X X X X X X X X X X X X X X 8 w.v.{.",
"#X*.            e I p r .                                                 O ) L i =             + q.d.[.",
"#Xq           ] B h j < _ o                                             $ ..4 k 6 w 0           @ f.f.[.",
").# # # # # P K D 3.6.V * S # # # # # # # # # # # # # # # # # # # # # # +.h | e.$.1 t % # # # # 9 g.g.].",
"U.M.M.M.M.M.h.k r.R.E.t.; #.M.M.M.M.M.M.M.M.M.M.M.M.M.M.M.M.M.M.M.M.M.N.@.U Z.!.A.' & z.M.M.M.M.M.M.M.T.",
"'.F.D.D.D.D.B.m p.!.Q.u.: y.D.D.D.D.D.D.D.D.D.D.D.D.D.D.D.D.D.D.D.D.D.D.%.Y I.~.J.} J D.D.D.D.D.D.D.F.`.",
"#X#X#X#X#X#X#X[ ` s.j.T 7 |.#X#X#X#X#X#X#X#X#X#X#X#X#X#X#X#X#X#X#X#X#X#XH.M &.k.5.5 4.#X#X#X#X#X#X#X#X#X",
"#X#X#X#X#X#X#XW.N > , 2 C.#X#X#X#X#X#X#X#X#X#X#X#X#X#X#X#X#X#X#X#X#X#X#X#X2.- 3 : { |.#X#X#X#X#X#X#X#X#X",
"#X#X#X#X#X#X#X#X}.V.m._.#X#X#X#X#X#X#X#X#X#X#X#X#X#X#X#X#X#X#X#X#X#X#X#X#X#XW.b.G.+X#X#X#X#X#X#X#X#X#X#X",
"#X#X#X#X#X#X#X#X#X#X#X#X#X#X#X#X#X#X#X#X#X#X#X#X#X#X#X#X#X#X#X#X#X#X#X#X#X#X#X#X#X#X#X#X#X#X#X#X#X#X#X#X",
"#X#X#X#X#X#X#X#X#X#X#X#X#X#X#X#X#X#X#X#X#X#X#X#X#X#X#X#X#X#X#X#X#X#X#X#X#X#X#X#X#X#X#X#X#X#X#X#X#X#X#X#X",
"#X#X#X#X#X#X#X#X#X#X#X#X#X#X#X#X#X#X#X#X#X#X#X#X#X#X#X#X#X#X#X#X#X#X#X#X#X#X#X#X#X#X#X#X#X#X#X#X#X#X#X#X",
"#X#X#X#X#X#X#X#X#X#X#X#X#X#X#X#X#X#X#X#X#X#X#X#X#X#X#X#X#X#X#X#X#X#X#X#X#X#X#X#X#X#X#X#X#X#X#X#X#X#X#X#X",
"#X#X#X#X#X#X#X#X#X#X#X#X#X#X#X#X#X#X#X#X#X#X#X#X#X#X#X#X#X#X#X#X#X#X#X#X#X#X#X#X#X#X#X#X#X#X#X#X#X#X#X#X",
"#X#X#X#X#X#X#X#X#X#X#X#X#X#X#X#X#X#X#X#X#X#X#X#X#X#X#X#X#X#X#X#X#X#X#X#X#X#X#X#X#X#X#X#X#X#X#X#X#X#X#X#X",
"#X#X#X#X#X#X#X#X#X#X#X#X#X#X#X#X#X#X#X#X#X#X#X#X#X#X#X#X#X#X#X#X#X#X#X#X#X#X#X#X#X#X#X#X#X#X#X#X#X#X#X#X"
};
