/* XPM */
static const char *vclass_emergency_xpm[] = {
/* columns rows colors chars-per-pixel */
"64 32 256 2 ",
"   c #0E1A25",
".  c #161F27",
"X  c #121E28",
"o  c #15222E",
"O  c #1A232A",
"+  c #1D262A",
"@  c #122130",
"#  c #142332",
"$  c #152432",
"%  c #162634",
"&  c #1A2836",
"*  c #1F2A32",
"=  c #192A38",
"-  c #1E2B38",
";  c #1E2D3B",
":  c #1C2E3D",
">  c #202B32",
",  c #252D31",
"<  c #212F3D",
"1  c #26333F",
"2  c #29333A",
"3  c #1D3041",
"4  c #1F3344",
"5  c #1F3445",
"6  c #203547",
"7  c #233749",
"8  c #233849",
"9  c #263A4B",
"0  c #293641",
"q  c #2C3A45",
"w  c #2A3D4D",
"e  c #313E49",
"r  c #2E4150",
"t  c #33404D",
"y  c #3B464F",
"u  c #304251",
"i  c #334757",
"p  c #364756",
"a  c #364855",
"s  c #3B4750",
"d  c #3F4A53",
"f  c #404C54",
"g  c #475053",
"h  c #46535D",
"j  c #485254",
"k  c #4E5A5D",
"l  c #515B5B",
"z  c #555F5F",
"x  c #495A63",
"c  c #4D5A63",
"v  c #535D62",
"b  c #535F69",
"n  c #4F6069",
"m  c #566162",
"M  c #56616B",
"N  c #57656F",
"B  c #5C696B",
"V  c #606B6B",
"C  c #656F76",
"Z  c #667278",
"A  c #69757B",
"S  c #6D7979",
"D  c #6B7881",
"F  c #6A7C80",
"G  c #767E82",
"H  c #767F87",
"J  c #51859B",
"K  c #52869C",
"L  c #55889D",
"P  c #588A9E",
"I  c #5A8BA0",
"U  c #798286",
"Y  c #788585",
"T  c #798389",
"R  c #7E898E",
"E  c #798D94",
"W  c #7F8B95",
"Q  c #6392A6",
"!  c #6693A5",
"~  c #6A96A7",
"^  c #779FAE",
"/  c #70A4B8",
"(  c #73A8BC",
")  c #7AA2B2",
"_  c #7FA5B3",
"`  c #78ADC0",
"'  c #AA043C",
"]  c #AA063D",
"[  c #BB043D",
"{  c #AC0B41",
"}  c #AD0E43",
"|  c #BC0940",
" . c #BC0F45",
".. c #BC1348",
"X. c #BD1449",
"o. c #BE1C4E",
"O. c #AA3660",
"+. c #AF4B70",
"@. c #B3597B",
"#. c #C02F5D",
"$. c #C0315E",
"%. c #C13E68",
"&. c #C24A70",
"*. c #C34E73",
"=. c #C56080",
"-. c #C67D98",
";. c #FCA923",
":. c #FEAA24",
">. c #FEAD2C",
",. c #E69E60",
"<. c #E3A36A",
"1. c #808C8C",
"2. c #8D8E8F",
"3. c #848C91",
"4. c #839090",
"5. c #8F9D9E",
"6. c #939696",
"7. c #8F99A2",
"8. c #969DA3",
"9. c #87A9B6",
"0. c #8BACB8",
"q. c #97A5A5",
"w. c #96A9AB",
"e. c #99A2A7",
"r. c #9CA6A9",
"t. c #9AA8A8",
"y. c #90B1BF",
"u. c #94B2BD",
"i. c #98B5BF",
"p. c #A1AAAF",
"a. c #A1ADAE",
"s. c #A6AFB4",
"d. c #ABB5BA",
"f. c #ACB5BB",
"g. c #ADB6BC",
"h. c #AAB8B9",
"j. c #ACBBBB",
"k. c #B2B7BC",
"l. c #B0B9BF",
"z. c #B0BFBF",
"x. c #81B6C9",
"c. c #9CB8C1",
"v. c #A5BDC5",
"b. c #B1BBC0",
"n. c #B3BCC0",
"m. c #B4BDC1",
"M. c #94C0D0",
"N. c #A5C0CA",
"B. c #A9C0C7",
"V. c #ACC3C3",
"C. c #ABC2C9",
"Z. c #ADC3C9",
"A. c #AEC4CA",
"S. c #ACC5CD",
"D. c #AECAD2",
"F. c #B1C5CB",
"G. c #B5CACA",
"H. c #B6C9CE",
"J. c #B9C0C0",
"K. c #BCC1C5",
"L. c #BAC4C8",
"P. c #BBCBCB",
"I. c #BCCACA",
"U. c #BDCCCC",
"Y. c #B2CDD4",
"T. c #B4CDD4",
"R. c #B9CBD0",
"E. c #BBCCD0",
"W. c #BECFD2",
"Q. c #C48198",
"!. c #C4849A",
"~. c #C88199",
"^. c #C9889E",
"/. c #C7B2BB",
"(. c #CEB4BF",
"). c #D5BDA3",
"_. c #CEB6C0",
"`. c #CEB9C2",
"'. c #CFBCC5",
"]. c #DEB3C2",
"[. c #E5BBC9",
"{. c #F5BDCB",
"}. c #DDC08B",
"|. c #C2C6CA",
" X c #C0CACF",
".X c #C1CFCF",
"XX c #C6CACD",
"oX c #C5CFCF",
"OX c #C8C5C9",
"+X c #CACCCE",
"@X c #C3CDD1",
"#X c #CBCFD2",
"$X c #C2D0D0",
"%X c #C3D4D7",
"&X c #C5D1D1",
"*X c #C5D1D4",
"=X c #C6D4D6",
"-X c #C8D2D2",
";X c #C9D3D7",
":X c #CAD4D4",
">X c #CAD4D8",
",X c #CDD7D8",
"<X c #CDD8D9",
"1X c #CDD8DC",
"2X c #D0CCD0",
"3X c #D1D0D3",
"4X c #D1D1D4",
"5X c #D1D6D8",
"6X c #D2D9D6",
"7X c #D1DADA",
"8X c #D2DCDC",
"9X c #D5D8DA",
"0X c #D4DDDD",
"qX c #D4DEDE",
"wX c #D2DDE0",
"eX c #D4DEE1",
"rX c #CAE0E7",
"tX c #D6E0E0",
"yX c #D7E1E4",
"uX c #D9E2E2",
"iX c #D9E2E4",
"pX c #DBE4E4",
"aX c #DDE6E6",
"sX c #DAE5E9",
"dX c #DFE7E8",
"fX c #DFE8E9",
"gX c #F7CAD6",
"hX c #ECE7D9",
"jX c #E2E4E6",
"kX c #E4E5E7",
"lX c #E1E6E8",
"zX c #E0E8E9",
"xX c #E1E9EA",
"cX c #E2EAEB",
"vX c #E2EBEE",
"bX c #E5EBEB",
"nX c #E4EBEC",
"mX c #E9EDED",
"MX c #E5EDF0",
"NX c #EBF0F1",
"BX c #EEF1F1",
"VX c #EDF2F4",
"CX c #F6E2E8",
"ZX c #F8E9EE",
"AX c #F9EDF1",
"SX c #FAEEF2",
"DX c #F3F2F3",
"FX c #F0F4F4",
"GX c #F5F7F7",
"HX c #F6F8F9",
"JX c #F8F8F8",
"KX c #F8FAFA",
"LX c #FBFCFC",
"PX c gray99",
"IX c #FEFEFE",
"UX c black",
/* pixels */
"IXIXIXIXIXIXIXIXIXIXIXIXIXIXIXIXIXIXIXIXIXIXSXCXCXDXDXCXCXZXIXIXIXIXIXIXIXIXIXIXIXIXIXIXIXIXIXIXIXIXIXIXIXIXIXIXIXIXIXIXIXIXIXIX",
"IXIXIXIXIXIXIXIXIXIXIXIXIXIXIXIXIXIXIXIXIXAX} ' ] 4X5X{ ' ' [.IXIXIXIXIXIXIXIXIXIXIXIXIXIXIXIXIXIXIXIXIXIXIXIXIXIXIXIXIXIXIXIXIX",
"IXIXIXIXIXIXIXIXIXPXKXKXKXKXKXKXKXKXKXKXKX].O.O.+.qXqX@.O.O.-.KXKXKXKXKXKXKXKXKXKXKXKXKXPXIXIXIXIXIXIXIXIXIXIXIXIXIXIXIXIXIXIXIX",
"IXIXIXIXIXIXIXIXLXnXxXxXxXxXxXxXxXxXxXzXzXfXdXdXaXaXaXaXaXaXaXpXpXiXiXuXuXuXuXuXtXtXtXtXlXPXIXIXIXIXIXIXIXIXIXIXIXIXIXIXIXIXIXIX",
"IXIXIXIXIXIXIXIXFXqXqXqXqXqX8X8X8X8X8X8X8X8X8X8X8X8X8X8X8X8X8X8X8X8X8X8X8X8X8X8X8X8X8X8X8XbXJXIXIXIXIXIXIXIXIXIXIXIXIXIXIXIXIXIX",
"IXIXIXIXIXIXIXIXuX8X8X8X8X8X8X8X8X8X8X8X8X8X8X8X8X8X8X8X8X8X8X8X8X8X8X8X8X8X8X8X8X8X8X8X8X8XqXPXIXIXIXIXIXIXIXIXIXIXIXIXIXIXIXIX",
"IXIXIXIXIXIXIXPX8X8X8X8X8X8X8X5X(._.7X8X8X8X8X8X8X8X8X8X8X8X8X8X8X8X8X8X8X7Xv.D.D.N.c.c.W.A.c.sXIXIXIXIXIXIXIXIXIXIXIXIXIXIXIXIX",
"IXIXIXIXIXIXIXPX8X8X8X8X8X8X8X%.[ [ &.8X8X8X8X8X8X8X8X8X8X8X8X8X8X8X8X8X8XA./ x.( K J J 0.u.J ) IXIXIXIXIXIXIXIXIXIXIXIXIXIXIXIX",
"IXIXIXIXIXIXIXPX8X8X8X8X8X8X8X .[ [ o.8X8X8X8X8X8X8X8X8X8X8X8X8X8X8X8X8X8XY.x.( K J J J ~ H.J J sXIXIXIXIXIXIXIXIXIXIXIXIXIXIXIX",
"IXIXIXIXIXIXIXPX8X8X8X8X8X8X8X .[ [ o.8X8X8X8X8X8X8X8X8X8X8X8X8X8X8X8X8X8XY.( K J J J J J =XP J y.IXIXIXIXIXIXIXIXIXIXIXIXIXIXIX",
"IXIXIXIXIXIXIXPX8X8X8X8X8X8X8X .[ [ o.8X8X8X8X8X8X8X8X8X8X8X8X8X8X8X8X8X8XS.K J J J J J J B.^ J L VXIXIXIXIXIXIXIXIXIXIXIXIXIXIX",
"IXIXIXIXIXIXIXPX8X8X7X=.#.#.#.[ [ [ | #.#.#.*.4X8X8X8X8X8X8X8X8X8X8X8X8X8XC.J J J J J J J 9.i.J J N.IXIXIXIXIXIXIXIXIXIXIXIXIXIX",
"IXIXIXIXIXIXIXPX8X8X'.[ [ [ [ [ [ [ [ [ [ [ [ ^.8X8X8X8X8X8X8X8X8X8X8X8X8XC.J J J J J J J ! R.J J Q KXIXIXIXIXIXIXIXIXIXIXIXIXIX",
"IXIXIXIXIXIXIXPX8X8X`.[ [ [ [ [ [ [ [ [ [ [ [ ~.8X8X8X8X8X8X8X8X8X8X8X8X8XC.J J J J J J J J *XI L ` rXIXIXIXIXIXIXIXIXIXIXIXIXIX",
"IXIXIXIXIXIXIXPX8X8X5X$.[ [ [ [ [ [ [ [ [ [ X._.8X8X8X8X8X8X8X8X8X8X8X8X8XF.J J J J J J J J v._ ` x.M.IXIXIXIXIXIXIXIXIXIXIXIXIX",
"IXIXIXIXIXIXIXPX8X8X8X8X7X7X7X$.[ [ [ 2X7X7X7X8X8X8X8X8X8X8X8X8X8X8X8X8X8X8XZ.v.v.v.v.v.v.v.E.%XT.T.T.cXNXNXHXIXIXIXIXIXIXIXIXIX",
"IXIXIXIXIXIXIXmX8X8X8X8X8X8X8X$.[ [ [ 3X8X8X8X8X8X8X8X8X8X8X8X8X8X8X8X8X8X7XoX-X8X8X8X8X8X8X8X8X8X8X8X8X8X8XqXuXKXIXIXIXIXIXIXIX",
"IXIXIXIXIXIXIXqX8X8X8X8X8X8X8X$.[ [ [ 3X8X8X8X8X8X8X8X8X8X8X8X8X8X8X8X8X8XJ.2.6.8X8X8X8X8X8X8X8X8X8X8X8X8X8X8X8XBXIXIXIXIXIXIXIX",
"IXIXIXIXIXIXIX0X7X7X7X7X7X7X7X&.[ [ ..5X7X7X7X7X7X7X7X7X7X7X7X7X7X7X7X7X7X7X7X7X7X7X7X7X7X7X7X7X7X7X7X7X7X7X7X6XhXIXIXIXIXIXIXIX",
"IXIXIXIXIXIXgX+X-X-X-X-X-X-X-XOX!.Q./.-X-X-X-X-X-X-X-X-X-X-X-X-X-X-X-X-X-X-X-X-X-X-X-X-X-X-X-X-X-X-X-X-X-X-X-X<.>.IXIXIXIXIXIXIX",
"IXIXIXIXIXIX{.+X-X-X-X-X-X-X-X-X-X-X-X-X-X-X-X-X-X-X-X-X-X-X-X-X-X-X-X-X-X-X-X-X-X-X-X-X-X-X-X-X-X-X-X-X-X-X-X,.:.IXIXIXIXIXIXIX",
"IXIXIXIXIXIX{.+X-X-X-X-X-X&Xj.S l V t.&X-X-X-X-X-X-X-X-X-X-X-X-X-X-X-X-X-X-X-X-X-X-X-X-XU.4.m z 1.I.-X-X-X-X-X,.:.IXIXIXIXIXIXIX",
"IXIXIXIXIXIX{.+X-X-X-X-X&XS . = 3 : X j I.-X-X<X<X-X-X-X-X-X-X-X-X-X-X-X-X-X-X-X-X-X-Xa., o 3 3 % , t.-X-X-X-X,.;.IXIXIXIXIXIXIX",
"IXIXIXIXIXIXgX+X-X-X-X-XY $ 6 8 u 9 6 = g &X-X<X<X-X-X-X-X-X-X-X-X-X-X-X-X-X-X-X-X-Xz.+ 4 6 w r 6 5 O h.-X-X-X).}.IXIXIXIXIXIXIX",
"IXIXIXIXIXIXIX:X-X-X-XI.> 6 a e.r.n.h @   q.-X<X,X-X-X-X-X-X-X-X-X-X-X-X-X-X-X-X-X-Xm 3 7 A m.a.R ; @ k &X-X-X-X:XKXIXIXIXIXIXIX",
"IXIXIXIXIXIXKX$X.X.X.X5.= 8 r.@XyX>Xr.1 @ B .X.X.X.X.X.X.X.X.X.X.X.X.X.X.X.X.X.X.XU.2 6 N L.eXeXd.C @ * P..X.X.X$XGXIXIXIXIXIXIX",
"IXIXIXIXIXIX8XV.V.V.V.w.6 u r.iXvXwXp.y @ F V.V.V.V.V.V.V.V.V.V.V.V.V.V.V.V.V.V.V.V.x 6 Z *XMXsXL.G @ q V.V.V.V.V.8XIXIXIXIXIXIX",
"IXIXIXIXIXIXaXG.G.G.G.G.i w m.;XwX Xg.e @ w.G.G.G.G.G.G.G.G.G.G.G.G.G.G.G.G.G.G.G.G.E 6 D >X<X1Xb.T @ n G.G.G.G.G.aXIXIXIXIXIXIX",
"IXIXIXIXIXIXIXIXIXIXIXIXW 6 c e.p.l.v # e PXIXIXIXIXIXIXIXIXIXIXIXIXIXIXIXIXIXIXIXIXlX9 w U f.s.3.0 @ k.IXIXIXIXIXIXIXIXIXIXIXIX",
"IXIXIXIXIXIXIXIXIXIXIXIXmXp @ 0 f e # $ K.IXIXIXIXIXIXIXIXIXIXIXIXIXIXIXIXIXIXIXIXIXIX7.% & s d - @ M PXIXIXIXIXIXIXIXIXIXIXIXIX",
"IXIXIXIXIXIXIXIXIXIXIXIXIXjXb @ @ @ t K.IXIXIXIXIXIXIXIXIXIXIXIXIXIXIXIXIXIXIXIXIXIXIXIX8.< @ @ % H GXIXIXIXIXIXIXIXIXIXIXIXIXIX",
"IXIXIXIXIXIXIXIXIXIXIXIXIXIXIXkX|.9XPXIXIXIXIXIXIXIXIXIXIXIXIXIXIXIXIXIXIXIXIXIXIXIXIXIXIXJX#XXXBXIXIXIXIXIXIXIXIXIXIXIXIXIXIXIX"
};
