/* XPM */
static const char *vclass_coach_xpm[] = {
/* columns rows colors chars-per-pixel */
"64 32 256 2 ",
"   c #15222E",
".  c #132231",
"X  c #182430",
"o  c #192935",
"O  c #1C2D3A",
"+  c #20272D",
"@  c #24292C",
"#  c #252E36",
"$  c #27343F",
"%  c #2B353D",
"&  c #2C333A",
"*  c #2C363E",
"=  c #2E393C",
"-  c #31302C",
";  c #38342D",
":  c #333B3A",
">  c #1F3241",
",  c #203140",
"<  c #2A3A43",
"1  c #2C3A42",
"2  c #2D3A46",
"3  c #2E3C42",
"4  c #3D3F41",
"5  c #35414C",
"6  c #3E4041",
"7  c #354756",
"8  c #3C4D5A",
"9  c #43463C",
"0  c #4A4A3B",
"q  c #524E36",
"w  c #745B3B",
"e  c #414141",
"r  c #775F40",
"t  c #7B6243",
"y  c #7B6446",
"u  c #66707A",
"i  c #6D7780",
"p  c #6F7982",
"a  c #767F88",
"s  c #72847E",
"d  c #74857D",
"f  c #51859B",
"g  c #52869C",
"h  c #55899F",
"j  c #568AA0",
"k  c #588CA1",
"l  c #678487",
"z  c #678588",
"x  c #65878E",
"c  c #66888F",
"v  c #6E8481",
"b  c #708581",
"n  c #708887",
"m  c #748884",
"M  c #788A84",
"N  c #759396",
"B  c #709199",
"V  c #79989C",
"C  c #6094A9",
"Z  c #669AAF",
"A  c #6A9AAC",
"S  c #679BB0",
"D  c #699DB1",
"F  c #719BA8",
"G  c #7A9BA0",
"H  c #6CA0B4",
"J  c #72A6B9",
"K  c #74A8BC",
"L  c #78ACC0",
"P  c #7CB0C3",
"I  c #7EB2C5",
"U  c #885C3D",
"Y  c #925D39",
"T  c #9B5F35",
"R  c #9C6036",
"E  c #A26134",
"W  c #A86232",
"Q  c #857348",
"!  c #897546",
"~  c #8F7B4D",
"^  c #927D4D",
"/  c #977851",
"(  c #9B7D56",
")  c #9D7F6A",
"_  c #E76F1D",
"`  c #EC6D16",
"'  c #ED7F0F",
"]  c #E97F14",
"[  c #FE6700",
"{  c #FA6804",
"}  c #FC6803",
"|  c #FE6C00",
" . c #F16B10",
".. c #F06C11",
"X. c #F77E06",
"o. c #F17F0B",
"O. c #F07F0C",
"+. c #F67F09",
"@. c #FE7500",
"#. c #FB7E03",
"$. c #F97F06",
"%. c #FE7A00",
"&. c #FD7D00",
"*. c #F57911",
"=. c #9E815B",
"-. c #87866F",
";. c #978C6D",
":. c #AF8147",
">. c #A9824D",
",. c #A08356",
"<. c #B88342",
"1. c #BD8846",
"2. c #B3915E",
"3. c #BA9058",
"4. c #A3826C",
"5. c #A6846C",
"6. c #B18160",
"7. c #B0A07D",
"8. c #B9A072",
"9. c #BBA578",
"0. c #BFA877",
"q. c #CA802E",
"w. c #CE802B",
"e. c #C78031",
"r. c #CC8231",
"t. c #CD8432",
"y. c #CE8635",
"u. c #D28027",
"i. c #D3832B",
"p. c #D78329",
"a. c #D6852D",
"s. c #DB852A",
"d. c #D48937",
"f. c #D28A39",
"g. c #D68E3D",
"h. c #D98831",
"j. c #DA8D37",
"k. c #DD8D34",
"l. c #D88E3C",
"z. c #DE9329",
"x. c #EB8118",
"c. c #EA861E",
"v. c #ED851B",
"b. c #EF9513",
"n. c #EE941D",
"m. c #EE991D",
"M. c #F78F09",
"N. c #F98007",
"B. c #FE8100",
"V. c #FE8004",
"C. c #FE8500",
"Z. c #F98008",
"A. c #FE8800",
"S. c #FE8D00",
"D. c #F28414",
"F. c #F18018",
"G. c #FE8916",
"H. c #F99604",
"J. c #FD9000",
"K. c #FD9600",
"L. c #E08225",
"P. c #E38929",
"I. c #E29423",
"U. c #FE9322",
"Y. c #FE9025",
"T. c #FEAC00",
"R. c #C38D4C",
"E. c #C88B43",
"W. c #C6904E",
"Q. c #C0975F",
"!. c #C4965A",
"~. c #C99350",
"^. c #CA9452",
"/. c #D89C57",
"(. c #C09861",
"). c #C1AC7E",
"_. c #FEA648",
"`. c #FEA54C",
"'. c #FEAA57",
"]. c #FEB266",
"[. c #FEB975",
"{. c #FEC000",
"}. c #81948E",
"|. c #879E9B",
" X c #8E969D",
".X c #8E9D92",
"XX c #919B8D",
"oX c #9B9C87",
"OX c gray61",
"+X c #8F99A2",
"@X c #8CA099",
"#X c #91A59E",
"$X c #9CA799",
"%X c #9CA89C",
"&X c #81A2A6",
"*X c #81A3A9",
"=X c #82A4A9",
"-X c #86A8AD",
";X c #89A4A3",
":X c #8FACAC",
">X c #8BADB2",
",X c #8EAFB2",
"<X c #92ACAA",
"1X c #9AA1A7",
"2X c #9AA3AB",
"3X c #98AAA2",
"4X c #A4968D",
"5X c #B9A384",
"6X c gray64",
"7X c #B1BABF",
"8X c #BCBDB4",
"9X c #80B4C7",
"0X c #84B3C3",
"qX c #81B5C8",
"wX c #84B5C8",
"eX c #B2BBC1",
"rX c #B7C0C5",
"tX c #BCC1C5",
"yX c #BAC3C8",
"uX c #F0B8B9",
"iX c #FEC38A",
"pX c #FEC994",
"aX c #F6CAAD",
"sX c #FEDBBA",
"dX c #FEDCBA",
"fX c #FEDEBF",
"gX c #FEE6A5",
"hX c #FEE1B6",
"jX c #FEE2BA",
"kX c #C7D0D4",
"lX c #CED8DC",
"zX c #DDD0C4",
"xX c gray84",
"cX c #D0D8DD",
"vX c #DEDAD0",
"bX c gray85",
"nX c #DDDFE1",
"mX c #DEE7EA",
"MX c #FEE7C5",
"NX c #FEEBD8",
"BX c #FEF2D3",
"VX c #FEF8D4",
"CX c #E2E3E3",
"ZX c #EDF2F4",
"AX c #EEF4F6",
"SX c #FEEEE3",
"DX c #FEF1E4",
"FX c #FAF3EB",
"GX c #F0F2F1",
"HX c #F0F5F7",
"JX c #F6F6F6",
"KX c #F1F7F8",
"LX c #FEF8F3",
"PX c #FEFBF7",
"IX c gray98",
"UX c #FDFDFD",
/* pixels */
"UXUXUXUXUXUXUXUXUXUXUXUXUXUXUXUXUXUXUXUXUXUXUXUXUXUXUXUXUXUXUXUXUXUXUXUXUXUXUXUXUXUXUXUXUXUXUXUXUXUXUXUXUXUXUXUXUXUXUXUXUXUXUXUX",
"UXUXUXUXUXUXUXUXUXUXUXUXUXUXUXUXUXUXUXUXUXUXUXUXUXUXUXUXUXUXUXUXUXUXUXUXUXUXUXUXUXUXUXUXUXUXUXUXUXUXUXUXUXUXUXUXUXUXUXUXUXUXUXUX",
"UXUXUXUXUXUXUXUXUXUXUXUXUXUXUXUXUXUXUXUXUXUXUXUXUXUXUXUXUXUXUXUXUXUXUXUXUXUXUXUXUXUXUXUXUXUXUXUXUXUXUXUXUXUXUXUXUXUXUXUXUXUXUXUX",
"UXUXUXUXUXUXUXUXUXUXUXUXUXUXUXUXUXUXUXUXUXUXUXUXUXUXUXUXUXUXUXUXUXUXUXUXUXUXUXUXUXUXUXUXUXUXUXUXUXUXUXUXUXUXUXUXUXUXUXUXUXUXUXUX",
"UXUXUXUXUXUXUXUXUXUXUXUXUXUXUXUXUXUXUXUXUXUXUXUXUXUXUXUXUXUXUXUXUXUXUXUXUXUXUXUXUXUXUXUXUXUXUXUXUXUXUXUXUXUXUXUXUXUXUXUXUXUXUXUX",
"UXUXUXUXUXUXUXUXUXUXUXMXhXhXhXhXhXhXhXhXhXhXhXhXjXPXUXUXUXUXUXUXUXUXUXUXUXUXUXUXUXUXUXUXUXUXUXUXUXUXUXUXUXUXUXUXUXUXUXUXUXUXUXUX",
"UXUXUXUXUXUXUXUXLXiX].A.A.A.A.A.A.A.A.A.A.A.A.A.A._.[.[.[.[.[.[.[.[.[.[.[.[.[.[.[.[.[.[.[.[.[.[.[.[.[.[.pXDXUXUXUXUXUXUXUXUXUXUX",
"UXUXUXUXUXUXUXNXY.&.&.&.&.&.&.&.&.&.&.&.&.&.&.&.&.&.&.&.&.&.&.&.&.&.&.&.&.&.&.&.&.&.&.&.&.&.&.&.&.&.&.&.&.V.`.fXUXUXUXUXUXUXUXUX",
"UXUXUXUXUXUXLXG.&.&.&.&.&.&.&.&.&.&.&.&.&.&.&.&.&.&.&.&.&.&.&.&.&.&.&.&.&.&.&.&.&.&.&.&.&.&.&.&.&.&.&.&.&.&.&.&.'.UXUXUXUXUXUXUX",
"UXUXUXUXUXUXGXs }.=X|.7.&.~.V s >.&.XXb M #X}.,XG M @X,.B.J.J.S.J.J.J.B.1.:X*Xm ;Xn s d p.j.,X-Xx x E.s.>X&Xc *XB UXUXUXUXUXUXUX",
"UXUXUXUXUXUXZXC K H 0Xc.D.F f f d X.g k L Z I H j J h l A.K.K.J.K.K.K.C.$XK j J k f f Z (.Q.L j g K R.k.K h J k k UXUXUXUXUXUXUX",
"UXUXUXUXUXUXHXK H 9X2.&.;.f f k #XX.k L Z I H j J h f z A.K.K.J.K.K.K.C..Xh J k f f S qX(.3.j g K D W.a.h J k f k UXUXUXUXUXUXUX",
"UXUXUXUXUXUXAXH 9XN X.u.f f k P 3X+.L Z I H j J h f g &XA.K.K.J.K.K.K.C.-.J k f f D qXqX(.:.g K D I ^.i.J k f f H UXUXUXUXUXUXUX",
"UXUXUXUXUXUXKX9XC e.#.v f k P qX%XN.A I H j J h f g J <XA.K.K.J.K.K.K.C.oXk f f D qXqXqX!.<.K D I K <.h.k f f H wXUXUXUXUXUXUXUX",
"UXUXUXUXUXUXFXf.w.&.o.q.q.f.g.g.v.&.P.g.q.f.t.q.q.y.g.c.A.K.K.J.K.K.K.C.' q.q.r.g.g.g.l.Z.$.d.f.g.r.] O.q.q.r.g./.UXUXUXUXUXUXUX",
"UXUXUXUXUXUXDX&.&.&.&.&.&.&.&.&.&.&.&.&.&.&.&.&.&.&.&.&.A.H.z.M.b.I.K.C.&.&.&.&.&.&.&.&.&.&.&.&.&.&.&.&.L.x.&.&.Y.UXUXUXUXUXUXUX",
"UXUXUXUXUXUXDX&.&.&.&.&.&.&.&.&.&.&.&.&.&.&.&.&.&.&.&.&.A.K.H.J.K.H.K.C.&.&.&.&.&.&.&.&.&.&.&.&.&.&.&.&.&.&.&.&.Y.UXUXUXUXUXUXUX",
"UXUXUXUXUXUXDX&.&.&.&.&.&.&.&.&.&.&.&.&.&.&.&.&.&.&.&.&.C.K.K.J.K.K.K.C.&.&.&.&.&.&.&.&.&.&.&.&.&.&.&.&.&.&.&.&.U.UXUXUXUXUXUXUX",
"UXUXUXUXUXUXSX[ [ [ [ [ { ..{ [ [ [ [ [ [ [ [ [ [ [ [ [ %.K.K.J.K.K.K.@.[ [ [ [ [ [ [ [ [ { ..{ [ [ [ [ [ [ [ [ {.VXUXUXUXUXUXUX",
"UXUXUXUXUXUXuX[ [ [ { E 6 * 4 E { [ [ [ [ [ [ [ [ [ [ [ %.K.K.J.K.K.K.@.[ [ [ [ [ [ [ { T 4 % e W } [ [ [ [ [ [ T.BXUXUXUXUXUXUX",
"UXUXUXUXUXUXaX[ [ [ Y O 1 q 1 o Y [ [ [ [ [ [ [ [ [ [ [ %.K.K.J.K.K.K.@.[ [ [ [ [ [ [ U O 3 q < o R [ [ [ [ [ [ | dXUXUXUXUXUXUX",
"UXUXUXUXUXUXgX[ [ ` 1 9 0.8X9.; # ` [ [ [ [ [ [ [ [ [ [ F.m.m.n.m.m.m.*.[ [ [ [ [ [ _ $ 0 ).8X8.- &  .[ [ [ [ [ | sXUXUXUXUXUXUX",
"UXUXUXUXUXUXvX6.6.4., Q lXmXyXy   4.6.6.6.6.6.6.6.6.6.6.OXOXOXOXOXOXOX4X6.6.6.6.6.6.) > ~ cXmXrXr X 5.6.6.6.6.6.6.zXUXUXUXUXUXUX",
"UXUXUXUXUXUXbX6X6X6X8 ! kXcXeXt 2 6X6X6X6X6X6X6X6X6X6X6XOXOXOXOXOXOXOXOX6X6X6X6X6X6X6X7 ^ kXcX7Xw 5 6X6X6X6X6X6X6XxXUXUXUXUXUXUX",
"UXUXUXUXUXUXUXUXUXUX2X= ( 5X( @  XUXUXUXUXUXUXUXUXUXUXJXCXCXCXCXCXCXCXCXUXUXUXUXUXUXUX+X: =.5X/ + 1XUXUXUXUXUXUXUXUXUXUXUXUXUXUX",
"UXUXUXUXUXUXUXUXUXUXUXp .   . i IXUXUXUXUXUXUXUXUXUXUXUXUXUXUXUXUXUXUXUXUXUXUXUXUXUXUXIXu .   . a UXUXUXUXUXUXUXUXUXUXUXUXUXUXUX",
"UXUXUXUXUXUXUXUXUXUXUXUXCXtXCXUXUXUXUXUXUXUXUXUXUXUXUXUXUXUXUXUXUXUXUXUXUXUXUXUXUXUXUXUXUXnXtXCXUXUXUXUXUXUXUXUXUXUXUXUXUXUXUXUX",
"UXUXUXUXUXUXUXUXUXUXUXUXUXUXUXUXUXUXUXUXUXUXUXUXUXUXUXUXUXUXUXUXUXUXUXUXUXUXUXUXUXUXUXUXUXUXUXUXUXUXUXUXUXUXUXUXUXUXUXUXUXUXUXUX",
"UXUXUXUXUXUXUXUXUXUXUXUXUXUXUXUXUXUXUXUXUXUXUXUXUXUXUXUXUXUXUXUXUXUXUXUXUXUXUXUXUXUXUXUXUXUXUXUXUXUXUXUXUXUXUXUXUXUXUXUXUXUXUXUX",
"UXUXUXUXUXUXUXUXUXUXUXUXUXUXUXUXUXUXUXUXUXUXUXUXUXUXUXUXUXUXUXUXUXUXUXUXUXUXUXUXUXUXUXUXUXUXUXUXUXUXUXUXUXUXUXUXUXUXUXUXUXUXUXUX",
"UXUXUXUXUXUXUXUXUXUXUXUXUXUXUXUXUXUXUXUXUXUXUXUXUXUXUXUXUXUXUXUXUXUXUXUXUXUXUXUXUXUXUXUXUXUXUXUXUXUXUXUXUXUXUXUXUXUXUXUXUXUXUXUX",
"UXUXUXUXUXUXUXUXUXUXUXUXUXUXUXUXUXUXUXUXUXUXUXUXUXUXUXUXUXUXUXUXUXUXUXUXUXUXUXUXUXUXUXUXUXUXUXUXUXUXUXUXUXUXUXUXUXUXUXUXUXUXUXUX"
};
