/* XPM */
static const char *vclass_rail_xpm[] = {
/* columns rows colors chars-per-pixel */
"43 28 256 2 ",
"   c #273440",
".  c #293642",
"X  c #2A3843",
"o  c #2A3844",
"O  c #2D3A45",
"+  c #2F3D48",
"@  c #313E49",
"#  c #31404B",
"$  c #36434D",
"%  c #37444F",
"&  c #334552",
"*  c #354550",
"=  c #344552",
"-  c #344652",
";  c #364853",
":  c #374954",
">  c #384551",
",  c #3A4A55",
"<  c #3A4C57",
"1  c #3C4C55",
"2  c #3B4E5C",
"3  c #3C4D58",
"4  c #414F57",
"5  c #40505A",
"6  c #46515A",
"7  c #47535D",
"8  c #46545E",
"9  c #4C585E",
"0  c #405260",
"q  c #425562",
"w  c #475560",
"e  c #4A5961",
"r  c #4F5C63",
"t  c #4A5B68",
"y  c #4D5D6A",
"u  c #525E62",
"i  c #525D67",
"p  c #53636E",
"a  c #566168",
"s  c #556268",
"d  c #56626A",
"f  c #55646F",
"g  c #586265",
"h  c #596366",
"j  c #5A6467",
"k  c #5A6468",
"l  c #59656E",
"z  c #5C6669",
"x  c #5D6A6E",
"c  c #536470",
"v  c #5E6C70",
"b  c #666F76",
"n  c #627277",
"m  c #657077",
"M  c #637378",
"N  c #647378",
"B  c #66737B",
"V  c #647479",
"C  c #65757A",
"Z  c #65747E",
"A  c #6A747D",
"S  c #6C777A",
"D  c #6E787D",
"F  c #3F788D",
"G  c #367D96",
"H  c #397B93",
"J  c #447687",
"K  c #437788",
"L  c #4E7F8F",
"P  c #6A7884",
"I  c #6C7A85",
"U  c #727F88",
"Y  c #0B81AF",
"T  c #0B88B8",
"R  c #0C88B8",
"E  c #1E88AF",
"W  c #138EBB",
"Q  c #108FBE",
"!  c #158CB8",
"~  c #158DBA",
"^  c #1B8AB2",
"/  c #198AB4",
"(  c #188BB6",
")  c #1D89B0",
"_  c #1C89B2",
"`  c #1F8BB6",
"'  c #1C8CB5",
"]  c #1393BF",
"[  c #1394BF",
"{  c #2E819F",
"}  c #338B98",
"|  c #2784A6",
" . c #2585A8",
".. c #2B82A2",
"X. c #2983A4",
"o. c #2D81A0",
"O. c #2C82A1",
"+. c #0E90C0",
"@. c #0C91C2",
"#. c #0F92C1",
"$. c #0E92C2",
"%. c #0C93C5",
"&. c #0D94C5",
"*. c #0D9BCB",
"=. c #1293C0",
"-. c #1092C3",
";. c #1898C7",
":. c #0DA4D2",
">. c #15A7D3",
",. c #209BC0",
"<. c #269EC1",
"1. c #239CC9",
"2. c #289BC6",
"3. c #299EC3",
"4. c #2AA3C7",
"5. c #2EA2C7",
"6. c #2BA3C9",
"7. c #2CA3CA",
"8. c #2FA8CE",
"9. c #22ACD6",
"0. c #2FB1D8",
"q. c #33A3CD",
"w. c #30A7C8",
"e. c #32A7CB",
"r. c #32A8C8",
"t. c #32A8CC",
"y. c #34A8CB",
"u. c #38A6CA",
"i. c #3CA7CF",
"p. c #3CA8CA",
"a. c #3EAACB",
"s. c #31ABD3",
"d. c #32ACD4",
"f. c #37ADD1",
"g. c #37ACD2",
"h. c #36AFD6",
"j. c #39AED1",
"k. c #3AAFD5",
"l. c #32B2D9",
"z. c #38B0D6",
"x. c #3CB2D6",
"c. c #3CB5DB",
"v. c #3FB6DB",
"b. c #7A848B",
"n. c #79868E",
"m. c #7D8589",
"M. c #7A898D",
"N. c #6793A3",
"B. c #41ABCB",
"V. c #45A9C9",
"C. c #48A3C2",
"Z. c #4AACCB",
"A. c #4EADCB",
"S. c #41AFD2",
"D. c #44B2D4",
"F. c #43B5D8",
"G. c #42B8DC",
"H. c #49B6D7",
"J. c #49BADD",
"K. c #56AFCB",
"L. c #5FA6C1",
"P. c #55B7D6",
"I. c #56BFDF",
"U. c #69B1CE",
"Y. c #72AEC4",
"T. c #71AFC6",
"R. c #75BFDA",
"E. c #73C0DC",
"W. c #62C4E2",
"Q. c #6FC9E4",
"!. c #7CCEE6",
"~. c #DAB659",
"^. c #F8C360",
"/. c #858E92",
"(. c #888F97",
"). c #87929C",
"_. c #8B9295",
"`. c #8E9599",
"'. c #8C989E",
"]. c #969D9F",
"[. c #8E9AA1",
"{. c #929CA1",
"}. c #9CA2A4",
"|. c #9DA4A6",
" X c #9AA4AB",
".X c #A1A6A8",
"XX c #A3ABB2",
"oX c #A2ADB2",
"OX c #A4AEB3",
"+X c #A4AFB4",
"@X c #AAAFB2",
"#X c #ABB5BA",
"$X c #ADB8BC",
"%X c #B4B9BE",
"&X c #B7BCBD",
"*X c #84B8CC",
"=X c #8DB5C2",
"-X c #8EB8C6",
";X c #96BECD",
":X c #B3BEC3",
">X c #B4BDC2",
",X c #BBBFC0",
"<X c #91C0D2",
"1X c #86C8E1",
"2X c #89D2E9",
"3X c #96D7EB",
"4X c #ADC6CF",
"5X c #B7C1C5",
"6X c #B8C2C6",
"7X c #BCC0C1",
"8X c #BAC4C8",
"9X c #BEC4C9",
"0X c #BFC8CD",
"qX c #B9D4DE",
"wX c #BED6DE",
"eX c #A7D3E3",
"rX c #A3DCED",
"tX c #ACDFEF",
"yX c #B0E1F0",
"uX c #B9E4F1",
"iX c #BDE6F2",
"pX c #C1CBCF",
"aX c #C5C8CA",
"sX c #CACECF",
"dX c #C5CFD3",
"fX c #C6CFD4",
"gX c #C9D2D7",
"hX c #CED2D3",
"jX c #D0D4D6",
"kX c #C0E2EF",
"lX c #C5E9F4",
"zX c #CAEAF4",
"xX c #D2E6ED",
"cX c #D7E6EC",
"vX c #D2EEF6",
"bX c #D7EFF7",
"nX c #DFF3F8",
"mX c #FBEAC9",
"MX c #E6E8EA",
"NX c #E7EBEC",
"BX c #EBEDEE",
"VX c #ECEEEF",
"CX c #E4F4F9",
"ZX c #E9F0F3",
"AX c #EBF1F4",
"SX c #EFF1F1",
"DX c #ECF5F8",
"FX c #ECF7FB",
"GX c #F1F8FB",
"HX c #F1F9FC",
"JX c gray98",
"KX c #F8FBFC",
"LX c #FAFCFC",
"PX c gray99",
"IX c #FCFDFE",
"UX c #FEFEFE",
/* pixels */
"CXrXtXuXlXvXnXFXLXUXUXUXUXUXUXUXUXUXUXUXUXUXUXUXUXUXUXUXUXUXUXUXUXUXUXUXUXUXUXUXUXUXUX",
"l.:.:.:.:.:.:.:.:.>.9.0.c.J.I.W.Q.!.2X3XrXyXiXzXbXCXHXIXUXUXUXUXUXUXUXUXUXUXUXUXUXUXUX",
"*.%.%.%.%.%.%.%.%.%.%.%.%.%.%.%.%.%.%.%.%.%.%.%.%.%.%.&.;.1.i.1XGXUXUXUXUXUXUXUXUXUXUX",
"@.@.@.@.@.@.@.@.@.@.@.@.@.@.@.@.@.@.@.@.@.@.@.@.@.@.@.@.@.@.@.@.q.GXUXUXUXUXUXUXUXUXUX",
"@.@.@.@.@.@.@.@.@.@.@.@.@.@.@.@.@.@.@.@.@.@.@.@.@.@.@.@.@.@.@.@.@.E.UXUXUXUXUXUXUXUXUX",
"@.$.[ [ ] =.[ [ #.@.@.~ / / ( +./ / / / @./ / / / Q ! / / / Q ! / ' xXUXUXUXUXUXUXUXUX",
"@.,.r.r.w.4.r.r.<.@.E J J J F W J J J J Q K J J J _ G J J J O.X.J J N.PXUXUXUXUXUXUXUX",
"@.s.G.G.v.h.G.G.z.@...J J J F W J J J J Q K J J J _ G J J J F ! J J J 4XUXUXUXUXUXUXUX",
"@.d.G.G.v.h.G.G.z.@.| J J J F W J J J J Q K J J J _ G J J J J ^ H J J L AXUXUXUXUXUXUX",
"@.d.G.G.v.h.G.G.z.@.+.X.{ { ..Q { { { { +.o.{ { { !  .{ { { { E ) { { { T.UXUXUXUXUXUX",
"$.d.G.G.v.h.G.G.z.$.$.$.$.$.$.$.$.$.$.$.$.$.$.$.$.$.$.$.$.$.$.$.$.$.$.$.-.kXUXUXUXUXUX",
"*XP.G.G.v.h.G.G.H.*X*X*X*X*X*X*X*X*X*X*X*X*X*X*X*X*X*X*X*X*X*X*X*X*X*X*X*X<XKXUXUXUXUX",
"2.k.G.G.v.h.G.G.x.2.2.2.2.2.2.2.2.2.2.2.2.2.2.2.2.2.2.2.2.2.2.2.2.2.2.2.2.2.R.mXUXUXUX",
"@.d.F.C.S.g.C.D.z.@.@.@.@.@.@.@.@.@.@.@.@.@.@.@.@.@.@.@.@.@.@.@.@.@.@.@.@.@.@.^.UXUXUX",
"@.d.G.G.v.h.G.G.z.@.@.@.@.@.@.@.@.@.@.@.@.@.@.@.@.@.@.@.@.@.@.@.@.@.@.@.@.@.@.~.UXUXUX",
"T 7.j.j.f.8.j.j.t.T T T T T T T T T T T T T T T T T T T T T T T T T T T T T R } eXUXUX",
"Y 3.y.y.e.6.y.y.5.Y Y Y Y Y Y Y Y Y Y Y Y Y Y Y Y Y Y Y Y Y Y Y Y Y Y Y Y Y Y Y ` DXUX",
"Y 3.y.y.e.6.y.y.5.Y Y Y Y Y Y Y Y Y Y Y Y Y Y Y Y Y Y Y Y Y Y Y Y Y Y Y Y Y Y Y Y U.UX",
"L.V.y.y.e.6.y.y.p.Y.Y.Y.Y.Y.Y.Y.Y.Y.Y.Y.Y.Y.Y.Y.Y.Y.Y.Y.Y.Y.Y.Y.Y.Y.Y.Y.Y.Y.Y.Y.Y.Y.cX",
";XA.y.y.e.6.y.y.B.;X;X;X;X;X;X;X;X;X;X;X;X;X;X;X;X;X;X;X;X;X;X;X;X;X;X;X;X;X;X;X;X;XqX",
";XK.a.a.p.u.a.a.Z.;X;X;X;X;X;X;X;X;X;X;X;X;X;X;X;X;X;X;X;X;X;X;X;X;X;X;X;X;X;X;X;X;XqX",
"=X-X-X-X-X-X-X-X-X-X-X-X-X-X-X-X-X-X-X-X-X-X-X-X-X-X-X-X-X-X-X-X-X-X-X-X-X-X-X-X-X-XwX",
"v M V n n n V N n n n V M n n n V n n n n C n n n n C n n n n C n n n M V n M.ZXZXZXLX",
"S 3 ; s h x < * u h s : , g h r - 1 j k e & 4 z z 8 = 6 k k 5 - 9 j k , ; u m.UXUXUXUX",
"p [.oX. NXq oX'.O BX2 #Xn.6 hX0 :XB b >Xc 8Xw `. XZ 5X> @XU n.$Xo sXf [.oX. SXUXUXUXUX",
"P +X>X% JXy 6XOXi JX0 pX{.A MXt fXb.(.9XZ gXl %XXXn.dX8 jX).[.0X% VXI oX>X> PXUXUXUXUX",
"/.. . a .Xm o . D .Xd O   m..X7 +   _.|.# @ X }.].o @ $ .X_.o O 6 .Xm.X X k .X&XUXUXUX",
"aX7X,X7X7X7X7X7X7X7X7X,X7X7X7X7X7X7X7X7X7X,X7X7X7X7X7X7X7X7X7X7X7X7X7X7X7X7X7XhXUXUXUX"
};
