/* XPM */
static const char *vclass_authority_xpm[] = {
/* columns rows colors chars-per-pixel */
"64 32 256 2 ",
"   c #070C12",
".  c #13181D",
"X  c #0D1A23",
"o  c #101E2C",
"O  c #12212E",
"+  c #122130",
"@  c #132534",
"#  c #142332",
"$  c #142431",
"%  c #172734",
"&  c #152737",
"*  c #172835",
"=  c #172836",
"-  c #172A37",
";  c #172A38",
":  c #172C3B",
">  c #192734",
",  c #182837",
"<  c #192A38",
"1  c #192C3A",
"2  c #192F3F",
"3  c #262625",
"4  c #22282F",
"5  c #282828",
"6  c #252D32",
"7  c #292E32",
"8  c #38312E",
"9  c #343631",
"0  c #353C3F",
"q  c #1A2F41",
"w  c #1B3242",
"e  c #1C3041",
"r  c #1E3142",
"t  c #1C3343",
"y  c #1F3345",
"u  c #1D3445",
"i  c #203446",
"p  c #223647",
"a  c #263441",
"s  c #253544",
"d  c #203548",
"f  c #203648",
"g  c #21374A",
"h  c #20384A",
"j  c #21394C",
"k  c #223A4D",
"l  c #26394A",
"z  c #2A3045",
"x  c #283B4C",
"c  c #2C3E4C",
"v  c #384041",
"b  c #304354",
"n  c #374451",
"m  c #354654",
"M  c #394B57",
"N  c #3A4C58",
"B  c #3A4C5B",
"V  c #3C4F5D",
"C  c #3B5263",
"Z  c #4C2543",
"A  c #601C40",
"S  c #6D1740",
"D  c #652045",
"F  c #45453D",
"G  c #4C4538",
"H  c #714F1C",
"J  c #72551C",
"K  c #40525F",
"L  c #405161",
"P  c #445564",
"I  c #465765",
"U  c #445B6B",
"Y  c #465C6B",
"T  c #4F5E66",
"R  c #485E6B",
"E  c #4D616D",
"W  c #536270",
"Q  c #526571",
"!  c #546370",
"~  c #635F5C",
"^  c #626F73",
"/  c #606F7B",
"(  c #657274",
")  c #687477",
"_  c #6D7672",
"`  c #6E7881",
"'  c #6D7A86",
"]  c #757E87",
"[  c #51859B",
"{  c #52869C",
"}  c #56889C",
"|  c #54889E",
" . c #598DA3",
".. c #5F93A8",
"X. c #73848E",
"o. c #798382",
"O. c #78848C",
"+. c #79858F",
"@. c #768690",
"#. c #7B8792",
"$. c #7A8A93",
"%. c #7C9396",
"&. c #6192A5",
"*. c #6094A9",
"=. c #6195AA",
"-. c #6993A2",
";. c #7097A4",
":. c #6FA3B7",
">. c #78A0AC",
",. c #70A4B8",
"<. c #73A7BB",
"1. c #75A9BD",
"2. c #7DB1C4",
"3. c #88103E",
"4. c #90093C",
"5. c #A9043C",
"6. c #AD0D42",
"7. c #A63E66",
"8. c #98492B",
"9. c #9F721E",
"0. c #9A6820",
"q. c #AE5E21",
"w. c #B1822D",
"e. c #FE9300",
"r. c #FEA200",
"t. c #F4B87D",
"y. c #848D89",
"u. c #848D8A",
"i. c #868F8A",
"p. c #8A938E",
"a. c #8D968E",
"s. c #829596",
"d. c #839797",
"f. c #83949E",
"g. c #859099",
"h. c #85909A",
"j. c #849798",
"k. c #8B939B",
"l. c #919993",
"z. c #959C95",
"x. c #9D9D9D",
"c. c #8596A0",
"v. c #8A9CA6",
"b. c #8E98A1",
"n. c #949EA6",
"m. c #99A098",
"M. c #8AA7AA",
"N. c #8BA8AA",
"B. c #8BA9AE",
"V. c #8CA8AB",
"C. c #8CA9AC",
"Z. c #8DAAAC",
"A. c #92A5A5",
"S. c #95A6A2",
"D. c #97A3AA",
"F. c #98A1A9",
"G. c #9AA3AB",
"H. c #9BA4AC",
"J. c #9EA6AE",
"K. c #9FA9AF",
"L. c #9CB2AF",
"P. c #97B5B8",
"I. c #9EB4B1",
"U. c #9FBDBF",
"Y. c #A0A69D",
"T. c #A4AA9F",
"R. c #A9AEA3",
"E. c #A0A9B0",
"W. c #ACB1A5",
"Q. c #ADB6AC",
"!. c #A5B7B1",
"~. c #B8B9A5",
"^. c #B0BEB4",
"/. c #BABBBC",
"(. c gray75",
"). c #80B4C7",
"_. c #87B6C6",
"`. c #81B5C8",
"'. c #8CB9C6",
"]. c #90BECE",
"[. c #99B7C3",
"{. c #9DBDC1",
"}. c #9DBEC3",
"|. c #A0BEC0",
" X c #AEBCC3",
".X c #B3BCC1",
"XX c #B2BEC3",
"oX c #BABFC3",
"OX c #B3C0B5",
"+X c #B2C0B6",
"@X c #B3C1B8",
"#X c #B6C5BC",
"$X c #B5C6BF",
"%X c #BCC0B0",
"&X c #BBC7BE",
"*X c #BDC5B8",
"=X c #B9C8BF",
"-X c #BFCABE",
";X c #99C3D2",
":X c #A2C0C2",
">X c #ABC4C2",
",X c #A2C7D4",
"<X c #B2C6C1",
"1X c #B5C0C5",
"2X c #BBC1C6",
"3X c #BEC4C9",
"4X c #BDC7CC",
"5X c #CE9FB2",
"6X c #DDA0B5",
"7X c #E09FB4",
"8X c #EDB391",
"9X c #EAB5C6",
"0X c #C3CBBD",
"qX c #C3CCBE",
"wX c #C5CBBB",
"eX c #C6CDBD",
"rX c #C9CDBB",
"tX c #CED0BD",
"yX c #D0D1BD",
"uX c #FEDB9E",
"iX c #C1C6CA",
"pX c #C5CACE",
"aX c #C7CCD0",
"sX c #C4CED2",
"dX c #CACFD3",
"fX c #CFD2D5",
"gX c #CAD4D9",
"hX c #CDD6DA",
"jX c #D8CAD2",
"kX c #D1DADE",
"lX c #D4DCD8",
"zX c #D8DCDF",
"xX c #D8E2E6",
"cX c #DDE5E9",
"vX c #ECCDD7",
"bX c #F1CCD7",
"nX c #F2D1DB",
"mX c #ECE0CB",
"MX c #FEECCD",
"NX c #E2E5E7",
"BX c #E4E7E8",
"VX c #E0E9EC",
"CX c #EAEBED",
"ZX c #EAECED",
"AX c #EAECEE",
"SX c #EAF2F5",
"DX c #F6E1E8",
"FX c #F6F7F7",
"GX c #F2F6F8",
"HX c #F7F7F8",
"JX c #FAF0F3",
"KX c #F8F9F9",
"LX c #F9F9FA",
"PX c #F9FAFB",
"IX c gray99",
"UX c #FEFEFE",
/* pixels */
"UXUXUXUXUXUXUXUXUXUXUXUXUXUXUXUXUXUXUXUXUXUXUXUXUXUXUXUXUXUXUXUXUXUXUXUXUXUXUXUXUXUXUXUXUXUXUXUXUXUXUXUXUXUXUXUXUXUXUXUXUXUXUXUX",
"UXUXUXUXUXUXUXUXUXUXUXUXUXUXUXUXUXUXUXUXUXUXUXUXUXUXUXUXUXUXUXUXUXUXUXUXUXUXUXUXUXUXUXUXUXUXUXUXUXUXUXUXUXUXUXUXUXUXUXUXUXUXUXUX",
"UXUXUXUXUXUXUXUXUXUXUXUXUXUXUXUXUXUXUXUXUXUXUXUXUXUXUXUXUXUXUXUXUXUXUXUXUXUXUXUXUXUXUXUXUXUXUXUXUXUXUXUXUXUXUXUXUXUXUXUXUXUXUXUX",
"UXUXUXUXUXUXUXUXUXUXUXUXUXUXUXUXUXUXUXUXUXUXUXUXUXUXUXUXUXUXUXUXUXUXUXUXUXUXUXUXUXUXUXUXUXUXUXUXUXUXUXUXUXUXUXUXUXUXUXUXUXUXUXUX",
"UXUXUXUXUXUXUXUXUXUXUXUXUXUXUXUXUXUXUXUXUXUXUXUXUXUXUXUXUXUXUXUXUXUXUXUXUXUXUXUXUXUXUXUXUXUXUXUXUXUXUXUXUXUXUXUXUXUXUXUXUXUXUXUX",
"UXUXUXUXUXUXUXUXUXUXUXUXUXUXUXUXUXUXUXUXUXUXUXUXIXnXbXvXiXjXbXbXDXUXUXUXUXUXUXUXUXUXUXUXUXUXUXUXUXUXUXUXUXUXUXUXUXUXUXUXUXUXUXUX",
"UXUXUXUXUXUXUXUXUXUXUXUXUXUXUXUXUXUXUXUXUXUXUXUX6X5.5.3.i Z 5.5.6.JXUXUXUXUXUXUXUXUXUXUXUXUXUXUXUXUXUXUXUXUXUXUXUXUXUXUXUXUXUXUX",
"UXUXUXUXUXUXUXUXUXUXUXUXUXUXUXUXUXUXIXAXCXCXCXCX7.4.4.A i z 4.4.4.5XCXZXHXUXUXUXUXUXUXUXUXUXUXUXUXUXUXUXUXUXUXUXUXUXUXUXUXUXUXUX",
"UXUXUXUXUXUXUXUXUXUXUXUXUXUXUXUXUXUX' l l l l l l l l l l l l l l l l l x ! pXUXUXUXUXUXUXUXUXUXUXUXUXUXUXUXUXUXUXUXUXUXUXUXUXUX",
"UXUXUXUXUXUXUXUXUXUXUXUXUXUXUXUXUXdXT Z.N.N.U.:XP.C.|.:XeX$XZ.N.V.{.}.B.N.N.L.lXUXUXUXUXUXUXUXUXUXUXUXUXUXUXUXUXUXUXUXUXUXUXUXUX",
"UXUXUXUXUXUXUXUXUXUXUXUXUXUXUXUXKXP %.[ [ :.`.1.| <.`.`.0XI.[ { ,.).*.[ [ [ { !.[.IXUXUXUXUXUXUXUXUXUXUXUXUXUXUXUXUXUXUXUXUXUXUX",
"UXUXUXUXUXUXUXUXUXUXUXUXUXUXUXUXb.T -.[ :.`.1.| <.`.`.).wXOX{ ,.).*.[ [ [ [ [ M.>.,XPXUXUXUXUXUXUXUXUXUXUXUXUXUXUXUXUXUXUXUXUXUX",
"UXUXUXUXUXUXUXUXUXUXUXUXUXUXUXzXl d.[ :.`.1.| <.`.`.)...rXrX,.).*.[ [ [ [ [ [ &.<X`.;XGXUXUXUXUXUXUXUXUXUXUXUXUXUXUXUXUXUXUXUXUX",
"UXUXUXUXUXUXUXUXUXUXUXUXUXUXIXW T ;.:.`.1.| <.`.`.).=.} tXyX_.*.[ [ [ [ [ [  .2.>X'.`.].SXUXUXUXUXUXUXUXUXUXUXUXUXUXUXUXUXUXUXUX",
"UXUXUXUXUXUXUXUXUXUXLXaXJ.g./ i Y.j.A.=X+X@X=X=X=X#X^.*XyXyXQ.s.S.^.^.^.^.^.#X=X-XqX=X=X&XO.#.F.2XBXUXUXUXUXUXUXUXUXUXUXUXUXUXUX",
"UXUXUXUXUXUXUXUXIXG.b i i i i i T.u.p.W.W.W.W.W.W.W.W.W.W.W.m.u.z.W.W.W.W.W.W.W.W.W.W.W.W.M i i i i B +.pXIXUXUXUXUXUXUXUXUXUXUX",
"UXUXUXUXUXUXUXUXn.i i i i i i i ) ) ) ) ) ) ) ) ) ) ) ) ) ) ) ) ) ) ) ) ) ) ) ) ) ) ) ) ^ i i i i i i i i I 3XUXUXUXUXUXUXUXUXUX",
"UXUXUXUXUXUXUX9XD i i i i i i i y.i.i.i.i.i.i.i.i.i.i.i.i.i.i.i.i.i.i.i.i.i.i.i.i.i.i.i.( i i i i i i i i i i h.UXUXUXUXUXUXUXUX",
"UXUXUXUXUXUXUX7XS i i i i i g h m l.yXyXyXyXyXyXyXyXyXyXyXyXyXyXyXyXyXyXyXyXyXyXyXyXyXyX( i f j f i i i i i i i E.UXUXUXUXUXUXUX",
"UXUXUXUXUXUXUX8X8.i i i h 1 = * 1 h o.yXyXyXyXyXyXyXyXyXyXyXyXyXyXyXyXyXyXyXyXyXyXyXyXyXN u ; % ; t i i 0 0.9.9.w.MXUXUXUXUXUXUX",
"UXUXUXUXUXUXUXt.q.i i h - y h j i $ j R.yXyXyXyXyXyXyXyXyXyXyXyXyXyXyXyXyXyXyXyXyXyXyX%Xu 1 i k d , w i G e.r.r.r.uXUXUXUXUXUXUX",
"UXUXUXUXUXUXUX~ 8 & & 2 r C  XXXR + : _ ~.~.~.~.~.~.~.~.~.~.~.~.~.~.~.~.~.~.~.~.~.~.~.a.1 j f.1Xc.< O q 6 H J J J mXUXUXUXUXUXUX",
"UXUXUXUXUXUX(..       O i v.cXxXK.& + 9 F F F F F F F F F F F F F F F F F F F F F F F v 1 Y kXVX4XK o X           /.UXUXUXUXUXUX",
"UXUXUXUXUXUXx.5 5 5 5 7 i v.hXgXD.@ 4 3 3 3 3 3 3 3 3 3 3 3 3 3 3 3 3 3 3 3 3 3 3 3 3 3 s U sXkX.XV > 5 5 5 5 5 5 x.UXUXUXUXUXUX",
"UXUXUXUXUXUXUXUXUXUXUXPXL p X.@.c < NXUXUXUXUXUXUXUXUXUXUXUXUXUXUXUXUXUXUXUXUXUXUXUXUXUXH.e E $.Q + k.UXUXUXUXUXUXUXUXUXUXUXUXUX",
"UXUXUXUXUXUXUXUXUXUXUXUXzXn + + a oXUXUXUXUXUXUXUXUXUXUXUXUXUXUXUXUXUXUXUXUXUXUXUXUXUXUXIX] # + + ` PXUXUXUXUXUXUXUXUXUXUXUXUXUX",
"UXUXUXUXUXUXUXUXUXUXUXUXUXIXfXpXFXUXUXUXUXUXUXUXUXUXUXUXUXUXUXUXUXUXUXUXUXUXUXUXUXUXUXUXUXUXBXiXNXUXUXUXUXUXUXUXUXUXUXUXUXUXUXUX",
"UXUXUXUXUXUXUXUXUXUXUXUXUXUXUXUXUXUXUXUXUXUXUXUXUXUXUXUXUXUXUXUXUXUXUXUXUXUXUXUXUXUXUXUXUXUXUXUXUXUXUXUXUXUXUXUXUXUXUXUXUXUXUXUX",
"UXUXUXUXUXUXUXUXUXUXUXUXUXUXUXUXUXUXUXUXUXUXUXUXUXUXUXUXUXUXUXUXUXUXUXUXUXUXUXUXUXUXUXUXUXUXUXUXUXUXUXUXUXUXUXUXUXUXUXUXUXUXUXUX",
"UXUXUXUXUXUXUXUXUXUXUXUXUXUXUXUXUXUXUXUXUXUXUXUXUXUXUXUXUXUXUXUXUXUXUXUXUXUXUXUXUXUXUXUXUXUXUXUXUXUXUXUXUXUXUXUXUXUXUXUXUXUXUXUX",
"UXUXUXUXUXUXUXUXUXUXUXUXUXUXUXUXUXUXUXUXUXUXUXUXUXUXUXUXUXUXUXUXUXUXUXUXUXUXUXUXUXUXUXUXUXUXUXUXUXUXUXUXUXUXUXUXUXUXUXUXUXUXUXUX",
"UXUXUXUXUXUXUXUXUXUXUXUXUXUXUXUXUXUXUXUXUXUXUXUXUXUXUXUXUXUXUXUXUXUXUXUXUXUXUXUXUXUXUXUXUXUXUXUXUXUXUXUXUXUXUXUXUXUXUXUXUXUXUXUX"
};
