/* XPM */
static const char *vclass_bus_xpm[] = {
/* columns rows colors chars-per-pixel */
"64 32 256 2 ",
"   c #504B5A",
".  c #514C5B",
"X  c #524D5C",
"o  c #534E5C",
"O  c #534E5D",
"+  c #554B5A",
"@  c #554C5A",
"#  c #564E5C",
"$  c #544F5E",
"%  c #584D5B",
"&  c #594D5C",
"*  c #5E4C5A",
"=  c #55505E",
"-  c #55505F",
";  c #565160",
":  c #575260",
">  c #585361",
",  c #585362",
"<  c #595563",
"1  c #5A5564",
"2  c #5A5664",
"3  c #5B5665",
"4  c #5C5765",
"5  c #5C5866",
"6  c #5E5967",
"7  c #624C5A",
"8  c #644D5A",
"9  c #684D5A",
"0  c #6D4D5A",
"q  c #7A515C",
"w  c #615C6A",
"e  c #625D6B",
"r  c #635E6C",
"t  c #645F6D",
"y  c #6C5966",
"u  c #745D69",
"i  c #7B5D69",
"p  c #66626F",
"a  c #676270",
"s  c #686370",
"d  c #686371",
"f  c #686471",
"g  c #696572",
"h  c #6F6B78",
"j  c #706C78",
"k  c #716C79",
"l  c #726E7A",
"z  c #736F7B",
"x  c #74707C",
"c  c #7C7884",
"v  c #8A525C",
"b  c #925F68",
"n  c #A2515A",
"m  c #AB525A",
"M  c #B2535A",
"N  c #B2575E",
"B  c #B1595F",
"V  c #BA535A",
"C  c #B35960",
"Z  c #C1545A",
"A  c #C2575D",
"S  c #C5545A",
"D  c #C0585E",
"F  c #C9585D",
"G  c #D1555A",
"H  c #D4565B",
"J  c #C45C61",
"K  c #CA5C61",
"L  c #D65E62",
"P  c #D65F64",
"I  c #DD5F62",
"U  c #CF6266",
"Y  c #DF6062",
"T  c #DE6265",
"R  c #D86368",
"E  c #D9696D",
"W  c #D96A6E",
"Q  c #D97276",
"!  c #DA7377",
"~  c #DB7A7E",
"^  c #E25B5E",
"/  c #E56062",
"(  c #FB6364",
")  c #FD6464",
"_  c #FE7777",
"`  c #DC7C80",
"'  c #DE7D81",
"]  c #85808A",
"[  c #85818C",
"{  c #8B8892",
"}  c #8C8892",
"|  c #8D8993",
" . c #908D96",
".. c #928F98",
"X. c #939099",
"o. c #A09EA6",
"O. c #A3A0A8",
"+. c #A5A0A8",
"@. c #ABA9B0",
"#. c #BAAAB0",
"$. c #B2B0B6",
"%. c #DF888B",
"&. c #E29295",
"*. c #E3999C",
"=. c #E59C9F",
"-. c #EF9D9E",
";. c #E5A1A4",
":. c #E6A2A5",
">. c #E8A8AA",
",. c #EAAEB0",
"<. c #EAB1B3",
"1. c #EDBCBE",
"2. c #FEA2A2",
"3. c #FEB7B7",
"4. c #C1BDC2",
"5. c #C1BFC4",
"6. c #CAC9CD",
"7. c #D3D1D4",
"8. c #D6D4D8",
"9. c #D9D8DC",
"0. c #DBDADD",
"q. c #DDDCDF",
"w. c #F0C7C9",
"e. c #F1CED0",
"r. c #F3D2D3",
"t. c #E7E6E8",
"y. c #EDE4E5",
"u. c #F2E1E2",
"i. c #F2EDEE",
"p. c #F6ECED",
"a. c #F7EFEF",
"s. c #FAE5E6",
"d. c #F9EFF0",
"f. c #F2F0F1",
"g. c #FBF0F0",
"h. c #FBF1F1",
"j. c #FEF4F4",
"k. c #FEF6F6",
"l. c #F8F8F8",
"z. c #FDF8F8",
"x. c #FEFBFB",
"c. c #FDFCFC",
"v. c #FEFEFE",
"b. c gray100",
"n. c black",
"m. c black",
"M. c black",
"N. c black",
"B. c black",
"V. c black",
"C. c black",
"Z. c black",
"A. c black",
"S. c black",
"D. c black",
"F. c black",
"G. c black",
"H. c black",
"J. c black",
"K. c black",
"L. c black",
"P. c black",
"I. c black",
"U. c black",
"Y. c black",
"T. c black",
"R. c black",
"E. c black",
"W. c black",
"Q. c black",
"!. c black",
"~. c black",
"^. c black",
"/. c black",
"(. c black",
"). c black",
"_. c black",
"`. c black",
"'. c black",
"]. c black",
"[. c black",
"{. c black",
"}. c black",
"|. c black",
" X c black",
".X c black",
"XX c black",
"oX c black",
"OX c black",
"+X c black",
"@X c black",
"#X c black",
"$X c black",
"%X c black",
"&X c black",
"*X c black",
"=X c black",
"-X c black",
";X c black",
":X c black",
">X c black",
",X c black",
"<X c black",
"1X c black",
"2X c black",
"3X c black",
"4X c black",
"5X c black",
"6X c black",
"7X c black",
"8X c black",
"9X c black",
"0X c black",
"qX c black",
"wX c black",
"eX c black",
"rX c black",
"tX c black",
"yX c black",
"uX c black",
"iX c black",
"pX c black",
"aX c black",
"sX c black",
"dX c black",
"fX c black",
"gX c black",
"hX c black",
"jX c black",
"kX c black",
"lX c black",
"zX c black",
"xX c black",
"cX c black",
"vX c black",
"bX c black",
"nX c black",
"mX c black",
"MX c black",
"NX c black",
"BX c black",
"VX c black",
"CX c black",
"ZX c black",
"AX c black",
"SX c black",
"DX c black",
"FX c black",
"GX c black",
"HX c black",
"JX c black",
"KX c black",
"LX c black",
"PX c black",
"IX c black",
"UX c black",
/* pixels */
"b.b.b.b.b.b.v.v.v.v.v.v.v.v.v.v.v.v.v.v.v.v.v.v.v.v.v.v.v.v.v.v.v.v.v.v.v.v.v.v.v.v.v.v.v.v.v.v.v.v.v.v.v.v.v.v.v.v.b.b.b.b.b.b.",
"b.b.b.b.b.b.v.v.v.v.v.v.v.v.v.v.v.v.v.v.v.v.v.v.v.v.v.v.v.v.v.v.v.v.v.v.v.v.v.v.v.v.v.v.v.v.v.v.v.v.v.v.v.v.v.v.v.v.b.b.b.b.b.b.",
"b.b.b.b.b.b.v.v.v.v.v.v.v.v.v.v.v.v.v.v.v.v.v.v.v.v.v.v.v.v.v.v.v.v.v.v.v.v.v.v.v.v.v.v.v.v.v.v.v.v.v.v.v.v.v.v.v.v.b.b.b.b.b.b.",
"b.b.b.b.b.b.v.v.v.v.v.v.v.v.v.v.v.v.v.v.v.v.v.v.v.v.v.v.v.v.v.v.v.v.v.v.v.v.v.v.v.v.v.v.v.v.v.v.v.v.v.v.v.v.v.v.v.v.b.b.b.b.b.b.",
"b.b.b.b.b.b.v.v.v.v.v.v.v.v.v.v.v.v.v.v.v.v.v.v.v.v.v.v.v.v.v.v.v.v.v.v.v.v.v.v.v.v.v.v.v.v.v.v.v.v.v.v.v.v.v.v.v.v.b.b.b.b.b.b.",
"b.b.b.b.b.b.v.v.v.v.v.v.v.v.v.v.v.v.v.v.v.v.v.v.v.v.v.v.v.v.v.v.v.v.v.v.v.v.v.v.v.v.v.v.v.v.v.v.v.v.v.v.v.v.v.v.v.v.b.b.b.b.b.b.",
"b.b.b.b.b.b.v.v.v.v.v.v.v.v.v.v.v.v.v.v.v.v.v.v.v.v.v.v.v.v.v.v.v.v.v.v.v.v.v.v.v.v.v.v.v.v.v.v.v.v.v.v.v.v.v.v.v.v.b.b.b.b.b.b.",
"b.b.b.b.b.b.v.v.v.v.v.v.v.v.v.v.v.v.v.v.v.v.v.v.v.v.v.v.v.v.v.;.Q Q Q Q Q Q Q Q Q Q Q Q Q ~ e.v.v.v.v.v.v.v.v.v.v.v.b.b.b.b.b.b.",
"b.b.b.b.b.b.v.k.j.j.j.j.j.j.j.j.j.' P P P P P P P P P P P W s.E H H H H H H H H H H H H H H R j.j.j.j.j.j.j.j.x.v.v.b.b.b.b.b.b.",
"b.b.b.b.b.b.3.) ) ) ) ) ) ) ) ) ) ) ) ) ) ) ) ) ) ) ) ) ) ) ) ) ) ) ) ) ) ) ) ) ) ) ) ) ) ) ) ) ) ) ) ) ) ) ) _ c.v.b.b.b.b.b.b.",
"b.b.b.b.b.b.2.) T U U U U U U U U U U U U U U U U U U U U U U U U U U U U U U U U U U U U U U U U U U U U U U U u.v.b.b.b.b.b.b.",
"b.b.b.b.b.b.2.) i w s f f f f f a w s f f f f f a w 3 1 1 1 1 5 w s f f f f f a e d f f f f f p w 2 1 1 1 1 5 e 4.v.b.b.b.b.b.b.",
"b.b.b.b.b.b.2.) i e l l l l l l l r l l l l l l k 6             r l l l l l l k t l l l l l l j 6           . t +.v.b.b.b.b.b.b.",
"b.b.b.b.b.b.2.) i e l l l l l l l r l l l l l l k 6 o 2 $ ; 2 . r l l l l l l k t l l l l l l j 5 O 2 $ : 2 . t ] v.b.b.b.b.b.b.",
"b.b.b.b.b.b.2.) i e l l l l l l l r l l l l l l k 6 - w , 2 w X r l l l l l l k t l l l l l l j 5 ; w : 4 w X t l f.b.b.b.b.b.b.",
"b.b.b.b.b.b.2.) i e l l l l l l k r l l l l l l j 6 - w , 2 w X r l l l l l l j r l l l l l l h 5 ; w : 4 w X r l 7.b.b.b.b.b.b.",
"b.b.b.b.b.b.2.) b u u u u u u u u u u u u u u u u y - w , 2 w X u u u u u u u u u u u u u u u u y ; w : 4 w X u u #.b.b.b.b.b.b.",
"b.b.b.b.b.b.2.) ) ) ) ) ) ) ) ) ) ) ) ) ) ) ) ) ) Y - w , 2 w X ) ) ) ) ) ) ) ) ) ) ) ) ) ) ) ) L ; w : 4 w & ) ) 2.b.b.b.b.b.b.",
"b.b.b.b.b.b.2.) ) ) ) ) ) ) ) ) ) ) ) ) ) ) ) ) ) Y - w , 2 w X ) ) ) ) ) ) ) ) ) ) ) ) ) ) ) ) L ; w : 4 w & ) ) 2.b.b.b.b.b.b.",
"b.b.b.b.b.b.2.) ) ) ) ) ) ) ) ) ) ) I B K ) ) ) ) Y - w , 2 w X ) ) ) ) ) ) ) ) ) ) ) ( J C / ) L ; w : 4 w & ) ) 2.b.b.b.b.b.b.",
"b.b.b.b.b.b.-.^ ^ ^ ^ ^ ^ ^ ^ ^ ^ N   6 . v ^ ^ ^ F - w > 2 w X ^ ^ ^ ^ ^ ^ ^ ^ ^ ^ ^ q O 5 @ D A - w : 4 w % ^ ^ -.b.b.b.b.b.b.",
"b.b.b.b.b.b.:.G G G G G G G G G G * { 0.$.  V G G V . - X o -   G G G G G G G G G G m . 5.9.c 0 M . - . O = @ G G *.b.b.b.b.b.b.",
"b.b.b.b.b.b.z.r.w.1.<.>.=.&.%.` ! # O.0.6.  M G G S +         7 G G G G G G G G G G n - 8.0.X.8 Z +         9 G G ,.b.b.b.b.b.b.",
"b.b.b.b.b.b.v.v.v.v.v.v.v.v.v.v.v...<  .g p p.g.g.g.a.i.i.i.i.d.g.g.g.g.g.g.g.g.g.g.y.3 k | - +.g.a.i.i.i.i.d.g.h.v.b.b.b.b.b.b.",
"b.b.b.b.b.b.v.v.v.v.v.v.v.v.v.v.v.l.o.z } t.v.v.v.v.v.v.v.v.v.v.v.v.v.v.v.v.v.v.v.v.v.q.[ x @.c.v.v.v.v.v.v.v.v.v.v.b.b.b.b.b.b.",
"b.b.b.b.b.b.v.v.v.v.v.v.v.v.v.v.v.v.v.v.v.v.v.v.v.v.v.v.v.v.v.v.v.v.v.v.v.v.v.v.v.v.v.v.v.v.v.v.v.v.v.v.v.v.v.v.v.v.b.b.b.b.b.b.",
"b.b.b.b.b.b.v.v.v.v.v.v.v.v.v.v.v.v.v.v.v.v.v.v.v.v.v.v.v.v.v.v.v.v.v.v.v.v.v.v.v.v.v.v.v.v.v.v.v.v.v.v.v.v.v.v.v.v.b.b.b.b.b.b.",
"b.b.b.b.b.b.v.v.v.v.v.v.v.v.v.v.v.v.v.v.v.v.v.v.v.v.v.v.v.v.v.v.v.v.v.v.v.v.v.v.v.v.v.v.v.v.v.v.v.v.v.v.v.v.v.v.v.v.b.b.b.b.b.b.",
"b.b.b.b.b.b.v.v.v.v.v.v.v.v.v.v.v.v.v.v.v.v.v.v.v.v.v.v.v.v.v.v.v.v.v.v.v.v.v.v.v.v.v.v.v.v.v.v.v.v.v.v.v.v.v.v.v.v.b.b.b.b.b.b.",
"b.b.b.b.b.b.v.v.v.v.v.v.v.v.v.v.v.v.v.v.v.v.v.v.v.v.v.v.v.v.v.v.v.v.v.v.v.v.v.v.v.v.v.v.v.v.v.v.v.v.v.v.v.v.v.v.v.v.b.b.b.b.b.b.",
"b.b.b.b.b.b.v.v.v.v.v.v.v.v.v.v.v.v.v.v.v.v.v.v.v.v.v.v.v.v.v.v.v.v.v.v.v.v.v.v.v.v.v.v.v.v.v.v.v.v.v.v.v.v.v.v.v.v.b.b.b.b.b.b.",
"b.b.b.b.b.b.v.v.v.v.v.v.v.v.v.v.v.v.v.v.v.v.v.v.v.v.v.v.v.v.v.v.v.v.v.v.v.v.v.v.v.v.v.v.v.v.v.v.v.v.v.v.v.v.v.v.v.v.b.b.b.b.b.b."
};
