/* XPM */
static const char *vclass_trailer_xpm[] = {
/* columns rows colors chars-per-pixel */
"52 32 256 2 ",
"   c #504B5A",
".  c #524C5A",
"X  c #514C5B",
"o  c #524D5C",
"O  c #534E5C",
"+  c #55505E",
"@  c #55505F",
"#  c #565260",
"$  c #575261",
"%  c #585361",
"&  c #585462",
"*  c #595563",
"=  c #5A5564",
"-  c #5B5664",
";  c #5C5866",
":  c #615C6A",
">  c #625E6B",
",  c #675E6A",
"<  c #6C5F69",
"1  c #65616E",
"2  c #66626F",
"3  c #676370",
"4  c #696572",
"5  c #6A6672",
"6  c #6A6673",
"7  c #6B6774",
"8  c #6C6774",
"9  c #6C6875",
"0  c #6E6976",
"q  c #6E6A76",
"w  c #74707C",
"e  c #75717D",
"r  c #76727E",
"t  c #7B7883",
"y  c #7C7884",
"u  c #7F7C87",
"i  c #8A6566",
"p  c #A26E66",
"a  c #A86E60",
"s  c #B27C6E",
"d  c #BA7A66",
"f  c #C96E5A",
"g  c #DC7D5F",
"h  c #C97F66",
"j  c #FE7D5A",
"k  c #FE7E5B",
"l  c #FE7F5C",
"z  c #807C87",
"x  c #A6806E",
"c  c #A7826F",
"v  c #A88270",
"b  c #AA8572",
"n  c #AF8A76",
"m  c #B38E7A",
"M  c #CB866F",
"N  c #D78264",
"B  c #DD8665",
"V  c #FE815E",
"C  c #FE865E",
"Z  c #FE865F",
"A  c #FE8A60",
"S  c #FE8A61",
"D  c #FE8F63",
"F  c #FB9064",
"G  c #FE9064",
"H  c #FE9265",
"J  c #FE9A6B",
"K  c #FE9C6C",
"L  c #FFA471",
"P  c #FFAE78",
"I  c #FFB07A",
"U  c #FFB47D",
"Y  c #83808A",
"T  c #86838D",
"R  c #8A8791",
"E  c #8C8993",
"W  c #8D8A94",
"Q  c #8E8B95",
"!  c #908D96",
"~  c #918E97",
"^  c #928F99",
"/  c #93919A",
"(  c #96939C",
")  c #97959D",
"_  c #98959E",
"`  c #9E9BA3",
"'  c #BB9682",
"]  c #BE9985",
"[  c #A09DA5",
"{  c #A09DA6",
"}  c #A09EA6",
"|  c #A29FA7",
" . c #A3A0A8",
".. c #A3A1A9",
"X. c #A6A3AB",
"o. c #A6A4AB",
"O. c #A8A5AD",
"+. c #ADABB2",
"@. c #AFADB4",
"#. c #B0AEB4",
"$. c #B0AEB5",
"%. c #B4B2B8",
"&. c #B7B5BB",
"*. c #B8B6BC",
"=. c #BCB6BB",
"-. c #BCBAC0",
";. c #C5A08B",
":. c #CAA58F",
">. c #CBA690",
",. c #CEA993",
"<. c #D7A391",
"1. c #D0AC95",
"2. c #DAA694",
"3. c #D8B49D",
"4. c #DBB69F",
"5. c #C7AAA7",
"6. c #CFB4AE",
"7. c #DBB6A0",
"8. c #DCB9A2",
"9. c #FE9E84",
"0. c #FEB090",
"q. c #FEB19C",
"w. c #FEB79F",
"e. c #E1BDA6",
"r. c #FEBDA2",
"t. c #FEBFA5",
"y. c #DAC0B0",
"u. c #FFCCA6",
"i. c #FFCCA7",
"p. c #FEC9BB",
"a. c #FFD2B1",
"s. c #FFD3B3",
"d. c #FFD6B8",
"f. c #C2C0C6",
"g. c #C4C2C7",
"h. c #C4C3C8",
"j. c #CFCACD",
"k. c #CCCBCF",
"l. c #CECDD1",
"z. c #DDCCCA",
"x. c #D1CFD3",
"c. c #D3D1D5",
"v. c #D5D4D8",
"b. c #D7D6D9",
"n. c #D9D4D6",
"m. c #D8D7DB",
"M. c #DBDADD",
"N. c #FED2C6",
"B. c #FEDAC0",
"V. c #FEDBC1",
"C. c #E2DEE0",
"Z. c #FFEDDF",
"A. c #E2E1E4",
"S. c #E3E2E4",
"D. c #E9E8EA",
"F. c #ECEBED",
"G. c #ECECED",
"H. c #EEEEEF",
"J. c #FEEBE5",
"K. c #F0EFF1",
"L. c #FEF0E9",
"P. c #FEF0EA",
"I. c #FEF0EB",
"U. c #FEF2ED",
"Y. c #FEF3EF",
"T. c seashell",
"R. c #F3F3F4",
"E. c #F6F3F3",
"W. c #F6F6F7",
"Q. c #FEF3F0",
"!. c #FEF6F2",
"~. c #F9F8F9",
"^. c #FAF9FA",
"/. c gray98",
"(. c #FEFDFC",
"). c #FEFDFD",
"_. c #FEFEFE",
"`. c gray100",
"'. c black",
"]. c black",
"[. c black",
"{. c black",
"}. c black",
"|. c black",
" X c black",
".X c black",
"XX c black",
"oX c black",
"OX c black",
"+X c black",
"@X c black",
"#X c black",
"$X c black",
"%X c black",
"&X c black",
"*X c black",
"=X c black",
"-X c black",
";X c black",
":X c black",
">X c black",
",X c black",
"<X c black",
"1X c black",
"2X c black",
"3X c black",
"4X c black",
"5X c black",
"6X c black",
"7X c black",
"8X c black",
"9X c black",
"0X c black",
"qX c black",
"wX c black",
"eX c black",
"rX c black",
"tX c black",
"yX c black",
"uX c black",
"iX c black",
"pX c black",
"aX c black",
"sX c black",
"dX c black",
"fX c black",
"gX c black",
"hX c black",
"jX c black",
"kX c black",
"lX c black",
"zX c black",
"xX c black",
"cX c black",
"vX c black",
"bX c black",
"nX c black",
"mX c black",
"MX c black",
"NX c black",
"BX c black",
"VX c black",
"CX c black",
"ZX c black",
"AX c black",
"SX c black",
"DX c black",
"FX c black",
"GX c black",
"HX c black",
"JX c black",
"KX c black",
"LX c black",
"PX c black",
"IX c black",
"UX c black",
/* pixels */
"_._._._._._._._._._._._._._._._._._._._._._._._._._._._._._._._._._._._._._._._._._._._._._._._._._._._.",
"_._._._._._._._._._._._._._._._._._._._._._._._._._._._._._._._._._._._._._._._._._._._._._._._._._._._.",
"_._._._._._._._._._._._._._._._._._._._._._._._._._._._._._._._._._._._._._._._._._._._._._._._._._._._.",
"_._._._._._._._._._._._._._._._._._._._._._._._._._._._._._._._._._._._._._._._._._._._._._._._._._._._.",
"_._._._._._._._._._._._._._._._._._._._._._._._._._._._._._._._._._._._._._._._._._._._._._._._._._._._.",
"_._._._._._._._._._._._._._._._._._._._._._._._._._._._._._._._._._._._._._._._._._._._._._._._._._._._.",
"_._._._._._._._._._._._._._._._._._._._._._._._._._._._._._._._._._._._._._._._._._._._._._._._._._._._.",
"Z.i.u.u.u.u.u.u.u.u.u.u.u.u.u.u.u.u.u.u.u.u.u.u.u.u.u.u.u.u.u.u.u.u.u.u.u.u.u.u.u.d.).N.Q._._._._._._._.",
"a.U U U U U U U U U U U U U U U U U U U U U U U U U U U U U U U U U U U U U U U U U I.j l 9.p.Y._._._._.",
"a.U U U U U U U U U U U U U U U U U U U U U U U U U U U U U U U U U U U U U U U U U P.k k k k V J.!.(._.",
"a.U U U U U U U U U U U U U U U U U U U U U U U U U U U U U U U U U U U U U U U U U L.G G G G G G G 0._.",
"a.U U U U U U U U U U U U U U U U U U U U U U U U U U U U U U U U U U U U U U U U U I.G D A A N h h M _.",
"a.U U U U U U U U U U U U U U U U U U U U U U U U U U U U U U U U U U U U U U U U U I.G A j j i : : : E.",
"a.U U U U U U U U U U U U U U U U U U U U U U U U U U U U U U U U U U U U U U U U U I.G A j j i : : : C.",
"a.U U U U U U U U U U U U U U U U U U U U U U U U U U U U U U U U U U U U U U U U U I.G A j j i : : : j.",
"a.U U U U U U U U U U U U U U U U U U U U U U U U U U U U U U U U U U U U U U U U U I.G G S C p , : : =.",
"a.U K G G G G G G G G G G G G G G G G G G G G G G G G G G G G G G G G G G G G H P U I.G G G G G F B d 6.",
"a.U L J J J J J J J J J J J J J J J J J J J J J J J J J J J J J J J J J J J J K I U I.G G G G G G G G t.",
"s.U U U U U U U U U U U U U U U U U U U U U U U U U U U U U U U U U U U U U U U U U U.G G G G G G G G r.",
"T.8.1.1.1.1.1.:.b v ;.1.,.n x ] 1.1.1.1.1.1.1.1.1.1.1.e.B.V.V.>.c ' 4.7.;.v m 3.7.y.n.2.2.<.s a g Z Z w.",
"_.g.o.o.o.o.[ - ; : @ ) 2 # 3 X R o.o.o.o.o.o.o.o.*.S._._._...X 6 o z ( X 3 # 7 &.*.*.*.&.4 $ 2 . f j q.",
"_./.G.^ ^ ^ r ; c.m.9 ;   f.M.T 0 F.F.F.F.F.F.G.R._._._._.~.+  .M.X.o : T M.f.  { *.*.*.` X h.M.Y < 5.z.",
"_._._.O./ / e : m.M.w *   k.M.~ q _._._._._._._._._._._._.W.o +.M.#.X ; ~ M.k.  } -.-.-.` X l.M.W 1 -.b.",
"_._._._._._.D.= 8 w O x.9 : y o %._._._._._._._._._._._._._.! % u & E %.o y : 9 /._._._.~.5 > t X *._._.",
"_._._._._._._.A._ ^ v._.K.| W f._._._._._._._._._._._._._._./.$.E @.^._.f.W | K._._._._._.H.} Q h._._._.",
"_._._._._._._._._._._._._._._._._._._._._._._._._._._._._._._._._._._._._._._._._._._._._._._._._._._._.",
"_._._._._._._._._._._._._._._._._._._._._._._._._._._._._._._._._._._._._._._._._._._._._._._._._._._._.",
"_._._._._._._._._._._._._._._._._._._._._._._._._._._._._._._._._._._._._._._._._._._._._._._._._._._._.",
"_._._._._._._._._._._._._._._._._._._._._._._._._._._._._._._._._._._._._._._._._._._._._._._._._._._._.",
"_._._._._._._._._._._._._._._._._._._._._._._._._._._._._._._._._._._._._._._._._._._._._._._._._._._._.",
"_._._._._._._._._._._._._._._._._._._._._._._._._._._._._._._._._._._._._._._._._._._._._._._._._._._._.",
"_._._._._._._._._._._._._._._._._._._._._._._._._._._._._._._._._._._._._._._._._._._._._._._._._._._._."
};
