/* XPM */
static const char *vclass_army_xpm[] = {
/* columns rows colors chars-per-pixel */
"64 32 256 2 ",
"   c #2D3A34",
".  c #2D3B35",
"X  c #2F3C36",
"o  c #313E38",
"O  c #313F39",
"+  c #324039",
"@  c #33403A",
"#  c #33413B",
"$  c #34413B",
"%  c #34423B",
"&  c #35423C",
"*  c #37443E",
"=  c #384640",
"-  c #394741",
";  c #3B4942",
":  c #3C4A44",
">  c #3D4B45",
",  c #3F4D47",
"<  c #3F4E47",
"1  c #414F49",
"2  c #415049",
"3  c #43524B",
"4  c #44514B",
"5  c #44534C",
"6  c #46554E",
"7  c #46554F",
"8  c #47564F",
"9  c #48574F",
"0  c #485750",
"q  c #4B5651",
"w  c #4B5752",
"e  c #495850",
"r  c #495851",
"t  c #4A5953",
"y  c #4A5A51",
"u  c #4E5953",
"i  c #4C5A53",
"p  c #4C5B54",
"a  c #4E5D56",
"s  c #4E5D57",
"d  c #4E5E57",
"f  c #515C57",
"g  c #4F6055",
"h  c #506156",
"j  c #506157",
"k  c #516357",
"l  c #506059",
"z  c #51615A",
"x  c #53635A",
"c  c #53655A",
"v  c #55635C",
"b  c #57625D",
"n  c #54645D",
"m  c #57655E",
"M  c #55675C",
"N  c #56665F",
"B  c #57685F",
"V  c #58675E",
"C  c #58695F",
"Z  c #596B5F",
"A  c #5A6D5F",
"S  c #576760",
"D  c #576860",
"F  c #586760",
"G  c #586860",
"H  c #586861",
"J  c #5A6862",
"K  c #5A6B62",
"L  c #5B6D63",
"P  c #5B6F60",
"I  c #5F6965",
"U  c #5C6D63",
"Y  c #5F6C66",
"T  c #5C7061",
"R  c #5D7062",
"E  c #5F7264",
"W  c #626C67",
"Q  c #606F68",
"!  c #646E69",
"~  c #607465",
"^  c #627666",
"/  c #627767",
"(  c #63706A",
")  c #627569",
"_  c #647969",
"`  c #66796C",
"'  c #667B6C",
"]  c #677D6A",
"[  c #687D6A",
"{  c #697F6B",
"}  c #697E6E",
"|  c #687670",
" . c #6C7873",
".. c #6F7A75",
"X. c #6A806D",
"o. c #6B816E",
"O. c #6B826E",
"+. c #6E866E",
"@. c #6E866F",
"#. c #6E8571",
"$. c #6F8672",
"%. c #708773",
"&. c #718873",
"*. c #728A72",
"=. c #728974",
"-. c #728A75",
";. c #748C76",
":. c #768F76",
">. c #768F77",
",. c #79927C",
"<. c #7C957E",
"1. c #7D967E",
"2. c #7C8581",
"3. c #878F8B",
"4. c #809A81",
"5. c #819B82",
"6. c #829884",
"7. c #829C83",
"8. c #8A918E",
"9. c #8A938F",
"0. c #8D9491",
"q. c #8C9692",
"w. c #8D9793",
"e. c #919895",
"r. c #929996",
"t. c #8BA38C",
"y. c #9AA19E",
"u. c #9BA39F",
"i. c #9BAF9C",
"p. c #9CA3A0",
"a. c #9CA4A1",
"s. c #9EA7A3",
"d. c #A0A5A3",
"f. c #A0A8A5",
"g. c #A2ABA7",
"h. c #A5ABA8",
"j. c #A7ACAA",
"k. c #ABB2AE",
"l. c #AABCAB",
"z. c #ADB4B0",
"x. c #AEB5B2",
"c. c #AFB6B3",
"v. c #B0B7B4",
"b. c #B2B9B6",
"n. c #B6BCB9",
"m. c #B7BDBA",
"M. c #B0C0B0",
"N. c #B0C0B1",
"B. c #B6C5B7",
"V. c #BBC0BE",
"C. c #BCC1BF",
"Z. c #C3CFC4",
"A. c #C9CECC",
"S. c #C8D3C8",
"D. c #C9D4C9",
"F. c #D2D6D4",
"G. c #D4D7D5",
"H. c #D5DDD5",
"J. c #D7DFD7",
"K. c #D7DAD9",
"L. c #DBDEDD",
"P. c #D8E0D8",
"I. c #DDE0DF",
"U. c #DDE4DD",
"Y. c #DDE4DE",
"T. c #E3E5E4",
"R. c #E5EAE5",
"E. c #E8ECE8",
"W. c #EBECEC",
"Q. c #EFF2EF",
"!. c #EFF0F0",
"~. c #F2F3F2",
"^. c #F2F3F3",
"/. c #F3F5F3",
"(. c gray96",
"). c #F5F6F6",
"_. c #F6F7F7",
"`. c #F7F9F8",
"'. c #F8F9F8",
"]. c #F9FAF9",
"[. c gray98",
"{. c #FBFBFB",
"}. c #FBFCFB",
"|. c gray99",
" X c #FDFDFD",
".X c #FDFEFE",
"XX c black",
"oX c black",
"OX c black",
"+X c black",
"@X c black",
"#X c black",
"$X c black",
"%X c black",
"&X c black",
"*X c black",
"=X c black",
"-X c black",
";X c black",
":X c black",
">X c black",
",X c black",
"<X c black",
"1X c black",
"2X c black",
"3X c black",
"4X c black",
"5X c black",
"6X c black",
"7X c black",
"8X c black",
"9X c black",
"0X c black",
"qX c black",
"wX c black",
"eX c black",
"rX c black",
"tX c black",
"yX c black",
"uX c black",
"iX c black",
"pX c black",
"aX c black",
"sX c black",
"dX c black",
"fX c black",
"gX c black",
"hX c black",
"jX c black",
"kX c black",
"lX c black",
"zX c black",
"xX c black",
"cX c black",
"vX c black",
"bX c black",
"nX c black",
"mX c black",
"MX c black",
"NX c black",
"BX c black",
"VX c black",
"CX c black",
"ZX c black",
"AX c black",
"SX c black",
"DX c black",
"FX c black",
"GX c black",
"HX c black",
"JX c black",
"KX c black",
"LX c black",
"PX c black",
"IX c black",
"UX c black",
/* pixels */
".X.X.X.X.X.X.X.X.X.X.X.X.X.X.X.X.X.X.X.X.X.X.X.X.X.X.X.X.X.X.X.X.X.X.X.X.X.X.X.X.X.X.X.X.X.X.X.X.X.X.X.X.X.X.X.X.X.X.X.X.X.X.X.X",
".X.X.X.X.X.X.X.X.X.X.X.X.X.X.X.X.X.X.X.X.X.X.X.X.X.X.X.X.X.X.X.X.X.X.X.X.X.X.X.X.X.X.X.X.X.X.X.X.X.X.X.X.X.X.X.X.X.X.X.X.X.X.X.X",
".X.X.X.X.X.X.X.X.X.X.X.X.X.X.X.X.X.X.X.X.X.X.X.X(.j.p.p.p.p.p.p.p.p.p.d.T..X.X.X.X.X.X.X.X.X.X.X.X.X.X.X.X.X.X.X.X.X.X.X.X.X.X.X",
".X.X.X.X.X.X.X.X.X.X.X.X.X.X.X.X.X.X.X.X.X.X.X^.3.o o o o o o o o o o o b !.!.!.^..X.X.X.X.X.X.X.X.X.X.X.X.X.X.X.X.X.X.X.X.X.X.X",
".X.X.X.X.X.X.X.X.X.X.X.X.X.X.X.X.X.X.X.X.X.Xf.8 7 7 7 7 7 7 7 7 7 7 7 p l l l l z g..X.X.X.X.X.X.X.X.X.X.X.X.X.X.X.X.X.X.X.X.X.X",
".X.X.X.X.X.X.X.X.X.X.X.X.X.X.X.X.X.X.X.X.X.Xw                           3 6 6 6 6 Y .X.X.X.X.X.X.X.X.X.X.X.X.X.X.X.X.X.X.X.X.X.X",
".X.X.X.X.X.X.X.X.X.X.X.X.X.X.X.X.X.X.X.X.X|.@                           , 6 6 6 6 i ~.^.e.W I ! u..X.X.X.X.X.X.X.X.X.X.X.X.X.X.X",
".X.X.X.X.X.X.X.X.X.X.X.X.X.X.X.X.X.X.X.X.XW.                            : 6 6 6 6 6 H H H S -   > I..X.X.X.X.X.X.X.X.X.X.X.X.X.X",
".X.X.X.X.X.X.X.X.X.X.X.X.X.X.X.X.X.X.X.X.XG.                            - 6 6 6 6 6 N H H H 6   : K..X.X.X.X.X.X.X.X.X.X.X.X.X.X",
".X.X.X.X.X.X.X.X.X.X.X.X.X.X.X.X.X.X.X.X.XC.                            * 6 6 6 6 6 n H H N =   : L..X.X.X.X.X.X.X.X.X.X.X.X.X.X",
".X.X.X.X.X.X.X.X.X.X.X.X.X.X.X.X.X.X.X.X.Xh.                            $ 6 6 6 6 6 m.'.2.u q f 9.|..X.X.X.X.X.X.X.X.X.X.X.X.X.X",
".X.X.X.X.X.X.X.X.X.X.X.X.X.X.X.X.X.X.X.X.Xr.                            o 6 6 6 6 6 k..X.X.X.X.X.X.X.X.X.X.X.X.X.X.X.X.X.X.X.X.X",
".X.X.X.X.X.X.X.X.X.X.X.X.X.X.X.X.X.X.X.X.Xy.                            O 6 6 6 6 6 n..X.X.X.X.X.X.X.X.X.X.X.X.X.X.X.X.X.X.X.X.X",
".X.X.X.X.X.X.X.X.X.X.X.X.X.X.X.X.X.X.X.X.X_.a.0.8.1 1 1 1 1 1 1 1 1 1 2 t d l a.a.c.{..X.X.X.X.X.X.X.X.X.X.X.X.X.X.X.X.X.X.X.X.X",
".X.X.X.X.X.X.X.X.X.X.X.X.X.X.X.X.X.X.XF.q.( J J J a a a a a a a a a a s z n n Q Q Q | w.F..X.X.X.X.X.X.X.X.X.X.X.X.X.X.X.X.X.X.X",
".X.X.X.X.X.X.X.X.X.X.X.X.X.X.X.X.X Xa., X                                 # 2 6 6 6 6 8 a s. X.X.X.X.X.X.X.X.X.X.X.X.X.X.X.X.X.X",
".X.X.X.X.X.X.X.X.X.X.X.X.X.X.X.X.Xx.%                                       . < 6 6 6 6 6 r v..X.X.X.X.X.X.X.X.X.X.X.X.X.X.X.X.X",
".X.X.X.X.X.X.X.X.X.X.X.X.X.X.X.X).4                                           X 5 6 6 6 6 6 v )..X.X.X.X.X.X.X.X.X.X.X.X.X.X.X.X",
".X.X.X.X.X.X.X.X.X.X.X.X.XV.m V x .                                             ; 6 6 6 6 6 6 A..X.X.X.X.X.X.X.X.X.X.X.X.X.X.X.X",
".X.X.X.X.X.X.X.X.X.X.X.X.X..e E A .                                             & 6 6 6 6 6 6 b..X.X.X.X.X.X.X.X.X.X.X.X.X.X.X.X",
".X.X.X.X.X.X.X.X.X.X.X.X.X .r Z k + o o o o o o o o o o o o o o o o o o o o o o * r r r r r r z.`.}..X.X.X.X.X.X.X.X.X.X.X.X.X.X",
".X.X.X.X.X.X.X.X.X.X.X.XU.6.4.4.4.4.4.4.4.4.4.4.4.4.4.4.4.4.4.4.4.4.4.4.4.4.4.4.4.4.4.4.4.4.4.4.4.5.i.U..X.X.X.X.X.X.X.X.X.X.X.X",
".X.X.X.X.X.X.X.X.X.X.XH.5.;.~ R R R R R R R R R R R R R R R R R R R R R R R R R R R R R R R R R R ~ ;.5.H..X.X.X.X.X.X.X.X.X.X.X",
".X.X.X.X.X.X.X.X.X.X[.t.#.8 6 6 6 6 6 6 6 6 6 6 6 6 6 6 6 6 6 6 6 6 6 6 6 6 6 6 6 6 6 6 6 6 6 6 6 6 8 #.t.[..X.X.X.X.X.X.X.X.X.X",
".X.X.X.X.X.X.X.X.X.XY.4.j 6 6 r %.T 6 6 _ X.8 6 M =.g 6 y &.P 6 6 ^ O.0 6 c =.h 6 e $.T 6 6 / o.9 6 6 j 4.Y..X.X.X.X.X.X.X.X.X.X",
".X.X.X.X.X.X.X.X.X.XJ.4.G n n L >.[ n n ;.+.B n } *.E n U >.] n n &.@.G n ' *.~ n K :.{ n n -.@.G n n G 4.P..X.X.X.X.X.X.X.X.X.X",
".X.X.X.X.X.X.X.X.X.XQ.5.` H H H B S H H B B H H S C F H H B S H H N C H H S C S H H B D H H B B H H H ` 7./..X.X.X.X.X.X.X.X.X.X",
".X.X.X.X.X.X.X.X.X.X.XM.1.) H H H H H H H H H H H H H H H H H H H H H H H H H H H H H H H H H H H H ) 1.B..X.X.X.X.X.X.X.X.X.X.X",
".X.X.X.X.X.X.X.X.X.X.X].l.4.<.,.,.,.,.,.,.,.,.,.,.,.,.,.,.,.,.,.,.,.,.,.,.,.,.,.,.,.,.,.,.,.,.,.,.<.4.N.}..X.X.X.X.X.X.X.X.X.X.X",
".X.X.X.X.X.X.X.X.X.X.X.X.XR.S.Z.Z.Z.Z.Z.Z.Z.Z.Z.Z.Z.Z.Z.Z.Z.Z.Z.Z.Z.Z.Z.Z.Z.Z.Z.Z.Z.Z.Z.Z.Z.Z.Z.Z.D.E..X.X.X.X.X.X.X.X.X.X.X.X.X",
".X.X.X.X.X.X.X.X.X.X.X.X.X.X.X.X.X.X.X.X.X.X.X.X.X.X.X.X.X.X.X.X.X.X.X.X.X.X.X.X.X.X.X.X.X.X.X.X.X.X.X.X.X.X.X.X.X.X.X.X.X.X.X.X",
".X.X.X.X.X.X.X.X.X.X.X.X.X.X.X.X.X.X.X.X.X.X.X.X.X.X.X.X.X.X.X.X.X.X.X.X.X.X.X.X.X.X.X.X.X.X.X.X.X.X.X.X.X.X.X.X.X.X.X.X.X.X.X.X"
};
