/* XPM */
static const char *vclass_taxi_xpm[] = {
/* columns rows colors chars-per-pixel */
"52 32 256 2 ",
"   c #11202E",
".  c #1F262D",
"X  c #122230",
"o  c #182734",
"O  c #1E2D3B",
"+  c #252B2E",
"@  c #2A2D2A",
"#  c #252D34",
"$  c #23313F",
"%  c #2D3337",
"&  c #2C353D",
"*  c #32342E",
"=  c #3A3629",
"-  c #323638",
";  c #1E3343",
":  c #203545",
">  c #253844",
",  c #283A43",
"<  c #323D41",
"1  c #36423E",
"2  c #3A443D",
"3  c #334140",
"4  c #3D454B",
"5  c #443B28",
"6  c #46473A",
"7  c #454B39",
"8  c #4D4D37",
"9  c #4A4C38",
"0  c #4E5136",
"q  c #505235",
"w  c #5D5931",
"e  c #655E2F",
"r  c #6D552C",
"t  c #625D30",
"y  c #6A5E3C",
"u  c #6A612D",
"i  c #73662A",
"p  c #7D6D26",
"a  c #796A28",
"s  c #4E5457",
"d  c #4C575C",
"f  c #554F45",
"g  c #585144",
"h  c #565F63",
"j  c #615643",
"k  c #6A737D",
"l  c #737C85",
"z  c #708E7C",
"x  c #799075",
"c  c #5D888F",
"v  c #51859A",
"b  c #55889D",
"n  c #5C8890",
"m  c #5C8D9E",
"M  c #5A8EA4",
"N  c #5C90A5",
"B  c #76838D",
"V  c #7D868E",
"C  c #769382",
"Z  c #7A9786",
"A  c #7B9987",
"S  c #7F9D8B",
"D  c #769B95",
"F  c #6094A9",
"G  c #6398AC",
"H  c #699DB2",
"J  c #6DA2B6",
"K  c #7DB2C5",
"L  c #957B1F",
"P  c #9A7D1D",
"I  c #847124",
"U  c #8A7422",
"Y  c #927920",
"T  c #8D7343",
"R  c #9C7E4D",
"E  c #CB2C2B",
"W  c #C93535",
"Q  c #E47E9B",
"!  c #E87E9B",
"~  c #9D801C",
"^  c #9C833D",
"/  c #A0821B",
"(  c #A98718",
")  c #AE8A16",
"_  c #B48D14",
"`  c #AF8139",
"'  c #B48335",
"]  c #BA8531",
"[  c #BDA433",
"{  c #998251",
"}  c #9F8558",
"|  c #91975D",
" . c #9C9A52",
".. c #A28D5B",
"X. c #A98C5B",
"o. c #A7915E",
"O. c #AC9055",
"+. c #AE955E",
"@. c #B1975F",
"#. c #A99165",
"$. c #AA946E",
"%. c #B09B68",
"&. c #AAA24F",
"*. c #ABAD6B",
"=. c #ACB378",
"-. c #C5980E",
";. c #CA9A0C",
":. c #C29610",
">. c #C4892D",
",. c #CB8D2A",
"<. c #C18931",
"1. c #D59836",
"2. c #D5A109",
"3. c #DDA506",
"4. c #D8A308",
"5. c #D7AB19",
"6. c #DCA71D",
"7. c #DBAB15",
"8. c #DDAA1A",
"9. c #DDB01C",
"0. c #C2A52D",
"q. c #DDB120",
"w. c #D4B232",
"e. c #EE9200",
"r. c #EC950D",
"t. c #EAAE02",
"y. c #E1AF14",
"u. c #E0A818",
"i. c #EBB107",
"p. c #EEB001",
"a. c #EEB204",
"s. c #E5B111",
"d. c #E2B118",
"f. c #EBB413",
"g. c #F1AA00",
"h. c #F0B200",
"j. c #F1B304",
"k. c #F1B406",
"l. c #F1B508",
"z. c #F2B60C",
"x. c #F0B810",
"c. c #F0B916",
"v. c #F0BD1F",
"b. c #EFBF26",
"n. c #F0BE26",
"m. c #F3BE2A",
"M. c #CAB243",
"N. c #D6A046",
"B. c #D3A557",
"V. c #DBB148",
"C. c #C3BA7F",
"Z. c #CABE7C",
"A. c #EEC83F",
"S. c #F1C336",
"D. c #F0C438",
"F. c #F3C43C",
"G. c #EEC945",
"H. c #E3C65D",
"J. c #EFD35F",
"K. c #F2C744",
"L. c #F4C746",
"P. c #F5CB52",
"I. c #F2CE58",
"U. c #F5CD5A",
"Y. c #F4D062",
"T. c #F6D167",
"R. c #F6D169",
"E. c #F6D26D",
"W. c #F6D46F",
"Q. c #F7D575",
"!. c #F3D87A",
"~. c #848F98",
"^. c #849494",
"/. c #86919A",
"(. c #8A9299",
"). c #949CA3",
"_. c #88A28A",
"`. c #88A592",
"'. c #94B29E",
"]. c #9BB498",
"[. c #89B1AF",
"{. c #8BB4B2",
"}. c #95B4A0",
"|. c #93B6AF",
" X c #A6B485",
".X c #A6AFB3",
"XX c #A7B0B5",
"oX c #A8B1B5",
"OX c #ADB5BA",
"+X c #B5B6A6",
"@X c #BBBBAA",
"#X c #B0B9BE",
"$X c #80B5C8",
"%X c #88B8C8",
"&X c #B6C0C4",
"*X c #BBC4C6",
"=X c #BECDCE",
"-X c #C4B68E",
";X c #C3B793",
":X c #C3B995",
">X c #EB809C",
",X c #D6C59E",
"<X c #DBC396",
"1X c #C2C1AF",
"2X c #D2C5A5",
"3X c #F7DB87",
"4X c #F8DB88",
"5X c #E5D9A4",
"6X c #F7E39F",
"7X c #F8E098",
"8X c #F9E2A1",
"9X c #F9E4A9",
"0X c #F9E8B1",
"qX c #FAE9B7",
"wX c #FAEBBD",
"eX c #FAEFBF",
"rX c #C2CED0",
"tX c #C8D1CD",
"yX c #C5D3D3",
"uX c #C3D4D8",
"iX c #C9D4D6",
"pX c #CAD4D8",
"aX c #CDD9DC",
"sX c #D1D4D7",
"dX c #D3D6D8",
"fX c #D3DBDD",
"gX c #DFD7DB",
"hX c #D8DCDF",
"jX c #D2DEE0",
"kX c #DEE3DE",
"lX c #DBE5E8",
"zX c #F8DAC8",
"xX c #E9E6CC",
"cX c #E0E2DC",
"vX c #F9EDC1",
"bX c #FBEEC9",
"nX c #F3EED7",
"mX c #FBF1C6",
"MX c #F9F0CE",
"NX c #FAF1D1",
"BX c #FCF1D5",
"VX c #E2E8E7",
"CX c #E5EDED",
"ZX c #E6EEF1",
"AX c #FBF6E2",
"SX c #FDF7E6",
"DX c #FCF9ED",
"FX c #F1F4F4",
"GX c #F7F8F8",
"HX c #FDFAF1",
"JX c #FEFCF6",
"KX c #F9FAFA",
"LX c #FBFCFC",
"PX c #FDFCF8",
"IX c #FDFDFD",
"UX c black",
/* pixels */
"IXIXIXIXIXIXIXIXIXIXIXIXIXIXIXIXIXIXIXIXIXIXMXwXwXHXIXIXIXIXIXIXIXIXIXIXIXIXIXIXIXIXIXIXIXIXIXIXIXIXIXIX",
"IXIXIXIXIXIXIXIXIXIXIXIXIXIXIXIXIXIXIXIXIXIXz.h.h.7XIXIXIXIXIXIXIXIXIXIXIXIXIXIXIXIXIXIXIXIXIXIXIXIXIXIX",
"IXIXIXIXIXIXIXIXIXIXIXIXIXIXIXIXIXIXIXIXIXBXh.h.h.W.IXIXIXIXIXIXIXIXIXIXIXIXIXIXIXIXIXIXIXIXIXIXIXIXIXIX",
"IXIXIXIXIXIXIXIXIXIXIXIXIXIXIXIXIXIXIXIXIX8Xh.h.h.K.IXIXIXIXIXIXIXIXIXIXIXIXIXIXIXIXIXIXIXIXIXIXIXIXIXIX",
"IXIXIXIXIXIXIXIXIXIXIXIXIXIXIXIXIXIXIXIXIXE.h.h.h.v.PXIXIXIXIXIXIXIXIXIXIXIXIXIXIXIXIXIXIXIXIXIXIXIXIXIX",
"IXIXIXIXIXIXIXIXIXIXIXIXIXIXDXNXMXMXMXMXMXY.n.n.n.D.vXMXMXNXAXIXIXIXIXIXIXIXIXIXIXIXIXIXIXIXIXIXIXIXIXIX",
"IXIXIXIXIXIXIXIXIXIXIXIXDX!.b.c.x.x.x.x.x.x.x.x.x.x.x.x.x.x.c.S.0XIXIXIXIXIXIXIXIXIXIXIXIXIXIXIXIXIXIXIX",
"IXIXIXIXIXIXIXIXIXIXIXPXI.h.h.h.h.h.h.h.h.h.h.h.h.h.h.h.h.h.h.h.h.3XIXIXIXIXIXIXIXIXIXIXIXIXIXIXIXIXIXIX",
"IXIXIXIXIXIXIXIXIXIXIX6Xh.h.a.9.7.7.7.7.8.q.9.h.h.d.q.q.7.7.7.s.i.7.5XIXIXIXIXIXIXIXIXIXIXIXIXIXIXIXIXIX",
"IXIXIXIXIXIXIXIXIXIXPXn.h.s.[.N v v v N K K M &.w.$X$XH v v J {.7.z v uXIXIXIXIXIXIXIXIXIXIXIXIXIXIXIXIX",
"IXIXIXIXIXIXIXIXIXIX9Xh.h.*.N v v v N K K M G =.M.$XH v v J K F x 7.n b jXIXIXIXIXIXIXIXIXIXIXIXIXIXIXIX",
"IXIXIXIXIXIXIXIXIXIXF.h.y.m v v v N K K M G $X=.M.H v v J K F v v  .0.v m lXIXIXIXIXIXIXIXIXIXIXIXIXIXIX",
"IXIXIXIXIXIXIXIXIXbXh.h.| v v v N K K M G $X$X=.[ v v J K F v v v v 0. .G %XCXIXIXIXIXIXIXIXIXIXIXIXIXIX",
"IXIXIXIXIXIXIXIXIXP.h.7.v v v N K K M G $X$X$X*.[ v J K F v v v v v c 7.].$X%XCXIXIXIXIXIXIXIXIXIXIXIXIX",
"IXIXIXIXIXIXIXIXvXh.h.5.z z C '.}.Z A }.}.}.`.[ 7._.}.S z z z z z z D  Xd.{.{.|.xXJXIXIXIXIXIXIXIXIXIXIX",
"IXIXIXIXSX9XR.m.h.h.h.h.h.h.h.h.h.h.h.h.h.h.h.h.h.h.h.h.h.h.h.h.h.h.h.h.h.h.h.h.h.j.m.U.4XqXSXIXIXIXIXIX",
"IX9XT.m.h.h.h.h.h.h.h.x.G.G.G.h.h.h.h.h.h.h.h.h.h.h.A.G.G.c.h.h.h.h.h.h.h.h.h.h.h.h.h.h.h.h.h.c.L.Q.9XIX",
"BXh.h.h.h.h.h.h.h.h.h.h.l.l.k.h.h.h.h.h.h.h.h.h.h.h.k.l.l.h.h.h.h.h.h.h.h.h.h.h.h.h.h.h.h.h.h.h.h.f.c.BX",
"MXq 4.2 t.2 p.1 3.9 3.8 4.q -.t :.e ) a ) p ( p L Y Y L U P p ) a ) e :.t -.w ;.8 3.9 3.1 p.2 t.2 Z.J.mX",
"MX3.2 2.2 4.1 ;.7 ;.7 ;.9 _ w _ w / u / i ~ i U I U U I U i ~ i / w _ w _ w _ 9 ;.7 ;.7 ;.1 4.2 -.^.J.eX",
"MX2 -., 4.> 3.: ;.3 ;.2 -.2 _ 0 ) q P e P u L u I p p I p I u P e P q ) 0 _ 9 _ 2 ;.3 ;.: 3.> 4., C.J.vX",
"zXr.g.g.g.g.g.g.8.^ y y ^ 8.g.g.g.g.g.g.g.g.g.g.g.g.g.g.g.g.g.g.g.g.g.g.g.g.u.^ y y ^ 6.g.g.g.g.g.V.H.nX",
">XE e.e.e.e.e.' % o ; ; X - ' e.e.e.e.e.e.e.e.e.e.e.e.e.e.e.e.e.e.e.e.e.e.] - X ; ; o % ` e.e.e.e.e.;XkX",
"! E e.e.e.e.>.# : : 8 9 : ; + ,.e.e.e.e.e.e.e.e.e.e.e.e.e.e.e.e.e.e.e.e.,.# ; : 9 8 : ; . <.e.e.e.e.-XkX",
"Q W r.r.e.e.g ; 2 +.@X@XO.+   j e.r.r.r.r.r.r.r.r.r.r.r.r.r.r.r.r.r.r.e.j ; < O.1X+X@.*   f e.e.r.r.:XcX",
"gXyXyXyXtX1.& : ..*XjXaX.XT X & B.yXyXyXyXyXyXyXyXyXyXyXyXyXyXyXyXyXyXN.< : { *XfXaXoXR X # 1.tXyXyXyXVX",
"fX=X=X=X=X<Xd : ..iXZXlX#X} X s 2X=X=X=X=X=X=X=X=X=X=X=X=X=X=X=X=X=X=X,Xh : ..rXZXlX&XX.X 4 <X=X=X=X=XfX",
"CXyXyXyXiXKX/.: %.rXfXiXOX{ X (.FXyXyXyXyXyXyXyXyXyXyXyXyXyXyXyXyXyXyXFX).: o.rXfXpXOXX.X l KXiXyXyXyXCX",
"IXIXIXIXIXIXiX: 9 $..XOX#.= X fXIXIXIXIXIXIXIXIXIXIXIXIXIXIXIXIXIXIXIXIXhX: 6 #.OXXX$.5 X *XIXIXIXIXIXIX",
"IXIXIXIXIXIXIXB X @ r r @ X V IXIXIXIXIXIXIXIXIXIXIXIXIXIXIXIXIXIXIXIXIXIX~.X @ r r @ X k IXIXIXIXIXIXIX",
"IXIXIXIXIXIXIXIX(.O X X $ ).IXIXIXIXIXIXIXIXIXIXIXIXIXIXIXIXIXIXIXIXIXIXIXIX).$ X X O (.LXIXIXIXIXIXIXIX",
"IXIXIXIXIXIXIXIXIXKXsXdXKXIXIXIXIXIXIXIXIXIXIXIXIXIXIXIXIXIXIXIXIXIXIXIXIXIXIXKXdXsXGXIXIXIXIXIXIXIXIXIX"
};
