/* XPM */
static const char *vclass_moped_xpm[] = {
/* columns rows colors chars-per-pixel */
"64 32 256 2 ",
"   c #504B5A",
".  c #514C5B",
"X  c #524D5C",
"o  c #534E5D",
"O  c #544F5D",
"+  c #544F5E",
"@  c #515365",
"#  c #5A5563",
"$  c #5B5664",
"%  c #5C5765",
"&  c #5E5967",
"*  c #5F5B68",
"=  c #5F5E6D",
"-  c #596374",
";  c #605B69",
":  c #615C6A",
">  c #615D6B",
",  c #625E6C",
"<  c #635F6D",
"1  c #65606E",
"2  c #66626F",
"3  c #6A6673",
"4  c #6F6B77",
"5  c #726E7A",
"6  c #356B86",
"7  c #4A6F86",
"8  c #417690",
"9  c #6E7484",
"0  c #787480",
"q  c #7B7883",
"w  c #7C7883",
"e  c #7D7A85",
"r  c #7F7C87",
"t  c #787D8C",
"y  c #1E93BA",
"u  c #1C94BC",
"i  c #0D9AC7",
"p  c #00AADC",
"a  c #04ABDD",
"s  c #07ACDD",
"d  c #08A3D2",
"f  c #09ACDE",
"g  c #0CACDE",
"h  c #0FAFDE",
"j  c #15A1CC",
"k  c #11ADDF",
"l  c #18A6D1",
"z  c #19B2DF",
"x  c #16AEE0",
"c  c #1BB0E1",
"v  c #24B2DC",
"b  c #27B5DF",
"n  c #20B0E2",
"m  c #21B1E3",
"M  c #26B2E4",
"N  c #29B2E4",
"B  c #2BB8E2",
"V  c #2CB8E2",
"C  c #34B4E6",
"Z  c #36B5E7",
"A  c #30BAE2",
"S  c #32BAE3",
"D  c #39B5E7",
"F  c #3AB6E7",
"G  c #3BB6E8",
"H  c #3DB7E8",
"J  c #3FB7E9",
"K  c #39BDE4",
"L  c #5A83A3",
"P  c #5B8CAE",
"I  c #768493",
"U  c #6390B1",
"Y  c #5F9EC7",
"T  c #44BDE7",
"R  c #47B8EA",
"E  c #49B9EB",
"W  c #4DB9EB",
"Q  c #4EBAEC",
"!  c #52BAEC",
"~  c #56BBED",
"^  c #5ABCEE",
"/  c #5EB8E9",
"(  c #5CBAEB",
")  c #5CBCEE",
"_  c #5FBDEF",
"`  c #639CC1",
"'  c #67A6CE",
"]  c #63A9D3",
"[  c #72B2D9",
"{  c #62B4E2",
"}  c #62B4E3",
"|  c #63B9E9",
" . c #60BDEF",
".. c #6ABFEF",
"X. c #62BEF0",
"o. c #64BEF0",
"O. c #47C1E6",
"+. c #5DC0ED",
"@. c #5EC9E9",
"#. c #64CBE9",
"$. c #6CCBEC",
"%. c #6EC3F0",
"&. c #6DC2F1",
"*. c #70C1EE",
"=. c #79C3ED",
"-. c #73C4F1",
";. c #74C5F1",
":. c #77C6F2",
">. c #75D0EC",
",. c #807C88",
"<. c #83808A",
"1. c #88848F",
"2. c #8A8791",
"3. c #8E8B95",
"4. c #8F8C96",
"5. c #908D97",
"6. c #928F99",
"7. c #94919A",
"8. c #95939C",
"9. c #8895A5",
"0. c #9A97A0",
"q. c #9D9AA3",
"w. c #9F9DA5",
"e. c #A19EA6",
"r. c #A29FA7",
"t. c #A3A1A9",
"y. c #A4A1A9",
"u. c #A6A4AB",
"i. c #A7A4AC",
"p. c #A7A5AD",
"a. c #A8A5AD",
"s. c #ACAAB1",
"d. c #AEACB3",
"f. c #B4B1B8",
"g. c #BAB8BE",
"h. c #BDBBC0",
"j. c #BDBBC1",
"k. c #BEBCC1",
"l. c #BEBCC2",
"z. c #BFBDC3",
"x. c #83C3E9",
"c. c #82C4EA",
"v. c #84C4EA",
"b. c #86C6EC",
"n. c #87C8ED",
"m. c #81CAF3",
"M. c #86CFF1",
"N. c #8BCBF0",
"B. c #88CDF3",
"V. c #8ECFF3",
"C. c #8DCFF4",
"Z. c #81D5ED",
"A. c #8DD8EF",
"S. c #8ED0F4",
"D. c #93CEF0",
"F. c #91D1F4",
"G. c #95D2F4",
"H. c #97D3F5",
"J. c #97DCF0",
"K. c #99D1F0",
"L. c #98D4F5",
"P. c #9DD6F5",
"I. c #A9D3EB",
"U. c #A5D7F3",
"Y. c #A9DBF6",
"T. c #ABDCF6",
"R. c #ACDCF7",
"E. c #B1DEF7",
"W. c #A8E1F3",
"Q. c #B5E6F4",
"!. c #BBE5F6",
"~. c #BFE4F8",
"^. c #BBE8F5",
"/. c #BCE8F5",
"(. c #C1BFC5",
"). c #C3C1C6",
"_. c #C7C5CA",
"`. c #C8C6CB",
"'. c #C9C7CC",
"]. c #CAC8CD",
"[. c #CBC9CE",
"{. c #CBCACE",
"}. c #CECDD1",
"|. c #CFCED2",
" X c #D0CFD2",
".X c #D1D0D3",
"XX c #D2D1D5",
"oX c #D4D2D6",
"OX c #D4D3D7",
"+X c #D7D6D9",
"@X c #D8D8DB",
"#X c #DAD8DC",
"$X c #DAD8DD",
"%X c #DBDADD",
"&X c #DCDADE",
"*X c #DDDBDF",
"=X c #DDDCDF",
"-X c #CAD6E1",
";X c #DFDDE1",
":X c #C6E7F9",
">X c #C4EBF6",
",X c #CDE9F9",
"<X c #CCEAFA",
"1X c #CEEEF8",
"2X c #D1EFF8",
"3X c #D9EDF9",
"4X c #D5F0F9",
"5X c #DCF0FC",
"6X c #E0DEE1",
"7X c #E1DFE2",
"8X c #E1E1E3",
"9X c #E3E1E5",
"0X c #E3E2E5",
"qX c #E4E2E5",
"wX c #E5E4E7",
"eX c #E8E7E9",
"rX c #E8E8E9",
"tX c #E9E8EA",
"yX c #EAEAEB",
"uX c #EBEAEC",
"iX c #ECEBED",
"pX c #EDECEE",
"aX c #EFEEF0",
"sX c #E0F4FA",
"dX c #E6F4FC",
"fX c #EAF7FB",
"gX c #E9F5FC",
"hX c #EAF6FD",
"jX c #EEF7FD",
"kX c #EEF8FD",
"lX c #F0EFF1",
"zX c #F0F0F1",
"xX c #F2F1F2",
"cX c #F2F2F3",
"vX c #F3F3F4",
"bX c #F4F3F4",
"nX c #F5F4F5",
"mX c #F4F4F6",
"MX c #F6F6F6",
"NX c gray97",
"BX c #F2F9FD",
"VX c #F2FAFC",
"CX c #F5FAFD",
"ZX c #F8F8F9",
"AX c #F9F9FA",
"SX c gray98",
"DX c #FBFBFB",
"FX c #FBFBFC",
"GX c #F9FCFD",
"HX c gray99",
"JX c #FCFCFD",
"KX c #FCFDFE",
"LX c #FDFEFE",
"PX c #FEFEFF",
"IX c black",
"UX c black",
/* pixels */
"PXPXPXPXPXPXPXPXPXPXPXLXLXLXLXLXLXLXLXLXLXLXLXLXLXLXLXLXLXLXLXLXLXLXJXFXLXLXLXLXLXLXLXLXLXLXLXLXLXLXLXLXLXPXPXPXPXPXPXPXPXPXPXPX",
"PXPXPXPXPXPXPXPXPXPXPXLXLXLXLXLXLXLXLXLXLXLXLXLXLXLXLXLXLXLXLXLXLXLXwX&XqXLXLXLXLXLXLXLXLXLXLXLXLXLXLXLXLXPXPXPXPXPXPXPXPXPXPXPX",
"PXPXPXPXPXPXPXPXPXPXPXLXLXLXLXLXLXLXLXLXLXLXLXLXLXLXLXLXLXLXLXLXLXLX9X&X&XAXLXLXLXLXLXLXLXLXLXLXLXLXLXLXLXPXPXPXPXPXPXPXPXPXPXPX",
"PXPXPXPXPXPXPXPXPXPXPXLXLXLXLXLXLXLXLXLXLXLXLXLXLXLXLXLXLXLXLXLXLXLXuX7XoXrXLXLXLXLXLXLXLXLXLXLXLXLXLXLXLXPXPXPXPXPXPXPXPXPXPXPX",
"PXPXPXPXPXPXPXPXPXPXPXLXLXLXLXLXLXLXLXLXLXLXLXLXLXLXLXLXLXLXLXLXLXLXLXLX@X XJXLXLXLXLXLXLXLXLXLXLXLXLXLXLXPXPXPXPXPXPXPXPXPXPXPX",
"PXPXPXPXPXPXPXPXPXPXPXLXLXLXLXLXLXLXLXLXLXLXLXLXLXLXLXLXLXLXLXLXLXLXz.8.4.9.D.H.U.eXDXLXLXLXLXLXLXLXLXLXLXPXPXPXPXPXPXPXPXPXPXPX",
"PXPXPXPXPXPXPXPXPXPXPXLXLXLXLXLXLXLXLXLXLXLXLXLXLXLXLXLXLXLXLXLXLXLXd.,.9 > U o.=.&XbXLXLXLXLXLXLXLXLXLXLXPXPXPXPXPXPXPXPXPXPXPX",
"PXPXPXPXPXPXPXPXPXPXPXLXLXLXLXLXLXLXLXLXLXLXLXLXLXLXLXLXLXLXLXLXLXLXLXLX:X` ] o.=.&XnXLXLXLXLXLXLXLXLXLXLXPXPXPXPXPXPXPXPXPXPXPX",
"PXPXPXPXPXPXPXPXPXPXPXLXLXLXLXLXLXLXLXLXLXLXLXLXLXLXLXLXLXLXLXLXLXLXLXLXLX$.c T 3XmXLXLXLXLXLXLXLXLXLXLXLXPXPXPXPXPXPXPXPXPXPXPX",
"PXPXPXPXPXPXPXPXPXPXPXLXLXLXLXLXLXLXLXLXLXLXLXLXLXLXLXLXLXLXLXLXLXLXLXLXLXJ.p f C.dXLXLXLXLXLXLXLXLXLXLXLXPXPXPXPXPXPXPXPXPXPXPX",
"PXPXPXPXPXPXPXPXPXPXPXLXLXLXLXLXLXLXLXLXLXLXLXLXLXLXLXLXLXLXLXLXLXLXLXLXLX2Xp m o.B.LXLXLXLXLXLXLXLXLXLXLXPXPXPXPXPXPXPXPXPXPXPX",
"PXPXPXPXPXPXPXPXPXPXPXLXLXLXLXLXLXLXLXLXLXLXLXLXLXLXLXLXLXLXLXLXLXLXLXLXLXKXh g o.o.~.LXLXLXLXLXLXLXLXLXLXPXPXPXPXPXPXPXPXPXPXPX",
"PXPXPXPXPXPXPXPXPXPXPXLXLXLXLXLXLXLXLXLXzX|.%XMXLXLXLXLXLXLXLXLXLXLXLXLXLXLXO.p ! o.&.jXLXLXLXLXLXLXLXLXLXPXPXPXPXPXPXPXPXPXPXPX",
"PXPXPXPXPXPXPXPXPXPXPXLXLXLXLXLXGXsX>XW.I > > < r 0.t.y.y.y.p.}.LXLXLXLXLXLXZ.p C o.o.G.LXLXLXLXLXLXLXLXLXPXPXPXPXPXPXPXPXPXPXPX",
"PXPXPXPXPXPXPXPXPXPXPXLXLXLXLX#.p p p p u - > > > > > > > > > > i.LXLXLXLXLX^.p x o.o.o.,XLXLXLXLXLXLXLXLXPXPXPXPXPXPXPXPXPXPXPX",
"PXPXPXPXPXPXPXPXPXPXPXLXLXLXLXV p p p p p d 8 > > > > > > > > > , uXLXLXLXLXVXa p _ o.o.;.CXLXLXLXLXLXLXLXPXPXPXPXPXPXPXPXPXPXPX",
"PXPXPXPXPXPXPXPXPXPXPXLXLXLXLX4Xz p p p p p p y 7 = > > > > > > > %XLXLXLXLXLXB p Q o.o.o.E.LXLXLXLXLXLXLXPXPXPXPXPXPXPXPXPXPXPX",
"PXPXPXPXPXPXPXPXPXPXPXLXLXLXdXY.%.^ ^ ^ ^ ^ ^ ^ ^ ( } { { { { { I.LXLXLXLXLXLXK p E o.o.o.+.Z.1XLXLXLXLXLXPXPXPXPXPXPXPXPXPXPXPX",
"PXPXPXPXPXPXPXPXPXPXPXLXBXP.o.o.o.o.o.o.o.o.o.o.~ G F F F F F F !.LXLXLXLXLXLXz p Q o.o.o.m p p S Q.LXLXLXPXPXPXPXPXPXPXPXPXPXPX",
"PXPXPXPXPXPXPXPXPXPXPXgX:.o.o.o.o.o.o.o.o.o.o.X.f p p p p p p p 2XLXLXLXLXLXfXp p ) o.o.~ p p p p p >.LXLXPXPXPXPXPXPXPXPXPXPXPX",
"PXPXPXPXPXPXPXPXPXPXPXm.o.o.o.o.o.o.o.o.o.o.o. .a p p p p p p s GXLXLXLXLXLX/.p g o.o.o.N p p p p p b LXLXPXPXPXPXPXPXPXPXPXPXPX",
"PXPXPXPXPXPXPXPXPXPX5Xo.o.o.o.o.o.o.o.o.o.o.o.o.J p p p p p p A LXLXLXLXLXLXA.p n o.o./ j v l i i i 6 y.LXPXPXPXPXPXPXPXPXPXPXPX",
"PXPXPXPXPXPXPXPXPXPX<Xo.o.o.o.o.o.o.o.o.o.o.o.o.o.M p p p p p @.LXLXLXLXLXLX@.p C o.o.L O _.].[.(.e     g.PXPXPXPXPXPXPXPXPXPXPX",
"PXPXPXPXPXPXPXPXPXPXhXF.[ Y ' S.V.N.n.b.v.x.c...o. .k p p p p A.LXLXLXLXLXLXS p W o.| @ . ].&XtXmXJX5.  : HXPXPXPXPXPXPXPXPXPXPX",
"PXPXPXPXPXPXPXPXPXPXPXLXw   w.LXlXpXiX;X&X&X&X-X*.o.^ D Z Z Z M.T.T.T.T.T.T.H R o.o.P   <.LX*X#Xh.yXaXX   @XPXPXPXPXPXPXPXPXPXPX",
"PXPXPXPXPXPXPXPXPXPXPXLX3   k.DXpXpXpXqX&X&X&X&X-X*.o.o.o.o.o.o.o.o.o.o.o.o.o.o.o.-.t   r.LXj.$X'.XXLX>   _.PXPXPXPXPXPXPXPXPXPX",
"PXPXPXPXPXPXPXPXPXPXPXLX0   u.JXaXpXpX6X&X&X&X&X&X-XK.H.H.H.H.H.H.H.H.H.H.H.H.L.R.kX7.  2.LX{.j.g.wXnX+   OXPXPXPXPXPXPXPXPXPXPX",
"PXPXPXPXPXPXPXPXPXPXPXLXi.  * pXJXNXvXaX0.1.y.zXzXbXLXLXLXLXLXLXLXLXLXLXLXLXLXLXLXLX).  + =XFXwXpXLXe.  $ ZXPXPXPXPXPXPXPXPXPXPX",
"PXPXPXPXPXPXPXPXPXPXPXLXzX&   2 z.0X.X,.    `.LXLXLXLXLXLXLXLXLXLXLXLXLXLXLXLXLXLXLXDX4   % f.8X+X6.    s.PXPXPXPXPXPXPXPXPXPXPX",
"PXPXPXPXPXPXPXPXPXPXPXLXLXOX#             a.LXLXLXLXLXLXLXLXLXLXLXLXLXLXLXLXLXLXLXLXLXwX1             3.HXPXPXPXPXPXPXPXPXPXPXPX",
"PXPXPXPXPXPXPXPXPXPXPXLXLXLXeX5.#   o q }.LXLXLXLXLXLXLXLXLXLXLXLXLXLXLXLXLXLXLXLXLXLXLXxXq.;   . 5 l.LXLXPXPXPXPXPXPXPXPXPXPXPX",
"PXPXPXPXPXPXPXPXPXPXPXLXLXLXLXLXJXcXSXLXLXLXLXLXLXLXLXLXLXLXLXLXLXLXLXLXLXLXLXLXLXLXLXLXLXLXLXbXZXLXLXLXLXPXPXPXPXPXPXPXPXPXPXPX"
};
