/* XPM */
static const char *vclass_pedestrian_xpm[] = {
/* columns rows colors chars-per-pixel */
"14 26 256 2 ",
"   c #010002",
".  c #020103",
"X  c #030204",
"o  c #040305",
"O  c #050406",
"+  c #060507",
"@  c #070608",
"#  c #09080A",
"$  c #0A090B",
"%  c #0B0A0C",
"&  c #100F11",
"*  c #121113",
"=  c #131214",
"-  c #151416",
";  c #1A191B",
":  c #1B1A1C",
">  c #212022",
",  c #242325",
"<  c #252425",
"1  c #282729",
"2  c #2B2A2B",
"3  c #2F2E30",
"4  c #302F31",
"5  c #343334",
"6  c #3C3C3D",
"7  c #3D3C3E",
"8  c #403F41",
"9  c #414142",
"0  c #424143",
"q  c #434243",
"w  c #4A494B",
"e  c #4B4A4C",
"r  c #4C4C4D",
"t  c #4E4D4F",
"y  c #515052",
"u  c #5A595A",
"i  c #5C5C5D",
"p  c #5F5F60",
"a  c #626263",
"s  c #656465",
"d  c #656466",
"f  c #666667",
"g  c #696869",
"h  c #69696A",
"j  c #6A6A6B",
"k  c #6B6B6C",
"l  c #707071",
"z  c #727172",
"x  c #747475",
"c  c #757576",
"v  c #777778",
"b  c #787879",
"n  c #8A8A8B",
"m  c #8D8D8D",
"M  c #8D8D8E",
"N  c #8E8E8F",
"B  c gray57",
"V  c #939393",
"C  c #939394",
"Z  c #959495",
"A  c #99999A",
"S  c #9E9D9E",
"D  c gray62",
"F  c #9F9E9F",
"G  c #A0A0A0",
"H  c #A2A1A2",
"J  c #A2A2A2",
"K  c #A5A5A5",
"L  c #AAA9AA",
"P  c #AAAAAA",
"I  c #ADACAD",
"U  c #ADADAE",
"Y  c #AEAEAE",
"T  c #AEAEAF",
"R  c #B0B0B1",
"E  c #B2B2B3",
"W  c #B4B3B4",
"Q  c #B6B6B6",
"!  c #B8B8B9",
"~  c #BCBBBC",
"^  c #BCBCBC",
"/  c #BEBEBF",
"(  c gray76",
")  c gray79",
"_  c gray80",
"`  c #D5D5D5",
"'  c #D5D5D6",
"]  c gray84",
"[  c #D7D7D7",
"{  c #DDDDDD",
"}  c #DFDFDF",
"|  c #E9E9E9",
" . c #EFEFEF",
".. c gray94",
"X. c #F3F3F3",
"o. c #F4F4F4",
"O. c #F4F4F5",
"+. c #F6F6F6",
"@. c gray98",
"#. c gray99",
"$. c #FDFDFD",
"%. c gray100",
"&. c black",
"*. c black",
"=. c black",
"-. c black",
";. c black",
":. c black",
">. c black",
",. c black",
"<. c black",
"1. c black",
"2. c black",
"3. c black",
"4. c black",
"5. c black",
"6. c black",
"7. c black",
"8. c black",
"9. c black",
"0. c black",
"q. c black",
"w. c black",
"e. c black",
"r. c black",
"t. c black",
"y. c black",
"u. c black",
"i. c black",
"p. c black",
"a. c black",
"s. c black",
"d. c black",
"f. c black",
"g. c black",
"h. c black",
"j. c black",
"k. c black",
"l. c black",
"z. c black",
"x. c black",
"c. c black",
"v. c black",
"b. c black",
"n. c black",
"m. c black",
"M. c black",
"N. c black",
"B. c black",
"V. c black",
"C. c black",
"Z. c black",
"A. c black",
"S. c black",
"D. c black",
"F. c black",
"G. c black",
"H. c black",
"J. c black",
"K. c black",
"L. c black",
"P. c black",
"I. c black",
"U. c black",
"Y. c black",
"T. c black",
"R. c black",
"E. c black",
"W. c black",
"Q. c black",
"!. c black",
"~. c black",
"^. c black",
"/. c black",
"(. c black",
"). c black",
"_. c black",
"`. c black",
"'. c black",
"]. c black",
"[. c black",
"{. c black",
"}. c black",
"|. c black",
" X c black",
".X c black",
"XX c black",
"oX c black",
"OX c black",
"+X c black",
"@X c black",
"#X c black",
"$X c black",
"%X c black",
"&X c black",
"*X c black",
"=X c black",
"-X c black",
";X c black",
":X c black",
">X c black",
",X c black",
"<X c black",
"1X c black",
"2X c black",
"3X c black",
"4X c black",
"5X c black",
"6X c black",
"7X c black",
"8X c black",
"9X c black",
"0X c black",
"qX c black",
"wX c black",
"eX c black",
"rX c black",
"tX c black",
"yX c black",
"uX c black",
"iX c black",
"pX c black",
"aX c black",
"sX c black",
"dX c black",
"fX c black",
"gX c black",
"hX c black",
"jX c black",
"kX c black",
"lX c black",
"zX c black",
"xX c black",
"cX c black",
"vX c black",
"bX c black",
"nX c black",
"mX c black",
"MX c black",
"NX c black",
"BX c black",
"VX c black",
"CX c black",
"ZX c black",
"AX c black",
"SX c black",
"DX c black",
"FX c black",
"GX c black",
"HX c black",
"JX c black",
"KX c black",
"LX c black",
"PX c black",
"IX c black",
"UX c black",
/* pixels */
"%.%.%.%.O.h 6 J %.%.%.%.%.%.",
"%.%.%.%.b     X ` %.%.%.%.%.",
"%.%.%.%.y       W %.%.%.%.%.",
"%.%.%.%.W O   1 o.%.%.%.%.%.",
"%.%.%.%.%.( B X.%.%.%.%.%.%.",
"%.%.%.%.S @   s %.%.%.%.%.%.",
"%.%.%.F X       P %.%.%.%.%.",
"%.%.H X         ; ..%.%.%.%.",
"%.K o             j %.%.%.%.",
"{ o   i       = : X I %.%.%.",
"E   f I       5 U .   q _ %.",
"Z   C N       t %.^ 4   . n ",
"v   T l       g %.%.$.D < m ",
"u   ) y       r %.%.%.%.%.%.",
"A 0 +.5       % +.%.%.%.%.%.",
"%.%.%.-         Q %.%.%.%.%.",
"%.%.O.    X     k %.%.%.%.%.",
"%.%.[     7 $   > %.%.%.%.%.",
"%.%.!     a e     ` %.%.%.%.",
"%.%.b     M Z     n %.%.%.%.",
"%.o.*   # | }     8 %.%.%.%.",
"%.V     d %.%.2   +  .%.%.%.",
"#.,   . ' %.%.x     L %.%.%.",
"Y     w %.%.%./     p %.%.%.",
"c     ~ %.%.%.@.&   3 %.%.%.",
"] 9 z %.%.%.%.%.G 6 R %.%.%."
};
