/* XPM */
static const char *vclass_rail_urban_xpm[] = {
/* columns rows colors chars-per-pixel */
"64 22 256 2 ",
"   c #504B5A",
".  c #5D5867",
"X  c #5E5968",
"o  c #615C6A",
"O  c #625D6B",
"+  c #65606D",
"@  c #65616E",
"#  c #62697C",
"$  c #626A7D",
"%  c #626B7E",
"&  c #626C7F",
"*  c #686370",
"=  c #696472",
"-  c #6C6774",
";  c #627085",
":  c #62768E",
">  c #627C96",
",  c #627D97",
"<  c #797480",
"1  c #7A7682",
"2  c #62819C",
"3  c #62839F",
"4  c #6283A0",
"5  c #6286A4",
"6  c #638CAB",
"7  c #6392B3",
"8  c #6397BB",
"9  c #6398BC",
"0  c #6398BD",
"q  c #6399BE",
"w  c #63A4CC",
"e  c #63A4CD",
"r  c #63A5CE",
"t  c #63A8D1",
"y  c #63AAD5",
"u  c #63ABD6",
"i  c #64ADD9",
"p  c #64B1DE",
"a  c #64B2E0",
"s  c #64B7E6",
"d  c #64B9E9",
"f  c #64BBEC",
"g  c #64BDEE",
"h  c #64BEF0",
"j  c #69C0F0",
"k  c #6DC1F0",
"l  c #76C4F0",
"z  c #7AC6F0",
"x  c #7CC6F0",
"c  c #817D89",
"v  c #827E8A",
"b  c #85828D",
"n  c #918E97",
"m  c #94909A",
"M  c #98959E",
"N  c #99969F",
"B  c #9F9CA5",
"V  c #AEABB3",
"C  c #B0ADB4",
"Z  c #B3B1B8",
"A  c #84C9F0",
"S  c #97CFEF",
"D  c #A2D3EF",
"F  c #ADD7EF",
"G  c #B0D8EF",
"H  c #C0BEC4",
"J  c #C2C0C5",
"K  c #C3C1C6",
"L  c #C9C7CC",
"P  c #CAC8CD",
"I  c #CBCACE",
"U  c #CCCACF",
"Y  c #CFCDD2",
"T  c #D0CFD3",
"R  c #D2D1D5",
"E  c #D6D5D8",
"W  c #DCDBDE",
"Q  c #DDDCDE",
"!  c #DFDFE1",
"~  c #C9E0EE",
"^  c #D3E4EE",
"/  c #D8E5EE",
"(  c #E0DFE2",
")  c #E0E0E2",
"_  c #E1E0E3",
"`  c #E2E1E4",
"'  c #E2E2E4",
"]  c #E2E2E5",
"[  c #E3E3E6",
"{  c #E4E3E6",
"}  c #E4E4E6",
"|  c #E4E4E7",
" . c #E6E5E8",
".. c #E6E6E8",
"X. c #E8E7EA",
"o. c #E8E8EA",
"O. c #E9E9EB",
"+. c #EAEAEC",
"@. c #EBEBED",
"#. c #EBECEE",
"$. c #ECECEE",
"%. c #EFEEF0",
"&. c #EFEFF1",
"*. c #F0EFF0",
"=. c #F0F0F1",
"-. c #F2F2F3",
";. c #F2F2F4",
":. c #F7F7F8",
">. c #F8F8F9",
",. c #F9F9FA",
"<. c #FAFAFB",
"1. c gray99",
"2. c #FCFCFD",
"3. c #FEFEFE",
"4. c black",
"5. c black",
"6. c black",
"7. c black",
"8. c black",
"9. c black",
"0. c black",
"q. c black",
"w. c black",
"e. c black",
"r. c black",
"t. c black",
"y. c black",
"u. c black",
"i. c black",
"p. c black",
"a. c black",
"s. c black",
"d. c black",
"f. c black",
"g. c black",
"h. c black",
"j. c black",
"k. c black",
"l. c black",
"z. c black",
"x. c black",
"c. c black",
"v. c black",
"b. c black",
"n. c black",
"m. c black",
"M. c black",
"N. c black",
"B. c black",
"V. c black",
"C. c black",
"Z. c black",
"A. c black",
"S. c black",
"D. c black",
"F. c black",
"G. c black",
"H. c black",
"J. c black",
"K. c black",
"L. c black",
"P. c black",
"I. c black",
"U. c black",
"Y. c black",
"T. c black",
"R. c black",
"E. c black",
"W. c black",
"Q. c black",
"!. c black",
"~. c black",
"^. c black",
"/. c black",
"(. c black",
"). c black",
"_. c black",
"`. c black",
"'. c black",
"]. c black",
"[. c black",
"{. c black",
"}. c black",
"|. c black",
" X c black",
".X c black",
"XX c black",
"oX c black",
"OX c black",
"+X c black",
"@X c black",
"#X c black",
"$X c black",
"%X c black",
"&X c black",
"*X c black",
"=X c black",
"-X c black",
";X c black",
":X c black",
">X c black",
",X c black",
"<X c black",
"1X c black",
"2X c black",
"3X c black",
"4X c black",
"5X c black",
"6X c black",
"7X c black",
"8X c black",
"9X c black",
"0X c black",
"qX c black",
"wX c black",
"eX c black",
"rX c black",
"tX c black",
"yX c black",
"uX c black",
"iX c black",
"pX c black",
"aX c black",
"sX c black",
"dX c black",
"fX c black",
"gX c black",
"hX c black",
"jX c black",
"kX c black",
"lX c black",
"zX c black",
"xX c black",
"cX c black",
"vX c black",
"bX c black",
"nX c black",
"mX c black",
"MX c black",
"NX c black",
"BX c black",
"VX c black",
"CX c black",
"ZX c black",
"AX c black",
"SX c black",
"DX c black",
"FX c black",
"GX c black",
"HX c black",
"JX c black",
"KX c black",
"LX c black",
"PX c black",
"IX c black",
"UX c black",
/* pixels */
"2.1.1.1.1.1.1.1.1.1.1.1.1.1.1.1.1.1.1.1.1.1.1.1.1.1.1.1.1.1.1.1.1.1.1.1.1.1.1.1.1.1.1.1.1.2.3.3.3.3.3.3.3.3.3.3.3.3.3.3.3.3.3.3.",
"&.$.$.$.$.$.$.$.$.$.$.$.$.$.$.$.$.$.$.$.$.$.$.$.$.$.$.$.$.$.$.$.$.$.$.$.$.$.$.$.$.$.$.$.$.$.$.%.;.:.2.3.3.3.3.3.3.3.3.3.3.3.3.3.",
"$.$.$.$.$.$.$.$.$.$.$.$.$.$.$.$.$.$.$.$.$.$.$.$.$.$.$.$.$.$.$.$.$.$.$.$.$.$.$.$.$.$.$.$.$.$.$.$.$.$.$.-.,.3.3.3.3.3.3.3.3.3.3.3.",
"$.$.$.$.$.$.$.$.$.$.$.$.$.$.$.$.$.$.$.$.$.$.$.$.$.$.$.$.$.$.$.$.$.$.$.$.$.$.$.$.$.$.$.$.$.$.$.$.C o o o o c E 3.3.3.3.3.3.3.3.3.",
"$.$.D k k k k k k k k k k k k k k k k k k k k k k k k k k k k k k k k k k k k k k k k k k z G #.[ M O o o o o m +.3.3.3.3.3.3.3.",
"$.$.l h 5 # # # # # 6 h a % # # # # % a h 6 # # # # # 5 h s & # # # # $ i h 7 # # # # # 2 h h A / $.U < o o o o = K 3.3.3.3.3.3.",
"$.$.l h : o o o o o > h y o o o o o o y h > o o o o o : h p o o o o o o w h 3 o o o o o ; h h h j G #.O.V = o o o o M >.3.3.3.3.",
"$.$.l h : o o o o o > h y o o o o o o y h > o o o o o : h p o o o o o o w h 3 o o o o o ; h h h h h A / $.( B * o o o v *.3.3.3.",
"$.$.l h : o o o o o , h u o o o o o o u h , o o o o o : h p o o o o o o e h 4 o o o o o ; h h h h h h j G #.$.{ Z b @ o 1 =.3.3.",
"$.$.x h t 8 8 8 8 8 y h f 0 8 8 8 8 0 f h y 8 8 8 8 8 t h g q 8 8 8 8 9 d h i 8 8 8 8 8 r h h h h h h h h S $.$.$.$.o.R H T 2.3.",
"$.$.^ F F F F F F F F F F F F F F F F F F F F F F F F F F F F F F F F F F F F F F F F F F F F F F F F F F ~ $.$.$.$.$.$.$.$.-.3.",
"$.$.$.$.$.$.$.$.$.$.$.$.$.$.$.$.$.$.$.$.$.$.$.$.$.$.$.$.$.$.$.$.$.$.$.$.$.$.$.$.$.$.$.$.$.$.$.$.$.$.$.$.$.$.$.$.$.$.$.$.$.$.$.>.",
"$.$.+. . . . . . . . . . . . . . . . . . . . . . . . . . . . . . . . . . . . . . . . . . . . . . . . . . . . . . ...@.$.$.X. .+.",
"$.$.! W W W W W W W W W W W W W W W W W W W W W W W W W W W W W W W W W W W W W W W W W W W W W W W W W W W W W W W ' $.+.W W Q ",
"$.$. .) ) ) ) ) ) ) ) ) ) ) ) ) ) ) ) ) ) ) ) ) ) ) ) ) ) ) ) ) ) ) ) ) ) ) ) ) ) ) ) ) ) ) ) ) ) ) ) ) ) ) ) ) ) _ o.$.$.' ) ) ",
"$.$.$.$.$.$.$.$.$.$.$.$.$.$.$.$.$.$.$.$.$.$.$.$.$.$.$.$.$.$.$.$.$.$.$.$.$.$.$.$.$.$.$.$.$.$.$.$.$.$.$.$.$.$.$.$.$.$.$.$.$.$.$.$.",
"$.$.$.$.$.$.$.$.$.$.$.$.$.$.$.$.$.$.$.$.$.$.$.$.$.$.$.$.$.$.$.$.$.$.$.$.$.$.$.$.$.$.$.$.$.$.$.$.$.$.$.$.$.$.$.$.$.$.$.$.$.$.$.%.",
"@.@.@.@.@.@.@.@.@.@.@.| ] ] ] ` ` ` ] ] ] } @.@.@.@.@.@.@.@.@.@.@.@.@.@.@.@.@.@.@.@.} ] ] ] ` ` ` ] ] ] | @.@.@.@.@.@.@.@.@.&.<.",
"W W W W W W W W W W Y + o o X       . o o O L W W W W W W W W W W W W W W W W W W L O o o .       X o o + Y W W W W W W W W %.3.",
"] W W W W W W W W W P o o o X       . o o o J W W W W W W W W W W W W W W W W W W J o o o .       X o o o P W W W W W W W W _ 3.",
"3.1.1.1.1.1.1.1.1.1.2.N o = I -.-.-.R - o n <.1.1.1.1.1.1.1.1.1.1.1.1.1.1.1.1.1.1.<.n o - R -.-.-.I = o N 2.1.1.1.1.1.1.1.1.2.3.",
"3.3.3.3.3.3.3.3.3.3.3.3.=.>.3.3.3.3.3.,.%.3.3.3.3.3.3.3.3.3.3.3.3.3.3.3.3.3.3.3.3.3.3.%.,.3.3.3.3.3.>.=.3.3.3.3.3.3.3.3.3.3.3.3."
};
