/* XPM */
static const char * view1_xpm[] = {
"15 16 4 1",
" 	c None",
".	c Black",
"X	c #13dfd8",
"o	c Gray100",
"   .........   ",
"  .XXXXXXXXX.  ",
" .XXXX....XXX. ",
".XXXX..oo.XXXX.",
".XXX..ooo.XXXX.",
".XXX.oooo.XXXX.",
".XXX.o.oo.XXXX.",
".XXX...oo.XXXX.",
".XXXXX.oo.XXXX.",
".XXXXX.oo.XXXX.",
".XXXXX.oo.XXXX.",
".XXXXX.oo.XXXX.",
".XXXXX.oo.XXXX.",
" .XXXX....XXX. ",
"  .XXXXXXXXX.  ",
"   .........   "};
