/* XPM */
static const char *windows_cascade_xpm[] = {
"16 16 6 1",
" 	c None",
".	c Gray30",
"X	c Gray100",
"o	c #5d60f2",
"O	c Black",
"+	c Gray51",
" ........       ",
" .XoooooO       ",
" .OOOOOOO       ",
" .++XX+XO       ",
" .X+........    ",
" .+X.XoooooO    ",
" .OO.OOOOOOO    ",
"    .++XX+XO    ",
"    .X+........ ",
"    .+X.XoooooO ",
"    .OO.OOOOOOO ",
"       .++XX+XO ",
"       .X+X+++O ",
"       .+X+XXXO ",
"       .OOOOOOO ",
"                "};
