/* XPM */
static const char *windows_tile_horizontally_xpm[] = {
"16 16 5 1",
" 	c Gray30",
".	c Gray100",
"X	c #5d60f2",
"o	c Black",
"O	c Gray51",
"                ",
" .XXXXXXXXXXXXXo",
" ooooooooooooooo",
" OO..O.OOO.OOO.o",
" .OOO.OO..OO...o",
" O.OOO..OOOOO.Oo",
" .OO..OOO...OO.o",
" ooooooooooooooo",
"                ",
" .XXXXXXXXXXXXXo",
" ooooooooooooooo",
" OO..O.OOO.OOO.o",
" .OOO.OO..OO...o",
" O.OOO..OOOOO.Oo",
" .OO..OOO...OO.o",
" ooooooooooooooo"};
