/* XPM */
static const char *windows_tile_vertically_xpm[] = {
"16 16 5 1",
" 	c Gray30",
".	c Gray100",
"X	c #5d60f2",
"o	c Black",
"O	c Gray51",
"                ",
" .XXXXXo .XXXXXo",
" ooooooo ooooooo",
" OO..O.o OO..O.o",
" ......o ......o",
" O.OOO.o O.OOO.o",
" ......o ......o",
" .OO.OOo .OO.OOo",
" ......o ......o",
" OO.O..o OO.O..o",
" ......o ......o",
" .OO.OOo .OO.OOo",
" ......o ......o",
" OO.OO.o OO.OO.o",
" ......o ......o",
" ooooooo ooooooo"};
