/* XPM */
static const char * yes_xpm[] = {
"16 16 7 1",
" 	c None",
".	c #efffe7",
"X	c #8cff7b",
"o	c #ceffb5",
"O	c #42ef31",
"+	c #00b500",
"@	c #18de08",
"                ",
"                ",
"            .XX ",
"           oO+@.",
"          o+++X ",
"         o@++X  ",
"        .@++@.  ",
"  XOOo  O++@o   ",
"  X++@oo@+Oo    ",
"   X++@@+@.     ",
"    o@+++X      ",
"     O++@.      ",
"     o++@.      ",
"     .@+O       ",
"      X@X       ",
"       .        "};
