/* XPM */
static const char * zoomstyle_xpm[] = {
"16 16 7 1",
" 	c None",
".	c #4355E3",
"+	c #6BCFE7",
"@	c #FFFFFF",
"#	c #9B9B9B",
"$	c #000000",
"%	c #CBCBCB",
"   .......++    ",
"   ...   ..+    ",
"  .+.  @@#..+   ",
"  .+   $%@ .+   ",
"  .+ % $$@ .+   ",
"  .+ @ $$$ .+   ",
"  .++ @%$$..+   ",
"  ++++ $$...    ",
" ++.++++++..$   ",
"++........$$$$  ",
"+..    $$$$$$$$ ",
"..     $$$$$$$$$",
".      $$$$$$   ",
"       $$$$$$$  ",
"       $$ $$$$  ",
"       $   $$$$ "};
